<?xml version="1.0" encoding="utf-8"?>
<!-- Generator: Adobe Illustrator 25.4.1, SVG Export Plug-In . SVG Version: 6.00 Build 0)  -->
<svg version="1.1" id="Layer_1" xmlns="http://www.w3.org/2000/svg" xmlns:xlink="http://www.w3.org/1999/xlink" x="0px" y="0px"
	 viewBox="0 0 76 40" style="enable-background:new 0 0 76 40;" xml:space="preserve">
<style type="text/css">
	.st0{fill:#1A1A1A;}
</style>
<desc>Created with Sketch.</desc>
<g id="Page-1">
	<g id="Receipt" transform="translate(-30.000000, -40.000000)">
		<path id="Mouse-Potato-Logo" class="st0" d="M40.3,50.2v-2.6v-5.1h-2.6v5.1h-2.5v-5.1h-2.6v5.1v2.6h-2.5v-2.6V40h12.8v7.7v2.6
			H40.3z M48.6,47.7h5.1v-5.1h-5.1V47.7z M56.2,40v7.7v2.6H46v-2.6V40H56.2z M59.4,50.2v-2.6V40H62v7.7h5.1V40h2.6v7.7v2.6H59.4z
			 M77.9,45.1h-5.1V40H83v2.5h-5.1V45.1z M72.8,47.7h5.1v-2.5H83v2.5v2.6H72.8V47.7z M85.9,50.2v-2.6V40h10.2v2.5h-7.7v1.3h5.1v2.6
			h-5.1v1.3h7.7v2.6H85.9z M30.1,65.1v-2.6v-7.7h10.2v7.7h-7.7v2.6H30.1z M37.8,60v-2.6h-5.1V60H37.8z M46.2,62.5h5.1v-5.1h-5.1
			V62.5z M53.9,54.9v7.7v2.6H43.6v-2.6v-7.7H53.9z M60.5,65.1v-2.6v-5.1h-3.8v-2.5h10.2v2.5h-3.8v5.1v2.6H60.5z M77.3,62.5h-7.7
			v-7.7h10.2v7.7v2.6h-2.6V62.5z M77.3,60v-2.6h-5.1V60H77.3z M72.2,65.1h-2.6v-2.6h2.6V65.1z M86.4,65.1v-2.6v-5.1h-3.8v-2.5h10.2
			v2.5H89v5.1v2.6H86.4z M98.3,62.5h5.1v-5.1h-5.1V62.5z M106,54.9v7.7v2.6H95.8v-2.6v-7.7H106z M30,80v-2.6v-7.7h2.6v7.7h5.1V80H30
			z M48.3,77.4h-7.7v-7.7h10.2v7.7V80h-2.6V77.4z M48.3,74.9v-2.6h-5.1v2.6H48.3z M43.2,80h-2.6v-2.6h2.6V80z M56,77.4h5.1v-1.3H56
			V77.4z M61.1,72.3H56v1.3h5.1V72.3z M61.1,72.3h2.6v5.1V80H53.5v-2.6v-7.7h7.7V72.3z M68.9,80h-2.5v-2.6h2.5V80z"/>
	</g>
</g>
</svg>
