<svg width="77" height="20" viewBox="0 0 77 20" fill="none" xmlns="http://www.w3.org/2000/svg">
<g clip-path="url(#clip0_547_5511)">
<path d="M24.6738 0.540039H30.7123V19.2979H24.6738V0.540039Z" fill="#777777"/>
<path d="M39.7173 0.540039L43.7606 5.76751L47.8584 0.540039H54.3808L47.1036 9.75796L54.7574 19.2996H48.1276L43.8151 13.8012L39.5026 19.2996H32.8184L40.4738 9.75796L33.1949 0.540039H39.7173Z" fill="#777777"/>
<path d="M63.2751 19.298H57.2383V0.540126H63.2751V2.96473C64.5683 1.02573 66.5107 0 68.5588 0C69.6901 0 70.6614 0.378259 71.5763 0.916681L70.0139 5.82212C69.2591 5.50009 68.3969 5.33822 67.6421 5.33822C65.3231 5.33822 63.2751 6.63145 63.2751 10.9439V19.2997V19.298Z" fill="#777777"/>
<path d="M75.5058 16.4423C75.5058 18.4375 73.8888 20 71.8936 20C69.8984 20 68.3359 18.4375 68.3359 16.4423C68.3359 14.447 69.8984 12.8301 71.8936 12.8301C73.8888 12.8301 75.5058 14.447 75.5058 16.4423Z" fill="#777777"/>
<path d="M20.5738 0.540039V19.3337H15.4844V17.226C14.3581 18.6794 12.4668 19.2621 10.7578 19.2621C5.59683 19.2979 1.37976 15.1166 1.34398 9.95561C1.3082 4.79289 5.48778 0.57582 10.6505 0.540039C12.431 0.540039 14.3581 1.19432 15.4861 2.61194V0.540039H20.5755H20.5738ZM15.3021 9.88235C15.3021 8.64704 14.8284 7.4833 13.9202 6.61092C13.0478 5.73854 11.8841 5.26486 10.6846 5.30235C9.44928 5.30235 8.28554 5.77432 7.41316 6.6467C6.54077 7.51908 6.0671 8.68282 6.0671 9.91813C6.0671 11.1534 6.57656 12.3172 7.44894 13.1896C8.32132 14.0619 9.48506 14.5339 10.7204 14.5339C11.9574 14.4981 13.1194 14.0262 13.956 13.1538C14.8284 12.2814 15.3021 11.1177 15.3021 9.88235Z" fill="#777777"/>
</g>
<defs>
<clipPath id="clip0_547_5511">
<rect width="74.1626" height="20" fill="white" transform="translate(1.34375)"/>
</clipPath>
</defs>
</svg>
