<svg width="150" height="40" viewBox="0 0 150 40" fill="none" xmlns="http://www.w3.org/2000/svg">
<g clip-path="url(#clip0_401_1074)">
<path d="M47.5508 1.08032H59.6278V38.5961H47.5508V1.08032Z" fill="#0C0E27"/>
<path d="M77.6378 1.08032L85.7243 11.5353L93.9199 1.08032H106.965L92.4103 19.5162L107.718 38.5995H94.4583L85.8334 27.6027L77.2084 38.5995H63.8398L79.1508 19.5162L64.593 1.08032H77.6378Z" fill="#0C0E27"/>
<path d="M124.751 38.596H112.678V1.08025H124.751V5.92946C127.338 2.05146 131.223 0 135.319 0C137.581 0 139.524 0.756517 141.354 1.83336L138.229 11.6442C136.719 11.0002 134.995 10.6764 133.485 10.6764C128.847 10.6764 124.751 13.2629 124.751 21.8879V38.5994V38.596Z" fill="#0C0E27"/>
<path d="M149.213 32.8848C149.213 36.8753 145.979 40.0001 141.988 40.0001C137.998 40.0001 134.873 36.8753 134.873 32.8848C134.873 28.8943 137.998 25.6604 141.988 25.6604C145.979 25.6604 149.213 28.8943 149.213 32.8848Z" fill="#0037F9"/>
<path d="M39.3488 1.08032V38.6676H29.1699V34.4523C26.9174 37.3591 23.1348 38.5245 19.7169 38.5245C9.39484 38.5961 0.96069 30.2335 0.889128 19.9115C0.817566 9.58603 9.17674 1.15188 19.5022 1.08032C23.0633 1.08032 26.9174 2.38889 29.1733 5.22413V1.08032H39.3522H39.3488ZM28.8053 19.7649C28.8053 17.2943 27.8579 14.9668 26.0416 13.2221C24.2969 11.4773 21.9694 10.53 19.5703 10.6049C17.0997 10.6049 14.7722 11.5489 13.0275 13.2936C11.2827 15.0384 10.3354 17.3659 10.3354 19.8365C10.3354 22.3071 11.3543 24.6346 13.099 26.3794C14.8438 28.1241 17.1713 29.0681 19.6419 29.0681C22.1159 28.9965 24.44 28.0526 26.1132 26.3078C27.8579 24.563 28.8053 22.2355 28.8053 19.7649Z" fill="#0C0E27"/>
</g>
<defs>
<clipPath id="clip0_401_1074">
<rect width="148.325" height="40" fill="white" transform="translate(0.888672)"/>
</clipPath>
</defs>
</svg>
