<svg width="400" height="360" viewBox="0 0 400 360" fill="none" xmlns="http://www.w3.org/2000/svg">
<path d="M224.68 366.84L211.68 328.86L210.46 323.14C210.46 323.14 213.14 321.26 213.22 316.96C213.28 312.66 210.68 306.36 209.04 305.62C207.38 304.88 206.54 304.68 205.88 306.02C205.88 306.02 204.02 303.34 202.28 304.1C200.54 304.86 200.68 307.06 200.68 307.06C200.68 307.06 198.24 304.06 197.08 304.7C195.92 305.34 195.62 309.04 195.62 309.04C195.62 309.04 193.58 307.46 192.58 308.06C191.58 308.66 191.74 312.7 191.74 312.7C191.74 312.7 186.38 317.46 187.84 321.1C189.3 324.74 194.8 325.4 195.44 326.94C196.08 328.48 203.08 384.2 203.08 384.2L224.68 366.84Z" fill="white"/>
<path d="M225.22 366.64C219.48 350.36 211.02 325.54 211.02 323.34C211.2 323.02 211.48 322.7 211.8 322.34C212.74 321.28 214 319.82 213.8 316.92C213.54 313.34 211.96 307.14 209.38 305.14C208.74 304.64 207.22 303.88 206.1 304.6C205.92 304.72 205.76 304.88 205.62 305.04C205.32 304.52 204.88 303.98 204.28 303.66C203.6 303.3 202.86 303.26 202.08 303.54C201.48 303.76 200.98 304.24 200.66 304.94C200.54 305.2 200.44 305.5 200.36 305.8C200.28 305.68 200.18 305.58 200.08 305.46C199 304.3 197.78 303.9 196.56 304.32C195.48 304.7 194.96 305.86 194.98 307.74C194.56 307.48 194.04 307.24 193.48 307.2C192.82 307.16 192.2 307.38 191.68 307.84C191.26 308.2 190.86 309.04 191.02 312.16C190 313.22 185.18 318.62 187.62 322.3C188.98 324.38 190.94 325.22 192.52 325.88C193.84 326.44 194.88 326.88 195.24 327.84C195.98 329.84 200.72 369.28 202.48 384.3C202.52 384.62 202.78 384.84 203.08 384.84C203.1 384.84 203.12 384.84 203.16 384.8C203.48 384.76 203.72 384.46 203.68 384.14C203.42 381.94 197.34 329.96 196.38 327.4C195.84 325.96 194.46 325.38 193 324.76C191.5 324.12 189.8 323.4 188.62 321.62C187.04 319.24 189.68 315.56 191.14 313.82C191.16 313.94 191.16 314.08 191.18 314.2C191.42 316.76 191.82 319.24 191.82 319.26C191.88 319.56 192.14 319.76 192.42 319.76C192.46 319.76 192.5 319.76 192.52 319.76C192.86 319.72 193.08 319.4 193.02 319.08C192.2 314.06 191.96 309.32 192.48 308.74C192.78 308.48 193.06 308.38 193.4 308.4C194.1 308.46 194.82 309.08 195.12 309.38C195.34 310.98 195.76 312.38 195.78 312.44C195.86 312.7 196.1 312.86 196.36 312.86C196.42 312.86 196.48 312.86 196.52 312.82C196.84 312.74 197.02 312.4 196.92 312.08C196.18 309.66 195.68 305.88 196.94 305.44C198.8 304.8 200.16 307.7 200.18 307.72C200.2 307.76 200.22 307.8 200.26 307.84C200.32 308.54 200.5 309.28 200.76 310C200.84 310.24 201.08 310.4 201.32 310.4C201.38 310.4 201.46 310.38 201.54 310.36C201.86 310.24 202.02 309.9 201.9 309.58C201.34 308.06 201.3 306.44 201.76 305.44C201.88 305.16 202.12 304.8 202.5 304.66C202.96 304.5 203.36 304.5 203.72 304.7C204.5 305.12 204.94 306.3 205.04 306.72C205.06 306.76 205.06 306.8 205.08 306.84C205.06 307.58 205.16 308.46 205.4 309.52C205.48 309.86 205.8 310.06 206.12 309.98C206.46 309.9 206.66 309.58 206.58 309.26C205.94 306.4 206.56 305.76 206.76 305.62C207.24 305.3 208.18 305.7 208.66 306.08C210.64 307.62 212.34 313.06 212.62 317C212.8 319.4 211.8 320.54 210.92 321.54C210.54 321.98 210.18 322.4 209.94 322.88C209.72 323.32 209.4 324 216.76 345.72C220.36 356.34 224.08 366.94 224.12 367.04C224.2 367.28 224.44 367.44 224.68 367.44C224.74 367.44 224.82 367.44 224.86 367.4C225.16 367.3 225.34 366.96 225.22 366.64Z" fill="black"/>
<path d="M353.799 388.08L359.859 354.88C359.859 354.88 361.759 341.84 360.479 338.5C359.199 335.16 351.959 331.46 350.379 327.44C348.799 323.42 345.259 313.64 345.259 313.64C345.259 313.64 347.319 311.68 349.599 314.48C351.859 317.28 356.819 322.92 358.939 321.36C361.059 319.8 362.599 296.42 364.619 296.24C366.659 296.06 366.079 313.42 367.139 313.62C368.199 313.82 370.579 302.86 370.579 302.86C370.579 302.86 371.619 291.32 373.419 291.38C375.219 291.44 376.019 300.16 375.119 304.1C374.219 308.04 374.779 316.9 375.679 316.82C376.579 316.74 380.319 305 380.319 305C380.319 305 383.159 298.46 384.119 299.1C385.079 299.74 384.819 305.2 384.179 308.6C383.539 312 382.739 316.3 382.739 316.3L385.739 312.6C385.739 312.6 388.879 305.4 389.959 306C391.039 306.6 389.979 311.64 389.979 311.64L386.779 320.4L384.379 328.72C384.379 328.72 379.379 349.98 378.919 358.18C378.459 366.38 378.179 382.32 379.379 384.84C379.399 384.88 365.739 388.48 353.799 388.08Z" fill="white"/>
<path d="M390.898 306.12C390.658 305.68 390.338 305.52 390.098 305.48C388.678 305.2 387.618 307.44 386.498 309.84C386.278 310.3 386.078 310.74 385.878 311.14C385.358 312.16 384.338 313.66 383.438 314.94C383.818 313.26 384.298 311.04 384.698 308.8C386.218 300.32 385.358 298.88 384.338 298.58C382.558 298.08 381.058 301.7 378.318 309.52C377.458 311.96 376.318 315.2 375.718 316.12C375.558 315.7 375.278 314.54 375.358 311.34C375.398 309.04 375.638 306.08 375.958 303.4C376.418 299.64 376.318 293.46 374.698 291.5C374.278 290.98 373.818 290.86 373.498 290.84C371.338 290.7 370.858 294.98 370.478 298.42C370.398 299.12 370.318 299.72 370.258 300.12L370.218 300.3C368.698 308.96 367.738 312.18 367.238 313.38C367.118 312.26 367.098 310.24 367.058 308.54C366.938 301.76 366.718 296.88 364.978 295.92C364.638 295.72 364.098 295.6 363.398 296.02C362.458 296.58 361.938 299.56 360.718 308.86C360.078 313.66 359.218 320.24 358.538 320.94C358.278 321.18 357.938 321.26 357.498 321.2C355.798 320.96 353.278 318.62 351.378 315.48C350.298 313.72 349.058 312.7 347.698 312.48C346.078 312.22 344.918 313.16 344.878 313.2C344.678 313.38 344.618 313.64 344.698 313.88C344.758 313.98 348.758 324.72 349.818 327.66C350.398 329.3 352.278 330.98 354.458 332.94C356.438 334.7 358.658 336.72 359.978 338.82C360.578 339.78 361.038 344.42 357.578 364.84C355.598 376.54 353.238 387.84 353.218 387.96C353.138 388.28 353.358 388.6 353.678 388.66C353.718 388.68 353.758 388.68 353.798 388.68C354.078 388.68 354.318 388.48 354.458 388.16C354.498 388.06 356.838 376.72 358.838 365C362.898 341.08 361.538 338.86 361.078 338.14C359.678 335.9 357.378 333.82 355.338 332C353.358 330.22 351.498 328.56 351.018 327.2C350.098 324.62 346.858 315.94 346.078 313.86C346.418 313.7 346.958 313.5 347.598 313.62C348.598 313.8 349.538 314.62 350.418 316.06C352.558 319.6 355.298 322.06 357.398 322.36C358.198 322.46 358.898 322.26 359.418 321.78C360.298 320.96 360.898 317.06 361.958 308.98C362.578 304.24 363.438 297.76 364.098 297C364.318 296.88 364.398 296.92 364.438 296.94C364.598 297.04 365.218 297.62 365.558 301C365.778 303.28 365.838 306.08 365.878 308.54C365.918 310.2 365.938 311.74 366.018 312.86C366.078 313.9 366.178 315.2 367.058 315.2C367.758 315.2 368.458 314.7 369.838 308.56C370.578 305.3 371.218 301.68 371.418 300.5L371.458 300.32C371.538 299.9 371.598 299.26 371.678 298.54C371.838 297.14 372.038 295.4 372.378 294.02C372.738 292.54 373.198 292.02 373.438 292.04C373.558 292.04 373.678 292.12 373.798 292.28C374.878 293.58 375.338 298.7 374.778 303.26C374.438 305.94 374.218 308.94 374.158 311.26C374.058 315.64 374.538 316.72 374.958 317.16C375.178 317.38 375.478 317.5 375.778 317.48C376.738 317.4 377.358 315.88 379.458 309.92C380.318 307.46 381.218 304.94 382.078 302.94C383.298 300.14 383.898 299.78 384.018 299.74C384.138 299.88 384.898 300.98 383.458 308.9C382.738 312.78 381.838 316.56 381.618 317.4C381.438 317.66 381.518 318 381.758 318.18C381.958 318.34 382.218 318.36 382.438 318.22C382.558 318.16 382.658 318.06 382.718 317.94C383.278 317.2 385.978 313.64 386.958 311.68C387.158 311.26 387.378 310.82 387.598 310.34C388.038 309.36 388.518 308.36 388.978 307.62C389.458 306.84 389.738 306.68 389.838 306.64C390.198 307.22 390.158 311.12 387.418 317.2C384.458 323.76 381.698 337.64 381.678 337.78C381.598 338.14 381.518 338.56 381.418 339.06C379.978 346.2 376.138 365.1 378.818 384.96C378.858 385.26 379.118 385.48 379.418 385.48C379.438 385.48 379.478 385.48 379.518 385.52C379.858 385.48 380.078 385.16 380.038 384.84C377.398 365.18 381.178 346.4 382.618 339.34C382.718 338.84 382.798 338.4 382.878 338.04C382.898 337.9 385.638 324.16 388.538 317.72C390.738 312.78 391.758 307.8 390.898 306.12Z" fill="black"/>
<path d="M365.279 317.32C364.939 317.3 364.659 317.54 364.639 317.88L364.519 320.02C364.499 320.36 364.739 320.64 365.079 320.66C365.099 320.66 365.099 320.66 365.119 320.66C365.439 320.66 365.699 320.42 365.719 320.1L365.839 317.96C365.859 317.62 365.619 317.34 365.279 317.32Z" fill="black"/>
<path d="M372.098 317.94C371.778 318.02 371.578 318.34 371.658 318.66C371.858 319.48 371.918 320.44 371.778 320.64C371.578 320.9 371.618 321.28 371.878 321.48C371.998 321.58 372.118 321.62 372.258 321.62C372.438 321.62 372.598 321.54 372.698 321.4C373.318 320.64 372.938 318.9 372.818 318.38C372.738 318.06 372.418 317.86 372.098 317.94Z" fill="black"/>
<path d="M378.938 322.6C379.058 322.7 379.178 322.74 379.318 322.74C379.498 322.74 379.678 322.66 379.778 322.5C380.338 321.78 380.298 320 380.258 319.48C380.238 319.16 379.958 318.9 379.618 318.92C379.298 318.94 379.038 319.22 379.058 319.56C379.118 320.5 379.018 321.54 378.838 321.76C378.638 322.02 378.678 322.4 378.938 322.6Z" fill="black"/>
<path d="M384.098 322.58C384.218 322.64 384.318 322.68 384.438 322.68C384.638 322.68 384.818 322.6 384.918 322.42C385.418 321.66 385.358 320.8 385.238 320.42C385.138 320.1 384.818 319.92 384.498 320.02C384.198 320.12 384.018 320.44 384.098 320.76C384.098 320.78 384.238 321.28 383.938 321.74C383.738 322.02 383.818 322.4 384.098 322.58Z" fill="black"/>
<path d="M87.5999 216.62C86.6599 216.62 85.8599 216.34 85.2599 215.78C84.8199 215.38 84.4999 214.84 84.2199 214.08C83.1599 211.1 83.9199 207.58 86.1199 205.32C86.9399 204.48 87.7599 204.1 88.5999 204.18C89.2399 204.26 89.8399 204.72 90.0999 205.36C90.3199 205.9 90.2399 206.46 89.8799 206.86C89.6399 207.14 89.2199 207.18 88.9399 206.94C88.6599 206.7 88.6199 206.28 88.8599 206C88.8999 205.96 88.8599 205.88 88.8399 205.86C88.7799 205.68 88.5799 205.52 88.4399 205.52C87.9399 205.46 87.4199 205.9 87.0599 206.26C85.1999 208.18 84.5599 211.14 85.4599 213.66C85.6599 214.2 85.8799 214.58 86.1399 214.84C87.1199 215.74 88.8599 215.16 89.5599 214.88C93.6399 213.18 96.4799 209.52 99.2799 205.62C99.7999 204.88 100.32 204.14 100.8 203.4C100.34 203.16 99.9199 202.86 99.5999 202.46C98.9799 201.7 98.6399 200.68 98.5599 199.34C98.4599 197.54 99.1399 195.64 100.26 194.52C101.02 193.76 101.94 193.4 102.94 193.46C103.6 193.5 104.18 193.76 104.52 194.18C104.98 194.72 105.02 195.44 105 195.98C104.9 198.32 104.08 200.46 102.9 202.54C103.16 202.54 103.42 202.52 103.7 202.46C104.94 202.2 106.06 201.44 107 200.72C110.3 198.2 113.1 194.96 115.12 191.32C114.74 191.06 114.4 190.72 114.16 190.34C113.76 189.68 113.68 188.94 113.94 188.28C114.28 187.44 115.3 186.78 116.26 187.14C116.7 187.3 117.04 187.64 117.22 188.08C117.52 188.84 117.32 189.8 117.02 190.52C117.96 190.48 118.9 189.96 119.86 189.38C124.14 186.82 127.42 184.4 129.56 181.02C129.76 180.7 130.16 180.62 130.48 180.82C130.8 181.02 130.88 181.42 130.68 181.74C128.26 185.56 124.38 188.22 120.54 190.52C119.3 191.26 117.98 191.98 116.52 191.82C116.46 191.82 116.4 191.8 116.36 191.8C114.24 195.66 111.3 199.1 107.8 201.76C106.74 202.56 105.46 203.44 103.96 203.74C103.34 203.86 102.72 203.88 102.12 203.8C101.56 204.66 100.98 205.52 100.36 206.38C97.4399 210.46 94.4599 214.28 90.0599 216.1C89.1999 216.42 88.3599 216.62 87.5999 216.62ZM102.76 194.74C102.2 194.74 101.68 194.96 101.22 195.42C100.36 196.26 99.8399 197.8 99.9199 199.22C99.9799 200.26 100.22 201.04 100.66 201.56C100.9 201.84 101.2 202.06 101.54 202.22C102.74 200.2 103.6 198.12 103.7 195.9C103.72 195.6 103.7 195.2 103.54 195C103.42 194.86 103.2 194.78 102.9 194.76C102.84 194.74 102.8 194.74 102.76 194.74ZM115.7 188.3C115.5 188.3 115.26 188.48 115.16 188.7C115.02 189.04 115.14 189.36 115.28 189.58C115.4 189.76 115.54 189.94 115.72 190.06C116 189.48 116.1 188.82 115.98 188.5C115.94 188.4 115.88 188.34 115.8 188.32C115.78 188.3 115.74 188.3 115.7 188.3Z" fill="black"/>
<path d="M361.56 278.72C361.46 278.72 361.36 278.7 361.26 278.64C358.84 277.4 357.54 274.62 357.42 270.36C355.26 270.78 352.92 270.98 351.14 269.58C350.4 269 349.8 268.16 349.32 267C348 263.84 348.08 260.44 348.32 256.66C348.38 255.68 348.46 254.6 348.64 253.5C345.72 253.8 342.36 253.72 340.64 251.22C339.52 249.6 339.58 247.64 339.72 245.58C339.8 244.38 340.04 241.2 342.38 240.22C342.72 240.08 343.12 240.24 343.26 240.58C343.4 240.92 343.24 241.32 342.9 241.46C341.5 242.06 341.18 244.04 341.06 245.7C340.92 247.5 340.88 249.22 341.74 250.48C343.16 252.52 346.3 252.46 348.94 252.14C349.18 251.3 349.5 250.48 349.96 249.72C350.48 248.88 351.26 248.12 352.14 247.58C353.46 246.78 354.82 247.36 355.46 248.36C356.12 249.34 356.12 250.82 354.88 251.72C354.66 251.88 354.42 252.02 354.18 252.16C352.86 252.88 351.38 253.14 350 253.32C349.8 254.38 349.7 255.52 349.62 256.74C349.4 260.36 349.3 263.6 350.52 266.48C350.92 267.42 351.38 268.1 351.94 268.54C353.34 269.64 355.46 269.38 357.38 269C357.4 268.02 357.52 267.02 358.08 266.16C358.5 265.52 359.2 265.08 359.94 264.94C360.54 264.84 361.12 264.96 361.58 265.3C361.64 265.34 361.68 265.4 361.72 265.46C362.52 266.62 361.98 268.2 361.02 269.02C360.34 269.6 359.48 269.88 358.7 270.06C358.78 273.94 359.82 276.42 361.82 277.44C362.14 277.6 362.28 278 362.12 278.34C362.02 278.58 361.8 278.72 361.56 278.72ZM360.38 266.26C360.32 266.26 360.26 266.26 360.2 266.28C359.82 266.34 359.44 266.6 359.24 266.92C358.92 267.42 358.8 268.04 358.76 268.72C359.3 268.58 359.8 268.36 360.2 268.04C360.68 267.64 360.98 266.88 360.72 266.36C360.6 266.28 360.48 266.26 360.38 266.26ZM353.4 248.56C353.22 248.56 353.02 248.62 352.8 248.74C352.1 249.16 351.5 249.76 351.08 250.44C350.78 250.92 350.56 251.42 350.38 251.96C351.5 251.78 352.58 251.54 353.54 251.02C353.72 250.92 353.9 250.8 354.08 250.68C354.72 250.22 354.62 249.56 354.34 249.12C354.14 248.82 353.82 248.56 353.4 248.56Z" fill="black"/>
<path d="M213.381 229.88C213.321 229.88 213.261 229.88 213.221 229.88C212.301 229.84 211.401 229.34 210.781 228.54C210.141 227.7 209.861 226.64 210.041 225.68C210.401 223.8 212.381 222.38 214.361 222.62C214.721 222.66 214.981 223 214.941 223.36C214.901 223.72 214.561 224 214.201 223.94C212.921 223.8 211.581 224.72 211.341 225.94C211.221 226.52 211.401 227.2 211.821 227.74C212.201 228.24 212.741 228.54 213.281 228.56C214.161 228.6 215.101 228.04 215.681 227.1C216.281 226.16 216.481 225 216.621 223.9C217.321 218.46 216.481 212.86 214.261 207.86C212.861 208.14 211.381 207.8 210.301 207.48C207.301 206.6 206.441 204.86 206.641 203.54C206.761 202.78 207.221 202.12 207.961 201.7C208.861 201.18 210.021 201.08 210.981 201.46C212.561 202.08 213.521 203.52 214.261 204.84C214.501 205.28 214.741 205.74 214.981 206.2C215.001 206.18 215.021 206.18 215.041 206.16C216.121 205.5 216.641 204.16 217.061 202.8C218.561 197.96 219.141 192.94 218.821 187.88C218.801 187.52 219.081 187.2 219.441 187.18C219.801 187.16 220.121 187.44 220.141 187.8C220.481 193.02 219.861 198.2 218.321 203.18C217.861 204.7 217.181 206.38 215.721 207.28C215.661 207.32 215.581 207.36 215.501 207.4C217.781 212.6 218.641 218.42 217.921 224.06C217.761 225.32 217.501 226.64 216.781 227.8C216.021 229.08 214.681 229.88 213.381 229.88ZM209.761 202.52C209.361 202.52 208.961 202.62 208.641 202.8C208.381 202.96 208.041 203.24 207.981 203.7C207.801 204.96 209.601 205.84 210.701 206.18C211.901 206.54 212.901 206.66 213.701 206.58C213.521 206.2 213.321 205.82 213.101 205.46C212.481 204.34 211.681 203.14 210.501 202.68C210.281 202.58 210.021 202.52 209.761 202.52Z" fill="black"/>
<path d="M41.6807 207.32L44.8807 215.32L56.6807 209.32L53.4807 203.92L41.6807 207.32Z" fill="black"/>
<path d="M130.08 229.92L134.88 234.72L142.08 227.92L137.88 223.12L130.08 229.92Z" fill="white"/>
<path d="M134.879 235.32C134.719 235.32 134.579 235.26 134.459 235.14L129.659 230.34C129.539 230.22 129.479 230.06 129.479 229.9C129.479 229.74 129.559 229.58 129.679 229.46L137.479 222.66C137.719 222.44 138.099 222.46 138.319 222.72L142.519 227.52C142.739 227.76 142.719 228.12 142.479 228.36L135.279 235.16C135.179 235.28 135.039 235.32 134.879 235.32ZM130.959 229.96L134.899 233.9L141.259 227.9L137.839 223.98L130.959 229.96Z" fill="black"/>
<path d="M24.2803 245.92L28.0603 246.72L29.6803 241.2L24.7003 239.44L24.2803 245.92Z" fill="white"/>
<path d="M28.0601 247.32C28.0201 247.32 27.9801 247.32 27.9401 247.3L24.1601 246.5C23.8601 246.44 23.6601 246.18 23.6801 245.88L24.0801 239.4C24.1001 239.22 24.2001 239.04 24.3401 238.94C24.5001 238.84 24.7001 238.82 24.8801 238.88L29.8801 240.64C30.1801 240.74 30.3401 241.06 30.2601 241.38L28.6401 246.92C28.5601 247.16 28.3201 247.32 28.0601 247.32ZM24.9201 245.44L27.6401 246.02L28.9401 241.56L25.2401 240.26L24.9201 245.44Z" fill="black"/>
<path d="M131.88 265.88L135.88 269.28L132.68 276.68L128.88 274.48L131.88 265.88Z" fill="black"/>
<path d="M162.08 217.92L154.48 201.52L150.84 203.42L145.68 191.72L141.08 194.52L149.28 210.92L152.92 208.62L158.88 219.72L162.08 217.92Z" fill="black"/>
<path d="M298.88 203.52L301.08 201.12L307.88 211.32L303.08 214.92L298.88 203.52Z" fill="black"/>
<path d="M251.28 228.52L256.28 225.52L260.88 229.52L255.28 235.52L251.28 228.52Z" fill="black"/>
<path d="M169.479 292.12L174.479 289.12L181.879 299.52L176.679 300.72L169.479 292.12Z" fill="black"/>
<path d="M340.08 223.32L343.88 218.52L350.48 226.72L346.88 230.52L340.08 223.32Z" fill="black"/>
<path d="M346.28 226.34L349.92 223.32L353.68 230.2L350.46 232.72L346.28 226.34Z" fill="black"/>
<path d="M166.129 143.173C217.651 119.638 253.558 87.7308 246.329 71.9065C239.101 56.0822 191.475 62.3329 139.953 85.8678C88.4308 109.403 52.5239 141.31 59.7523 157.134C66.9807 172.958 114.607 166.707 166.129 143.173Z" fill="#C8C8C8"/>
<path d="M142.66 90.3799C190.48 68.5399 234.92 61.5799 246.86 73.3399C246.72 72.8599 246.54 72.3799 246.34 71.9199C239.12 56.0999 191.48 62.3599 139.96 85.8999C88.4399 109.44 52.5199 141.34 59.7599 157.16C60.2799 158.3 61.0199 159.32 61.9399 160.24C57.3199 143.96 92.6399 113.22 142.66 90.3799Z" fill="white"/>
<path d="M195.72 100.08C195.44 100.08 195.16 99.9 195.08 99.6C194.98 99.24 195.18 98.88 195.54 98.78C203.84 96.32 211 94.74 216.84 94.08C217.2 94.04 217.54 94.3 217.58 94.66C217.62 95.02 217.36 95.36 217 95.4C211.24 96.06 204.14 97.64 195.92 100.06C195.84 100.08 195.78 100.08 195.72 100.08Z" fill="black"/>
<path d="M185.44 103.38C185.16 103.38 184.9 103.2 184.8 102.92C184.68 102.58 184.86 102.2 185.22 102.08C186.86 101.52 188.5 100.98 190.08 100.46C190.44 100.34 190.8 100.54 190.92 100.9C191.04 101.26 190.84 101.62 190.48 101.74C188.9 102.26 187.26 102.8 185.64 103.36C185.58 103.36 185.5 103.38 185.44 103.38Z" fill="black"/>
<path d="M162.764 99.164C168.003 97.416 171.542 93.8755 170.668 91.256C169.794 88.6365 164.838 87.93 159.599 89.678C154.36 91.426 150.822 94.9665 151.696 97.586C152.57 100.206 157.525 100.912 162.764 99.164Z" fill="white"/>
<path d="M157.261 100.8C154.121 100.8 151.721 99.7399 151.061 97.7999C150.061 94.7799 153.721 90.9399 159.381 89.0399C162.021 88.1599 164.661 87.8599 166.861 88.1599C169.221 88.4999 170.781 89.5199 171.301 91.0399C171.801 92.5599 171.161 94.3199 169.481 95.9999C167.921 97.5599 165.601 98.9199 162.981 99.7799C160.961 100.48 159.001 100.8 157.261 100.8ZM165.121 89.3999C163.481 89.3999 161.641 89.7199 159.821 90.3199C155.021 91.9199 151.601 95.1599 152.341 97.3799C153.081 99.5999 157.761 100.14 162.561 98.5399C165.001 97.7199 167.121 96.4999 168.541 95.0799C169.821 93.7999 170.381 92.4799 170.041 91.4799C169.701 90.4799 168.481 89.7599 166.681 89.4999C166.181 89.4199 165.661 89.3999 165.121 89.3999Z" fill="black"/>
<path d="M208.745 84.1445C213.984 82.3965 217.522 78.856 216.648 76.2365C215.774 73.617 210.819 72.9105 205.58 74.6585C200.341 76.4065 196.802 79.947 197.676 82.5665C198.55 85.186 203.506 85.8925 208.745 84.1445Z" fill="white"/>
<path d="M203.221 85.7802C200.081 85.7802 197.681 84.7202 197.021 82.7802C196.021 79.7602 199.681 75.9202 205.341 74.0202C207.981 73.1402 210.621 72.8402 212.821 73.1402C215.181 73.4802 216.741 74.5002 217.261 76.0202C217.761 77.5402 217.121 79.3002 215.441 80.9802C213.881 82.5402 211.561 83.9002 208.941 84.7602C206.941 85.4602 204.961 85.7802 203.221 85.7802ZM211.081 74.3602C209.441 74.3602 207.601 74.6802 205.781 75.2802C200.981 76.8802 197.561 80.1202 198.301 82.3402C199.041 84.5602 203.721 85.1002 208.521 83.5002C210.961 82.6802 213.081 81.4602 214.501 80.0402C215.781 78.7602 216.341 77.4402 216.001 76.4402C215.661 75.4402 214.441 74.7202 212.641 74.4602C212.161 74.4002 211.641 74.3602 211.081 74.3602Z" fill="black"/>
<path d="M241.58 79.1599C236.34 80.8999 232.8 84.4399 233.68 87.0599C234.42 89.2599 238.04 90.1199 242.3 89.2799C245 85.2799 246.66 81.5399 247.12 78.1799C245.44 78.1999 243.52 78.4999 241.58 79.1599Z" fill="white"/>
<path d="M123.858 117.14C128.779 114.631 131.75 110.603 130.496 108.142C129.241 105.682 124.236 105.722 119.315 108.231C114.395 110.74 111.423 114.768 112.678 117.228C113.932 119.689 118.938 119.649 123.858 117.14Z" fill="white"/>
<path d="M116.8 119.72C114.46 119.72 112.78 118.94 112.06 117.54C110.62 114.7 113.66 110.36 118.98 107.64C124.3 104.92 129.62 105.02 131.06 107.84C131.78 109.26 131.42 111.1 130 113.02C128.68 114.8 126.6 116.48 124.14 117.74C121.68 119 119.1 119.7 116.88 119.72C116.86 119.72 116.84 119.72 116.8 119.72ZM126.38 106.98C124.44 106.98 122 107.6 119.6 108.82C115.1 111.12 112.18 114.82 113.26 116.92C113.74 117.86 115.04 118.38 116.88 118.38C118.9 118.36 121.26 117.72 123.54 116.54C125.82 115.38 127.74 113.84 128.94 112.22C130.02 110.76 130.36 109.38 129.88 108.44C129.4 107.46 128.1 106.98 126.38 106.98Z" fill="black"/>
<path d="M88.4549 142.08C93.3752 139.571 96.3469 135.543 95.0924 133.083C93.8379 130.622 88.8322 130.662 83.9119 133.171C78.9916 135.68 76.0199 139.708 77.2744 142.169C78.5289 144.629 83.5346 144.589 88.4549 142.08Z" fill="white"/>
<path d="M81.4201 144.66C79.0801 144.66 77.4001 143.88 76.6801 142.48C75.9601 141.06 76.3201 139.22 77.7401 137.3C79.0601 135.52 81.1401 133.84 83.6001 132.58C88.9201 129.86 94.2401 129.96 95.6801 132.78C97.1201 135.62 94.0801 139.96 88.7601 142.68C86.3001 143.94 83.7201 144.64 81.5001 144.66C81.4801 144.66 81.4401 144.66 81.4201 144.66ZM91.0001 131.92C89.0601 131.92 86.6201 132.54 84.2201 133.76C81.9401 134.92 80.0201 136.46 78.8201 138.08C77.7401 139.54 77.4001 140.92 77.8801 141.86C78.3601 142.8 79.6801 143.32 81.5001 143.32C83.5201 143.3 85.8801 142.66 88.1601 141.48C92.6601 139.18 95.5801 135.48 94.5001 133.38C94.0001 132.4 92.7001 131.92 91.0001 131.92Z" fill="black"/>
<path d="M68.9195 162.28C68.2395 162.64 67.5795 163.02 66.9795 163.42C70.3195 164.8 74.5995 165.6 79.6595 165.82C80.4195 164.48 80.6195 163.2 80.0995 162.2C78.8395 159.72 73.8395 159.76 68.9195 162.28Z" fill="white"/>
<path d="M79.6599 166.48C79.6399 166.48 79.6399 166.48 79.6199 166.48C74.4199 166.24 70.0799 165.42 66.7199 164.04C66.4999 163.94 66.3399 163.74 66.3199 163.48C66.2999 163.22 66.3999 163 66.6199 162.86C67.2599 162.44 67.9399 162.04 68.6399 161.68C73.9599 158.96 79.2799 159.06 80.7199 161.88C81.3199 163.08 81.1599 164.54 80.2599 166.14C80.1199 166.34 79.8999 166.48 79.6599 166.48ZM68.4799 163.26C71.4199 164.28 75.0399 164.9 79.2599 165.12C79.6399 164.34 79.9399 163.32 79.4999 162.48C78.4399 160.38 73.7199 160.56 69.2199 162.86C68.9799 163 68.7199 163.12 68.4799 163.26Z" fill="black"/>
<path d="M246.88 71.64C243.26 63.72 230.06 60.84 209.68 63.52C200.56 64.72 190.46 66.98 179.84 70.14C179.8 70.08 179.74 70.02 179.66 69.96C176.38 67.92 170.3 67.64 162.06 69.14C153.92 70.62 144.24 73.8 134.8 78.12C114.36 87.46 99.44 99.76 99.16 107.5C90.94 112.9 83.6 118.44 77.42 123.94C62.06 137.6 55.58 149.46 59.2 157.38C61.92 163.38 70.16 166.48 82.82 166.48C86.9 166.48 91.44 166.16 96.4 165.5C97.78 165.32 99.18 165.1 100.62 164.88C100.68 164.88 100.74 164.86 100.8 164.84C107.66 163.72 114.98 162.08 122.62 159.92C124.26 162.12 127.9 162.78 131.7 162.78C134.52 162.78 137.46 162.42 139.7 162.02C149.14 160.44 160.9 156.58 172.78 151.16C184.66 145.72 195.28 139.38 202.66 133.26C207.06 129.62 214.1 122.8 211.96 118.1C211.96 118.1 211.96 118.1 211.96 118.08C218.16 113.78 223.78 109.4 228.66 105.06C234.76 99.64 239.46 94.5 242.68 89.78C242.74 89.74 242.8 89.68 242.84 89.62C245.66 85.46 247.32 81.64 247.78 78.24C247.78 78.16 247.78 78.06 247.76 77.98C248.04 75.68 247.74 73.54 246.88 71.64ZM201.84 132.26C194.54 138.3 184.04 144.6 172.26 149.98C160.48 155.36 148.84 159.18 139.5 160.74C131.62 162.06 126.12 161.62 124.04 159.54C137.52 155.66 151.94 150.3 166.38 143.7C182.82 136.18 198.04 127.66 210.86 118.86C211.94 121.76 208.68 126.6 201.84 132.26ZM154.28 147.64L191.76 129.38C183.64 134.02 174.94 138.46 165.88 142.6C162 144.38 158.14 146.06 154.28 147.64ZM241.92 88.7C238.08 89.38 234.9 88.62 234.32 86.86C233.58 84.64 237 81.4 241.8 79.8C243.34 79.28 244.88 78.98 246.34 78.9C245.78 81.82 244.28 85.12 241.92 88.7ZM246.6 77.54C244.92 77.6 243.14 77.94 241.36 78.52C235.7 80.42 232.04 84.26 233.04 87.28C233.68 89.2 236 90.28 239.18 90.28C239.74 90.28 240.32 90.24 240.94 90.18C238.64 93.38 235.66 96.76 232.06 100.28C232.32 99.14 232.24 98.12 231.84 97.22C230.7 94.72 227.08 93.56 221.08 93.76C220.72 93.76 220.42 94.08 220.44 94.44C220.44 94.8 220.76 95.1 221.12 95.08C226.44 94.88 229.74 95.82 230.62 97.76C231.06 98.7 230.92 99.94 230.24 101.44C230.14 101.62 230.16 101.84 230.24 102C229.46 102.72 228.68 103.44 227.86 104.18C224.3 107.34 220.36 110.52 216.08 113.66C216.06 113.6 216.02 113.54 216 113.48C212.38 105.56 186.02 109.82 157.1 123.04C128.18 136.26 107.7 153.38 111.32 161.3C111.36 161.38 111.4 161.46 111.44 161.54C107.8 162.36 104.28 163.06 100.86 163.62C100.8 163.6 100.72 163.58 100.66 163.58C96.18 163.56 93.38 162.64 92.58 160.88C91.82 159.24 91.84 154.14 108.12 142.22C120 133.52 136.76 124.06 155.32 115.58C163.02 112.06 170.72 108.86 178.18 106.06C178.54 105.92 178.7 105.54 178.58 105.2C178.44 104.84 178.06 104.68 177.72 104.8C170.22 107.6 162.5 110.82 154.76 114.36C136.12 122.86 119.28 132.38 107.32 141.12C91.68 152.56 90 158.46 91.34 161.4C91.98 162.82 93.46 163.82 95.7 164.36C86.26 165.56 78.38 165.56 72.3 164.34C66.02 163.08 61.98 160.56 60.3 156.88C58.62 153.2 59.36 148.5 62.52 142.92C65.62 137.42 70.9 131.34 78.22 124.84C84.96 118.84 93.08 112.82 102.22 106.96C106.52 104.36 116.6 98.32 126.56 93.02C130.98 90.76 135.54 88.54 140.18 86.42C142.1 85.54 144.02 84.68 145.94 83.86C153.68 80.64 162.3 77.34 168.88 74.92C183.58 69.84 197.58 66.34 209.84 64.74C214.74 64.1 219.2 63.78 223.24 63.78C227.2 63.78 230.72 64.1 233.78 64.7C240.06 65.96 244.1 68.48 245.78 72.16C246.52 73.76 246.78 75.56 246.6 77.54Z" fill="black"/>
<path d="M202.54 115.82C200.3 115.82 197.66 116.06 194.66 116.56C185.32 118.12 173.68 121.94 161.9 127.32C150.12 132.7 139.62 139 132.32 145.04C125.34 150.82 122.08 155.76 123.38 158.62C124.68 161.46 130.56 162.24 139.5 160.74C148.84 159.18 160.48 155.36 172.26 149.98C184.04 144.6 194.54 138.3 201.84 132.26C208.82 126.48 212.08 121.54 210.78 118.68C209.9 116.8 207 115.82 202.54 115.82Z" fill="#C8C8C8"/>
<path d="M144.9 155.34C144.2 155.34 143.48 155.12 142.88 154.7C141.3 153.58 140.94 151.38 142.06 149.82C142.24 149.56 146.8 143.26 158.32 136.42C159.98 135.44 162.12 135.98 163.12 137.64C164.1 139.3 163.56 141.44 161.9 142.44C151.78 148.44 147.8 153.84 147.76 153.88C147.06 154.84 145.98 155.34 144.9 155.34Z" fill="white"/>
<path d="M169.6 138.3C168.32 138.3 167.08 137.6 166.48 136.38C165.62 134.66 166.3 132.54 168.04 131.68L170.52 130.44C172.24 129.58 174.36 130.26 175.22 132C176.08 133.72 175.4 135.84 173.66 136.7L171.18 137.94C170.66 138.18 170.12 138.3 169.6 138.3Z" fill="white"/>
<path d="M190.42 131.82C172.4 140.06 158.22 150.04 153.2 157.36C159.26 155.46 165.74 152.96 172.26 149.98C184.04 144.6 194.54 138.3 201.84 132.26C205.28 129.42 207.82 126.76 209.34 124.48C203.42 126.34 197 128.8 190.42 131.82Z" fill="white"/>
<path d="M293.411 153.459C327.079 138.08 350.544 117.231 345.821 106.893C341.099 96.5544 309.977 100.641 276.309 116.02C242.641 131.399 219.176 152.248 223.899 162.587C228.621 172.925 259.743 168.839 293.411 153.459Z" fill="#C8C8C8"/>
<path d="M278.079 118.96C309.319 104.68 338.379 100.14 346.179 107.82C346.079 107.5 345.979 107.2 345.839 106.9C341.119 96.5599 309.999 100.64 276.319 116.04C242.639 131.44 219.179 152.26 223.899 162.6C224.239 163.34 224.719 164.02 225.319 164.62C222.319 153.98 245.379 133.9 278.079 118.96Z" fill="white"/>
<path d="M312.76 125.3C312.58 125.3 312.4 125.18 312.34 124.98C312.28 124.74 312.4 124.5 312.64 124.44C318.06 122.84 322.74 121.8 326.56 121.36C326.8 121.34 327.02 121.5 327.04 121.74C327.06 121.98 326.9 122.2 326.66 122.22C322.9 122.66 318.26 123.68 312.88 125.26C312.84 125.3 312.8 125.3 312.76 125.3Z" fill="black"/>
<path d="M306.038 127.46C305.858 127.46 305.678 127.34 305.618 127.16C305.538 126.94 305.658 126.68 305.898 126.6C306.958 126.24 308.038 125.88 309.078 125.54C309.298 125.46 309.558 125.6 309.618 125.82C309.698 126.04 309.558 126.3 309.338 126.36C308.298 126.7 307.238 127.04 306.178 127.42C306.138 127.46 306.078 127.46 306.038 127.46Z" fill="black"/>
<path d="M291.232 124.693C294.659 123.55 296.974 121.238 296.404 119.531C295.834 117.823 292.595 117.365 289.169 118.508C285.742 119.651 283.427 121.962 283.997 123.67C284.566 125.378 287.806 125.836 291.232 124.693Z" fill="white"/>
<path d="M287.618 125.78C287.218 125.78 286.838 125.76 286.478 125.7C284.938 125.48 283.918 124.82 283.578 123.82C283.238 122.82 283.678 121.68 284.758 120.58C285.778 119.56 287.298 118.68 289.018 118.1C290.738 117.52 292.478 117.32 293.898 117.52C295.438 117.74 296.458 118.4 296.798 119.4C297.458 121.36 295.058 123.88 291.358 125.12C290.078 125.56 288.778 125.78 287.618 125.78ZM292.798 118.32C291.738 118.32 290.538 118.52 289.298 118.92C287.698 119.46 286.318 120.26 285.378 121.18C284.538 122.02 284.178 122.88 284.398 123.54C284.618 124.2 285.418 124.66 286.598 124.84C287.898 125.02 289.498 124.84 291.078 124.3C294.218 123.26 296.458 121.14 295.958 119.68C295.678 118.8 294.438 118.32 292.798 118.32Z" fill="black"/>
<path d="M321.273 114.873C324.7 113.73 327.015 111.418 326.445 109.71C325.876 108.003 322.636 107.545 319.21 108.688C315.783 109.831 313.468 112.142 314.038 113.85C314.607 115.558 317.847 116.016 321.273 114.873Z" fill="white"/>
<path d="M317.66 115.96C317.26 115.96 316.88 115.94 316.52 115.88C314.98 115.66 313.96 115 313.62 114C312.96 112.04 315.36 109.52 319.06 108.28C320.78 107.7 322.52 107.5 323.94 107.7C325.48 107.92 326.5 108.58 326.84 109.58C327.5 111.54 325.1 114.06 321.4 115.3C320.12 115.74 318.84 115.96 317.66 115.96ZM322.84 108.5C321.78 108.5 320.58 108.7 319.34 109.1C316.2 110.14 313.96 112.26 314.46 113.72C314.94 115.18 318 115.52 321.14 114.48C324.28 113.44 326.52 111.32 326.02 109.86C325.72 108.98 324.48 108.5 322.84 108.5Z" fill="black"/>
<path d="M342.719 111.64C339.299 112.78 336.979 115.1 337.559 116.8C338.039 118.24 340.419 118.8 343.199 118.26C344.979 115.64 346.059 113.2 346.359 111.02C345.259 111 343.999 111.2 342.719 111.64Z" fill="white"/>
<path d="M265.833 136.44C269.051 134.799 270.997 132.168 270.179 130.564C269.361 128.96 266.089 128.99 262.871 130.631C259.654 132.272 257.708 134.902 258.526 136.506C259.344 138.11 262.616 138.081 265.833 136.44Z" fill="white"/>
<path d="M261.178 138.14C259.658 138.14 258.558 137.64 258.078 136.72C257.598 135.78 257.858 134.58 258.778 133.34C259.638 132.18 260.998 131.08 262.618 130.26C266.098 128.48 269.558 128.54 270.518 130.4C271.458 132.24 269.478 135.1 265.998 136.86C264.378 137.68 262.698 138.14 261.258 138.16C261.218 138.14 261.198 138.14 261.178 138.14ZM267.438 129.82C266.178 129.82 264.578 130.22 262.998 131.02C261.498 131.78 260.258 132.78 259.478 133.84C258.778 134.8 258.538 135.7 258.858 136.32C259.178 136.94 260.018 137.28 261.218 137.28C262.538 137.26 264.078 136.84 265.578 136.08C268.518 134.58 270.418 132.16 269.718 130.78C269.418 130.14 268.558 129.82 267.438 129.82Z" fill="black"/>
<path d="M242.713 152.741C245.931 151.1 247.877 148.469 247.059 146.865C246.241 145.261 242.969 145.291 239.751 146.932C236.533 148.573 234.588 151.204 235.406 152.808C236.224 154.412 239.495 154.382 242.713 152.741Z" fill="white"/>
<path d="M238.059 154.44C236.539 154.44 235.439 153.94 234.959 153.02C234.019 151.16 235.999 148.32 239.479 146.56C241.099 145.74 242.779 145.28 244.219 145.26C244.239 145.26 244.259 145.26 244.279 145.26C245.799 145.26 246.899 145.76 247.379 146.68C247.859 147.62 247.599 148.82 246.679 150.06C245.819 151.22 244.459 152.32 242.839 153.14C241.219 153.96 239.539 154.42 238.099 154.44C238.099 154.44 238.079 154.44 238.059 154.44ZM244.299 146.12C244.279 146.12 244.259 146.12 244.259 146.12C242.939 146.14 241.399 146.56 239.899 147.32C236.959 148.82 235.059 151.24 235.759 152.62C236.059 153.22 236.919 153.58 238.079 153.58C238.099 153.58 238.119 153.58 238.119 153.58C239.439 153.56 240.979 153.14 242.479 152.38C243.979 151.62 245.219 150.62 245.999 149.56C246.699 148.6 246.939 147.7 246.619 147.08C246.299 146.46 245.459 146.12 244.299 146.12Z" fill="black"/>
<path d="M229.899 165.94C229.439 166.16 229.019 166.42 228.619 166.68C230.799 167.58 233.599 168.1 236.899 168.24C237.399 167.38 237.519 166.54 237.199 165.88C236.379 164.28 233.099 164.3 229.899 165.94Z" fill="white"/>
<path d="M346.179 106.72C343.799 101.56 335.179 99.6799 321.859 101.42C315.899 102.2 309.299 103.66 302.339 105.74C302.319 105.7 302.279 105.68 302.239 105.64C297.839 102.92 285.779 105.1 272.919 110.98C259.579 117.08 249.839 125.12 249.639 130.16C244.279 133.68 239.479 137.3 235.439 140.9C225.399 149.82 221.179 157.58 223.539 162.76C224.359 164.56 225.959 165.98 228.259 166.96C228.299 167.02 228.359 167.06 228.439 167.1C230.659 168 233.479 168.54 236.899 168.7C236.959 168.7 237.019 168.68 237.079 168.66C237.699 168.68 238.319 168.7 238.979 168.7C241.639 168.7 244.619 168.5 247.859 168.06C253.139 167.36 258.919 166.14 264.999 164.44C266.059 165.86 268.419 166.3 270.919 166.3C272.779 166.3 274.679 166.06 276.159 165.8C282.339 164.78 290.019 162.24 297.779 158.7C305.539 155.14 312.479 151 317.299 147C320.179 144.62 324.779 140.18 323.379 137.1C323.379 137.1 323.379 137.1 323.379 137.08C327.419 134.26 331.099 131.42 334.279 128.58C338.259 125.04 341.319 121.7 343.419 118.62C343.479 118.58 343.519 118.54 343.539 118.5C345.379 115.78 346.459 113.28 346.759 111.06C346.759 111 346.759 110.94 346.739 110.88C346.939 109.36 346.739 107.96 346.179 106.72ZM236.639 167.82C233.879 167.66 231.519 167.26 229.599 166.6C229.759 166.5 229.919 166.42 230.079 166.34C233.019 164.84 236.099 164.74 236.799 166.1C237.079 166.64 236.899 167.3 236.639 167.82ZM316.779 146.36C311.999 150.32 305.139 154.42 297.439 157.94C289.739 161.46 282.139 163.96 276.039 164.98C270.859 165.82 267.259 165.54 265.919 164.18C274.719 161.66 284.139 158.14 293.579 153.82C304.339 148.9 314.279 143.34 322.659 137.58C323.399 139.46 321.259 142.64 316.779 146.36ZM336.479 125.52C336.679 124.74 336.639 124.02 336.359 123.42C335.599 121.78 333.239 121.02 329.319 121.16C329.079 121.18 328.879 121.38 328.899 121.62C328.919 121.86 329.119 122.04 329.359 122.04C332.839 121.92 334.999 122.54 335.579 123.8C335.859 124.42 335.779 125.22 335.319 126.2C335.259 126.34 335.279 126.48 335.339 126.6C334.839 127.08 334.319 127.54 333.779 128.02C331.459 130.08 328.879 132.16 326.079 134.22C326.059 134.16 326.039 134.12 326.019 134.06C323.659 128.88 306.419 131.68 287.539 140.3C268.659 148.92 255.259 160.12 257.619 165.3C257.659 165.38 257.679 165.44 257.719 165.52C255.359 166.06 253.079 166.5 250.859 166.86C250.779 166.8 250.679 166.76 250.579 166.76C247.639 166.76 245.819 166.14 245.299 165C244.799 163.92 244.819 160.58 255.459 152.8C263.239 147.12 274.179 140.94 286.319 135.4C291.359 133.1 296.379 131 301.259 129.18C301.499 129.1 301.599 128.84 301.519 128.62C301.439 128.38 301.179 128.28 300.959 128.36C296.059 130.18 291.019 132.28 285.959 134.6C273.779 140.18 262.759 146.38 254.959 152.1C244.739 159.58 243.639 163.44 244.519 165.36C244.959 166.34 245.979 167 247.559 167.34C243.839 167.82 240.499 168.02 237.559 167.92C237.899 167.1 237.899 166.34 237.579 165.72C236.619 163.86 233.159 163.8 229.679 165.58C229.279 165.78 228.879 166 228.519 166.24C226.439 165.32 224.999 164.06 224.259 162.46C223.159 160.06 223.639 156.98 225.699 153.34C227.719 149.74 231.179 145.76 235.959 141.52C240.579 137.4 246.199 133.26 252.539 129.26C255.459 127.5 260.759 124.36 266.159 121.44C269.479 119.7 272.919 118.02 276.459 116.4C278.219 115.6 279.959 114.82 281.699 114.08C285.999 112.32 290.579 110.56 294.319 109.18C304.239 105.7 313.699 103.3 321.959 102.22C325.159 101.8 328.079 101.58 330.719 101.58C333.299 101.58 335.619 101.78 337.619 102.2C341.719 103.04 344.359 104.68 345.459 107.08C345.939 108.12 346.119 109.3 345.999 110.58C344.899 110.62 343.739 110.82 342.559 111.22C338.859 112.46 336.459 114.98 337.119 116.94C337.539 118.2 339.059 118.9 341.139 118.9C341.519 118.9 341.919 118.88 342.339 118.82C340.839 120.94 338.879 123.18 336.479 125.52ZM342.939 117.86C340.439 118.3 338.359 117.82 337.979 116.66C337.479 115.2 339.719 113.08 342.859 112.04C343.879 111.72 344.879 111.52 345.839 111.46C345.479 113.38 344.499 115.52 342.939 117.86Z" fill="black"/>
<path d="M317.219 135.6C315.759 135.6 314.019 135.76 312.079 136.08C305.979 137.1 298.379 139.6 290.679 143.12C282.979 146.64 276.119 150.74 271.339 154.7C266.779 158.48 264.639 161.72 265.499 163.58C266.339 165.44 270.179 165.94 276.039 164.98C282.139 163.96 289.739 161.46 297.439 157.94C305.139 154.42 311.999 150.32 316.779 146.36C321.339 142.58 323.479 139.34 322.619 137.48C322.019 136.22 320.139 135.6 317.219 135.6Z" fill="#C8C8C8"/>
<path d="M284.938 162.78C288.918 161.54 293.158 159.9 297.438 157.94C305.138 154.42 311.998 150.32 316.778 146.36C319.058 144.48 320.718 142.72 321.718 141.22C317.818 142.44 313.618 144.06 309.278 146.04C297.478 151.44 288.198 158 284.938 162.78Z" fill="white"/>
<path d="M279.538 161.42C279.078 161.42 278.618 161.28 278.218 161C277.178 160.26 276.958 158.84 277.678 157.8C277.798 157.62 280.778 153.5 288.318 149.04C289.398 148.4 290.818 148.76 291.458 149.84C292.098 150.92 291.738 152.32 290.658 152.98C284.038 156.9 281.438 160.42 281.418 160.46C280.958 161.1 280.258 161.42 279.538 161.42Z" fill="white"/>
<path d="M295.68 150.28C294.84 150.28 294.04 149.82 293.64 149.02C293.08 147.9 293.52 146.52 294.66 145.94L296.28 145.12C297.4 144.56 298.78 145 299.36 146.14C299.92 147.26 299.48 148.64 298.34 149.22L296.72 150.04C296.38 150.2 296.04 150.28 295.68 150.28Z" fill="white"/>
<path d="M343.92 369.58L317.22 336.3C317.22 336.3 313.48 331.32 313.78 326.22C314.08 321.12 314.68 318.78 311.02 315.58L307.82 313.32C307.82 313.32 305.48 307.78 302.48 306.12C299.48 304.46 297.74 306.04 297.28 307.48C297.28 307.48 294.02 307 292.88 308.72C291.74 310.44 292.36 312.66 292.36 312.66C292.36 312.66 290.08 313.18 289.2 315.24C288.34 317.3 289.1 319.3 289.1 319.3C289.1 319.3 287.34 320.18 286.8 321.58C286.26 322.98 284.94 325.64 290.6 331.72C296.26 337.78 299.4 337.98 303.94 345.26C308.48 352.52 316.54 366.22 320.82 378.94L343.92 369.58Z" fill="white"/>
<path d="M294.1 281.3C281 276.36 269.9 274.16 269.9 274.16L285.2 236.34C285.2 236.34 298.32 238.16 311.48 241.6L294.1 281.3Z" fill="white"/>
<path d="M335.42 251.9C337.12 245.06 324.22 239.7 310.78 236.04C310.22 235.88 309.66 235.74 309.1 235.6L291.72 275.3C300.14 278.48 309.4 282.8 317.04 288.42" fill="white"/>
<path d="M344.38 369.18L317.68 335.9C315.02 332.56 313.88 328.18 314.56 323.88C314.86 322.02 314.8 320.44 314.38 319.06C313.6 316.48 310.48 314.06 308.06 312.76C308.02 312.74 308 312.72 307.96 312.72C307.96 312.64 307.94 312.56 307.9 312.48C307.78 312.26 307.36 311.46 306.74 310.48L335.96 252.18C336.02 252.08 336.04 251.96 336.02 251.84C337.28 245.86 328.82 240.36 310.9 235.48C310.34 235.32 309.78 235.16 309.22 235.02C308.94 234.94 308.64 235.08 308.52 235.36L306.58 239.78C295.4 237.16 285.4 235.76 285.28 235.74C285 235.7 284.74 235.84 284.64 236.1L269.34 273.92C269.26 274.1 269.28 274.28 269.36 274.44C269.46 274.6 269.6 274.7 269.78 274.74C269.88 274.76 280.98 276.98 293.88 281.86C293.96 281.88 294.02 281.9 294.1 281.9C294.34 281.9 294.56 281.76 294.64 281.54L296.28 277.78C304.16 281.08 310.88 284.72 316.32 288.68L305.96 309.34C304.6 307.34 302.7 305.08 300.92 304.7C299.22 304.24 298.12 305 297.52 305.72C297.06 306.26 296.8 306.84 296.7 307.14C295.68 306.8 294.78 306.82 294 307.18C291.44 308.4 291.28 310.8 291.62 312.3C290.94 312.54 289.86 313.08 289.1 314.22C288.28 315.44 288.04 317.04 288.38 318.94C287.54 319.34 286.1 320.48 285.88 323.64C285.64 326.96 287.8 330.38 293.12 334.94L286.48 348.18C286.32 348.48 286.44 348.84 286.74 348.98C286.82 349.02 286.9 349.04 287 349.04C287.22 349.04 287.42 348.92 287.54 348.72L294.06 335.74C294.96 336.48 295.94 337.26 297 338.06C307.42 345.98 320.12 378.84 320.24 379.18C320.34 379.42 320.56 379.56 320.8 379.56C320.88 379.56 320.94 379.56 321 379.52C321.3 379.4 321.46 379.04 321.34 378.74C321.3 378.66 318.08 370.28 313.6 361.04C307.56 348.58 302.2 340.52 297.7 337.1C296.58 336.24 295.54 335.42 294.6 334.64L297.3 329.26C297.96 329.48 298.64 329.64 299.28 329.64C300.12 329.64 300.86 329.36 301.34 328.64C301.72 329.92 302.44 331.04 303.5 331.96C303.62 332.06 303.76 332.1 303.9 332.1C304.06 332.1 304.22 332.04 304.36 331.9C304.58 331.66 304.54 331.28 304.3 331.06C300.1 327.36 303.42 320.94 304.48 319.16L307.24 321.7C307.48 321.92 307.86 321.9 308.08 321.66C308.3 321.42 308.28 321.04 308.04 320.82L303.58 316.68C303.42 316.52 303.2 316.48 303 316.54C299.78 317.52 297.9 317.28 296.9 316.88C296.4 316.7 296.08 316.46 295.86 316.26C297.18 315.42 300.54 313.32 302.74 312.64C303.72 312.34 305.52 312.8 307.48 313.84C310.36 315.38 312.68 317.62 313.22 319.44C313.58 320.66 313.62 322.06 313.36 323.74C312.62 328.38 313.86 333.1 316.74 336.7L343.44 369.98C343.56 370.12 343.72 370.2 343.9 370.2C344.04 370.2 344.16 370.16 344.26 370.04C344.54 369.82 344.58 369.44 344.38 369.18ZM276.76 258.86L277.86 262.28C278.38 263.86 280.1 264.72 281.68 264.2C283.26 263.68 284.12 261.96 283.6 260.38L280.26 250.26C280.26 250.24 280.26 250.24 280.24 250.22L285.6 237C287.38 237.26 293.98 238.26 301.9 239.96L286.48 278C278.82 275.54 272.74 274.14 270.72 273.72L276.76 258.86ZM292.5 274.98L309.42 236.32C309.82 236.42 310.2 236.54 310.6 236.64C327.74 241.32 336.12 246.56 334.82 251.78V251.8L327.52 266.36L324.48 256.98C323.68 254.46 320.96 253.08 318.44 253.88C315.92 254.68 314.54 257.4 315.34 259.92L321.36 278.62L316.86 287.58C310.42 282.94 302.24 278.7 292.5 274.98ZM300.4 327.84C299.7 329.22 296.84 327.82 295.62 327.22C295.44 327.12 295.3 327.06 295.18 327C294.1 326.5 290.96 326.16 290.6 326.12C290.26 326.1 289.98 326.34 289.94 326.66C289.92 327 290.16 327.28 290.48 327.32C291.38 327.42 293.9 327.74 294.68 328.1C294.8 328.16 294.94 328.22 295.1 328.3C295.4 328.44 295.78 328.62 296.22 328.82L293.7 333.84C288.9 329.68 286.88 326.54 287.08 323.72C287.3 320.86 288.6 320.12 289.04 319.94L291.46 320.6C294.86 321.52 298.1 323.24 300.86 325.6C300.9 325.68 301.16 326.36 300.4 327.84ZM294.66 315.6C294.42 315.76 294.34 316.1 294.46 316.36C294.52 316.48 295.5 318.42 299.06 318.42C300.14 318.42 301.44 318.24 303.04 317.78L303.6 318.3C303.22 318.92 302.34 320.44 301.72 322.3C301.7 322.32 301.68 322.32 301.68 322.34C301.28 322.68 299.2 322.32 297.22 321.54C297.14 321.5 297.06 321.5 296.98 321.5C295.32 320.62 293.56 319.92 291.78 319.44L289.62 318.86C289.3 317.22 289.46 315.88 290.12 314.9C290.98 313.58 292.46 313.3 292.48 313.3C292.54 313.28 292.6 313.26 292.66 313.24C293.08 313.16 294.6 313.02 296.62 314.36C295.52 315.02 294.74 315.54 294.66 315.6ZM297.74 313.68C295.56 312.06 293.74 311.94 292.82 312.02C292.62 311.16 292.44 309.2 294.54 308.2C295.84 307.6 297.7 308.72 299.02 309.78C299.96 310.54 300.76 311.34 301.26 311.88C300.1 312.36 298.84 313.04 297.74 313.68ZM302.48 311.44C302.04 310.96 301.04 309.88 299.78 308.88C299.1 308.34 298.46 307.92 297.84 307.6C297.9 307.46 298.08 306.92 298.46 306.48C299.02 305.82 299.74 305.62 300.64 305.86C300.66 305.86 300.66 305.86 300.68 305.86C302.52 306.24 304.9 309.72 306.22 311.92C304.72 311.36 303.4 311.18 302.48 311.44Z" fill="black"/>
<path d="M57.3791 387.02L91.6991 342.5C91.6991 342.5 97.7191 340.78 97.6791 340.28C97.6791 340.28 97.2791 343.68 98.1791 343.72C99.0791 343.76 102.679 337.56 102.679 337.56C102.679 337.56 105.839 336.16 104.079 332.92C104.079 332.92 105.879 331.42 105.279 329.96C104.679 328.5 104.839 327.92 104.839 327.92C104.839 327.92 107.819 327.12 107.519 323.32C107.519 323.32 108.779 322.52 108.639 322.62C108.499 322.72 103.699 314.92 103.699 314.92C103.699 314.92 95.4991 316.02 94.2991 316.52C93.0991 317.02 46.4991 366.42 46.4991 366.42C46.4991 366.42 43.2991 373.42 48.1991 380.32C53.0991 387.22 57.3791 387.02 57.3791 387.02Z" fill="white"/>
<path d="M117.88 249C117.88 234.78 61.6199 240.74 61.6199 240.74L55.8799 281.14C55.8799 281.14 86.4199 279.68 108.82 288.88" fill="white"/>
<path d="M118.479 249C118.479 247.32 117.759 245.8 116.339 244.52C112.119 240.7 101.579 238.82 85.0595 238.9C72.8395 238.96 61.6794 240.12 61.5595 240.14C61.2794 240.18 61.0595 240.38 61.0195 240.66L55.2795 281.06C55.2595 281.22 55.3195 281.4 55.4395 281.54C55.5595 281.68 55.7395 281.74 55.9195 281.74C56.2195 281.72 86.1595 280.4 108.139 289.24L102.419 314.48C100.179 314.74 95.4595 315.36 94.0195 316C93.6795 316.16 92.7994 316.56 68.7595 341.84C56.9194 354.3 45.1595 366.82 45.0395 366.94C44.7995 367.18 44.8195 367.56 45.0595 367.78C45.1795 367.88 45.3395 367.94 45.4795 367.94C45.6395 367.94 45.7995 367.88 45.8995 367.74C64.4995 347.96 92.7595 318.18 94.5195 317.08C95.8795 316.5 101.039 315.84 103.359 315.58L107.919 322.5C107.819 322.52 107.719 322.54 107.619 322.56C107.559 322.54 107.499 322.52 107.439 322.52C107.339 322.52 107.259 322.56 107.179 322.6C105.919 322.66 104.119 322.24 103.019 319.7C102.959 319.56 102.819 319.44 102.659 319.38C102.479 319.32 102.299 319.36 102.159 319.44L95.3595 323.54C95.0795 323.7 94.9795 324.08 95.1595 324.36C95.3195 324.64 95.6995 324.74 95.9795 324.56L100.899 321.58L100.079 325.22C99.5195 325.5 98.8995 325.8 98.2994 326.1C94.0195 328.34 93.6195 329.42 93.7995 330.16C93.8595 330.42 94.0395 330.78 94.5795 331C94.8995 331.12 95.2995 331.18 95.7995 331.18C96.0395 331.18 96.2994 331.16 96.5794 331.14C96.3595 331.28 96.1395 331.44 95.9195 331.6C92.7595 333.86 92.4195 334.78 92.4995 335.4C92.5195 335.62 92.6595 336 93.1995 336.22C93.4795 336.34 93.9195 336.4 94.4395 336.4C95.1795 336.4 96.1195 336.3 97.1195 336.1C93.2995 338.88 93.5595 339.44 93.7395 339.82C93.8395 340 94.0195 340.26 94.4595 340.42C94.7195 340.52 95.0395 340.56 95.3995 340.56C95.4595 340.56 95.5395 340.56 95.5995 340.56C94.0595 341.34 91.6395 342.16 89.0795 341.64C88.7595 341.56 88.4395 341.78 88.3795 342.1C88.2995 342.42 88.5195 342.74 88.8395 342.8C89.4195 342.92 90.0195 342.98 90.5795 343L56.9195 386.66C56.6995 386.92 56.7595 387.3 57.0195 387.5C57.1195 387.58 57.2595 387.62 57.3795 387.62C57.5595 387.62 57.7394 387.54 57.8595 387.4L92.1595 342.9C93.8595 342.66 95.3195 342.06 96.3795 341.5L93.5595 354.18C93.4995 354.5 93.6995 354.82 94.0195 354.9C94.0795 354.92 94.1195 354.92 94.1595 354.92C94.4195 354.92 94.6795 354.74 94.7395 354.44L97.1595 343.6C97.3395 343.92 97.6194 344.16 97.9795 344.28C98.0395 344.32 98.1195 344.34 98.2195 344.34C98.7395 344.34 99.6994 343.52 103.519 337.42C104.579 336.62 105.179 335.76 105.279 334.88C105.379 334.1 105.079 333.46 104.779 333.08C106.499 331.48 105.979 329.46 105.339 328.38C105.579 328.24 105.799 328.12 105.999 327.98C107.559 326.96 107.999 325.16 108.059 323.64C108.679 323.52 109.099 323.36 109.099 323.36C109.259 323.28 109.399 323.14 109.439 322.98C109.479 322.82 109.459 322.62 109.359 322.48L104.159 314.58C104.059 314.42 103.879 314.34 103.679 314.32L118.419 249.22C118.459 249.16 118.479 249.08 118.479 249ZM98.1795 343C98.1595 342.98 98.1595 342.94 98.1395 342.92C97.9195 342.26 98.5795 340.64 99.1395 339.72C99.1395 339.7 99.1595 339.7 99.1595 339.68C99.8195 339.44 100.499 339.12 101.219 338.78C99.9595 340.7 98.7195 342.44 98.1795 343ZM104.079 334.74C103.999 335.28 103.459 336.38 100.719 337.7C97.4795 339.28 95.7395 339.44 95.0795 339.36C95.7995 338.58 98.0195 336.92 99.9795 335.58C100.079 335.52 100.139 335.42 100.179 335.34C101.579 334.9 102.899 334.36 103.819 333.8C103.939 333.96 104.159 334.3 104.079 334.74ZM103.719 332.42C101.579 334.1 94.9595 335.54 93.7195 335.12C94.0795 334.36 96.6995 332.36 99.7195 330.52C101.319 330.08 102.959 329.5 104.259 328.92C104.539 329.36 105.439 331.06 103.719 332.42ZM105.339 327C104.199 327.74 101.819 328.7 99.5195 329.32C99.4595 329.32 99.3994 329.34 99.3594 329.36C96.3994 330.14 95.2195 329.98 94.9595 329.86C95.0395 329.66 95.5594 328.84 99.0594 327.04C101.159 325.96 103.279 325.06 103.299 325.06C103.599 324.94 103.739 324.58 103.619 324.28C103.499 323.98 103.139 323.84 102.839 323.96C102.839 323.96 102.279 324.2 101.459 324.56L102.279 320.9C103.559 323.18 105.379 323.74 106.819 323.76C106.779 324.94 106.439 326.28 105.339 327ZM101.179 285.58C82.2395 280.04 60.7595 280.38 56.5795 280.5L58.2395 268.8L72.6995 261.04C76.0395 259.24 77.3195 255.04 75.5195 251.7C73.7195 248.36 69.5195 247.08 66.1795 248.88L60.6395 251.86L62.1395 241.28C66.8795 240.82 106.239 237.26 115.459 245.32L101.179 285.58Z" fill="black"/>
<path d="M96.8195 268.14L82.1195 275.84C79.8195 277.04 76.9795 276.14 75.7795 273.86C74.5795 271.56 75.4795 268.72 77.7595 267.52L92.4595 259.82C94.7595 258.62 97.5995 259.52 98.7995 261.8C99.9995 264.1 99.0995 266.94 96.8195 268.14Z" fill="black"/>
<path d="M194.22 367.12L174.48 331.12L159.86 305.62L151.18 301.7L144.16 308.02L145.46 308.66C145.46 308.66 144.46 312.26 147.3 314.46C147.3 314.46 144.46 316.22 146.6 319.06C146.6 319.06 144.56 319.76 145.84 322.3L146.74 324.8C146.74 324.8 148.64 330.76 149.22 330.94C149.8 331.1 150.94 330 150.94 330L151.3 328.1L156.1 331.44L177.8 382.6C177.8 382.6 185.1 383.1 189.8 377.9C194.92 372.24 194.22 367.12 194.22 367.12Z" fill="white"/>
<path d="M154.12 234.32C172.08 251.52 202.78 253.74 202.78 253.74L202.08 288.32C202.08 288.32 175.28 290.72 152.8 275.18" fill="white"/>
<path d="M202.84 253.16C202.76 253.16 195.1 252.58 185.34 249.92C176.38 247.46 163.8 242.72 154.62 233.96C154.52 233.82 154.34 233.74 154.16 233.72C153.84 233.7 153.56 233.96 153.54 234.3L151.24 301.08C151.06 301.06 150.88 301.1 150.76 301.24L143.74 307.56C143.6 307.68 143.52 307.84 143.54 308.02C143.56 308.2 143.64 308.38 143.78 308.48C143.8 308.48 144.16 308.76 144.74 309.04C144.4 310.52 144.34 312.42 145.62 313.8C145.78 313.96 145.96 314.14 146.16 314.34C145.28 315.22 144.28 317.02 145.5 319.02C145.12 319.32 144.7 319.84 144.6 320.6C144.5 321.44 144.82 322.36 145.54 323.34C145.54 323.36 145.54 323.38 145.56 323.42C147.98 331.02 148.62 331.56 149.12 331.56C149.16 331.56 149.2 331.56 149.26 331.58C149.62 331.54 149.94 331.4 150.2 331.16L149.82 342.22C149.8 342.56 150.06 342.82 150.42 342.84C150.74 342.84 151 342.58 151.02 342.26L151.46 329.24C152.34 330.04 153.62 331.02 155.2 331.68L177.14 383.42C177.24 383.64 177.46 383.78 177.7 383.78C177.78 383.78 177.86 383.76 177.92 383.74C178.22 383.62 178.36 383.26 178.24 382.96L156.72 332.18C157.28 332.32 157.86 332.4 158.46 332.44C158.48 332.44 158.48 332.44 158.5 332.44C158.82 332.44 159.08 332.2 159.1 331.9C159.12 331.56 158.88 331.28 158.54 331.26C155.92 331.12 153.78 329.68 152.48 328.54C152.84 328.66 153.18 328.72 153.48 328.72C153.52 328.72 153.58 328.72 153.64 328.7C154.1 328.66 154.34 328.46 154.48 328.3C154.76 327.98 155.14 327.5 152.16 323.86C153.58 324.54 154.9 324.98 155.7 324.98C155.78 324.98 155.84 324.98 155.86 324.96C156.46 324.88 156.68 324.54 156.76 324.34C157 323.78 156.92 322.78 154.42 319.8C154.24 319.58 154.06 319.38 153.9 319.18C154.58 319.44 155.2 319.58 155.66 319.58C155.74 319.58 155.82 319.58 155.9 319.56C156.48 319.48 156.76 319.18 156.88 318.94C157.24 318.26 157.12 317.14 153.54 313.88C153.02 313.42 152.5 312.96 152.02 312.56L152.14 308.8L156.16 312.92C156.38 313.16 156.76 313.18 157 312.94C157.24 312.72 157.26 312.34 157.02 312.1L151.48 306.42C151.36 306.3 151.2 306.24 151.02 306.24C150.84 306.24 150.68 306.32 150.58 306.46C148.84 308.64 146.98 308.58 145.78 308.18C145.72 308.14 145.68 308.12 145.6 308.1C145.56 308.1 145.52 308.08 145.48 308.08C145.34 308.02 145.22 307.98 145.12 307.92L151.28 302.38C153.46 303.22 158.3 305.16 159.46 306.08C160.88 307.58 180.7 343.54 193.68 367.4C193.78 367.6 193.98 367.72 194.2 367.72C194.3 367.72 194.4 367.7 194.48 367.62C194.78 367.46 194.88 367.1 194.72 366.8C194.64 366.66 186.42 351.56 178.12 336.52C161.28 305.98 160.5 305.38 160.22 305.14C158.98 304.14 154.48 302.34 152.4 301.52L153.28 276.22C164.76 283.9 177.24 286.96 185.78 288.16C190.82 288.88 195.1 289.04 198.02 289.04C200.58 289.04 202.08 288.9 202.14 288.92C202.44 288.9 202.68 288.64 202.68 288.34L203.38 253.76C203.4 253.46 203.16 253.18 202.84 253.16ZM149.44 330.22C149.42 330.24 149.4 330.26 149.38 330.28C149 329.58 148.24 327.56 147.48 325.36C147.5 325.36 147.5 325.38 147.52 325.38C148.12 325.9 148.72 326.36 149.28 326.78C149.28 326.82 149.3 326.86 149.3 326.88C149.6 327.92 149.84 329.64 149.44 330.22ZM153.34 327.5C152.68 327.4 151.04 326.82 148.3 324.46C145.98 322.48 145.74 321.3 145.8 320.76C145.84 320.34 146.1 320.06 146.26 319.94C147.02 320.7 148.16 321.56 149.44 322.34C149.46 322.44 149.5 322.52 149.58 322.58C151.12 324.4 152.84 326.58 153.34 327.5ZM155.68 323.78C154.34 323.86 148.32 320.8 146.7 318.64C145.36 316.88 146.72 315.44 147.08 315.12C148.18 316 149.6 316.96 151.02 317.78C151.36 318.14 152.4 319.22 153.42 320.44C155.24 322.6 155.6 323.48 155.68 323.78ZM145.9 309.42C147.3 309.76 149.2 309.66 151 307.8L150.88 311.58C150.18 311.02 149.72 310.66 149.7 310.66C149.44 310.46 149.06 310.52 148.86 310.78C148.66 311.04 148.72 311.42 148.98 311.62C152.66 314.42 155.82 317.52 155.84 318.36C155.56 318.44 154.36 318.28 151.62 316.72C149.54 315.54 147.44 314 146.52 312.98C145.64 312 145.64 310.6 145.9 309.42ZM201.52 287.76C199.74 287.86 193.76 288.08 185.94 286.98C177.94 285.84 166.42 283.06 155.6 276.3L158.82 239.02C163.44 242.42 168.52 245.06 173.4 247.1L183.4 263.78C184.76 266.04 187.72 266.78 189.98 265.44C192.24 264.1 192.98 261.12 191.64 258.86L187.32 251.66C194.6 253.48 200.4 254.14 202.18 254.3L201.52 287.76Z" fill="black"/>
<path d="M166.46 270.9L160.86 261.84C159.98 260.42 160.42 258.56 161.84 257.68C163.26 256.8 165.12 257.24 166 258.66L171.6 267.72C172.48 269.14 172.04 271 170.62 271.88C169.2 272.74 167.32 272.3 166.46 270.9Z" fill="black"/>
<path d="M139.06 386.64L135.48 324.72C135.48 324.72 139.22 322.6 139.8 319.52C140.38 316.44 141.28 308.42 136.78 306.02L135.26 307.46C135.26 307.46 134.84 303.94 132.72 304.18C130.6 304.42 130.34 307 130.34 307C130.34 307 129.46 303.22 127.22 303.42C124.98 303.64 125.12 306.56 125.12 306.56C125.12 306.56 123.3 304.24 121.8 305.42C120.3 306.6 120.46 309.4 120.46 309.4C120.46 309.4 116.6 311 115 314C113.4 317 115.5 320.2 119.3 323C119.3 323 121.3 324.2 119.4 331.7C117.5 339.2 111 387.9 111 387.9C111 387.9 113.18 394.92 125.48 396.02C137.78 397.12 139.06 386.64 139.06 386.64Z" fill="white"/>
<path d="M137.04 324.32C138.22 323.54 139.84 322.48 140.42 319.64C140.82 317.68 140.98 315.18 140.86 312.96C140.76 311.08 140.42 308.56 139.34 307.1C138.86 306.44 137.6 305.32 136.32 305.7C136.1 305.78 135.9 305.88 135.7 306.02C135.56 305.42 135.28 304.76 134.78 304.28C134.24 303.76 133.54 303.52 132.7 303.58C132.04 303.62 131.44 303.96 130.94 304.54C130.76 304.76 130.58 305 130.44 305.28C130.38 305.16 130.32 305.02 130.26 304.9C129.54 303.48 128.46 302.76 127.18 302.84C126.04 302.9 125.22 303.86 124.74 305.7C124.4 305.34 123.98 305 123.46 304.8C122.84 304.58 122.2 304.62 121.56 304.92C121.06 305.16 120.46 305.86 119.76 308.9C118.64 309.54 112.3 313.5 113.68 317.78C114.44 320.14 116.1 321.48 117.44 322.54C118.56 323.44 119.46 324.14 119.54 325.16C119.72 327.3 113 371.12 110.4 387.82C110.34 388.14 110.58 388.44 110.9 388.5C110.94 388.5 110.96 388.5 111 388.5C111.3 388.5 111.56 388.3 111.58 388.02C111.96 385.58 120.96 327.8 120.74 325.08C120.62 323.56 119.44 322.62 118.2 321.62C116.94 320.6 115.48 319.44 114.84 317.42C113.98 314.68 117.54 311.84 119.42 310.56C119.4 310.68 119.38 310.78 119.36 310.9C118.9 313.44 118.62 315.94 118.62 315.96C118.58 316.28 118.82 316.58 119.14 316.62C119.16 316.62 119.18 316.62 119.2 316.62C119.5 316.62 119.76 316.4 119.82 316.1C120.32 311.6 121.36 306.46 122.08 306C122.42 305.84 122.72 305.8 123.04 305.92C123.68 306.16 124.22 306.96 124.42 307.34C124.2 308.96 124.24 310.4 124.24 310.46C124.24 310.78 124.52 311.04 124.84 311.04C125.18 311.04 125.46 310.76 125.44 310.42C125.38 307.9 125.92 304.12 127.26 304.04C129.22 303.92 129.76 307.06 129.76 307.1C129.76 307.14 129.78 307.16 129.78 307.2C129.66 307.9 129.62 308.66 129.68 309.44C129.7 309.76 129.98 310 130.28 310C130.3 310 130.3 310 130.36 309.98C130.68 309.96 130.92 309.68 130.9 309.34C130.78 307.74 131.16 306.16 131.88 305.32C132.08 305.1 132.4 304.8 132.8 304.78C133.28 304.74 133.66 304.86 133.96 305.14C134.58 305.76 134.7 307 134.68 307.44C134.68 307.52 134.68 307.6 134.72 307.68C134.52 308.36 134.38 309.22 134.32 310.26C134.3 310.58 134.54 310.86 134.88 310.88C135.2 310.9 135.48 310.66 135.5 310.32C135.66 307.38 136.42 306.94 136.66 306.86C137.2 306.68 138 307.34 138.36 307.82C139.84 309.84 140 315.54 139.22 319.4C138.74 321.74 137.48 322.58 136.36 323.3C135.86 323.62 135.4 323.92 135.04 324.32C134.7 324.7 134.22 325.26 136.28 356.16C137.3 371.32 138.44 386.52 138.46 386.68C138.48 387 138.74 387.24 139.06 387.24C139.08 387.24 139.08 387.24 139.14 387.24C139.48 387.22 139.72 386.94 139.7 386.6C137.92 363.14 135.48 327.62 136.04 325.06C136.28 324.82 136.64 324.58 137.04 324.32Z" fill="black"/>
<path d="M132.56 348.6C132.36 348.34 131.98 348.3 131.72 348.52C131.46 348.72 131.42 349.1 131.64 349.36L133.1 351.1C133.22 351.24 133.38 351.32 133.56 351.32C133.68 351.32 133.82 351.28 133.94 351.18C134.2 350.98 134.24 350.6 134.02 350.34L132.56 348.6Z" fill="black"/>
<path d="M131.38 353.04C131.18 352.76 130.8 352.7 130.54 352.9C130.26 353.1 130.2 353.48 130.4 353.74L132.4 356.54C132.5 356.72 132.7 356.8 132.88 356.8C133 356.8 133.12 356.76 133.24 356.68C133.52 356.48 133.58 356.1 133.38 355.84L131.38 353.04Z" fill="black"/>
<path d="M130.819 359.14C130.619 358.88 130.239 358.84 129.979 359.04C129.719 359.24 129.679 359.62 129.879 359.88L131.739 362.28C131.859 362.44 132.039 362.52 132.219 362.52C132.339 362.52 132.479 362.48 132.579 362.38C132.839 362.18 132.879 361.8 132.679 361.54L130.819 359.14Z" fill="black"/>
<path d="M271.88 358.24L259.52 309.64L261.08 291.66C261.08 291.66 262.28 286.72 261.48 283.72C260.68 280.72 260.02 280.66 259.54 280.66C259.08 280.66 259.6 274.42 258.24 274.78C256.88 275.14 254 285.46 253.14 287.74C252.28 290 250.9 292.78 249.88 292.06C248.86 291.34 247.06 287.68 246.2 281.94C245.34 276.2 243.32 270.56 242.02 271.38C240.72 272.2 241.16 278.4 241.16 278.4C241.16 278.4 239.68 274.48 238.56 275.04C237.46 275.6 240.56 296.06 239.28 297.46C239.28 297.46 237.2 296.54 235.6 294.4C234 292.26 229.5 288.64 228.12 291.04C228.12 291.04 228.86 294 232.66 298.8C236.46 303.6 242.6 310.54 242.6 310.54L245.68 359.8L271.88 358.24Z" fill="white"/>
<path d="M272.441 358.08L260.101 309.56C260.141 308.36 260.781 295.38 261.241 292.2C261.261 292.06 261.301 291.82 261.361 291.52C262.281 286.46 262.941 280.58 259.941 280C259.861 279.98 259.761 280 259.681 280.02C259.901 275.24 259.181 274.34 258.341 274.18C256.841 273.92 255.981 276.54 254.301 282.02C253.561 284.46 252.801 286.98 251.981 288.86C250.861 291.42 250.201 291.5 250.021 291.46C248.721 291.18 247.401 285.22 246.541 281.26C245.061 274.48 244.041 270.36 241.921 270.78C241.661 270.84 241.261 271 240.961 271.48C240.481 272.24 240.341 273.76 240.421 275.64C239.921 274.98 239.301 274.44 238.581 274.44C238.361 274.44 238.161 274.54 238.021 274.7C237.421 275.34 237.561 277.46 238.321 284.96C238.761 289.32 239.441 295.88 238.921 296.96C238.461 296.82 237.221 295.46 236.401 294.54C233.941 291.8 230.581 288.06 227.741 290.6C226.661 291.56 227.841 293.76 237.041 304.84C239.301 307.56 241.841 310.62 242.081 311.26C242.201 313.38 244.981 357.9 245.101 359.82C245.121 360.14 245.381 360.38 245.701 360.38C245.701 360.38 245.721 360.38 245.781 360.4C246.101 360.38 246.361 360.1 246.341 359.76C246.301 359.28 243.381 312.5 243.321 311.16C243.281 310.52 242.221 309.16 238.001 304.08C235.881 301.52 233.461 298.6 231.621 296.16C229.041 292.76 228.681 291.72 228.661 291.42C230.441 289.96 232.841 292.34 235.541 295.34C237.341 297.34 238.641 298.78 239.701 297.92C240.641 297.16 240.481 293.98 239.541 284.82C239.201 281.5 238.741 277.06 238.901 275.74C239.501 276.14 240.241 277.54 240.621 278.6C240.641 278.66 240.661 278.7 240.701 278.74C241.421 284.66 243.261 291.98 243.561 293.2C243.621 293.48 243.881 293.66 244.141 293.66C244.201 293.66 244.241 293.66 244.301 293.62C244.621 293.54 244.821 293.22 244.741 292.9C242.901 285.7 240.641 274.22 241.981 272.1C242.041 272 242.101 271.96 242.161 271.94C242.181 271.92 242.761 271.84 243.621 274.46C244.241 276.32 244.821 278.96 245.381 281.5C246.841 288.16 247.861 292.22 249.781 292.62C252.041 293.1 253.441 289.06 255.481 282.36C256.281 279.76 257.461 275.88 258.161 275.38C258.341 275.64 258.921 277.02 258.181 283.94C257.741 287.98 257.061 291.92 257.061 291.96C257.001 292.3 257.221 292.6 257.541 292.66C257.881 292.72 258.181 292.5 258.241 292.18C258.241 292.14 258.961 287.88 259.401 283.64C259.501 282.72 259.561 281.9 259.621 281.14C259.661 281.16 259.701 281.16 259.721 281.18C260.561 281.34 261.721 282.88 260.201 291.32C260.141 291.66 260.101 291.88 260.081 292.04C259.601 295.4 258.941 309.02 258.921 309.6C258.921 309.66 258.921 309.72 258.941 309.78L271.301 358.38C271.361 358.66 271.621 358.84 271.881 358.84C271.941 358.84 271.981 358.84 272.001 358.8C272.321 358.72 272.521 358.4 272.441 358.08Z" fill="black"/>
<path d="M260.36 326.52C260.28 326.52 260.2 326.5 260.1 326.46L258.36 325.66C258.06 325.52 257.92 325.16 258.06 324.86C258.2 324.56 258.56 324.42 258.86 324.56L260.6 325.36C260.9 325.5 261.04 325.86 260.9 326.16C260.8 326.4 260.58 326.52 260.36 326.52Z" fill="black"/>
<path d="M261.161 329.32C261.061 329.32 260.981 329.3 260.901 329.26L258.501 328.06C258.201 327.92 258.081 327.56 258.241 327.26C258.381 326.96 258.741 326.84 259.041 327L261.441 328.2C261.741 328.34 261.861 328.7 261.701 329C261.581 329.2 261.381 329.32 261.161 329.32Z" fill="black"/>
<path d="M262.62 333.72C262.52 333.72 262.44 333.7 262.36 333.66L259.7 332.32C259.4 332.18 259.28 331.82 259.44 331.52C259.58 331.22 259.94 331.1 260.24 331.26L262.9 332.6C263.2 332.74 263.32 333.1 263.16 333.4C263.06 333.6 262.84 333.72 262.62 333.72Z" fill="black"/>
<path d="M45.8199 325C45.8199 325 62.6199 309.8 63.2199 307.26C63.2199 307.26 62.5599 305.6 59.4799 306.92C56.4199 308.26 51.5399 313.38 51.2199 311.92C50.8799 310.46 55.2799 289.86 55.2799 289.86L53.0799 291.4C53.0799 291.4 53.7399 285.8 52.4199 285.74C51.0799 285.68 48.6799 290.08 47.8799 292.68C47.0799 295.28 42.9399 306.28 41.5399 305.02C40.1399 303.76 38.1399 298.82 38.1999 294.62C38.2599 290.42 36.5399 286.36 35.8599 286.68C35.1999 287.02 34.2599 292.14 34.2599 292.14C34.2599 292.14 32.2599 291.94 31.7999 293.2C31.3399 294.46 30.8599 300.06 30.9999 302.54C31.1399 305 29.3799 320.96 29.3799 320.96L9.87988 367.16C9.87988 367.16 11.9399 375.28 21.3999 378.74C30.8599 382.2 35.7999 373.4 35.7999 372.6C35.7999 371.8 45.8199 325 45.8199 325Z" fill="white"/>
<path d="M63.6997 306.84C61.2797 303.9 57.3797 307.1 54.5397 309.44C53.5997 310.24 52.1797 311.4 51.6797 311.46C51.3397 310.32 52.9797 303.94 54.0797 299.68C55.9597 292.38 56.3997 290.3 55.9197 289.58C55.7997 289.38 55.6197 289.28 55.3997 289.24C54.6797 289.14 53.9597 289.58 53.3597 290.18C53.7197 288.34 53.7997 286.84 53.4597 286.02C53.2397 285.5 52.8797 285.28 52.6197 285.18C50.5797 284.46 48.9597 288.38 46.4797 294.86C45.0397 298.64 42.8397 304.34 41.5197 304.42C41.3397 304.42 40.6797 304.26 39.9597 301.54C39.4397 299.58 39.0597 296.96 38.6797 294.44C37.8397 288.76 37.3797 286.04 35.8597 286.08C34.9997 286.12 34.1397 286.88 33.6597 291.66C33.5797 291.62 33.4797 291.6 33.3797 291.6C30.3197 291.72 30.0997 297.64 30.2397 302.78C30.2597 303.08 30.2597 303.32 30.2597 303.46C30.2397 306.66 28.9197 319.6 28.7997 320.8L9.33973 366.92C9.21973 367.22 9.35973 367.58 9.65973 367.7C9.73973 367.72 9.81973 367.74 9.89973 367.74C10.1197 367.74 10.3397 367.6 10.4397 367.38L29.9397 321.18C29.9597 321.12 29.9797 321.06 29.9797 321C30.0397 320.42 31.4197 306.86 31.4597 303.46C31.4597 303.32 31.4397 303.08 31.4397 302.74C31.1997 294.18 32.5797 292.84 33.4197 292.8C33.4597 292.8 33.5197 292.8 33.5597 292.78C33.4997 293.52 33.4397 294.36 33.3997 295.28C33.1997 299.54 33.2797 303.86 33.2797 303.9C33.2797 304.22 33.5597 304.48 33.8797 304.48C33.8997 304.48 33.8997 304.48 33.8997 304.48C34.2197 304.46 34.4797 304.2 34.4797 303.86C34.4797 303.82 34.3997 299.84 34.5797 295.76C34.8797 288.8 35.6597 287.52 35.8797 287.3C36.4997 287.92 37.0797 291.92 37.4797 294.6C38.4997 301.52 39.2797 305.72 41.5797 305.6C43.5397 305.5 45.1597 301.64 47.5997 295.28C48.5197 292.84 49.4797 290.32 50.3797 288.58C51.6197 286.12 52.1797 286.3 52.1997 286.3C52.2597 286.32 52.3197 286.4 52.3597 286.5C53.3597 288.8 49.4197 299.8 46.5197 306.64C46.3997 306.94 46.5397 307.3 46.8397 307.42C46.9197 307.44 46.9997 307.46 47.0797 307.46C47.3197 307.46 47.5397 307.32 47.6197 307.12C48.0997 305.96 51.0197 299 52.6197 293.24C52.6797 293.2 52.7397 293.12 52.7797 293.06C53.3797 291.96 54.2997 290.8 54.9197 290.5C54.8597 291.84 53.7597 296.14 52.9197 299.38C50.6197 308.3 49.9797 311.42 50.7997 312.32C51.7197 313.32 53.2197 312.08 55.2997 310.38C58.4197 307.82 61.1397 305.82 62.6997 307.54C62.6197 307.84 62.0997 308.8 59.0597 311.78C56.8797 313.92 54.0597 316.44 51.5597 318.66C46.6197 323.06 45.3597 324.24 45.2397 324.86C44.9797 326.18 35.0797 372 34.9797 372.46C34.9197 372.8 35.1197 373.1 35.4397 373.18C35.4797 373.2 35.5197 373.2 35.5597 373.2C35.8397 373.2 36.0797 373 36.1597 372.68C36.5597 370.82 45.9997 327.2 46.4197 325.12C46.7597 324.52 49.7197 321.86 52.3597 319.52C63.1197 309.94 64.6197 307.96 63.6997 306.84Z" fill="black"/>
<path d="M36.7594 338.76C36.8594 338.86 37.0194 338.92 37.1594 338.92C37.3194 338.92 37.4794 338.86 37.5994 338.72C37.8194 338.48 37.7994 338.1 37.5594 337.88L35.8194 336.28C35.5794 336.06 35.1994 336.08 34.9794 336.32C34.7594 336.56 34.7794 336.94 35.0194 337.16L36.7594 338.76Z" fill="black"/>
<path d="M36.7602 342C36.9202 342 37.0802 341.92 37.2002 341.8C37.4202 341.56 37.3802 341.18 37.1402 340.96L35.0002 339.1C34.7602 338.88 34.3802 338.92 34.1602 339.16C33.9402 339.4 33.9802 339.78 34.2202 340L36.3602 341.86C36.4802 341.96 36.6202 342 36.7602 342Z" fill="black"/>
</svg>
