<svg width="40" height="40" viewBox="0 0 40 40" fill="none" xmlns="http://www.w3.org/2000/svg">
<path d="M20.0007 3.33325C10.8173 3.33325 3.33398 10.8166 3.33398 19.9999C3.33398 29.1833 10.8173 36.6666 20.0007 36.6666C29.184 36.6666 36.6673 29.1833 36.6673 19.9999C36.6673 10.8166 29.184 3.33325 20.0007 3.33325ZM26.7673 22.9833C26.5173 23.2333 26.2007 23.3499 25.884 23.3499C25.5673 23.3499 25.2507 23.2333 25.0007 22.9833L20.0007 17.9833L15.0007 22.9833C14.5173 23.4666 13.7173 23.4666 13.234 22.9833C12.7507 22.4999 12.7507 21.6999 13.234 21.2166L19.1173 15.3333C19.6007 14.8499 20.4007 14.8499 20.884 15.3333L26.7673 21.2166C27.2506 21.7166 27.2506 22.4999 26.7673 22.9833Z" fill="white"/>
</svg>
