<?xml version="1.0" encoding="UTF-8"?>
<svg width="24px" height="24px" viewBox="0 0 24 24" version="1.1" xmlns="http://www.w3.org/2000/svg" xmlns:xlink="http://www.w3.org/1999/xlink">
    <title>vuesax/bold/arrow-right</title>
    <g id="Page-1" stroke="none" stroke-width="1" fill="none" fill-rule="evenodd">
        <g id="Calendar" transform="translate(-1096.000000, -557.000000)">
            <g id="arrow-right" transform="translate(1096.000000, 557.000000)">
                <path d="M2,12 C2,17.52 6.48000002,22 12,22 C17.52,22 22,17.52 22,12 C22,6.48000002 17.52,2 12,2 C6.48000002,2 2,6.48000002 2,12 Z M13.0299997,15.5299997 C12.8799997,15.6799997 12.69,15.75 12.5,15.75 C12.31,15.75 12.1200003,15.6799997 11.9700003,15.5299997 C11.6800003,15.2399997 11.6800003,14.7600003 11.9700003,14.4700003 L13.6899996,12.75 L8.5,12.75 C8.09,12.75 7.75,12.41 7.75,12 C7.75,11.59 8.09,11.25 8.5,11.25 L13.6899996,11.25 L11.9700003,9.52999973 C11.6800003,9.23999974 11.6800003,8.76000026 11.9700003,8.47000027 C12.2600003,8.18000028 12.7399997,8.18000028 13.0299997,8.47000027 L16.0300007,11.4700003 C16.3200007,11.7600003 16.3200007,12.2399997 16.0300007,12.5299997 L13.0299997,15.5299997 Z" id="Vector" fill="#292D32"></path>
                <path d="M24,0 L24,24 L0,24 L0,0 L24,0 Z" id="Vector" opacity="0" transform="translate(12.000000, 12.000000) rotate(-180.000000) translate(-12.000000, -12.000000) "></path>
            </g>
        </g>
    </g>
</svg>