<svg width="321" height="221" viewBox="0 0 321 221" fill="none" xmlns="http://www.w3.org/2000/svg">
<g clip-path="url(#clip0_2771_22084)">
<g filter="url(#filter0_bd_2771_22084)">
<rect x="1" width="320" height="134" rx="3.73178" fill="#20232A"/>
<rect x="1.46647" y="0.466472" width="319.067" height="133.067" rx="3.26531" stroke="#353945" stroke-width="0.932945"/>
</g>
<path d="M24.1522 32.737C24.1522 34.2761 23.7334 35.4538 22.8958 36.2702C22.0625 37.0822 20.8614 37.4883 19.2925 37.4883H16.7096V28.1643H19.5668C21.0166 28.1643 22.1433 28.5661 22.9469 29.3697C23.7504 30.1732 24.1522 31.2957 24.1522 32.737ZM23.0043 32.7753C23.0043 31.5593 22.6981 30.643 22.0859 30.0265C21.4779 29.4101 20.5723 29.1018 19.3691 29.1018H17.7938V36.5508H19.114C20.4065 36.5508 21.378 36.234 22.0285 35.6005C22.679 34.9628 23.0043 34.021 23.0043 32.7753ZM32.1114 33.987C32.1114 35.1265 31.8244 36.0172 31.2504 36.6592C30.6765 37.297 29.8835 37.6158 28.8716 37.6158C28.2466 37.6158 27.6918 37.4691 27.2071 37.1758C26.7224 36.8824 26.3482 36.4615 26.0846 35.913C25.821 35.3646 25.6892 34.7226 25.6892 33.987C25.6892 32.8476 25.9741 31.9611 26.5438 31.3276C27.1135 30.6898 27.9043 30.3709 28.9163 30.3709C29.8941 30.3709 30.6701 30.6962 31.2441 31.3467C31.8223 31.9972 32.1114 32.8773 32.1114 33.987ZM26.7862 33.987C26.7862 34.8799 26.9647 35.5601 27.3219 36.0278C27.679 36.4955 28.2041 36.7294 28.8971 36.7294C29.5901 36.7294 30.1152 36.4976 30.4724 36.0342C30.8338 35.5665 31.0145 34.8841 31.0145 33.987C31.0145 33.0984 30.8338 32.4245 30.4724 31.9653C30.1152 31.5019 29.5859 31.2702 28.8844 31.2702C28.1913 31.2702 27.6684 31.4976 27.3155 31.9526C26.9626 32.4075 26.7862 33.0856 26.7862 33.987ZM38.7568 37.4883V32.9666C38.7568 32.3969 38.6271 31.9717 38.3678 31.6911C38.1084 31.4105 37.7024 31.2702 37.1497 31.2702C36.4184 31.2702 35.8827 31.4679 35.5425 31.8633C35.2024 32.2587 35.0323 32.9113 35.0323 33.8212V37.4883H33.9737V30.4985H34.8346L35.0068 31.4551H35.0578C35.2747 31.1107 35.5787 30.845 35.9698 30.6579C36.361 30.4666 36.7968 30.3709 37.2772 30.3709C38.1191 30.3709 38.7526 30.575 39.1777 30.9832C39.6029 31.3871 39.8155 32.0355 39.8155 32.9283V37.4883H38.7568ZM46.2951 37.4883L46.0846 36.4934H46.0336C45.685 36.9313 45.3363 37.2289 44.9877 37.3862C44.6433 37.5393 44.2117 37.6158 43.693 37.6158C43 37.6158 42.4558 37.4373 42.0604 37.0801C41.6692 36.723 41.4737 36.2149 41.4737 35.5559C41.4737 34.1443 42.6025 33.4045 44.8601 33.3365L46.0464 33.2982V32.8646C46.0464 32.3161 45.9273 31.9122 45.6892 31.6528C45.4554 31.3892 45.0791 31.2574 44.5604 31.2574C43.9779 31.2574 43.3189 31.436 42.5833 31.7931L42.2581 30.9832C42.6025 30.7961 42.9788 30.6494 43.3869 30.5431C43.7993 30.4368 44.2117 30.3837 44.6242 30.3837C45.4575 30.3837 46.074 30.5686 46.4737 30.9385C46.8776 31.3084 47.0795 31.9015 47.0795 32.7179V37.4883H46.2951ZM43.9035 36.7421C44.5625 36.7421 45.0791 36.5614 45.4532 36.2C45.8316 35.8386 46.0208 35.3327 46.0208 34.6822V34.0508L44.9622 34.0954C44.1203 34.1252 43.5123 34.257 43.1382 34.4908C42.7683 34.7204 42.5833 35.0797 42.5833 35.5686C42.5833 35.9513 42.6981 36.2425 42.9277 36.4424C43.1616 36.6422 43.4868 36.7421 43.9035 36.7421ZM51.5247 36.7421C51.7117 36.7421 51.8924 36.7294 52.0668 36.7038C52.2411 36.6741 52.3793 36.6443 52.4813 36.6146V37.4245C52.3665 37.4798 52.1964 37.5244 51.9711 37.5584C51.75 37.5967 51.5502 37.6158 51.3716 37.6158C50.0196 37.6158 49.3435 36.9037 49.3435 35.4794V31.3212H48.3423V30.811L49.3435 30.3709L49.79 28.8786H50.4022V30.4985H52.4303V31.3212H50.4022V35.4347C50.4022 35.8556 50.5021 36.1788 50.702 36.4041C50.9018 36.6294 51.176 36.7421 51.5247 36.7421ZM56.8372 37.6158C55.804 37.6158 54.9877 37.3012 54.3882 36.672C53.793 36.0427 53.4953 35.169 53.4953 34.0508C53.4953 32.9241 53.7717 32.0291 54.3244 31.3658C54.8814 30.7026 55.6276 30.3709 56.5629 30.3709C57.4388 30.3709 58.1318 30.6601 58.642 31.2383C59.1522 31.8123 59.4073 32.5712 59.4073 33.5151V34.1847H54.5923C54.6135 35.0053 54.8197 35.6282 55.2109 36.0533C55.6063 36.4785 56.1612 36.6911 56.8754 36.6911C57.628 36.6911 58.372 36.5338 59.1076 36.2191V37.163C58.7334 37.3246 58.3784 37.4394 58.0425 37.5074C57.7109 37.5797 57.3091 37.6158 56.8372 37.6158ZM56.5502 31.2574C55.989 31.2574 55.5404 31.4402 55.2045 31.8059C54.8729 32.1715 54.6773 32.6775 54.6178 33.3237H58.2721C58.2721 32.6562 58.1233 32.146 57.8257 31.7931C57.5281 31.436 57.1029 31.2574 56.5502 31.2574ZM65.9762 36.5508H65.9188C65.4299 37.2608 64.6986 37.6158 63.7249 37.6158C62.8108 37.6158 62.0987 37.3033 61.5884 36.6783C61.0825 36.0533 60.8295 35.1647 60.8295 34.0125C60.8295 32.8603 61.0846 31.9653 61.5948 31.3276C62.105 30.6898 62.8151 30.3709 63.7249 30.3709C64.6731 30.3709 65.4001 30.7153 65.906 31.4041H65.989L65.9443 30.9003L65.9188 30.4092V27.5648H66.9775V37.4883H66.1165L65.9762 36.5508ZM63.8589 36.7294C64.5816 36.7294 65.1046 36.5338 65.4277 36.1426C65.7551 35.7472 65.9188 35.1116 65.9188 34.2357V34.0125C65.9188 33.0219 65.753 32.3161 65.4214 31.8952C65.094 31.47 64.5689 31.2574 63.8461 31.2574C63.2254 31.2574 62.7492 31.4998 62.4175 31.9845C62.0901 32.4649 61.9265 33.1452 61.9265 34.0253C61.9265 34.9181 62.0901 35.592 62.4175 36.047C62.7449 36.5019 63.2254 36.7294 63.8589 36.7294ZM75.6509 37.4883H74.5668V29.1273H71.614V28.1643H78.6038V29.1273H75.6509V37.4883ZM84.6369 37.4883V32.9666C84.6369 32.3969 84.5072 31.9717 84.2479 31.6911C83.9885 31.4105 83.5825 31.2702 83.0298 31.2702C82.2942 31.2702 81.7564 31.47 81.4162 31.8697C81.0804 32.2693 80.9124 32.9241 80.9124 33.8339V37.4883H79.8537V27.5648H80.9124V30.5686C80.9124 30.93 80.8954 31.2298 80.8614 31.4679H80.9252C81.1335 31.132 81.429 30.8684 81.8117 30.6771C82.1986 30.4815 82.6386 30.3837 83.1318 30.3837C83.9864 30.3837 84.6263 30.5878 85.0515 30.9959C85.4809 31.3998 85.6956 32.044 85.6956 32.9283V37.4883H84.6369ZM88.9354 37.4883H87.8767V30.4985H88.9354V37.4883ZM87.7874 28.6044C87.7874 28.362 87.8469 28.1856 87.966 28.075C88.085 27.9602 88.2338 27.9028 88.4124 27.9028C88.5825 27.9028 88.7292 27.9602 88.8525 28.075C88.9758 28.1898 89.0374 28.3663 89.0374 28.6044C89.0374 28.8424 88.9758 29.021 88.8525 29.1401C88.7292 29.2549 88.5825 29.3123 88.4124 29.3123C88.2338 29.3123 88.085 29.2549 87.966 29.1401C87.8469 29.021 87.7874 28.8424 87.7874 28.6044ZM95.6892 35.5814C95.6892 36.2319 95.4469 36.7336 94.9622 37.0865C94.4775 37.4394 93.7972 37.6158 92.9214 37.6158C91.9945 37.6158 91.2717 37.4691 90.753 37.1758V36.1936C91.0889 36.3637 91.4481 36.4976 91.8308 36.5954C92.2177 36.6932 92.5897 36.7421 92.9469 36.7421C93.4996 36.7421 93.9248 36.6549 94.2224 36.4806C94.52 36.3021 94.6688 36.0321 94.6688 35.6707C94.6688 35.3986 94.5498 35.1669 94.3117 34.9755C94.0778 34.7799 93.6186 34.5504 92.9341 34.2868C92.2836 34.0444 91.8202 33.8339 91.5438 33.6554C91.2717 33.4726 91.0676 33.2663 90.9316 33.0368C90.7998 32.8072 90.7339 32.5329 90.7339 32.214C90.7339 31.6443 90.9656 31.1958 91.429 30.8684C91.8924 30.5368 92.5281 30.3709 93.3359 30.3709C94.0884 30.3709 94.824 30.524 95.5425 30.8301L95.1662 31.6911C94.4647 31.402 93.8291 31.2574 93.2594 31.2574C92.7577 31.2574 92.3793 31.3361 92.1242 31.4934C91.8691 31.6507 91.7415 31.8675 91.7415 32.1439C91.7415 32.331 91.7883 32.4904 91.8818 32.6222C91.9796 32.754 92.1348 32.8794 92.3474 32.9985C92.56 33.1175 92.9681 33.2897 93.5719 33.5151C94.4009 33.8169 94.96 34.1209 95.2492 34.4271C95.5425 34.7332 95.6892 35.118 95.6892 35.5814ZM105.096 37.4883L101.933 29.223H101.882C101.941 29.8777 101.971 30.6558 101.971 31.5572V37.4883H100.97V28.1643H102.602L105.555 35.8556H105.606L108.585 28.1643H110.205V37.4883H109.12V31.4806C109.12 30.7919 109.15 30.0436 109.21 29.2357H109.159L105.97 37.4883H105.096ZM118.642 33.987C118.642 35.1265 118.355 36.0172 117.781 36.6592C117.207 37.297 116.414 37.6158 115.402 37.6158C114.777 37.6158 114.222 37.4691 113.738 37.1758C113.253 36.8824 112.879 36.4615 112.615 35.913C112.352 35.3646 112.22 34.7226 112.22 33.987C112.22 32.8476 112.505 31.9611 113.074 31.3276C113.644 30.6898 114.435 30.3709 115.447 30.3709C116.425 30.3709 117.201 30.6962 117.775 31.3467C118.353 31.9972 118.642 32.8773 118.642 33.987ZM113.317 33.987C113.317 34.8799 113.495 35.5601 113.852 36.0278C114.21 36.4955 114.735 36.7294 115.428 36.7294C116.121 36.7294 116.646 36.4976 117.003 36.0342C117.364 35.5665 117.545 34.8841 117.545 33.987C117.545 33.0984 117.364 32.4245 117.003 31.9653C116.646 31.5019 116.117 31.2702 115.415 31.2702C114.722 31.2702 114.199 31.4976 113.846 31.9526C113.493 32.4075 113.317 33.0856 113.317 33.987ZM125.287 37.4883V32.9666C125.287 32.3969 125.158 31.9717 124.898 31.6911C124.639 31.4105 124.233 31.2702 123.68 31.2702C122.949 31.2702 122.413 31.4679 122.073 31.8633C121.733 32.2587 121.563 32.9113 121.563 33.8212V37.4883H120.504V30.4985H121.365L121.537 31.4551H121.588C121.805 31.1107 122.109 30.845 122.5 30.6579C122.892 30.4666 123.327 30.3709 123.808 30.3709C124.65 30.3709 125.283 30.575 125.708 30.9832C126.134 31.3871 126.346 32.0355 126.346 32.9283V37.4883H125.287ZM130.785 36.7421C130.972 36.7421 131.153 36.7294 131.327 36.7038C131.501 36.6741 131.639 36.6443 131.742 36.6146V37.4245C131.627 37.4798 131.457 37.5244 131.231 37.5584C131.01 37.5967 130.81 37.6158 130.632 37.6158C129.28 37.6158 128.604 36.9037 128.604 35.4794V31.3212H127.602V30.811L128.604 30.3709L129.05 28.8786H129.662V30.4985H131.69V31.3212H129.662V35.4347C129.662 35.8556 129.762 36.1788 129.962 36.4041C130.162 36.6294 130.436 36.7421 130.785 36.7421ZM137.928 37.4883V32.9666C137.928 32.3969 137.798 31.9717 137.539 31.6911C137.279 31.4105 136.873 31.2702 136.321 31.2702C135.585 31.2702 135.047 31.47 134.707 31.8697C134.371 32.2693 134.203 32.9241 134.203 33.8339V37.4883H133.145V27.5648H134.203V30.5686C134.203 30.93 134.186 31.2298 134.152 31.4679H134.216C134.424 31.132 134.72 30.8684 135.102 30.6771C135.489 30.4815 135.929 30.3837 136.423 30.3837C137.277 30.3837 137.917 30.5878 138.342 30.9959C138.772 31.3998 138.986 32.044 138.986 32.9283V37.4883H137.928Z" fill="#777E90"/>
<path d="M38.6712 91.0347C38.6712 93.1484 37.8986 94.8904 36.3534 96.2606C34.8082 97.6309 32.5779 98.4764 29.6624 98.7971V103.542H26.7543V98.9283C23.1391 98.87 20.1726 98.316 17.8548 97.2665V92.6528C19.1085 93.265 20.5735 93.7825 22.2499 94.2052C23.9263 94.6134 25.4277 94.8248 26.7543 94.8394V86.6615L24.9175 85.9837C22.5269 85.0653 20.7776 83.972 19.6697 82.7038C18.5764 81.421 18.0298 79.8394 18.0298 77.9589C18.0298 75.9472 18.8097 74.2927 20.3694 72.9953C21.9438 71.698 24.072 70.9108 26.7543 70.6338V66.9603H29.6624V70.5682C32.6216 70.6703 35.4277 71.2679 38.0808 72.3612L36.4846 76.3627C34.196 75.4589 31.9219 74.9195 29.6624 74.7446V82.7038L31.3242 83.3379C34.0939 84.402 36.0108 85.5245 37.075 86.7052C38.1391 87.886 38.6712 89.3292 38.6712 91.0347ZM33.5108 91.3627C33.5108 90.5172 33.212 89.8248 32.6143 89.2854C32.0312 88.7315 31.0473 88.1994 29.6624 87.6892V94.6644C32.228 94.2708 33.5108 93.1703 33.5108 91.3627ZM23.1683 77.9152C23.1683 78.7461 23.4234 79.4385 23.9336 79.9924C24.4583 80.5464 25.3986 81.093 26.7543 81.6324V74.8321C25.5881 75.007 24.6989 75.3641 24.0866 75.9035C23.4744 76.4429 23.1683 77.1134 23.1683 77.9152ZM58.0662 100.94H52.9277V80.2985C52.9277 77.835 52.986 75.8816 53.1027 74.4385C52.7674 74.7883 52.3519 75.1746 51.8563 75.5974C51.3753 76.0201 49.7426 77.3612 46.9583 79.6207L44.3782 76.3627L53.7805 68.972H58.0662V100.94ZM90.2309 84.956C90.2309 90.5099 89.3344 94.6353 87.5414 97.3321C85.763 100.029 83.0371 101.377 79.3636 101.377C75.8067 101.377 73.1099 99.9851 71.2732 97.2009C69.4365 94.4166 68.5181 90.335 68.5181 84.956C68.5181 79.3146 69.4073 75.1601 71.1858 72.4924C72.9788 69.8102 75.7047 68.4691 79.3636 68.4691C82.935 68.4691 85.6391 69.8685 87.4758 72.6673C89.3126 75.4662 90.2309 79.5624 90.2309 84.956ZM73.7222 84.956C73.7222 89.3146 74.1668 92.4268 75.056 94.2927C75.9598 96.1586 77.3957 97.0915 79.3636 97.0915C81.3315 97.0915 82.7674 96.144 83.6712 94.249C84.5895 92.3539 85.0487 89.2563 85.0487 84.956C85.0487 80.6703 84.5895 77.5726 83.6712 75.663C82.7674 73.7388 81.3315 72.7767 79.3636 72.7767C77.3957 72.7767 75.9598 73.7169 75.056 75.5974C74.1668 77.4778 73.7222 80.5974 73.7222 84.956ZM95.0852 98.2067C95.0852 97.1426 95.3621 96.3262 95.9161 95.7577C96.47 95.1892 97.2718 94.905 98.3213 94.905C99.3855 94.905 100.194 95.2038 100.748 95.8015C101.302 96.3845 101.579 97.1863 101.579 98.2067C101.579 99.2417 101.295 100.065 100.727 100.678C100.173 101.275 99.3709 101.574 98.3213 101.574C97.2718 101.574 96.47 101.275 95.9161 100.678C95.3621 100.08 95.0852 99.2563 95.0852 98.2067ZM128.103 82.6163C128.103 88.9137 126.834 93.6149 124.298 96.7198C121.762 99.8248 117.942 101.377 112.84 101.377C110.901 101.377 109.509 101.261 108.664 101.027V96.7198C109.961 97.0843 111.266 97.2665 112.578 97.2665C116.047 97.2665 118.635 96.3335 120.34 94.4676C122.046 92.6017 122.979 89.6717 123.139 85.6776H122.877C122.017 86.9895 120.974 87.937 119.75 88.5201C118.54 89.1032 117.119 89.3948 115.486 89.3948C112.658 89.3948 110.435 88.5128 108.817 86.749C107.199 84.9851 106.39 82.5653 106.39 79.4895C106.39 76.1513 107.323 73.4983 109.189 71.5303C111.069 69.5478 113.627 68.5566 116.864 68.5566C119.138 68.5566 121.12 69.1105 122.811 70.2184C124.502 71.3262 125.807 72.937 126.725 75.0507C127.643 77.1499 128.103 79.6717 128.103 82.6163ZM116.951 72.8204C115.173 72.8204 113.81 73.4035 112.862 74.5697C111.915 75.7213 111.441 77.3466 111.441 79.4458C111.441 81.2679 111.878 82.7038 112.753 83.7534C113.642 84.7883 114.983 85.3058 116.776 85.3058C118.511 85.3058 119.969 84.7883 121.149 83.7534C122.33 82.7184 122.92 81.5085 122.92 80.1236C122.92 78.8262 122.665 77.6163 122.155 76.4939C121.66 75.3569 120.96 74.4603 120.056 73.8044C119.152 73.1484 118.117 72.8204 116.951 72.8204ZM153.686 82.6163C153.686 88.9137 152.418 93.6149 149.881 96.7198C147.345 99.8248 143.525 101.377 138.423 101.377C136.485 101.377 135.092 101.261 134.247 101.027V96.7198C135.544 97.0843 136.849 97.2665 138.161 97.2665C141.63 97.2665 144.218 96.3335 145.923 94.4676C147.629 92.6017 148.562 89.6717 148.722 85.6776H148.46C147.6 86.9895 146.557 87.937 145.333 88.5201C144.123 89.1032 142.702 89.3948 141.069 89.3948C138.241 89.3948 136.018 88.5128 134.4 86.749C132.782 84.9851 131.973 82.5653 131.973 79.4895C131.973 76.1513 132.906 73.4983 134.772 71.5303C136.652 69.5478 139.211 68.5566 142.447 68.5566C144.721 68.5566 146.703 69.1105 148.394 70.2184C150.085 71.3262 151.39 72.937 152.308 75.0507C153.227 77.1499 153.686 79.6717 153.686 82.6163ZM142.534 72.8204C140.756 72.8204 139.393 73.4035 138.445 74.5697C137.498 75.7213 137.024 77.3466 137.024 79.4458C137.024 81.2679 137.461 82.7038 138.336 83.7534C139.225 84.7883 140.566 85.3058 142.359 85.3058C144.094 85.3058 145.552 84.7883 146.732 83.7534C147.913 82.7184 148.504 81.5085 148.504 80.1236C148.504 78.8262 148.248 77.6163 147.738 76.4939C147.243 75.3569 146.543 74.4603 145.639 73.8044C144.735 73.1484 143.7 72.8204 142.534 72.8204Z" fill="white"/>
<path d="M240.511 74.7329C235.361 74.7329 231.182 78.9125 231.182 84.0624C231.182 89.2122 235.361 93.3918 240.511 93.3918C245.661 93.3918 249.841 89.2122 249.841 84.0624C249.841 78.9125 245.661 74.7329 240.511 74.7329ZM243.804 84.0903C243.664 84.2303 243.487 84.2956 243.31 84.2956C243.133 84.2956 242.955 84.2303 242.815 84.0903L241.211 82.4857V87.3277C241.211 87.7102 240.894 88.0274 240.511 88.0274C240.129 88.0274 239.811 87.7102 239.811 87.3277V82.4857L238.207 84.0903C237.936 84.3609 237.488 84.3609 237.218 84.0903C236.947 83.8198 236.947 83.372 237.218 83.1014L240.017 80.3026C240.287 80.032 240.735 80.032 241.006 80.3026L243.804 83.1014C244.075 83.372 244.075 83.8198 243.804 84.0903Z" fill="#43AA8B"/>
<path d="M263.043 93.0625H260.474V82.7418C260.474 81.51 260.503 80.5333 260.561 79.8118C260.394 79.9867 260.186 80.1798 259.938 80.3912C259.698 80.6026 258.881 81.2731 257.489 82.4029L256.199 80.7739L260.9 77.0785H263.043V93.0625ZM268.761 91.6959C268.761 91.1638 268.9 90.7556 269.176 90.4714C269.453 90.1871 269.854 90.045 270.379 90.045C270.911 90.045 271.316 90.1944 271.593 90.4933C271.87 90.7848 272.008 91.1857 272.008 91.6959C272.008 92.2134 271.866 92.6252 271.582 92.9313C271.305 93.2301 270.904 93.3796 270.379 93.3796C269.854 93.3796 269.453 93.2301 269.176 92.9313C268.9 92.6325 268.761 92.2207 268.761 91.6959ZM285.292 93.0625H274.457V91.1164L278.579 86.9728C279.796 85.7265 280.601 84.8446 280.995 84.3271C281.396 83.8023 281.687 83.3103 281.87 82.8511C282.052 82.3919 282.143 81.9 282.143 81.3752C282.143 80.6536 281.924 80.0851 281.487 79.6696C281.057 79.2542 280.459 79.0465 279.694 79.0465C279.082 79.0465 278.488 79.1594 277.912 79.3854C277.343 79.6113 276.684 80.0195 275.933 80.6099L274.545 78.9153C275.434 78.1645 276.297 77.6325 277.136 77.3191C277.974 77.0056 278.867 76.8489 279.814 76.8489C281.301 76.8489 282.493 77.2389 283.389 78.0188C284.286 78.7914 284.734 79.8336 284.734 81.1456C284.734 81.8672 284.603 82.5523 284.34 83.201C284.085 83.8497 283.688 84.5202 283.149 85.2126C282.617 85.8978 281.728 86.8271 280.481 88.0005L277.704 90.6901V90.7994H285.292V93.0625ZM289.315 81.8672C289.315 82.9532 289.421 83.7622 289.632 84.2943C289.843 84.8263 290.19 85.0924 290.671 85.0924C291.633 85.0924 292.114 84.0173 292.114 81.8672C292.114 79.717 291.633 78.6419 290.671 78.6419C290.19 78.6419 289.843 78.908 289.632 79.4401C289.421 79.9721 289.315 80.7812 289.315 81.8672ZM294.235 81.8453C294.235 83.5217 293.932 84.7826 293.327 85.6281C292.73 86.4663 291.844 86.8854 290.671 86.8854C289.563 86.8854 288.703 86.4517 288.09 85.5844C287.486 84.7097 287.183 83.4634 287.183 81.8453C287.183 78.5144 288.346 76.8489 290.671 76.8489C291.815 76.8489 292.693 77.2826 293.306 78.15C293.925 79.01 294.235 80.2418 294.235 81.8453ZM299.723 88.252C299.723 89.338 299.829 90.1507 300.04 90.6901C300.259 91.2294 300.609 91.4991 301.09 91.4991C302.045 91.4991 302.522 90.4167 302.522 88.252C302.522 86.1164 302.045 85.0487 301.09 85.0487C300.609 85.0487 300.259 85.311 300.04 85.8358C299.829 86.3606 299.723 87.166 299.723 88.252ZM304.643 88.252C304.643 89.9284 304.34 91.1857 303.736 92.0239C303.131 92.8621 302.249 93.2812 301.09 93.2812C299.982 93.2812 299.122 92.8511 298.51 91.9911C297.897 91.1237 297.591 89.8774 297.591 88.252C297.591 84.9211 298.757 83.2556 301.09 83.2556C302.212 83.2556 303.083 83.6857 303.703 84.5457C304.33 85.4058 304.643 86.6412 304.643 88.252ZM301.396 77.0785L292.529 93.0625H290.408L299.275 77.0785H301.396Z" fill="#43AA8B"/>
</g>
<g filter="url(#filter1_b_2771_22084)">
<rect y="150" width="320" height="70.9039" rx="3.73178" fill="#20232A"/>
<rect x="0.466473" y="150.466" width="319.067" height="69.9709" rx="3.26531" stroke="#353945" stroke-width="0.932945"/>
</g>
<g clip-path="url(#clip1_2771_22084)">
<path d="M20.868 172.612C19.867 172.612 19.0798 172.967 18.5065 173.677C17.9331 174.386 17.6464 175.365 17.6464 176.614C17.6464 177.921 17.9209 178.91 18.47 179.58C19.0239 180.251 19.8233 180.586 20.868 180.586C21.3199 180.586 21.7572 180.542 22.1799 180.455C22.6027 180.363 23.0424 180.246 23.4992 180.105V181.599C22.6634 181.915 21.7159 182.073 20.6566 182.073C19.0968 182.073 17.8991 181.602 17.0633 180.659C16.2275 179.712 15.8097 178.358 15.8097 176.599C15.8097 175.491 16.0113 174.522 16.4146 173.691C16.8228 172.86 17.4107 172.224 18.1785 171.781C18.9462 171.339 19.8476 171.118 20.8825 171.118C21.971 171.118 22.9768 171.347 23.9 171.803L23.2732 173.254C22.9136 173.084 22.5322 172.936 22.1289 172.809C21.7305 172.678 21.3101 172.612 20.868 172.612ZM32.763 177.882C32.763 179.199 32.4253 180.227 31.7499 180.965C31.0745 181.704 30.1343 182.073 28.9292 182.073C28.176 182.073 27.5103 181.903 26.9321 181.563C26.3539 181.223 25.9093 180.734 25.5983 180.098C25.2873 179.461 25.1318 178.723 25.1318 177.882C25.1318 176.575 25.4671 175.555 26.1377 174.821C26.8082 174.087 27.7533 173.72 28.9729 173.72C30.1391 173.72 31.0623 174.097 31.7426 174.85C32.4229 175.598 32.763 176.609 32.763 177.882ZM26.8957 177.882C26.8957 179.743 27.5832 180.674 28.9584 180.674C30.3189 180.674 30.9992 179.743 30.9992 177.882C30.9992 176.04 30.314 175.12 28.9438 175.12C28.2246 175.12 27.7023 175.358 27.3767 175.834C27.056 176.31 26.8957 176.993 26.8957 177.882ZM38.7834 175.163H36.8155V181.927H35.0954V175.163H33.7689V174.362L35.0954 173.837V173.312C35.0954 172.36 35.3189 171.655 35.7659 171.198C36.213 170.737 36.8957 170.506 37.814 170.506C38.4166 170.506 39.0094 170.606 39.5925 170.805L39.1406 172.102C38.7178 171.966 38.3145 171.898 37.9307 171.898C37.5419 171.898 37.2577 172.02 37.0779 172.263C36.903 172.501 36.8155 172.86 36.8155 173.341V173.866H38.7834V175.163ZM44.1989 175.163H42.231V181.927H40.5108V175.163H39.1843V174.362L40.5108 173.837V173.312C40.5108 172.36 40.7344 171.655 41.1814 171.198C41.6284 170.737 42.3111 170.506 43.2295 170.506C43.832 170.506 44.4248 170.606 45.0079 170.805L44.556 172.102C44.1333 171.966 43.73 171.898 43.3461 171.898C42.9574 171.898 42.6731 172.02 42.4933 172.263C42.3184 172.501 42.231 172.86 42.231 173.341V173.866H44.1989V175.163ZM49.1041 182.073C47.8505 182.073 46.869 181.709 46.1595 180.98C45.455 180.246 45.1027 179.238 45.1027 177.955C45.1027 176.638 45.4307 175.603 46.0866 174.85C46.7426 174.097 47.644 173.72 48.7907 173.72C49.8549 173.72 50.6955 174.043 51.3126 174.69C51.9297 175.336 52.2382 176.225 52.2382 177.357V178.283H46.8665C46.8908 179.065 47.1022 179.668 47.5006 180.091C47.8991 180.508 48.4603 180.717 49.1843 180.717C49.6605 180.717 50.1027 180.674 50.5108 180.586C50.9239 180.494 51.366 180.343 51.8374 180.134V181.526C51.4195 181.726 50.9967 181.867 50.5691 181.949C50.1415 182.032 49.6532 182.073 49.1041 182.073ZM48.7907 175.018C48.2465 175.018 47.8092 175.19 47.4788 175.535C47.1532 175.88 46.9588 176.383 46.8957 177.044H50.5546C50.5449 176.378 50.3845 175.875 50.0735 175.535C49.7625 175.19 49.3349 175.018 48.7907 175.018ZM57.7047 182.073C56.4511 182.073 55.4695 181.709 54.7601 180.98C54.0555 180.246 53.7033 179.238 53.7033 177.955C53.7033 176.638 54.0312 175.603 54.6872 174.85C55.3432 174.097 56.2446 173.72 57.3913 173.72C58.4554 173.72 59.2961 174.043 59.9132 174.69C60.5303 175.336 60.8388 176.225 60.8388 177.357V178.283H55.4671C55.4914 179.065 55.7028 179.668 56.1012 180.091C56.4997 180.508 57.0609 180.717 57.7849 180.717C58.2611 180.717 58.7033 180.674 59.1114 180.586C59.5244 180.494 59.9666 180.343 60.438 180.134V181.526C60.0201 181.726 59.5973 181.867 59.1697 181.949C58.7421 182.032 58.2538 182.073 57.7047 182.073ZM57.3913 175.018C56.8471 175.018 56.4098 175.19 56.0794 175.535C55.7538 175.88 55.5594 176.383 55.4963 177.044H59.1552C59.1454 176.378 58.9851 175.875 58.6741 175.535C58.3631 175.19 57.9355 175.018 57.3913 175.018ZM72.989 179.034C72.989 179.981 72.6464 180.725 71.9613 181.264C71.2762 181.803 70.3311 182.073 69.126 182.073C67.921 182.073 66.9346 181.886 66.1668 181.512V179.865C66.6527 180.093 67.1678 180.273 67.712 180.404C68.2611 180.535 68.7713 180.601 69.2426 180.601C69.9326 180.601 70.4404 180.47 70.766 180.207C71.0964 179.945 71.2616 179.592 71.2616 179.15C71.2616 178.752 71.1109 178.414 70.8097 178.137C70.5084 177.86 69.8865 177.532 68.9438 177.153C67.972 176.76 67.2868 176.31 66.8884 175.805C66.49 175.299 66.2907 174.692 66.2907 173.983C66.2907 173.093 66.6066 172.394 67.2383 171.884C67.8699 171.373 68.7178 171.118 69.782 171.118C70.8024 171.118 71.8179 171.342 72.8286 171.789L72.2747 173.21C71.3272 172.812 70.4817 172.612 69.7383 172.612C69.1746 172.612 68.747 172.736 68.4555 172.984C68.1639 173.227 68.0181 173.55 68.0181 173.953C68.0181 174.23 68.0764 174.469 68.1931 174.668C68.3097 174.862 68.5016 175.047 68.7689 175.222C69.0361 175.397 69.5172 175.627 70.212 175.914C70.9943 176.24 71.5677 176.543 71.9321 176.825C72.2966 177.107 72.5638 177.425 72.7339 177.78C72.904 178.135 72.989 178.553 72.989 179.034ZM81.9613 181.927H80.2412V176.971C80.2412 176.349 80.1148 175.885 79.8622 175.579C79.6144 175.273 79.2183 175.12 78.6741 175.12C77.955 175.12 77.4253 175.336 77.0852 175.768C76.7499 176.196 76.5823 176.915 76.5823 177.926V181.927H74.8695V170.586H76.5823V173.465C76.5823 173.927 76.5531 174.42 76.4948 174.945H76.6041C76.8374 174.556 77.1605 174.255 77.5735 174.041C77.9914 173.827 78.4773 173.72 79.0313 173.72C80.9846 173.72 81.9613 174.704 81.9613 176.672V181.927ZM91.4948 177.882C91.4948 179.199 91.1571 180.227 90.4817 180.965C89.8063 181.704 88.8661 182.073 87.661 182.073C86.9078 182.073 86.2422 181.903 85.6639 181.563C85.0857 181.223 84.6411 180.734 84.3301 180.098C84.0191 179.461 83.8636 178.723 83.8636 177.882C83.8636 176.575 84.1989 175.555 84.8695 174.821C85.54 174.087 86.4851 173.72 87.7047 173.72C88.8709 173.72 89.7941 174.097 90.4744 174.85C91.1547 175.598 91.4948 176.609 91.4948 177.882ZM85.6275 177.882C85.6275 179.743 86.315 180.674 87.6902 180.674C89.0507 180.674 89.731 179.743 89.731 177.882C89.731 176.04 89.0458 175.12 87.6756 175.12C86.9564 175.12 86.4341 175.358 86.1085 175.834C85.7878 176.31 85.6275 176.993 85.6275 177.882ZM97.559 182.073C96.5386 182.073 95.7465 181.706 95.1829 180.972H95.0808C95.1489 181.653 95.1829 182.066 95.1829 182.212V185.513H93.47V173.866H94.8549C94.8938 174.017 94.9739 174.376 95.0954 174.945H95.1829C95.7174 174.128 96.5191 173.72 97.5881 173.72C98.594 173.72 99.3763 174.085 99.9351 174.814C100.499 175.542 100.781 176.565 100.781 177.882C100.781 179.199 100.494 180.227 99.9205 180.965C99.352 181.704 98.5648 182.073 97.559 182.073ZM97.1435 175.12C96.4632 175.12 95.9652 175.319 95.6493 175.717C95.3384 176.116 95.1829 176.752 95.1829 177.627V177.882C95.1829 178.864 95.3384 179.575 95.6493 180.018C95.9603 180.455 96.4681 180.674 97.1727 180.674C97.7655 180.674 98.2222 180.431 98.5429 179.945C98.8636 179.459 99.024 178.766 99.024 177.867C99.024 176.964 98.8636 176.281 98.5429 175.819C98.2271 175.353 97.7606 175.12 97.1435 175.12Z" fill="white"/>
<path d="M20.591 198.863C20.591 199.359 20.4051 199.769 20.0334 200.093C19.6617 200.414 19.1424 200.616 18.4755 200.7V201.968H17.7703V200.749C17.3621 200.749 16.9667 200.718 16.5841 200.656C16.2014 200.591 15.888 200.502 15.6438 200.389V199.536C15.9463 199.671 16.2944 199.782 16.6879 199.869C17.0852 199.953 17.446 199.995 17.7703 199.995V197.59C17.0232 197.353 16.4984 197.078 16.196 196.764C15.8971 196.451 15.7477 196.046 15.7477 195.551C15.7477 195.073 15.9317 194.682 16.2998 194.375C16.6715 194.069 17.1617 193.883 17.7703 193.818V192.823H18.4755V193.807C19.146 193.825 19.7929 193.96 20.4161 194.211L20.1318 194.928C19.5888 194.713 19.0367 194.585 18.4755 194.545V196.917C19.0476 197.1 19.4758 197.278 19.7601 197.453C20.0444 197.624 20.2539 197.823 20.3887 198.049C20.5236 198.271 20.591 198.543 20.591 198.863ZM19.6617 198.934C19.6617 198.672 19.5797 198.461 19.4157 198.3C19.2554 198.136 18.9419 197.974 18.4755 197.814V199.94C19.2663 199.831 19.6617 199.496 19.6617 198.934ZM16.6715 195.54C16.6715 195.817 16.7535 196.039 16.9175 196.207C17.0815 196.374 17.3658 196.533 17.7703 196.682V194.567C17.4095 194.625 17.1362 194.74 16.9503 194.911C16.7645 195.079 16.6715 195.288 16.6715 195.54ZM27.5116 199.481H26.3253V201.318H25.4562V199.481H21.5695V198.688L25.3632 193.282H26.3253V198.656H27.5116V199.481ZM25.4562 198.656V195.999C25.4562 195.478 25.4744 194.889 25.5108 194.233H25.4671C25.2922 194.583 25.1282 194.873 24.9751 195.102L22.4769 198.656H25.4562ZM28.5721 200.738C28.5721 200.494 28.6267 200.31 28.7361 200.186C28.849 200.059 29.0094 199.995 29.2171 199.995C29.4285 199.995 29.5925 200.059 29.7091 200.186C29.8293 200.31 29.8895 200.494 29.8895 200.738C29.8895 200.975 29.8293 201.158 29.7091 201.285C29.5888 201.413 29.4248 201.476 29.2171 201.476C29.0312 201.476 28.8764 201.42 28.7524 201.307C28.6322 201.19 28.5721 201.001 28.5721 200.738ZM32.2838 201.318L35.5965 194.162H31.2397V193.326H36.5586V194.053L33.2896 201.318H32.2838ZM40.1774 196.436C41.0192 196.436 41.6807 196.646 42.1617 197.065C42.6464 197.48 42.8888 198.051 42.8888 198.776C42.8888 199.603 42.6245 200.252 42.0961 200.722C41.5713 201.192 40.8461 201.427 39.9205 201.427C39.0203 201.427 38.3334 201.283 37.8596 200.995V200.121C38.1147 200.285 38.4318 200.414 38.8108 200.509C39.1898 200.6 39.5633 200.645 39.9314 200.645C40.5728 200.645 41.0702 200.494 41.4237 200.192C41.7809 199.889 41.9595 199.452 41.9595 198.88C41.9595 197.765 41.2761 197.207 39.9095 197.207C39.5633 197.207 39.1005 197.26 38.521 197.366L38.0509 197.065L38.3516 193.326H42.3257V194.162H39.1278L38.9256 196.562C39.3447 196.478 39.7619 196.436 40.1774 196.436Z" fill="#777E90"/>
</g>
<path d="M274.6 187.65C274.6 188.355 274.343 188.936 273.827 189.392C273.312 189.849 272.569 190.131 271.597 190.238V191.819H270.628V190.282C269.423 190.262 268.434 190.078 267.661 189.728V188.19C268.079 188.394 268.567 188.566 269.126 188.707C269.685 188.843 270.186 188.914 270.628 188.919V186.193L270.016 185.967C269.219 185.661 268.636 185.296 268.266 184.873C267.902 184.446 267.72 183.919 267.72 183.292C267.72 182.621 267.98 182.07 268.499 181.637C269.024 181.205 269.734 180.942 270.628 180.85V179.626H271.597V180.828C272.584 180.862 273.519 181.061 274.403 181.426L273.871 182.76C273.108 182.458 272.35 182.279 271.597 182.22V184.873L272.151 185.085C273.074 185.44 273.713 185.814 274.068 186.207C274.423 186.601 274.6 187.082 274.6 187.65ZM272.88 187.76C272.88 187.478 272.78 187.247 272.581 187.067C272.387 186.883 272.059 186.705 271.597 186.535V188.86C272.452 188.729 272.88 188.362 272.88 187.76ZM269.432 183.277C269.432 183.554 269.517 183.785 269.688 183.97C269.862 184.154 270.176 184.336 270.628 184.516V182.25C270.239 182.308 269.943 182.427 269.739 182.607C269.534 182.786 269.432 183.01 269.432 183.277ZM283.259 185.624C283.259 187.475 282.96 188.851 282.362 189.75C281.77 190.648 280.861 191.098 279.636 191.098C278.451 191.098 277.552 190.634 276.94 189.706C276.327 188.778 276.021 187.417 276.021 185.624C276.021 183.744 276.318 182.359 276.911 181.47C277.508 180.576 278.417 180.129 279.636 180.129C280.827 180.129 281.728 180.595 282.341 181.528C282.953 182.461 283.259 183.826 283.259 185.624ZM277.756 185.624C277.756 187.077 277.904 188.114 278.201 188.736C278.502 189.358 278.981 189.669 279.636 189.669C280.292 189.669 280.771 189.354 281.072 188.722C281.378 188.09 281.532 187.058 281.532 185.624C281.532 184.196 281.378 183.163 281.072 182.526C280.771 181.885 280.292 181.564 279.636 181.564C278.981 181.564 278.502 181.878 278.201 182.505C277.904 183.131 277.756 184.171 277.756 185.624ZM284.877 190.041C284.877 189.686 284.969 189.414 285.154 189.225C285.339 189.035 285.606 188.94 285.956 188.94C286.31 188.94 286.58 189.04 286.765 189.239C286.949 189.434 287.042 189.701 287.042 190.041C287.042 190.386 286.947 190.661 286.757 190.865C286.573 191.064 286.306 191.164 285.956 191.164C285.606 191.164 285.339 191.064 285.154 190.865C284.969 190.665 284.877 190.391 284.877 190.041ZM295.897 190.952H288.674V189.655L291.422 186.892C292.234 186.061 292.771 185.474 293.033 185.129C293.3 184.779 293.495 184.451 293.616 184.145C293.738 183.838 293.798 183.51 293.798 183.161C293.798 182.68 293.653 182.301 293.361 182.024C293.074 181.747 292.676 181.608 292.166 181.608C291.757 181.608 291.361 181.683 290.978 181.834C290.599 181.985 290.159 182.257 289.658 182.65L288.733 181.521C289.326 181.02 289.901 180.665 290.46 180.457C291.019 180.248 291.614 180.143 292.246 180.143C293.237 180.143 294.032 180.403 294.629 180.923C295.227 181.438 295.526 182.133 295.526 183.008C295.526 183.489 295.438 183.945 295.263 184.378C295.093 184.81 294.828 185.257 294.469 185.719C294.114 186.176 293.521 186.795 292.69 187.578L290.839 189.371V189.443H295.897V190.952ZM300.817 184.298C301.891 184.298 302.741 184.582 303.368 185.15C303.995 185.719 304.309 186.494 304.309 187.475C304.309 188.612 303.951 189.502 303.237 190.143C302.528 190.78 301.517 191.098 300.205 191.098C299.015 191.098 298.079 190.906 297.399 190.522V188.97C297.792 189.193 298.244 189.366 298.755 189.487C299.265 189.609 299.739 189.669 300.176 189.669C300.948 189.669 301.536 189.497 301.94 189.152C302.343 188.807 302.545 188.302 302.545 187.636C302.545 186.363 301.733 185.726 300.11 185.726C299.882 185.726 299.6 185.75 299.265 185.799C298.93 185.843 298.636 185.894 298.383 185.952L297.618 185.5L298.026 180.296H303.565V181.819H299.534L299.294 184.458C299.464 184.429 299.671 184.395 299.913 184.356C300.161 184.317 300.463 184.298 300.817 184.298Z" fill="white"/>
<defs>
<filter id="filter0_bd_2771_22084" x="-28.8542" y="-29.8542" width="379.708" height="231.026" filterUnits="userSpaceOnUse" color-interpolation-filters="sRGB">
<feFlood flood-opacity="0" result="BackgroundImageFix"/>
<feGaussianBlur in="BackgroundImageFix" stdDeviation="14.9271"/>
<feComposite in2="SourceAlpha" operator="in" result="effect1_backgroundBlur_2771_22084"/>
<feColorMatrix in="SourceAlpha" type="matrix" values="0 0 0 0 0 0 0 0 0 0 0 0 0 0 0 0 0 0 127 0" result="hardAlpha"/>
<feMorphology radius="29.8542" operator="erode" in="SourceAlpha" result="effect2_dropShadow_2771_22084"/>
<feOffset dy="37.3178"/>
<feGaussianBlur stdDeviation="29.8542"/>
<feColorMatrix type="matrix" values="0 0 0 0 0.0583333 0 0 0 0 0.0583333 0 0 0 0 0.0583333 0 0 0 0.1 0"/>
<feBlend mode="multiply" in2="effect1_backgroundBlur_2771_22084" result="effect2_dropShadow_2771_22084"/>
<feBlend mode="normal" in="SourceGraphic" in2="effect2_dropShadow_2771_22084" result="shape"/>
</filter>
<filter id="filter1_b_2771_22084" x="-29.8542" y="120.146" width="379.708" height="130.612" filterUnits="userSpaceOnUse" color-interpolation-filters="sRGB">
<feFlood flood-opacity="0" result="BackgroundImageFix"/>
<feGaussianBlur in="BackgroundImageFix" stdDeviation="14.9271"/>
<feComposite in2="SourceAlpha" operator="in" result="effect1_backgroundBlur_2771_22084"/>
<feBlend mode="normal" in="SourceGraphic" in2="effect1_backgroundBlur_2771_22084" result="shape"/>
</filter>
<clipPath id="clip0_2771_22084">
<rect width="320" height="134" fill="white" transform="translate(1)"/>
</clipPath>
<clipPath id="clip1_2771_22084">
<rect width="158.601" height="41.0496" fill="white" transform="translate(14.9277 164.927)"/>
</clipPath>
</defs>
</svg>
