<svg width="253" height="40" viewBox="0 0 253 40" fill="none" xmlns="http://www.w3.org/2000/svg">
<path d="M20.4099 0C15.4596 0.0027299 10.6833 1.81193 6.99107 5.08288C3.29886 8.35383 0.948795 12.8579 0.388672 17.7369L1.08719 18.1478L22.0375 30.4782C24.6522 32.0171 25.8186 31.1354 26.5674 29.9847C26.9418 29.4094 27.0877 28.7125 26.9869 28.145C26.8861 27.5776 26.6376 27.0959 25.8308 26.6277L14.5003 20.0546C12.4571 18.8689 11.1515 16.9989 10.7962 15.0444C10.4409 13.0899 10.9645 11.1354 12.0763 9.58284C13.7439 7.25405 16.9101 5.9096 20.344 6.52496C21.4887 6.73007 22.6645 7.15524 23.8228 7.83167L26.4435 9.3619L26.5674 9.17019L27.4713 7.76032L28.7262 5.80369L32.6729 8.2959L31.4154 10.2517L30.5141 11.6624L30.4786 11.7183L40.3887 17.5056C39.7767 12.6757 37.4098 8.23301 33.7319 5.01032C30.0539 1.78762 25.3173 0.0062171 20.4099 0H20.4099ZM18.5969 10.8706C17.2961 10.8339 16.4397 11.5018 15.8895 12.2702C15.4493 12.8849 15.2854 13.5993 15.3981 14.2191C15.5108 14.8389 15.8276 15.4482 16.8619 16.0485L28.1924 22.625C30.0773 23.7189 31.267 25.5084 31.5922 27.3395C31.9175 29.1706 31.476 30.9995 30.4977 32.5027C28.5411 35.5093 23.9344 36.9896 19.6499 34.468L18.4894 33.7845L18.4634 33.8249L17.5595 35.2314L16.3055 37.188L12.3579 34.6958L13.6128 32.74L14.4639 31.4152L0.517795 23.2079C1.28529 27.8932 3.70771 32.155 7.35196 35.2313C10.9962 38.3076 15.6247 39.9979 20.4099 40C25.2531 39.994 29.9323 38.2588 33.5917 35.1118C37.2512 31.9648 39.6464 27.6163 40.3393 22.8614L21.4481 11.8283C20.3179 11.1682 19.3774 10.8927 18.5969 10.8706H18.5969Z" fill="black"/>
<path d="M59.1555 17.64C58.4355 17.64 57.9555 17.96 57.7155 18.6C57.5022 19.24 57.3955 20.2267 57.3955 21.56C57.3955 22.8933 57.5022 23.8667 57.7155 24.48C57.9289 25.0667 58.4355 25.36 59.2355 25.36C60.0355 25.36 61.3022 25.1867 63.0355 24.84L63.9155 30.4C61.5689 31.0667 59.5955 31.4 57.9955 31.4C55.0355 31.4 52.7955 30.5467 51.2755 28.84C49.7822 27.1333 49.0355 24.7467 49.0355 21.68C49.0355 18.6133 49.8089 16.1333 51.3555 14.24C52.9022 12.32 55.1555 11.36 58.1155 11.36C60.2755 11.36 62.3155 11.72 64.2355 12.44L63.3955 18.76C61.3155 18.0133 59.9022 17.64 59.1555 17.64ZM65.614 26.04V5.36H73.814V24.2C73.814 24.92 74.3073 25.28 75.294 25.28L74.694 31.4H71.414C67.5473 31.4 65.614 29.6133 65.614 26.04ZM82.6593 31.4C78.8726 31.4 76.9793 29.5867 76.9793 25.96V11.84H85.3793V24.4C85.3793 24.8267 85.566 25.04 85.9393 25.04C86.3393 25.04 86.8593 24.9067 87.4993 24.64V11.84H95.8593V30.92H87.8593V29.92H87.6193C86.0726 30.9067 84.4193 31.4 82.6593 31.4ZM117.622 20.96C117.622 22.72 117.515 24.2 117.302 25.4C117.115 26.5733 116.755 27.64 116.222 28.6C115.182 30.4667 113.115 31.4 110.022 31.4C108.102 31.4 106.568 30.9867 105.422 30.16L105.102 31H98.5418V5.36H106.582V12.16C107.702 11.6267 108.928 11.36 110.262 11.36C113.222 11.36 115.182 12.1067 116.142 13.6C117.128 15.0667 117.622 17.52 117.622 20.96ZM108.062 25.72C108.622 25.72 108.968 25.4267 109.102 24.84C109.235 24.2267 109.302 23.1733 109.302 21.68C109.302 20.16 109.222 19.0933 109.062 18.48C108.902 17.84 108.555 17.52 108.022 17.52C107.675 17.52 107.262 17.6267 106.782 17.84V25.56C107.262 25.6667 107.688 25.72 108.062 25.72ZM126.64 5.08C128.427 5.08 130.414 5.14667 132.6 5.28L131.96 11.56C130.147 11.4 129.107 11.32 128.84 11.32C128.6 11.32 128.48 11.4533 128.48 11.72V12.4H131.88L131.44 17.8H128.56V31H120.2V17.8H118.28V12.4H120.2V10.48C120.2 6.88 122.347 5.08 126.64 5.08ZM138.401 31.4C134.615 31.4 132.721 29.5867 132.721 25.96V11.84H141.121V24.4C141.121 24.8267 141.308 25.04 141.681 25.04C142.081 25.04 142.601 24.9067 143.241 24.64V11.84H151.601V30.92H143.601V29.92H143.361C141.815 30.9067 140.161 31.4 138.401 31.4ZM167.564 11.36C171.297 11.36 173.164 13.1733 173.164 16.8V31H164.724V18.6C164.724 18.1733 164.497 17.96 164.044 17.96C163.617 17.96 163.137 18.0933 162.604 18.36V31H154.284V11.84H161.844L162.084 13.08C163.764 11.9333 165.591 11.36 167.564 11.36ZM191.453 31.4C189.373 31.4 187.946 30.88 187.173 29.84H187.013C185.786 30.88 184.333 31.4 182.653 31.4C179.88 31.4 177.906 30.52 176.733 28.76C175.56 27 174.973 24.5067 174.973 21.28C174.973 18.0533 175.613 15.6 176.893 13.92C178.2 12.2133 180.066 11.36 182.493 11.36C183.88 11.36 185 11.5733 185.853 12V5.36H193.893V25C193.893 25.3467 194.013 25.5867 194.253 25.72C194.52 25.8533 194.973 25.92 195.613 25.92L194.893 31.24C193.506 31.3467 192.36 31.4 191.453 31.4ZM184.573 17.44C184.04 17.44 183.693 17.7467 183.533 18.36C183.4 18.9733 183.333 20.04 183.333 21.56C183.333 23.08 183.4 24.1467 183.533 24.76C183.666 25.3467 184 25.64 184.533 25.64C185.093 25.64 185.533 25.5867 185.853 25.48V17.72C185.4 17.5333 184.973 17.44 184.573 17.44ZM206.412 17.8C205.852 17.8 205.465 17.9733 205.252 18.32C205.038 18.6667 204.932 19.2 204.932 19.92H207.812V19.28C207.812 18.2933 207.345 17.8 206.412 17.8ZM196.692 21.36C196.692 18.1867 197.518 15.7333 199.172 14C200.852 12.24 203.305 11.36 206.532 11.36C209.785 11.36 212.078 12.0267 213.412 13.36C214.772 14.6933 215.452 16.6 215.452 19.08C215.452 20.0667 215.345 21.56 215.132 23.56H205.092C205.198 25 206.078 25.72 207.732 25.72C208.505 25.72 210.532 25.44 213.812 24.88L214.492 30.28C211.665 31.0267 209.025 31.4 206.572 31.4C203.372 31.4 200.918 30.52 199.212 28.76C197.532 27 196.692 24.5333 196.692 21.36ZM225.651 20.28V31H217.411V11.84H224.531L224.771 13.12H224.931C225.571 12.5333 226.304 12.1333 227.131 11.92C227.958 11.68 229.171 11.56 230.771 11.56L230.531 18.2H227.811C227.011 18.2 226.451 18.3467 226.131 18.64C225.811 18.9333 225.651 19.48 225.651 20.28ZM232.528 14.16C232.528 9.97333 234.515 7.33333 238.488 6.24V2.6H245.168V5.92C247.568 6.16 249.301 6.37333 250.368 6.56L249.448 13.6C246.115 12.9333 243.928 12.6 242.888 12.6C241.848 12.6 241.328 12.92 241.328 13.56C241.328 13.8 241.408 13.9733 241.568 14.08C241.728 14.16 241.848 14.2267 241.928 14.28C242.008 14.3333 242.155 14.4 242.368 14.48C242.608 14.56 242.795 14.64 242.928 14.72C243.088 14.7733 243.568 14.9733 244.368 15.32C245.195 15.64 245.808 15.9067 246.208 16.12C246.635 16.3067 247.208 16.6267 247.928 17.08C250.008 18.44 251.048 20.4933 251.048 23.24C251.048 25.1067 250.528 26.7467 249.488 28.16C248.448 29.5467 247.008 30.4667 245.168 30.92V34.28H238.488V31.2C236.675 31.04 234.928 30.7467 233.248 30.32L233.808 23.56C237.381 24.4667 239.795 24.92 241.048 24.92C241.875 24.92 242.288 24.6267 242.288 24.04C242.288 23.7733 242.181 23.56 241.968 23.4C241.781 23.24 241.488 23.0667 241.088 22.88C240.715 22.6933 240.155 22.4533 239.408 22.16C238.661 21.84 238.035 21.5733 237.528 21.36C237.021 21.12 236.421 20.76 235.728 20.28C233.595 18.8133 232.528 16.7733 232.528 14.16Z" fill="black"/>
</svg>
