<svg width="153" height="24" viewBox="0 0 153 24" fill="none" xmlns="http://www.w3.org/2000/svg">
<path d="M12.5127 0C9.54255 0.00163794 6.67677 1.08716 4.46144 3.04973C2.24611 5.0123 0.836074 7.71474 0.5 10.6421L0.91911 10.8887L13.4893 18.2869C15.0581 19.2103 15.758 18.6812 16.2073 17.9908C16.4319 17.6456 16.5194 17.2275 16.4589 16.887C16.3985 16.5466 16.2494 16.2576 15.7653 15.9766L8.96695 12.0328C7.74106 11.3213 6.95772 10.1993 6.74453 9.02663C6.53133 7.85394 6.84548 6.68122 7.51255 5.7497C8.51315 4.35243 10.4128 3.54576 12.4732 3.91498C13.16 4.03804 13.8655 4.29315 14.5605 4.69901L16.1329 5.61714L16.2073 5.50212L16.7496 4.65619L17.5025 3.48222L19.8706 4.97754L19.1161 6.151L18.5753 6.99744L18.5539 7.03097L24.5 10.5034C24.1328 7.60543 22.7127 4.93981 20.5059 3.00619C18.2991 1.07257 15.4572 0.00373026 12.5127 0H12.5127ZM11.4249 6.52238C10.6444 6.50036 10.1306 6.90111 9.80049 7.36212C9.53638 7.73093 9.43805 8.15957 9.50566 8.53145C9.57327 8.90332 9.76334 9.26895 10.3839 9.62909L17.1822 13.575C18.3132 14.2314 19.027 15.305 19.2221 16.4037C19.4173 17.5024 19.1524 18.5997 18.5654 19.5016C17.3914 21.3056 14.6274 22.1938 12.0567 20.6808L11.3605 20.2707L11.3448 20.295L10.8025 21.1388L10.0501 22.3128L7.68154 20.8175L8.43448 19.644L8.94511 18.8491L0.577474 13.9247C1.03797 16.7359 2.49142 19.293 4.67797 21.1388C6.86452 22.9846 9.64161 23.9988 12.5127 24C15.4187 23.9964 18.2262 22.9553 20.4218 21.0671C22.6175 19.1789 24.0546 16.5698 24.4704 13.7169L13.1357 7.09699C12.4575 6.70093 11.8932 6.5356 11.4249 6.52238H11.4249Z" fill="#777777"/>
<path d="M36.0599 10.984C35.6279 10.984 35.3399 11.176 35.1959 11.56C35.0679 11.944 35.0039 12.536 35.0039 13.336C35.0039 14.136 35.0679 14.72 35.1959 15.088C35.3239 15.44 35.6279 15.616 36.1079 15.616C36.5879 15.616 37.3479 15.512 38.3879 15.304L38.9159 18.64C37.5079 19.04 36.3239 19.24 35.3639 19.24C33.5879 19.24 32.2439 18.728 31.3319 17.704C30.4359 16.68 29.9879 15.248 29.9879 13.408C29.9879 11.568 30.4519 10.08 31.3799 8.944C32.3079 7.792 33.6599 7.216 35.4359 7.216C36.7319 7.216 37.9559 7.432 39.1079 7.864L38.6039 11.656C37.3559 11.208 36.5079 10.984 36.0599 10.984ZM39.935 16.024V3.616H44.855V14.92C44.855 15.352 45.151 15.568 45.743 15.568L45.383 19.24H43.415C41.095 19.24 39.935 18.168 39.935 16.024ZM50.1622 19.24C47.8902 19.24 46.7542 18.152 46.7542 15.976V7.504H51.7942V15.04C51.7942 15.296 51.9062 15.424 52.1302 15.424C52.3702 15.424 52.6822 15.344 53.0662 15.184V7.504H58.0822V18.952H53.2822V18.352H53.1382C52.2102 18.944 51.2182 19.24 50.1622 19.24ZM71.1397 12.976C71.1397 14.032 71.0757 14.92 70.9477 15.64C70.8357 16.344 70.6197 16.984 70.2997 17.56C69.6757 18.68 68.4357 19.24 66.5797 19.24C65.4277 19.24 64.5077 18.992 63.8197 18.496L63.6277 19H59.6917V3.616H64.5157V7.696C65.1877 7.376 65.9237 7.216 66.7237 7.216C68.4997 7.216 69.6757 7.664 70.2517 8.56C70.8437 9.44 71.1397 10.912 71.1397 12.976ZM65.4037 15.832C65.7397 15.832 65.9477 15.656 66.0277 15.304C66.1077 14.936 66.1477 14.304 66.1477 13.408C66.1477 12.496 66.0997 11.856 66.0037 11.488C65.9077 11.104 65.6997 10.912 65.3797 10.912C65.1717 10.912 64.9237 10.976 64.6357 11.104V15.736C64.9237 15.8 65.1797 15.832 65.4037 15.832ZM76.5507 3.448C77.6227 3.448 78.8147 3.488 80.1267 3.568L79.7427 7.336C78.6547 7.24 78.0307 7.192 77.8707 7.192C77.7267 7.192 77.6547 7.272 77.6547 7.432V7.84H79.6947L79.4307 11.08H77.7027V19H72.6867V11.08H71.5347V7.84H72.6867V6.688C72.6867 4.528 73.9747 3.448 76.5507 3.448ZM83.6075 19.24C81.3355 19.24 80.1995 18.152 80.1995 15.976V7.504H85.2395V15.04C85.2395 15.296 85.3515 15.424 85.5755 15.424C85.8155 15.424 86.1275 15.344 86.5115 15.184V7.504H91.5275V18.952H86.7275V18.352H86.5835C85.6555 18.944 84.6635 19.24 83.6075 19.24ZM101.105 7.216C103.345 7.216 104.465 8.304 104.465 10.48V19H99.401V11.56C99.401 11.304 99.265 11.176 98.993 11.176C98.737 11.176 98.449 11.256 98.129 11.416V19H93.137V7.504H97.673L97.817 8.248C98.825 7.56 99.921 7.216 101.105 7.216ZM115.438 19.24C114.19 19.24 113.334 18.928 112.87 18.304H112.774C112.038 18.928 111.166 19.24 110.158 19.24C108.494 19.24 107.31 18.712 106.606 17.656C105.902 16.6 105.55 15.104 105.55 13.168C105.55 11.232 105.934 9.76 106.702 8.752C107.486 7.728 108.606 7.216 110.062 7.216C110.894 7.216 111.566 7.344 112.078 7.6V3.616H116.902V15.4C116.902 15.608 116.974 15.752 117.118 15.832C117.278 15.912 117.55 15.952 117.934 15.952L117.502 19.144C116.67 19.208 115.982 19.24 115.438 19.24ZM111.31 10.864C110.99 10.864 110.782 11.048 110.686 11.416C110.606 11.784 110.566 12.424 110.566 13.336C110.566 14.248 110.606 14.888 110.686 15.256C110.766 15.608 110.966 15.784 111.286 15.784C111.622 15.784 111.886 15.752 112.078 15.688V11.032C111.806 10.92 111.55 10.864 111.31 10.864ZM124.414 11.08C124.078 11.08 123.846 11.184 123.718 11.392C123.59 11.6 123.526 11.92 123.526 12.352H125.254V11.968C125.254 11.376 124.974 11.08 124.414 11.08ZM118.582 13.216C118.582 11.312 119.078 9.84 120.07 8.8C121.078 7.744 122.55 7.216 124.486 7.216C126.438 7.216 127.814 7.616 128.614 8.416C129.43 9.216 129.838 10.36 129.838 11.848C129.838 12.44 129.774 13.336 129.646 14.536H123.622C123.686 15.4 124.214 15.832 125.206 15.832C125.67 15.832 126.886 15.664 128.854 15.328L129.262 18.568C127.566 19.016 125.982 19.24 124.51 19.24C122.59 19.24 121.118 18.712 120.094 17.656C119.086 16.6 118.582 15.12 118.582 13.216ZM135.957 12.568V19H131.013V7.504H135.285L135.429 8.272H135.525C135.909 7.92 136.349 7.68 136.845 7.552C137.341 7.408 138.069 7.336 139.029 7.336L138.885 11.32H137.253C136.773 11.32 136.437 11.408 136.245 11.584C136.053 11.76 135.957 12.088 135.957 12.568ZM140.083 8.896C140.083 6.384 141.275 4.8 143.659 4.144V1.96H147.667V3.952C149.107 4.096 150.147 4.224 150.787 4.336L150.235 8.56C148.235 8.16 146.923 7.96 146.299 7.96C145.675 7.96 145.363 8.152 145.363 8.536C145.363 8.68 145.411 8.784 145.507 8.848C145.603 8.896 145.675 8.936 145.723 8.968C145.771 9 145.859 9.04 145.987 9.088C146.131 9.136 146.243 9.184 146.323 9.232C146.419 9.264 146.707 9.384 147.187 9.592C147.683 9.784 148.051 9.944 148.291 10.072C148.547 10.184 148.891 10.376 149.323 10.648C150.571 11.464 151.195 12.696 151.195 14.344C151.195 15.464 150.883 16.448 150.259 17.296C149.635 18.128 148.771 18.68 147.667 18.952V20.968H143.659V19.12C142.571 19.024 141.523 18.848 140.515 18.592L140.851 14.536C142.995 15.08 144.443 15.352 145.195 15.352C145.691 15.352 145.939 15.176 145.939 14.824C145.939 14.664 145.875 14.536 145.747 14.44C145.635 14.344 145.459 14.24 145.219 14.128C144.995 14.016 144.659 13.872 144.211 13.696C143.763 13.504 143.387 13.344 143.083 13.216C142.779 13.072 142.419 12.856 142.003 12.568C140.723 11.688 140.083 10.464 140.083 8.896Z" fill="#777777"/>
</svg>
