<svg width="884" height="900" viewBox="0 0 884 900" fill="none" xmlns="http://www.w3.org/2000/svg">
<g id="base-illustration">
<g id="Layer_1_1_">
<g id="Group">
<path id="Path" d="M279.693 50.8166C277.477 44.3646 273.093 39.6857 266.641 36.9275C257.48 32.9874 249.305 32.7904 241.72 36.3365C217.783 47.5167 203.648 95.439 185.671 156.019C174.786 192.761 162.473 234.379 145.777 275.554C126.864 322.195 83.9656 428.974 73.9182 454.043C65.0036 452.565 62.1962 454.585 61.4574 456.555C60.8172 458.18 61.1619 460.987 66.4319 464.977C70.0765 467.735 75.1987 470.493 80.9612 472.709C87.364 475.172 94.1115 476.797 99.086 476.797C102.731 476.797 105.439 475.911 106.228 473.793C107.754 469.853 101.647 465.371 97.5592 462.908C107.459 440.745 140.655 367.015 178.037 287.965C191.04 260.482 206.603 231.818 221.625 204.089C239.356 171.386 256.101 140.505 267.429 114.007C280.284 83.8155 284.175 63.7699 279.693 50.8166Z" fill="#1A1A1A"/>
<path id="Path_2" d="M253.441 53.8702C254.968 53.427 256.2 52.3434 256.84 50.8659L257.037 50.3733C259.401 45.5959 258.219 42.0005 254.82 40.7692C252.062 39.7841 247.433 41.5572 245.364 47.3197C243.788 51.4569 247.63 55.594 251.865 54.3627L253.441 53.8702Z" fill="white"/>
<path id="Path_3" d="M217.39 110.953L229.408 98.9358C232.51 95.8329 231.673 90.6615 227.782 88.6914C224.778 87.1646 223.448 83.5692 224.778 80.4663L233.151 61.061C236.007 55.2 234.727 50.8166 230.737 49.0928C219.853 62.1938 210.84 85.0468 201.679 113.564C206.899 116.125 213.253 115.09 217.39 110.953Z" fill="white"/>
<path id="Path_4" d="M93.1762 470.493C77.3663 470.394 70.274 460.544 69.9785 460.101C69.4859 459.411 69.6829 458.525 70.3232 458.032C71.0127 457.589 71.8993 457.737 72.3918 458.377C72.6381 458.771 78.9916 467.439 93.1762 467.489C94.0134 467.489 94.6537 468.178 94.6537 468.966C94.6537 469.803 94.0134 470.493 93.1762 470.493Z" fill="white"/>
<path id="Path_5" d="M151.539 335.296C151.195 335.296 150.85 335.198 150.554 334.952C139.768 325.495 129.622 326.431 129.524 326.431C128.686 326.529 127.997 325.938 127.898 325.101C127.8 324.313 128.391 323.574 129.228 323.476C129.671 323.427 140.802 322.392 152.524 332.686C153.115 333.228 153.214 334.164 152.672 334.755C152.377 335.099 151.983 335.296 151.539 335.296Z" fill="white"/>
</g>
<g id="Layer_4">
<g id="Group_2">
<path id="Path_6" d="M241.475 725.323C227.34 725.323 211.431 724.092 194.045 720.743C193.257 720.595 192.715 719.807 192.863 719.019C193.011 718.231 193.799 717.689 194.587 717.837C233.989 725.422 265.904 722.122 285.753 717.985C307.276 713.552 319.589 707.198 319.736 707.149C320.475 706.755 321.362 707.051 321.706 707.789C322.1 708.528 321.805 709.415 321.066 709.76C320.574 710.006 308.31 716.31 286.442 720.841C275.114 723.205 259.846 725.323 241.475 725.323Z" fill="#1A1A1A"/>
<path id="Path_7" d="M218.966 233.197C218.72 233.197 218.474 233.148 218.227 233C217.538 232.606 217.242 231.719 217.636 230.981C255.61 162.914 270.188 129.965 270.336 129.669C270.681 128.93 271.518 128.586 272.306 128.93C273.045 129.275 273.39 130.113 273.045 130.901C272.897 131.245 258.319 164.244 220.296 232.507C220.001 232.901 219.508 233.197 218.966 233.197Z" fill="#1A1A1A"/>
<path id="Path_8" d="M314.268 58.303C309.639 58.303 305.896 62.0461 305.896 66.6758C305.896 71.3055 309.639 75.0487 314.268 75.0487C318.898 75.0487 322.641 71.3055 322.641 66.6758C322.641 62.0461 318.898 58.303 314.268 58.303Z" fill="#1A1A1A"/>
<path id="Path_9" d="M299.246 46.7781C294.912 46.7781 291.169 43.5274 290.676 39.0948C289.74 30.6234 285.948 24.6147 279.102 20.7237C273.93 17.7686 268.956 17.2269 268.907 17.1776C264.178 16.7343 260.682 12.5479 261.125 7.81972C261.568 3.09152 265.755 -0.405371 270.483 0.0378974C271.369 0.136401 279.25 0.973686 287.622 5.75113C295.749 10.3808 305.895 19.6402 307.816 37.2232C308.308 41.9514 304.91 46.187 300.182 46.7288C299.886 46.7288 299.541 46.7781 299.246 46.7781Z" fill="#1A1A1A"/>
<circle id="Oval" cx="106.918" cy="687.054" r="9.16088" fill="#1A1A1A"/>
<circle id="Oval_2" cx="105.884" cy="742.758" r="4.77745" fill="#1A1A1A"/>
<circle id="Oval_3" cx="139.178" cy="714.094" r="6.55052" fill="#1A1A1A"/>
<path id="Path_10" d="M110.168 733.401C108.641 733.401 107.115 732.859 105.834 731.825L91.9942 720.152C89.1869 717.788 88.8421 713.552 91.2062 710.745C93.5703 707.937 97.806 707.593 100.613 709.957L114.453 721.629C117.261 723.994 117.605 728.229 115.241 731.037C113.961 732.613 112.04 733.401 110.168 733.401Z" fill="#1A1A1A"/>
</g>
</g>
<path id="Path_11" d="M425.824 249.696C425.824 249.696 416.219 290.083 377.064 300.672C377.064 300.672 344.213 314.069 305.501 283.582C305.501 283.582 276.344 302.15 255.658 329.485C234.972 356.82 228.815 369.871 228.815 369.871C228.815 369.871 251.718 358.396 300.477 388.489L335.545 363.37L349.729 352.141C349.729 352.141 366.967 367.655 384.206 391.296C401.444 414.937 416.564 438.233 415.628 464.534C415.628 464.534 407.6 470.838 393.317 455.077C393.317 455.077 335.939 473.054 310.574 471.084C310.574 471.084 326.088 523.784 337.662 538.313L352.931 559.245L403.906 550.873C403.906 550.873 450.696 539.545 506.843 514.426C562.99 489.308 599.191 462.219 599.191 462.219C599.191 462.219 599.683 420.355 586.139 373.073C572.595 325.791 554.618 297.717 543.043 284.665C531.469 271.614 502.657 246.003 425.824 249.696Z" fill="white"/>
<g id="Group_3">
<g id="Group_4">
<path id="Path_12" d="M361.944 524.474C361.402 524.474 360.86 524.178 360.614 523.636C348.596 498.025 341.701 469.755 341.652 469.459C341.455 468.671 341.947 467.883 342.735 467.686C343.523 467.489 344.311 467.982 344.508 468.77C344.558 469.065 351.404 497.04 363.273 522.405C363.618 523.144 363.323 524.03 362.584 524.375C362.387 524.424 362.141 524.474 361.944 524.474Z" fill="#C8C8C8"/>
<path id="Path_13" d="M401.246 525.852C400.704 525.852 400.163 525.557 399.916 525.015C387.308 497.828 374.305 461.086 374.207 460.741C373.911 459.953 374.355 459.116 375.093 458.87C375.881 458.623 376.719 459.017 376.965 459.756C377.113 460.101 390.066 496.695 402.576 523.784C402.921 524.523 402.576 525.409 401.837 525.754C401.689 525.852 401.492 525.852 401.246 525.852Z" fill="#C8C8C8"/>
<path id="Path_14" d="M425.43 499.109C424.839 499.109 424.298 498.764 424.051 498.222C414.792 476.256 408.685 453.994 408.635 453.748C408.438 452.96 408.882 452.172 409.67 451.926C410.458 451.728 411.246 452.172 411.492 452.96C411.541 453.157 417.599 475.271 426.809 497.04C427.105 497.779 426.76 498.666 426.021 498.961C425.824 499.06 425.627 499.109 425.43 499.109Z" fill="#C8C8C8"/>
<path id="Path_15" d="M468.722 513.145C468.181 513.145 467.688 512.85 467.442 512.357C453.651 486.992 443.752 451.482 443.653 451.137C443.456 450.349 443.899 449.561 444.687 449.315C445.475 449.118 446.263 449.561 446.51 450.349C446.608 450.694 456.459 485.86 470.052 510.929C470.446 511.668 470.2 512.554 469.461 512.948C469.166 513.096 468.969 513.145 468.722 513.145Z" fill="#C8C8C8"/>
<path id="Path_16" d="M498.914 499.256C498.372 499.256 497.831 498.961 497.584 498.419C484.73 471.774 472.761 433.456 472.663 433.062C472.417 432.274 472.86 431.436 473.648 431.19C474.436 430.944 475.273 431.387 475.519 432.175C475.618 432.569 487.537 470.69 500.293 497.139C500.638 497.877 500.342 498.764 499.604 499.109C499.357 499.207 499.16 499.256 498.914 499.256Z" fill="#C8C8C8"/>
<path id="Path_17" d="M525.806 469.361C525.215 469.361 524.673 469.016 524.426 468.425C513.394 440.893 503.347 411.785 503.199 411.489C502.953 410.701 503.347 409.864 504.135 409.618C504.923 409.372 505.76 409.766 506.006 410.554C506.105 410.849 516.152 439.908 527.135 467.39C527.431 468.129 527.086 469.016 526.298 469.311C526.15 469.311 526.003 469.361 525.806 469.361Z" fill="#C8C8C8"/>
<path id="Path_18" d="M562.991 462.711C562.4 462.711 561.858 462.366 561.612 461.775C554.569 444.242 537.035 401.885 526.348 387.158C525.855 386.518 526.003 385.582 526.692 385.09C527.333 384.597 528.268 384.745 528.761 385.435C539.252 399.915 555.554 438.824 564.37 460.692C564.666 461.43 564.321 462.317 563.533 462.613C563.385 462.662 563.188 462.711 562.991 462.711Z" fill="#C8C8C8"/>
<path id="Path_19" d="M581.065 444.439C580.474 444.439 579.933 444.094 579.736 443.552C570.427 422.374 556.587 392.724 543.437 372.038C542.994 371.349 543.191 370.413 543.88 370.019C544.57 369.576 545.505 369.773 545.899 370.462C559.148 391.296 573.087 421.044 582.395 442.37C582.74 443.109 582.395 443.995 581.656 444.34C581.509 444.389 581.262 444.439 581.065 444.439Z" fill="#C8C8C8"/>
<path id="Path_20" d="M593.331 408.485C593.282 408.288 587.52 390.803 565.603 356.278L568.114 354.702C590.278 389.572 595.942 406.86 596.188 407.598L593.331 408.485Z" fill="#C8C8C8"/>
<path id="Path_21" d="M257.727 369.28L255.116 367.901C255.215 367.754 262.849 353.126 273.98 336.429C288.952 313.97 302.743 298.653 315.007 290.97L316.583 293.482C288.164 311.311 258.022 368.739 257.727 369.28Z" fill="#C8C8C8"/>
<path id="Path_22" d="M277.378 376.766L274.817 375.289C274.916 375.141 283.239 360.956 294.518 344.605C309.737 322.589 322.789 307.321 333.329 299.244L335.102 301.608C310.525 320.373 277.723 376.175 277.378 376.766Z" fill="#C8C8C8"/>
<path id="Path_23" d="M296.635 385.041L294.024 383.662C294.123 383.514 302.644 367.064 314.71 349.087C331.013 324.806 345.641 309.39 358.249 303.233L359.53 305.893C330.471 320.078 296.93 384.401 296.635 385.041Z" fill="#C8C8C8"/>
<path id="Path_24" d="M348.941 351.057L347.069 348.742C347.611 348.299 400.557 305.548 491.378 265.605L492.56 268.314C402.133 308.109 349.483 350.614 348.941 351.057Z" fill="#C8C8C8"/>
<path id="Path_25" d="M365.244 367.162C364.85 367.162 364.406 366.965 364.111 366.67C363.569 366.03 363.668 365.143 364.259 364.601C364.554 364.355 394.844 338.448 449.76 309.587C450.499 309.193 451.385 309.488 451.779 310.227C452.173 310.966 451.878 311.852 451.139 312.246C396.568 340.96 366.524 366.621 366.229 366.916C365.933 367.015 365.588 367.162 365.244 367.162Z" fill="#C8C8C8"/>
<path id="Path_26" d="M380.019 383.416C379.576 383.416 379.182 383.219 378.887 382.874C378.394 382.234 378.493 381.298 379.133 380.805C379.724 380.313 440.895 331.307 503.199 303.48C503.938 303.135 504.824 303.48 505.169 304.218C505.514 304.957 505.169 305.844 504.43 306.188C442.471 333.819 381.645 382.628 381.054 383.12C380.66 383.268 380.364 383.416 380.019 383.416Z" fill="#C8C8C8"/>
<path id="Path_27" d="M532.454 486.106C531.863 486.106 531.321 485.762 531.075 485.171L527.381 475.566C527.085 474.828 527.479 473.941 528.218 473.646C529.006 473.35 529.844 473.744 530.139 474.483L533.833 484.087C534.128 484.826 533.734 485.712 532.996 486.008C532.799 486.057 532.651 486.106 532.454 486.106Z" fill="#C8C8C8"/>
<path id="Path_28" d="M434.443 520.336C433.852 520.336 433.311 519.991 433.064 519.45L427.893 507.383C427.548 506.644 427.942 505.758 428.681 505.462C429.42 505.117 430.306 505.511 430.602 506.25L435.773 518.317C436.118 519.056 435.724 519.942 434.985 520.238C434.837 520.287 434.64 520.336 434.443 520.336Z" fill="#C8C8C8"/>
<path id="Path_29" d="M458.329 308.06C457.787 308.06 457.295 307.765 457.049 307.272C456.655 306.533 456.95 305.647 457.64 305.253L474.04 296.387C474.779 295.993 475.666 296.289 476.06 296.978C476.454 297.717 476.158 298.604 475.469 298.998L459.068 307.863C458.822 307.962 458.575 308.06 458.329 308.06Z" fill="#C8C8C8"/>
<path id="Path_30" d="M473.45 331.356C472.957 331.356 472.464 331.11 472.169 330.617C471.726 329.928 471.972 328.992 472.662 328.598C474.336 327.613 490.441 319.092 491.131 318.698C491.87 318.304 492.756 318.6 493.15 319.289C493.544 320.028 493.249 320.915 492.559 321.309C486.797 324.362 475.518 330.371 474.238 331.11C473.942 331.307 473.696 331.356 473.45 331.356Z" fill="#C8C8C8"/>
</g>
<path id="Path_31" d="M392.823 402.131C392.282 402.131 391.789 401.836 391.543 401.343C391.149 400.604 391.395 399.718 392.134 399.324C393.07 398.782 487.535 346.624 545.406 312.886C546.096 312.492 547.031 312.689 547.426 313.428C547.82 314.118 547.623 315.053 546.884 315.447C488.963 349.185 394.498 401.392 393.562 401.885C393.316 402.033 393.07 402.131 392.823 402.131Z" fill="#C8C8C8"/>
<path id="Path_32" d="M403.759 419.714L402.626 417.005C403.562 416.611 496.303 377.259 553.977 330.371L555.849 332.686C497.781 379.82 404.695 419.32 403.759 419.714Z" fill="#C8C8C8"/>
<path id="Path_33" d="M413.164 439.415L411.884 436.756C412.721 436.362 496.302 396.467 540.727 362.927L542.5 365.291C497.829 398.979 414.002 439.021 413.164 439.415Z" fill="#C8C8C8"/>
<path id="Path_34" d="M416.859 454.782L416.12 451.925C416.514 451.827 456.162 441.09 526.691 385.14L528.513 387.454C491.426 416.907 463.057 433.653 445.868 442.469C427.054 452.073 417.253 454.634 416.859 454.782Z" fill="#C8C8C8"/>
</g>
<path id="Path_35" d="M425.824 249.696C425.824 249.696 473.106 241.57 514.133 262.6C514.133 262.6 460.596 247.825 424.149 258.316L425.824 249.696Z" fill="#C8C8C8"/>
<path id="Path_36" d="M240.636 366.67C240.636 366.67 276.097 305.499 308.111 287.867L303.925 284.173C303.925 284.173 278.067 301.411 259.598 325.052C241.128 348.693 228.815 369.871 228.815 369.871L240.636 366.67Z" fill="#C8C8C8"/>
<path id="Path_37" d="M317.371 275.652C317.371 275.652 343.376 301.362 375.094 288.359C406.813 275.357 409.078 256.592 409.817 252.651C411.048 252.898 425.824 249.696 425.824 249.696C425.824 249.696 416.22 293.777 371.893 302.642C327.566 311.508 305.009 281.119 305.255 282.35C305.501 283.582 317.371 275.652 317.371 275.652Z" fill="white"/>
<path id="Path_38" d="M300.724 498.173C300.478 498.173 300.232 498.123 300.035 497.976L256.2 473.842C255.462 473.448 255.215 472.562 255.609 471.823C256.003 471.084 256.89 470.838 257.629 471.232L301.463 495.365C302.202 495.759 302.448 496.646 302.054 497.385C301.758 497.877 301.266 498.173 300.724 498.173Z" fill="#C8C8C8"/>
<path id="Path_39" d="M148.782 413.213C148.782 413.213 138.931 424.295 138.192 445.227C138.192 445.227 178.333 463.696 238.42 470.592C298.508 477.487 360.565 464.189 360.565 464.189C360.565 464.189 398.736 454.388 413.511 445.128C413.511 445.128 400.952 412.228 384.699 390.311C368.446 368.394 349.73 354.111 349.73 352.141C349.73 350.17 306.043 396.517 259.106 410.504C210.347 425.526 148.782 413.213 148.782 413.213Z" fill="white"/>
<path id="Path_40" d="M234.774 417.35C250.978 416.217 276.442 442.075 282.45 429.269C286.883 419.911 276.442 417.104 262.257 408.485L234.774 417.35Z" fill="#C8C8C8"/>
<path id="Path_41" d="M352.931 559.245C352.931 559.245 387.9 632.138 368.199 674.002C348.498 715.867 308.111 765.119 166.758 746.895C166.758 746.895 162.325 765.463 168.285 781.963C168.285 781.963 300.231 819.296 361.796 809.938C423.361 800.58 464.24 770.044 488.866 736.553C513.492 703.061 528.76 656.764 525.313 596.184C525.313 596.184 570.132 620.81 606.579 696.658C643.025 772.507 653.368 867.07 653.368 867.07C653.368 867.07 678.979 875.443 696.71 862.638C696.71 862.638 715.426 781.864 699.665 699.614C683.904 617.363 636.622 491.77 599.191 462.219C599.191 462.219 580.918 474.483 557.474 487.83C528.563 504.28 491.033 523.193 461.778 533.634C396.765 556.783 352.931 559.245 352.931 559.245Z" fill="#C8C8C8"/>
<g id="Group_5">
<path id="Path_42" d="M664.45 869.139C665.337 811.909 654.846 781.372 654.846 781.372L637.657 777.826C637.657 777.826 653.91 839.884 653.172 868.696L664.45 869.139Z" fill="white"/>
<path id="Path_43" d="M675.779 869.287C679.965 826.93 670.952 781.028 670.952 781.028L689.028 778.22C689.028 778.22 691.145 851.606 687.55 866.037L675.779 869.287Z" fill="white"/>
</g>
<path id="Path_44" d="M165.773 755.071C165.773 755.071 236.056 773.787 307.274 753.101L308.259 736.011C308.259 736.011 272.798 752.116 231.426 750.786C190.054 749.457 164.788 747.486 164.788 747.486L165.773 755.071Z" fill="white"/>
<path id="Path_45" d="M165.429 767.237C165.429 767.237 207.145 786.938 312.2 777.087L321.41 795.458C321.41 795.458 267.233 802.994 218.621 794.473L162.474 780.683L165.429 767.237Z" fill="white"/>
<path id="Path_46" d="M388.146 166.46L400.951 179.266C400.951 179.266 415.973 169.908 422.376 163.998C428.778 158.088 433.457 148.483 429.271 148.73C425.085 148.976 404.152 155.625 388.146 166.46Z" fill="white"/>
<path id="Path_47" d="M341.75 192.613L388.146 166.411C388.146 166.411 369.43 154.344 352.586 164.687C338.007 173.701 341.75 192.613 341.75 192.613Z" fill="white"/>
<path id="Path_48" d="M346.923 177.789C356.379 177.789 364.063 172.223 364.063 165.377C364.063 163.801 363.669 162.323 362.93 160.944C359.531 161.486 356.035 162.668 352.636 164.737C347.218 168.086 344.313 172.814 342.835 177.444C344.116 177.641 345.495 177.789 346.923 177.789Z" fill="#C8C8C8"/>
<path id="Path_49" d="M150.8 374.008C150.8 374.008 158.237 348.89 156.809 349.481C155.381 350.072 150.258 344.703 138.536 367.162L123.761 400.457L132.774 409.224L155.824 413.558L167.989 403.067L150.8 374.008Z" fill="#C8C8C8"/>
<path id="Path_50" d="M360.812 725.717C360.368 725.717 359.974 725.52 359.679 725.175C359.137 724.535 359.236 723.599 359.876 723.107C369.431 715.03 377.557 705.475 383.911 694.738C384.305 694.048 385.241 693.802 385.93 694.245C386.62 694.639 386.866 695.575 386.423 696.264C379.872 707.248 371.549 717.049 361.747 725.372C361.501 725.569 361.156 725.717 360.812 725.717Z" fill="#1A1A1A"/>
<g id="Group_6">
<path id="Path_51" d="M384.699 208.768L397.554 216.402C397.554 216.402 392.481 221.081 387.31 217.978C382.04 214.925 384.699 208.768 384.699 208.768Z" fill="white"/>
<path id="Shape" fill-rule="evenodd" clip-rule="evenodd" d="M386.521 219.259C388.097 220.194 389.624 220.539 391.052 220.539C394.874 220.539 397.921 217.999 398.462 217.548C398.5 217.516 398.526 217.495 398.538 217.486C398.883 217.19 399.08 216.747 399.031 216.254C398.982 215.762 398.686 215.368 398.292 215.122L385.437 207.487C385.043 207.241 384.6 207.192 384.206 207.34C383.812 207.487 383.467 207.783 383.319 208.177C382.236 210.738 381.546 216.304 386.521 219.259ZM387.998 216.747C385.437 215.22 385.339 212.708 385.585 211.034L394.795 216.55C393.17 217.436 390.56 218.274 387.998 216.747Z" fill="#1A1A1A"/>
</g>
<path id="Path_52" d="M667.898 647.653C663.81 647.653 660.166 644.747 659.427 640.56C659.378 640.314 656.718 626.425 647.311 614.014C644.454 610.221 645.193 604.803 648.986 601.947C652.778 599.09 658.196 599.829 661.052 603.621C673.119 619.53 676.271 636.817 676.419 637.556C677.256 642.235 674.104 646.717 669.425 647.554C668.883 647.603 668.391 647.653 667.898 647.653Z" fill="white"/>
<path id="Path_53" d="M674.99 675.135C670.705 675.135 666.961 671.934 666.42 667.551L665.976 663.955C665.435 659.227 668.784 654.942 673.512 654.4C678.24 653.858 682.525 657.208 683.067 661.936L683.51 665.531C684.052 670.259 680.703 674.544 675.975 675.086C675.679 675.135 675.334 675.135 674.99 675.135Z" fill="white"/>
<g id="Group_7">
<path id="Path_54" d="M359.137 891.549H203.254C202.417 891.549 201.776 892.189 201.776 893.026C201.776 893.864 202.417 894.504 203.254 894.504H359.137C359.974 894.504 360.614 893.864 360.614 893.026C360.614 892.189 359.974 891.549 359.137 891.549Z" fill="#1A1A1A"/>
<circle id="Oval_4" cx="407.947" cy="892.682" r="5.51623" fill="#1A1A1A"/>
<path id="Path_55" d="M441.14 891.894H427.104C426.266 891.894 425.626 892.534 425.626 893.371C425.626 894.208 426.266 894.849 427.104 894.849H441.14C441.978 894.849 442.618 894.208 442.618 893.371C442.618 892.534 441.978 891.894 441.14 891.894Z" fill="#1A1A1A"/>
</g>
<path id="Path_56" d="M502.658 680.652C502.215 680.652 501.821 680.602 501.377 680.553C496.649 679.864 493.448 675.48 494.137 670.752L497.092 651.051C497.782 646.323 502.165 643.122 506.894 643.811C511.622 644.501 514.823 648.884 514.134 653.612L511.179 673.313C510.538 677.549 506.844 680.652 502.658 680.652Z" fill="white"/>
<path id="Path_57" d="M352.832 201.183C351.65 200.838 351.355 199.262 352.389 198.573C353.177 198.031 354.408 197.588 356.132 197.391C356.97 197.342 357.659 197.933 357.758 198.721C357.807 199.509 357.216 200.247 356.428 200.346C355.098 200.444 354.359 200.74 353.965 200.986C353.62 201.232 353.226 201.282 352.832 201.183Z" fill="#1A1A1A"/>
<path id="Shape_2" fill-rule="evenodd" clip-rule="evenodd" d="M119.131 438.381C116.225 437.691 113.073 436.756 109.822 435.672C109.822 435.672 95.9333 431.683 86.1814 423.605C84.7531 422.275 83.9159 420.946 83.7681 419.764C83.0371 416.303 84.2832 414.435 86.1227 411.676L86.1814 411.588C86.4277 411.243 86.674 410.898 86.9202 410.504C87.0187 410.406 87.0187 410.258 86.871 408.977C86.8574 408.841 86.8437 408.694 86.8291 408.535L86.829 408.534C86.7907 408.119 86.7452 407.626 86.674 407.057C86.4277 404.151 88.447 401.343 92.7812 398.437C92.8797 398.273 93.0001 397.912 93.1278 397.529C93.1917 397.337 93.2573 397.14 93.323 396.96L93.3576 396.842C93.8461 395.178 94.5039 392.937 96.5244 391.542C97.3124 390.951 98.2974 390.705 99.4302 390.656C109.478 391.69 121.84 400.555 121.84 400.555C121.84 400.555 129.228 384.499 135.581 371.152C139.915 362.089 144.003 354.111 148.633 350.761C151.49 348.496 154.543 347.412 157.548 348.791C158.188 349.087 158.533 349.826 158.336 350.515L151.884 374.255C154.642 378.737 173.949 409.765 184.341 415.676C197.885 416.513 213.547 416.562 230.982 415.035C232.164 414.937 233.346 414.789 234.529 414.641L241.67 387.701C241.375 387.947 241.03 388.095 240.636 388.095C240.439 388.095 240.242 388.045 240.094 387.996C231.672 384.548 226.944 380.559 226.057 376.126C225.663 374.008 226.303 371.644 226.944 370.265C226.993 370.118 227.091 369.921 227.19 369.773C252.85 323.87 282.155 297.471 302.201 283.483C307.372 279.888 312.15 276.883 316.484 274.421C316.533 274.372 316.582 274.322 316.681 274.273C329.092 267.23 337.662 264.472 339.731 263.832L345.789 229.01C344.705 229.306 343.573 229.404 342.538 229.404C338.155 229.404 334.756 227.434 334.559 227.287H334.51C333.771 227.434 332.983 227.533 332.245 227.533H332.244C331.9 227.533 331.506 227.533 331.161 227.484C328.157 227.139 326.236 225.464 325.497 224.676C323.773 225.514 322.049 226.055 320.473 226.055C319.488 226.055 318.553 225.858 317.715 225.317C316.927 224.873 316.435 224.085 316.336 223.149C316.09 221.229 317.124 217.239 328.403 204.532C333.427 198.917 338.549 193.746 340.174 192.121C339.928 190.495 339.485 186.506 340.174 181.778C341.356 173.651 345.395 167.298 351.847 163.456C358.2 159.664 366.77 158.531 376.621 160.255C382.925 161.387 387.85 163.259 389.229 163.85C425.429 144.543 429.468 146.76 431.044 147.646C432.029 148.188 432.522 149.124 432.522 150.306C432.522 155.674 427.252 162.471 416.86 170.401C411.146 174.735 405.384 178.33 402.921 179.808C404.202 181.63 405.482 183.6 406.664 185.718C407.206 186.457 411.146 188.279 413.707 189.461C419.716 192.219 422.376 193.648 423.016 195.273C423.952 197.883 420.603 199.361 417.352 200.789L417.13 200.889C415.691 201.532 413.537 202.496 413.116 203.104C413.56 207.734 412.919 212.166 411.146 216.254C406.861 225.957 395.78 229.996 384.698 231.473L384.402 254.917C384.429 254.904 384.452 254.891 384.473 254.878C384.531 254.845 384.577 254.819 384.649 254.819C418.83 246.692 449.021 244.574 474.386 248.465C496.303 251.814 515.265 259.842 530.829 272.204C559.296 294.86 571.757 328.106 580.82 352.387L581.115 353.224C600.914 406.318 600.767 454.93 600.619 461.48C603.032 463.696 613.227 473.892 627.806 498.074C655.042 543.288 675.679 601.257 688.238 641.939C702.866 689.566 706.905 735.42 707.052 770.98L707.151 773.689C707.151 773.886 707.102 774.033 707.052 774.181C707.052 782.012 706.856 789.302 706.511 796C705.181 822.596 701.98 843.282 699.911 854.363C701.241 852.098 702.817 849.586 704.491 847.025C711.534 836.386 717.642 830.673 722.567 830.033C724.98 829.737 727.197 830.624 728.92 832.594C730.792 834.712 731.481 837.174 730.94 839.883C729.905 845.006 724.389 850.374 718.43 854.807C718.971 854.659 719.513 854.462 720.055 854.265C734.486 849.438 742.859 849.487 745.568 854.511C746.602 856.432 746.159 857.91 745.568 858.845L745.555 858.865C744.754 860.117 742.351 863.875 721.089 865.002C717.395 865.199 713.751 865.297 710.599 865.347C714.736 866.479 719.415 867.908 724.143 869.385C752.266 878.349 754.384 882.831 755.073 884.309C755.714 885.638 755.467 886.722 755.172 887.313C754.088 889.628 748.917 892.534 718.38 894.011C711.387 894.405 704.147 894.652 697.104 894.75C697.059 894.75 697.005 894.76 696.945 894.771C696.913 894.777 696.878 894.783 696.842 894.789L696.806 894.793C696.774 894.797 696.742 894.799 696.71 894.799H692.375C689.223 894.849 686.12 894.849 683.116 894.849C679.865 894.849 676.763 894.849 673.857 894.799H452.912C452.075 894.799 451.434 894.159 451.434 893.322C451.434 892.484 452.075 891.844 452.912 891.844H643.567C643.32 890.908 643.32 888.692 647.458 877.807C649.378 872.734 651.348 867.908 651.89 866.676C651.545 861.948 647.704 816.242 631.155 762.164C620.96 728.82 608.007 698.875 592.689 673.165C585.154 660.557 577.027 648.933 568.359 638.393C565.157 634.798 561.562 630.858 557.819 626.868C553.288 621.992 549.348 617.904 545.9 614.506C539.842 608.99 533.636 603.868 527.184 599.189C527.578 605.394 527.824 611.945 527.775 618.791C527.627 642.383 524.327 664.546 518.023 684.592C510.094 709.71 497.337 731.677 480.099 749.801C443.357 788.464 402.478 808.264 351.453 812.056C345.198 812.548 338.697 812.795 331.998 812.795C291.513 812.795 242.655 804.126 174.293 785.115C180.893 792.7 194.339 809.692 193.403 820.626C193.157 823.63 191.827 826.044 189.561 827.767C188.035 828.999 186.557 829.393 185.326 829.393C184.39 829.393 183.602 829.196 182.962 828.9C179.81 827.521 177.199 823.236 175.081 817.868C174.786 819.986 174.195 821.709 173.161 822.891C172.422 823.63 171.141 824.517 169.22 824.517C168.777 824.517 168.285 824.467 167.792 824.369C166.117 824.024 164.788 823.039 163.901 821.512C162.276 818.803 161.931 814.125 162.867 807.574L162.867 807.575C162.719 808.067 162.571 808.559 162.374 809.052C152.981 836.05 151.249 837.171 150.41 837.714L150.406 837.716C150.061 837.913 149.667 838.012 149.323 838.012C148.978 838.012 148.682 837.913 148.387 837.766C147.402 837.224 146.22 835.746 144.299 828.555C143.068 823.926 141.738 817.671 140.506 810.529C137.798 795.162 136.025 779.254 135.778 769.01C135.286 745.714 139.718 737.784 139.915 737.439C140.26 736.848 140.999 736.553 141.688 736.799L167.004 745.319C188.576 748.078 208.179 749.506 226.008 749.506C260.829 749.506 288.854 744.088 311.509 732.859L319.735 728.377C336.283 718.477 349.68 705.081 360.564 687.892C367.854 676.416 371.892 662.625 372.68 646.815C373.272 634.108 371.794 620.072 368.149 605.148C362.288 580.965 352.783 562.102 351.748 560.083C351.621 559.944 351.45 559.761 351.241 559.537C348.705 556.821 340.512 548.047 335.052 538.264C329.388 528.364 317.321 500.192 314.514 490.982C314.514 490.982 309.983 507.432 301.561 519.4C289.1 537.131 260.189 539.446 241.473 527.281C201.203 499.648 178.36 464.025 176.141 460.565C176.043 460.411 175.985 460.321 175.968 460.298C175.919 460.249 175.869 460.15 175.82 460.052C171.929 458.919 168.235 457.835 164.837 456.752C137.157 447.985 120.165 438.972 119.131 438.381ZM86.7226 419.517C86.7719 419.714 86.9196 420.108 87.3629 420.65C90.6135 412.573 94.2089 403.609 98.0013 394.103C97.0005 394.961 96.5531 396.418 96.1682 397.672L96.1298 397.797L96.0757 397.98C95.707 399.231 95.3947 400.289 94.4552 400.9C90.2688 403.707 89.4807 405.677 89.5792 406.86C89.6118 407.348 89.666 407.794 89.7132 408.182L89.7132 408.183L89.7132 408.183L89.7133 408.184C89.7374 408.382 89.7596 408.565 89.7762 408.731L89.7914 408.897C89.9299 410.411 90.0003 411.18 89.3822 412.179C89.136 412.573 88.8897 412.967 88.6435 413.312L88.5616 413.434C86.8492 416.002 86.1885 416.993 86.6734 419.32C86.6734 419.37 86.6734 419.468 86.7226 419.517ZM414.151 154.837C426.858 149.222 429.222 150.059 429.567 150.256V150.306C429.567 158.925 409.915 172.272 401.148 177.444C396.962 172.124 392.825 168.381 390.608 166.559C400.015 161.535 407.896 157.595 414.151 154.837ZM343.129 182.123C342.637 185.373 342.735 188.328 342.932 190.2C348.448 186.9 364.948 177.099 381.94 167.79L385.585 165.672C381.891 164.392 375.045 162.422 367.805 162.422C362.879 162.422 357.757 163.308 353.374 165.968C347.66 169.366 344.213 174.833 343.129 182.123ZM339.189 267.181L338.697 269.988C338.549 270.825 339.091 271.564 339.879 271.712H340.125C340.814 271.712 341.455 271.219 341.602 270.53L348.99 227.976C349.483 227.681 349.926 227.385 350.369 227.04C350.443 226.991 350.505 226.954 350.566 226.917L350.567 226.917L350.567 226.917C350.629 226.88 350.69 226.843 350.763 226.794C350.911 226.696 351.01 226.597 351.108 226.449C357.462 220.736 359.579 208.571 359.678 207.98C359.776 207.487 359.629 207.044 359.284 206.699C358.939 206.355 358.447 206.207 358.003 206.256C356.378 206.502 351.65 206.65 349.434 204.68C348.596 203.941 348.153 202.907 348.202 201.528C348.251 199.706 348.842 198.376 349.975 197.489C352.487 195.519 357.363 196.061 359.185 196.455C359.333 196.504 359.481 196.504 359.629 196.504C360.17 196.504 360.663 196.209 360.909 195.765L365.44 186.9C367.361 186.801 372.188 186.309 377.31 184.684C385.289 182.123 390.559 177.887 392.628 172.321C396.075 175.671 400.557 180.743 404.153 187.146C404.941 188.476 407.305 189.658 412.575 192.121C415.037 193.253 418.977 195.125 420.11 196.11C419.477 196.653 417.766 197.403 416.537 197.941L416.219 198.08L416.098 198.134C412.941 199.542 409.967 200.869 410.211 203.252C410.654 207.389 410.063 211.378 408.487 215.023C405.827 221.13 399.621 225.317 390.017 227.533C381.644 229.454 372.434 229.454 366.179 229.06C365.933 229.06 365.687 229.109 365.44 229.207C365.416 229.232 365.379 229.244 365.342 229.257C365.305 229.269 365.268 229.281 365.243 229.306C365.219 229.306 365.206 229.318 365.194 229.331C365.182 229.343 365.17 229.355 365.145 229.355C365.114 229.355 365.103 229.374 365.087 229.4L365.087 229.4C365.081 229.41 365.074 229.421 365.066 229.432C365.06 229.439 365.054 229.446 365.046 229.454L364.899 229.601C364.8 229.7 364.751 229.799 364.702 229.946C364.406 230.636 364.652 231.424 365.293 231.818C365.391 231.867 379.231 240.388 381.3 252.651C381.349 252.848 381.398 253.045 381.546 253.193L381.398 263.881C381.398 264.669 382.038 265.358 382.876 265.358C383.664 265.358 384.304 264.718 384.353 263.881L384.452 257.577C384.747 257.724 385.092 257.774 385.388 257.675C393.366 255.754 401 254.228 408.339 253.045C407.551 255.459 405.679 260.483 401.887 266.048C397.011 273.288 387.801 282.991 371.695 288.458C358.841 292.792 345.986 291.807 333.525 285.552C326.778 282.153 322 278.065 319.833 275.997C329.092 270.875 336.037 268.215 339.189 267.181ZM332.048 288.113C324.216 284.173 318.996 279.445 317.075 277.524C314.071 279.248 310.869 281.218 307.52 283.483C310.081 285.65 317.37 291.511 327.763 296.141C339.682 301.46 358.25 306.238 379.034 298.801C409.915 287.719 420.11 264.324 423.065 254.769C423.558 253.095 423.903 251.765 424.1 250.829C420.012 251.272 415.825 251.863 411.54 252.504C411.146 254.129 409.324 260.286 404.399 267.575C399.227 275.209 389.525 285.503 372.631 291.216C366.721 293.186 361.205 293.974 356.033 293.974C346.281 293.974 338.007 291.117 332.048 288.113ZM147.845 355.588C150.258 352.929 152.819 351.008 155.085 351.205L148.879 374.156C148.781 374.55 148.83 374.944 149.027 375.289C149.569 376.225 157.991 389.966 167.053 401.885C166.512 402.279 160.404 406.81 154.937 412.327C145.727 410.75 138.832 409.027 134.695 407.845L141.59 386.272C141.836 385.632 141.541 384.942 140.999 384.598C138.881 383.219 136.024 382.874 133.562 383.465C134.724 380.947 135.901 378.383 137.097 375.78L137.102 375.769C138.945 371.756 140.831 367.648 142.772 363.469C144.053 360.612 145.776 357.952 147.845 355.588ZM119.772 435.573C120.018 435.623 120.265 435.672 120.462 435.77L120.519 435.801C121.148 436.136 126.788 439.139 136.469 443.207C137.355 426.954 143.364 417.498 146.368 413.755C136.863 411.785 131.002 409.913 129.475 409.421C128.687 409.174 128.293 408.337 128.539 407.549C128.785 406.761 129.623 406.367 130.411 406.613C130.706 406.712 131.149 406.859 131.79 407.056L138.34 386.617C136.321 385.829 133.415 385.977 131.74 387.553C131.691 387.553 131.642 387.602 131.593 387.651C130.149 390.818 128.734 393.921 127.35 396.957L127.347 396.964C121.175 410.497 115.622 422.675 110.956 433.012C113.96 434.047 116.965 434.933 119.772 435.573ZM280.727 471.232C232.755 471.921 191.729 462.219 165.773 453.994C155.331 450.694 146.417 447.345 139.374 444.439C139.817 433.653 142.624 426.019 144.939 421.438C146.909 417.596 148.83 415.282 149.667 414.395C162.424 416.858 180.647 419.271 203.057 419.271C211.873 419.271 221.28 418.926 231.179 417.991C258.465 415.577 289.248 398.24 310.229 384.154C331.063 370.167 346.725 356.475 349.237 354.258C357.56 360.513 369.43 372.383 385.535 394.448C388.687 398.733 391.544 402.969 394.154 407.155C392.529 407.697 389.672 408.879 384.255 411.341C378.34 414.008 371.185 417.342 366.124 419.701L365.884 419.813C360.663 422.275 357.511 427.545 357.856 433.308C358.151 437.888 355.541 442.173 351.354 444.045L334.362 451.63C328.501 454.24 325.152 460.495 326.285 466.849L326.531 468.228C313.086 469.853 297.817 470.986 280.727 471.232ZM335.84 532.255C336.135 532.255 336.431 532.304 336.677 532.501C336.874 532.649 354.506 543.977 385.929 531.91C402.084 525.705 412.575 526.345 423.706 527.034L424.334 527.071C430.046 527.406 435.932 527.751 442.963 527.133C453.109 526.246 461.876 520.829 470.347 515.559L470.494 515.468C477.983 510.817 485.672 506.043 494.333 504.526C538.02 496.794 591.162 465.322 597.762 461.332C597.91 454.486 598.008 406.613 578.406 354.258L578.111 353.421L577.968 353.041C571.788 336.611 564.221 316.49 551.367 298.357C549.949 298.096 548.097 297.351 546.118 296.555C543.628 295.554 540.937 294.473 538.66 294.171C523.161 291.667 510.586 293.938 501.173 295.639C490.215 297.618 483.541 298.823 481.527 290.822C479.594 283.088 490.154 280.934 501.867 278.545C510.146 276.856 519 275.049 524.426 271.072C502.607 255.607 471.923 246.298 427.202 250.534L427.174 250.663C426.968 251.591 426.577 253.354 425.873 255.656C422.77 265.605 412.181 290.034 380.019 301.559C371.991 304.415 364.308 305.548 357.117 305.548C344.902 305.548 334.313 302.248 326.482 298.751C314.809 293.531 307.077 286.98 305.008 285.158C304.787 285.305 304.577 285.453 304.368 285.601C304.159 285.749 303.949 285.897 303.728 286.044C284.618 299.441 256.987 324.264 232.263 366.867C234.332 366.227 237.188 365.783 241.079 365.931C254.919 366.325 275.112 373.27 301.117 386.568C301.117 386.617 301.167 386.617 301.167 386.617C301.845 386.173 302.52 385.733 303.19 385.297L303.203 385.288C305.057 384.079 306.87 382.897 308.604 381.741C318.405 375.141 327.024 368.64 333.673 363.37C329.486 358.051 327.713 353.47 328.304 349.678C328.698 347.412 329.88 346.083 330.57 345.492C330.619 345.393 330.718 345.295 330.816 345.196L330.816 345.196C369.479 313.428 401.05 295.353 420.75 285.798C442.175 275.406 454.291 272.599 454.784 272.5C455.572 272.303 456.36 272.796 456.557 273.633C456.754 274.421 456.261 275.209 455.424 275.406L455.415 275.409C455.395 275.415 455.338 275.43 455.247 275.454C453.669 275.864 441.665 278.987 421.883 288.556C402.97 297.766 372.976 314.857 336.234 344.556C338.352 344.9 341.061 345.738 344.558 347.708C356.181 354.209 370.76 369.329 387.801 392.675C391.987 398.388 396.026 404.643 399.72 411.046C401.985 414.395 404.3 418.976 406.467 423.704C406.648 424.083 406.828 424.461 407.007 424.837L407.008 424.837C407.76 426.414 408.5 427.965 409.176 429.515C410.949 433.505 412.772 438.135 414.249 442.912C414.495 443.503 414.643 443.946 414.742 444.242C414.742 444.242 414.755 444.242 414.768 444.249C414.78 444.255 414.791 444.268 414.791 444.291C414.988 444.636 415.086 445.03 414.988 445.375C416.613 451.137 417.598 456.998 417.254 462.17C423.903 459.411 444.391 450.546 467.392 435.82C483.793 425.329 498.224 413.952 510.34 402.033C525.46 387.159 536.936 371.398 544.521 355.194C544.767 354.751 545.21 354.406 545.703 354.357C545.801 354.308 545.949 354.308 546.097 354.308C546.786 354.357 547.328 354.899 547.427 355.539C549.151 367.359 546.639 376.57 544.225 382.234C541.369 388.981 537.084 394.497 532.454 397.354C526.746 400.916 525.87 405.637 524.274 414.248L524.229 414.494C523.835 416.71 523.342 419.271 522.751 422.029C520.387 433.16 509.158 438.233 500.982 441.878C498.372 443.06 496.106 444.094 494.53 445.128C492.551 446.4 491.519 448.709 490.312 451.407L490.147 451.777C487.881 457.343 484.926 464.189 473.105 464.189C458.527 464.189 451.631 453.501 449.661 449.758C432.37 459.252 419.127 464.601 416.491 465.666L416.367 465.716C414.84 467.095 413.018 467.637 411.146 467.637C403.463 467.637 394.401 458.377 392.578 456.358C391.051 456.9 389.475 457.392 387.85 457.885C386.365 458.406 384.814 458.896 383.198 459.405L383.196 459.406L382.696 459.564L382.088 459.756C366.918 464.435 343.671 469.951 312.396 472.562C313.775 477.782 321.655 506.496 335.84 532.255ZM372.779 612.388C372.286 609.778 371.695 607.118 371.055 604.459C366.031 583.625 358.299 566.732 355.442 560.821H356.181C363.47 560.821 383.22 559.393 423.607 547.474C424.494 552.941 427.055 575.498 414.495 592.441C405.827 604.065 391.79 610.763 372.779 612.388ZM168.284 821.562C169.86 821.857 170.549 821.365 170.894 820.921C172.815 818.705 172.52 812.499 171.337 805.653C170.746 803.191 170.254 800.777 169.811 798.462C169.466 797.034 169.121 795.655 168.727 794.325C166.412 802.452 163.654 815.405 166.363 820.084C166.856 820.921 167.447 821.365 168.284 821.562ZM180.056 797.182C187.296 807.18 190.891 815.208 190.448 820.429C190.251 822.596 189.414 824.27 187.788 825.453C185.966 826.782 184.784 826.536 184.045 826.191C182.075 825.305 178.135 821.414 174.244 805.013C173.85 802.698 173.358 800.432 172.816 798.364C171.732 792.798 171.043 787.972 170.747 785.706C173.013 788.218 176.559 792.404 180.056 797.182ZM168.038 748.521C167.25 753.2 165.132 769.305 170.796 781.126C239.355 800.432 288.36 809.445 328.846 809.889C316.582 795.852 310.967 777.333 308.455 763.986C306.288 752.412 305.943 742.857 305.943 738.818C284.174 748.078 257.923 752.559 226.057 752.559C208.474 752.559 189.216 751.23 168.038 748.521ZM353.374 809.002C330.029 784.918 326.236 734.336 325.892 728.13C334.806 722.269 342.785 715.276 349.927 707.198C350.665 713.108 352.586 726.505 356.182 742.118C363.865 775.806 373.666 794.768 380.808 804.964C371.991 806.884 362.88 808.214 353.374 809.002ZM583.774 654.056C587.714 659.719 591.556 665.581 595.2 671.737C604.164 686.71 612.291 703.16 619.58 720.743C656.618 728.869 692.719 716.704 700.551 713.798C697.743 691.339 693.015 667.255 685.43 642.678C672.969 602.144 652.431 544.421 625.293 499.503C611.848 477.191 602.047 466.849 599.141 463.992C591.802 469.557 544.619 503.935 475.272 530.187C459.708 536.343 444.736 541.318 430.945 545.258C429.467 545.701 427.99 546.144 426.561 546.588C427.497 551.858 430.649 575.696 416.957 594.116C413.51 598.795 409.225 602.735 404.152 605.887L404.159 605.935C404.496 608.35 407.892 632.64 400.606 661.69C400.359 662.379 399.768 662.822 399.128 662.822C399.03 662.822 398.882 662.822 398.783 662.773C397.995 662.576 397.503 661.788 397.7 661C404.201 634.995 401.985 612.979 401.295 607.512C393.563 611.699 384.254 614.26 373.369 615.245C375.389 626.474 376.177 637.113 375.733 646.963C375.487 652.184 374.896 657.158 373.96 661.936C381.872 671.353 391.925 671.685 399.729 671.943C406.986 672.183 412.297 672.359 412.131 679.716C411.963 687.676 401.199 686.972 389.26 686.191C380.147 685.595 370.35 684.955 364.061 688.089C363.766 688.531 363.471 689.022 363.176 689.514L363.174 689.517C359.874 694.738 356.328 699.564 352.585 704.096C353.225 709.858 360.662 772.113 383.958 804.176C394.843 801.615 405.186 798.118 415.135 793.636L392.134 784.721C387.702 782.948 385.485 777.974 387.209 773.541C388.982 769.108 393.957 766.892 398.389 768.616L433.851 782.406C434.294 782.603 434.737 782.85 435.181 783.096C450.104 773.935 464.239 762.311 477.981 747.831C494.874 730.051 507.433 708.479 515.215 683.804C521.47 664.004 524.721 642.186 524.869 618.89C524.918 611.157 524.573 603.818 524.081 596.923C523.884 596.628 523.785 596.234 523.834 595.889L516.102 548.607L516.003 548.311C515.855 547.819 515.954 547.277 516.299 546.932C516.397 546.785 516.496 546.686 516.643 546.588C517.136 546.243 517.727 546.243 518.22 546.538L553.779 568.505C562.743 574.07 568.752 583.625 569.836 594.116L570.968 605.345C571.559 610.911 573.628 616.279 576.977 620.761L584.365 630.71C587.271 634.65 588.256 639.822 586.877 644.55L584.414 653.218C584.316 653.563 584.069 653.858 583.774 654.056ZM620.911 724.19C629.431 725.914 637.903 726.604 645.98 726.604C671.985 726.604 693.902 719.462 700.896 716.901C702.275 728.771 703.162 740.099 703.654 750.786C681.294 763.543 638.149 757.78 632.583 756.943C628.988 745.664 625.097 734.681 620.911 724.19ZM694.789 862.195C695.035 862.096 695.232 862.047 695.429 861.948C696.463 857.466 701.832 832.299 703.556 795.754C703.851 789.597 704.048 782.849 704.097 775.708C687.795 780.682 672.576 782.012 660.854 782.012C650.166 782.012 642.385 780.879 639.331 780.387C651.004 824.714 654.205 860.077 654.698 865.987C656.421 866.775 658.293 867.317 660.165 867.711C672.921 870.026 689.962 864.017 694.789 862.195ZM700.305 862.441C699.763 862.342 699.32 862.244 698.975 862.145C703.753 852.984 715.179 834.022 722.961 832.988C724.389 832.791 725.62 833.284 726.704 834.564C727.935 835.992 728.379 837.568 728.034 839.342C726.409 847.567 709.023 858.008 701.339 861.948C700.65 862.244 700.305 862.441 700.305 862.441ZM743.006 855.94C741.184 852.59 733.155 852.984 720.99 857.072C716.016 858.796 711.091 860.815 707.495 862.392C711.189 862.392 716.065 862.342 720.99 862.096C738.869 861.16 742.415 858.451 743.104 857.319C743.301 857.023 743.4 856.678 743.006 855.94Z" fill="#1A1A1A"/>
<path id="Path_58" d="M123.91 404.2C123.417 404.89 122.531 405.038 121.841 404.545C112.533 397.945 100.86 392.035 98.2003 393.956C97.0182 394.793 96.5257 396.418 96.1317 397.798C95.7377 399.127 95.4422 400.26 94.4571 400.9C90.2707 403.708 89.4827 405.678 89.5812 406.86C89.6304 407.599 89.7289 408.239 89.7782 408.731C89.926 410.357 90.0245 411.145 89.3842 412.179C89.1379 412.573 88.8917 412.967 88.6454 413.312C86.8723 415.972 86.1828 416.957 86.6753 419.321C86.6753 419.37 86.6753 419.468 86.7246 419.518C86.7738 420.404 89.0887 423.261 97.4123 427.447C104.209 430.846 112.533 433.899 119.773 435.574C120.019 435.574 120.216 435.623 120.462 435.771C120.561 435.82 126.274 438.923 136.469 443.208C137.356 426.955 143.364 417.498 146.369 413.755C136.863 411.785 131.002 409.914 129.475 409.421C128.687 409.175 128.293 408.337 128.54 407.549C128.786 406.761 129.623 406.367 130.411 406.614C130.46 406.614 131.741 407.057 131.79 407.057L136.223 393.266L138.341 386.617C136.321 385.829 133.415 385.977 131.741 387.553C131.642 387.652 131.495 387.75 131.347 387.799C129.229 391.592 125.24 400.851 124.107 403.412C124.205 403.659 124.107 403.954 123.91 404.2Z" fill="#C8C8C8"/>
<path id="Path_59" d="M232.56 414.937C237.288 392.232 245.464 370.216 245.513 369.97C245.808 369.182 246.646 368.837 247.434 369.083C248.222 369.379 248.566 370.216 248.32 371.004C248.222 371.25 240.44 392.133 235.81 414.592L232.56 414.937Z" fill="#C8C8C8"/>
<g id="Group_8">
<path id="Shape_3" fill-rule="evenodd" clip-rule="evenodd" d="M130.607 364.503C131.297 364.257 131.937 363.912 132.38 363.321C132.824 362.681 133.267 361.646 132.676 360.021C131.691 357.066 121.2 348.595 115.388 349.58C111.891 350.171 110.266 354.259 109.774 355.638C108.592 356.179 107.656 357.017 107.163 358.15C106.523 359.529 105.981 361.006 106.523 362.434C106.548 362.484 106.56 362.521 106.572 362.558C106.585 362.595 106.597 362.631 106.622 362.681C106.228 362.681 105.833 362.73 105.489 362.828C103.913 363.223 102.681 364.158 101.893 365.537C100.908 367.31 101.056 368.886 101.844 370.315C99.5292 373.27 98.3472 375.683 99.677 377.949C101.056 380.313 110.414 384.647 115.635 384.647C116.275 384.647 116.866 384.598 117.358 384.45C118.984 383.958 119.87 382.628 119.723 380.953C119.673 380.608 119.575 380.264 119.476 379.968L119.612 379.981H119.612H119.612C120.101 380.025 120.552 380.067 121.003 380.067C122.53 380.067 123.86 379.722 124.746 378.934C125.288 378.441 125.534 377.703 125.485 376.865C125.387 375.191 123.86 372.827 121.545 370.463C123.17 371.054 124.697 371.497 126.027 371.842C127.603 372.236 128.883 372.433 129.918 372.433C131.494 372.433 132.43 371.989 132.922 371.054C133.809 369.428 132.873 367.064 130.607 364.503ZM115.93 352.486C120.018 351.796 129.228 359.085 129.918 360.908C129.918 360.957 129.918 361.006 129.967 361.006C130.115 361.351 130.065 361.499 130.065 361.499C129.868 361.696 128.982 361.893 128.095 361.843H127.898C126.766 360.858 125.436 359.923 123.958 358.987C120.117 356.524 116.275 355.145 113.271 355.047C113.862 353.914 114.797 352.683 115.93 352.486ZM116.669 381.594C116.866 381.544 116.915 381.495 116.866 381.2C116.767 380.658 115.142 379.279 113.369 378.195C112.384 377.801 111.448 377.358 110.66 376.915C110.512 376.841 110.365 376.755 110.217 376.668C110.069 376.582 109.921 376.496 109.774 376.422C107.902 375.388 105.587 374.107 103.863 372.58C101.696 375.437 102.09 376.127 102.287 376.422C102.337 376.422 102.337 376.471 102.337 376.471C103.371 377.998 113.714 382.677 116.669 381.594ZM122.58 376.915C121.497 377.407 118.147 377.013 114.7 375.634C114.503 375.536 114.306 375.437 114.158 375.339C114.059 375.273 113.961 375.251 113.862 375.229C113.813 375.218 113.764 375.207 113.715 375.191C113.173 374.945 112.631 374.649 112.09 374.354L112.089 374.354L112.089 374.354C111.974 374.296 111.859 374.231 111.741 374.164L111.741 374.164L111.741 374.164C111.556 374.06 111.364 373.951 111.154 373.861C106.77 371.448 103.273 369.281 104.505 366.966C104.899 366.276 105.391 365.882 106.179 365.685C106.475 365.636 106.819 365.587 107.164 365.587C109.43 365.587 112.483 367.015 114.798 368.591C119.97 372.186 122.334 375.782 122.58 376.915ZM115.388 364.749L116.62 365.291C123.909 368.542 128.834 369.625 130.312 369.428C130.065 368.197 127.849 364.946 122.382 361.449C118.885 359.233 115.339 357.953 112.877 357.953C112.335 357.953 111.842 358.002 111.399 358.15C110.66 358.396 110.168 358.79 109.872 359.381C109.38 360.415 109.232 361.105 109.33 361.4C109.626 362.188 112.039 363.272 115.388 364.749Z" fill="#1A1A1A"/>
<path id="Path_60" d="M116.62 381.643C116.817 381.544 116.866 381.544 116.817 381.249C116.768 380.658 115.093 379.278 113.271 378.293C112.286 377.899 111.35 377.456 110.562 377.013C110.267 376.865 109.971 376.668 109.676 376.52C107.804 375.486 105.538 374.206 103.765 372.679C101.598 375.535 101.992 376.225 102.189 376.52C102.189 376.52 102.189 376.57 102.239 376.57C103.371 378.047 113.665 382.726 116.62 381.643Z" fill="#C8C8C8"/>
<path id="Path_61" d="M113.714 375.191C113.862 375.191 114.01 375.24 114.158 375.339C114.305 375.388 114.502 375.487 114.699 375.634C118.147 377.013 121.496 377.407 122.58 376.915C122.333 375.782 119.969 372.187 114.847 368.591C112.582 367.015 109.479 365.587 107.213 365.587C106.868 365.587 106.524 365.636 106.228 365.685C105.44 365.882 104.947 366.276 104.553 366.966C103.322 369.281 106.819 371.448 111.202 373.861C111.498 374.058 111.843 374.206 112.138 374.354C112.582 374.699 113.173 374.945 113.714 375.191Z" fill="#C8C8C8"/>
<path id="Path_62" d="M130.312 369.428C130.066 368.246 127.849 364.946 122.382 361.45C118.885 359.233 115.339 357.953 112.877 357.953C112.335 357.953 111.842 358.002 111.399 358.15C110.66 358.347 110.168 358.741 109.872 359.381C109.38 360.415 109.232 361.056 109.331 361.4C109.626 362.188 112.039 363.272 115.389 364.749L116.62 365.291C123.909 368.542 128.834 369.625 130.312 369.428Z" fill="#C8C8C8"/>
<path id="Path_63" d="M130.017 361.499C130.017 361.499 130.017 361.351 129.918 361.006C129.918 360.957 129.869 360.908 129.869 360.908C129.179 359.036 119.969 351.796 115.881 352.486C114.748 352.683 113.813 353.914 113.222 355.096C116.275 355.194 120.068 356.573 123.909 359.036C125.387 359.972 126.667 360.908 127.85 361.893C127.899 361.893 127.997 361.893 128.047 361.893C128.933 361.893 129.869 361.696 130.017 361.499Z" fill="#C8C8C8"/>
</g>
</g>
<g id="Layer_2">
<g id="Layer_5">
<g id="Group_9">
<path id="Path_64" d="M675.038 169.662L798.168 117.455L808.019 203.153L701.634 232.704L675.038 169.662Z" fill="#C8C8C8"/>
<path id="Path_65" d="M728.725 166.707C744.781 166.707 757.783 154.788 757.783 140.111C757.783 138.288 757.586 136.515 757.192 134.841L705.921 156.561C711.24 162.717 719.465 166.707 728.725 166.707Z" fill="white"/>
<path id="Path_66" d="M752.168 111.446C751.577 111.446 750.986 111.052 750.789 110.461C750.493 109.673 750.887 108.836 751.675 108.589L835.896 78.2993C836.684 78.0038 837.521 78.3978 837.768 79.1858C838.063 79.9739 837.669 80.8111 836.881 81.0574L752.66 111.347C752.512 111.397 752.315 111.446 752.168 111.446Z" fill="#1A1A1A"/>
<path id="Path_67" d="M823.09 107.013C822.45 107.013 821.908 106.619 821.662 105.979C821.416 105.191 821.81 104.354 822.598 104.107L854.316 93.7645C855.104 93.5183 855.941 93.9123 856.187 94.7003C856.434 95.4884 856.04 96.3256 855.252 96.5719L823.533 106.915C823.386 107.013 823.238 107.013 823.09 107.013Z" fill="#1A1A1A"/>
<path id="Path_68" d="M829.74 193.45C829.1 193.45 828.46 193.007 828.312 192.318C828.115 191.53 828.608 190.742 829.396 190.545L880.322 177.985C881.11 177.788 881.898 178.281 882.095 179.069C882.292 179.857 881.8 180.645 881.012 180.842L830.085 193.401C829.987 193.45 829.839 193.45 829.74 193.45Z" fill="#1A1A1A"/>
<path id="Path_69" d="M784.674 229.651C784.034 229.651 783.393 229.208 783.246 228.518C783.049 227.73 783.541 226.942 784.329 226.745L871.456 205.32C872.244 205.123 873.032 205.616 873.229 206.404C873.426 207.192 872.934 207.98 872.146 208.177L785.019 229.602C784.92 229.651 784.772 229.651 784.674 229.651Z" fill="#1A1A1A"/>
<path id="Shape_4" fill-rule="evenodd" clip-rule="evenodd" d="M809.497 203.006L799.647 117.455C799.696 117.011 799.499 116.568 799.154 116.273C798.612 115.78 797.775 115.78 797.233 116.273L674.842 168.184C674.251 168.283 673.758 168.677 673.611 169.317C673.611 169.366 673.611 169.416 673.561 169.465C673.512 169.662 673.512 169.81 673.561 170.007C673.561 170.056 673.561 170.105 673.611 170.105C673.611 170.154 673.611 170.204 673.66 170.204V170.302L700.256 233.345C700.354 233.542 700.502 233.739 700.65 233.887C700.798 234.034 700.995 234.133 701.192 234.182C701.339 234.231 701.487 234.231 701.635 234.231C701.783 234.231 701.881 234.231 702.029 234.182L808.413 204.631C809.103 204.385 809.595 203.744 809.497 203.006ZM686.515 193.106C685.136 188.082 682.328 171.927 705.772 179.266L703.901 178.675L716.657 181.975L701.438 228.518L686.515 193.106ZM679.718 169.268L739.067 184.684L792.998 121.247L679.718 169.268ZM719.563 182.763L739.165 187.836C739.313 187.885 739.411 187.885 739.559 187.885C740.002 187.885 740.396 187.688 740.692 187.294L757.093 168.037L804.67 202.562L703.95 230.537L719.563 182.763ZM764.086 159.811L759.013 165.771L806.196 199.952L803.931 180.054C804.029 181.532 804.128 182.418 804.128 182.418C804.128 182.418 798.217 152.227 789.992 145.331C781.816 138.436 763.248 160.895 763.248 160.895C763.248 160.895 763.544 160.501 764.086 159.811Z" fill="#1A1A1A"/>
<circle id="Oval_5" cx="766.205" cy="196.406" r="9.60415" fill="white"/>
</g>
</g>
</g>
</g>
</svg>
