<svg width="100" height="40" viewBox="0 0 100 40" fill="none" xmlns="http://www.w3.org/2000/svg">
<path fill-rule="evenodd" clip-rule="evenodd" d="M40.6033 23.5016C37.4791 23.5016 34.9375 20.9686 34.9375 17.855C34.9375 14.7412 37.4791 12.2075 40.6033 12.2075C43.7274 12.2075 46.2689 14.7412 46.2689 17.855C46.2689 20.9686 43.7274 23.5016 40.6033 23.5016ZM40.6028 8.6499C35.5104 8.6499 31.3672 12.7794 31.3672 17.855C31.3672 22.9305 35.5104 27.06 40.6028 27.06C45.6952 27.06 49.8386 22.9305 49.8386 17.855C49.8386 12.7794 45.6952 8.6499 40.6028 8.6499Z" fill="#1A1A1A"/>
<path fill-rule="evenodd" clip-rule="evenodd" d="M62.2242 23.5018C59.1018 23.5018 56.5615 20.9718 56.5586 17.8604V17.8498C56.5615 14.7386 59.1018 12.2078 62.2242 12.2078C65.3484 12.2078 67.8898 14.7414 67.8898 17.855C67.8898 20.9688 65.3484 23.5018 62.2242 23.5018ZM62.2241 8.65013C60.0882 8.65013 58.1247 9.38332 56.5585 10.6014V0.41225C56.5585 0.184524 55.7592 0 54.7733 0C53.7876 0 52.9883 0.184524 52.9883 0.41225V26.648C52.9883 26.8755 53.7876 27.0602 54.7733 27.0602C55.7592 27.0602 56.5585 26.8755 56.5585 26.648V25.109C58.1247 26.327 60.0882 27.0602 62.2241 27.0602C67.3165 27.0602 71.4597 22.9308 71.4597 17.8551C71.4597 12.7796 67.3165 8.65013 62.2241 8.65013Z" fill="#1A1A1A"/>
<path fill-rule="evenodd" clip-rule="evenodd" d="M24.5312 0.41225C24.5312 0.184524 25.3304 0 26.3163 0C27.3021 0 28.1013 0.184524 28.1013 0.41225V26.648C28.1013 26.8755 27.3021 27.0602 26.3163 27.0602C25.3304 27.0602 24.5312 26.8755 24.5312 26.648V0.41225Z" fill="#1A1A1A"/>
<path fill-rule="evenodd" clip-rule="evenodd" d="M74.6094 0.41225C74.6094 0.184524 75.4085 0 76.3944 0C77.3803 0 78.1794 0.184524 78.1794 0.41225V26.648C78.1794 26.8755 77.3803 27.0602 76.3944 27.0602C75.4085 27.0602 74.6094 26.8755 74.6094 26.648V0.41225Z" fill="#1A1A1A"/>
<mask id="mask0_329_1344" style="mask-type:alpha" maskUnits="userSpaceOnUse" x="0" y="8" width="24" height="32">
<path fill-rule="evenodd" clip-rule="evenodd" d="M0.888672 8.6499H23.2097V39.9996H0.888672V8.6499Z" fill="white"/>
</mask>
<g mask="url(#mask0_329_1344)">
<path fill-rule="evenodd" clip-rule="evenodd" d="M12.0494 23.4756C8.93885 23.4756 6.4082 20.9533 6.4082 17.8531C6.4082 14.753 8.93885 12.2307 12.0494 12.2307C15.1599 12.2307 17.6904 14.753 17.6904 17.8531C17.6904 20.9533 15.1599 23.4756 12.0494 23.4756ZM18.1118 24.7944C20.1137 23.0556 21.2832 20.5276 21.2832 17.8533C21.2832 12.7787 17.141 8.6499 12.0494 8.6499C6.95774 8.6499 2.81532 12.7787 2.81532 17.8533C2.81532 20.8623 4.2969 23.6871 6.77848 25.4097C8.33056 26.487 10.153 27.0565 12.0494 27.0565C16.222 27.0565 19.6168 29.1564 19.6168 31.7373C19.6168 34.3191 16.222 36.4188 12.0494 36.4188C7.87629 36.4188 4.48156 34.3191 4.48156 31.7373C4.48156 31.2523 4.61303 30.7752 4.85517 30.3192L4.85152 30.3173C4.85152 30.3173 4.86438 30.2945 4.8855 30.2575C4.89725 30.2366 4.90979 30.216 4.92202 30.1952C5.04523 29.9833 5.30531 29.5444 5.62208 29.144C5.72322 28.941 5.09239 28.424 4.2129 27.9893C3.33373 27.5544 2.58143 27.3691 2.43646 27.5598C1.43678 28.8174 0.888672 30.2551 0.888672 31.7373C0.888672 36.2933 5.89518 39.9996 12.0494 39.9996C18.2031 39.9996 23.2097 36.2933 23.2097 31.7373C23.2097 28.9006 21.2809 26.3062 18.1118 24.7944Z" fill="#1A1A1A"/>
</g>
<path fill-rule="evenodd" clip-rule="evenodd" d="M85.001 16.0751C85.7595 13.797 87.9179 12.2075 90.3765 12.2075C92.8351 12.2075 94.9935 13.797 95.7522 16.0751H85.001ZM99.5122 16.5702C98.8783 12.055 94.9507 8.6499 90.3763 8.6499C85.2838 8.6499 81.1406 12.7794 81.1406 17.855C81.1406 22.9305 85.2838 27.06 90.3763 27.06C92.7308 27.06 94.9549 26.1845 96.6706 24.5887C96.8321 24.4292 96.4088 23.7063 95.7175 23.0119C95.0263 22.3173 94.3302 21.8853 94.1687 22.0449C93.1244 22.9862 91.788 23.5017 90.3763 23.5017C87.9177 23.5017 85.7592 21.912 85.0007 19.6335H99.4423L99.5122 19.1388C99.5801 18.6564 99.6119 18.248 99.6119 17.855C99.6119 17.4615 99.5801 17.053 99.5122 16.5702Z" fill="#1A1A1A"/>
</svg>
