<svg width="46" height="48" viewBox="0 0 46 48" fill="none" xmlns="http://www.w3.org/2000/svg">
<g id="icon-night">
<path id="icon-night_2" fill-rule="evenodd" clip-rule="evenodd" d="M28.28 0.000217023C27.3043 0.0155355 26.5251 0.82138 26.5385 1.80138V3.57825H24.7692C24.1312 3.56919 23.5377 3.90586 23.216 4.45935C22.8944 5.01284 22.8944 5.6974 23.216 6.25089C23.5377 6.80438 24.1312 7.14105 24.7692 7.13199H26.5385V8.90886C26.5294 9.54966 26.8647 10.1457 27.4158 10.4688C27.9669 10.7918 28.6485 10.7918 29.1996 10.4688C29.7507 10.1457 30.0859 9.54966 30.0769 8.90886V7.13199H31.8462C32.4842 7.14105 33.0777 6.80438 33.3993 6.25089C33.721 5.6974 33.721 5.01284 33.3993 4.45935C33.0777 3.90586 32.4842 3.56919 31.8462 3.57825H30.0769V1.80138C30.0835 1.32109 29.8961 0.858597 29.5576 0.519277C29.2191 0.179957 28.7583 -0.00728444 28.28 0.000217023ZM16.6142 5.87569C7.11164 7.99549 0 16.4961 0 26.6776C0 38.4529 9.50608 48 21.2308 48C31.3685 48 39.8325 40.8577 41.9432 31.3141C39.2257 32.8777 36.087 33.785 32.7308 33.785C22.471 33.785 14.1538 25.432 14.1538 15.1279C14.1538 11.7572 15.0573 8.60496 16.6142 5.87569ZM37.1538 14.2395C37.1538 13.2586 37.9465 12.4626 38.9231 12.4626C39.8997 12.4626 40.6923 13.2586 40.6923 14.2395V16.0163C40.6923 16.9972 41.4849 17.7932 42.4615 17.7932H44.2308C45.2074 17.7932 46 18.5892 46 19.5701C46 20.5509 45.2074 21.347 44.2308 21.347H42.4615C41.4849 21.347 40.6923 22.143 40.6923 23.1238V24.9007C40.6923 25.8815 39.8997 26.6776 38.9231 26.6776C37.9465 26.6776 37.1538 25.8815 37.1538 24.9007V23.1238C37.1538 22.143 36.3612 21.347 35.3846 21.347H33.6154C32.6388 21.347 31.8462 20.5509 31.8462 19.5701C31.8462 18.5892 32.6388 17.7932 33.6154 17.7932H35.3846C36.3612 17.7932 37.1538 16.9972 37.1538 16.0163V14.2395Z" fill="#1A1A1A"/>
</g>
</svg>
