<svg width="51" height="50" viewBox="0 0 51 50" fill="none" xmlns="http://www.w3.org/2000/svg">
<path d="M25.9746 49.542C39.7785 49.542 50.9688 38.4516 50.9688 24.771C50.9688 11.0904 39.7785 0 25.9746 0C12.1707 0 0.980469 11.0904 0.980469 24.771C0.980469 38.4516 12.1707 49.542 25.9746 49.542Z" fill="#1A1A1A"/>
<g clip-path="url(#clip0_646_6195)">
<path d="M29.7239 17.3428H22.2257C20.1551 17.3428 18.4766 19.0063 18.4766 21.0584V28.4897C18.4766 30.5418 20.1551 32.2054 22.2257 32.2054H29.7239C31.7945 32.2054 33.4731 30.5418 33.4731 28.4897V21.0584C33.4731 19.0063 31.7945 17.3428 29.7239 17.3428Z" fill="white" stroke="#1A1A1A" stroke-width="2" stroke-linecap="round" stroke-linejoin="round"/>
<path d="M28.974 24.3065C29.0665 24.925 28.9599 25.5566 28.6694 26.1116C28.3788 26.6666 27.9191 27.1166 27.3556 27.3977C26.7921 27.6788 26.1535 27.7766 25.5306 27.6773C24.9078 27.578 24.3324 27.2865 23.8863 26.8444C23.4402 26.4023 23.1461 25.8321 23.0459 25.2148C22.9457 24.5975 23.0444 23.9646 23.328 23.4061C23.6117 22.8477 24.0658 22.392 24.6257 22.1041C25.1857 21.8161 25.823 21.7105 26.4471 21.8022C27.0836 21.8957 27.6729 22.1897 28.1279 22.6407C28.583 23.0916 28.8796 23.6757 28.974 24.3065Z" fill="white" stroke="#1A1A1A" stroke-width="2" stroke-linecap="round" stroke-linejoin="round"/>
<ellipse cx="30.0977" cy="20.6848" rx="1.125" ry="1.1147" fill="#1A1A1A"/>
</g>
<defs>
<clipPath id="clip0_646_6195">
<rect width="17.9958" height="17.8351" fill="white" transform="translate(16.9766 15.8555)"/>
</clipPath>
</defs>
</svg>
