<svg width="52" height="52" viewBox="0 0 52 52" fill="none" xmlns="http://www.w3.org/2000/svg">
<path d="M25.9746 50.542C39.7785 50.542 50.9688 39.4516 50.9688 25.771C50.9688 12.0904 39.7785 1 25.9746 1C12.1707 1 0.980469 12.0904 0.980469 25.771C0.980469 39.4516 12.1707 50.542 25.9746 50.542Z" fill="white" stroke="#1A1A1A"/>
<path d="M23 19.25C20.9293 19.25 19.25 20.9293 19.25 23V29C19.25 31.0708 20.9293 32.75 23 32.75H29C31.0708 32.75 32.75 31.0708 32.75 29V23C32.75 20.9293 31.0708 19.25 29 19.25H23ZM30.5 20.75C30.914 20.75 31.25 21.086 31.25 21.5C31.25 21.914 30.914 22.25 30.5 22.25C30.086 22.25 29.75 21.914 29.75 21.5C29.75 21.086 30.086 20.75 30.5 20.75ZM26 22.25C28.0708 22.25 29.75 23.9293 29.75 26C29.75 28.0708 28.0708 29.75 26 29.75C23.9293 29.75 22.25 28.0708 22.25 26C22.25 23.9293 23.9293 22.25 26 22.25ZM26 23.75C25.4033 23.75 24.831 23.9871 24.409 24.409C23.9871 24.831 23.75 25.4033 23.75 26C23.75 26.5967 23.9871 27.169 24.409 27.591C24.831 28.0129 25.4033 28.25 26 28.25C26.5967 28.25 27.169 28.0129 27.591 27.591C28.0129 27.169 28.25 26.5967 28.25 26C28.25 25.4033 28.0129 24.831 27.591 24.409C27.169 23.9871 26.5967 23.75 26 23.75Z" fill="#1A1A1A"/>
</svg>
