<svg width="66" height="24" viewBox="0 0 66 24" fill="none" xmlns="http://www.w3.org/2000/svg">
<path fill-rule="evenodd" clip-rule="evenodd" d="M64.8098 10.7826C64.3865 9.69263 63.7447 8.70172 62.9241 7.87151C62.1124 7.06498 61.1435 6.43561 60.0784 6.02284C58.9765 5.58336 57.8005 5.36227 56.615 5.37176C55.4076 5.36242 54.2094 5.58335 53.084 6.02284C52.0319 6.44166 51.0753 7.07057 50.2721 7.87151C49.4955 8.67047 48.8785 9.65218 48.4211 10.8166C47.9637 11.9578 47.7351 13.2478 47.7351 14.6865C47.7351 16.0558 47.7951 16.7511 48.1885 17.8756C48.2934 18.1756 48.5032 18.7604 48.5328 18.8173C48.2579 19.5049 47.2241 20.4943 46.0795 20.8283C45.6627 20.92 45.2373 20.9659 44.8106 20.9652C43.8961 20.9652 43.1365 20.8266 42.6111 20.2334C42.1078 19.6384 41.8794 18.9329 41.8794 17.6996V1.52993C41.8794 0.684974 41.1976 0 40.3567 0H40.316C39.4751 0 38.7933 0.684974 38.7933 1.52993V18.0073C38.7933 19.08 38.9307 19.9931 39.2053 20.7467C39.229 20.8062 39.2535 20.8649 39.2781 20.9227C39.135 20.8827 38.986 20.8689 38.8382 20.8819L38.7132 20.8929C37.4241 21.0063 34.4331 21.2695 33.6043 20.5173C33.5273 20.4449 33.4561 20.3668 33.3911 20.2835C32.8835 19.6418 32.8835 18.2249 32.8835 17.4106V7.57657C32.8832 6.90622 32.4143 6.32827 31.7609 6.19283H31.755H31.7465C31.5968 6.17243 30.4514 6.03984 30.0293 6.81755L30.0292 6.81759C30.0233 6.82778 30.0174 6.83796 30.0123 6.849C29.9392 6.96942 29.8213 7.05554 29.6847 7.08825C29.5481 7.12096 29.4042 7.09756 29.2848 7.02324C28.8388 6.74058 28.3678 6.4996 27.878 6.30332C27.0546 5.93784 26.1288 5.7551 25.1007 5.7551C22.7711 5.71926 20.5421 6.70743 18.998 8.46053C18.2421 9.34735 17.6603 10.37 17.2833 11.4745C16.8644 12.6616 16.6557 13.9132 16.6666 15.1727C16.6666 16.5893 16.8721 17.8676 17.2833 19.0077C17.5375 19.6756 17.905 20.2942 18.3695 20.836L5.47378 20.785C4.63479 20.7822 3.95613 20.098 3.95614 19.2551V1.52993C3.95614 0.684974 3.27439 0 2.43342 0H2.22193C1.38096 0 0.699219 0.684974 0.699219 1.52993V22.3965C0.699214 23.2395 1.37787 23.9236 2.21686 23.9265L24.6405 23.9987C25.2773 24.0051 25.9119 23.9245 26.527 23.759C27.098 23.5992 27.79 23.3527 28.2477 23.079C28.4207 22.9754 28.567 22.8913 28.7031 22.813L28.7033 22.8129L28.8314 22.7391C29.0048 22.6388 29.1698 22.5317 29.3601 22.3923C29.7831 22.0829 30.5055 22.2316 30.8151 22.6592C31.4919 23.5941 32.6475 23.9995 34.2717 23.9995H44.3876C45.0561 24.0063 45.7232 23.9376 46.3765 23.7947C47.6378 23.504 49.5665 22.2852 50.3372 21.0383C50.7949 21.7947 52.348 22.9447 53.1931 23.3043C54.275 23.7707 55.4412 24.0074 56.6184 23.9995C57.8152 24.011 59.0029 23.7902 60.1164 23.3493C62.2943 22.4662 63.9999 20.7004 64.8132 18.4867C65.2711 17.3222 65.4998 16.0323 65.4992 14.6168C65.4987 13.2013 65.2688 11.9233 64.8098 10.7826ZM29.7969 18.4698C29.8038 18.8165 29.6792 19.1529 29.4483 19.4107C28.9904 19.9022 28.4537 20.3131 27.8605 20.6261C27.0839 21.0375 26.3124 21.2934 25.4436 21.2934C24.6433 21.2934 23.7517 21.1676 23.0648 20.848C22.4016 20.5284 21.8407 20.2012 21.3382 19.63C20.8348 19.035 20.5049 18.5378 20.2308 17.7388C19.9498 16.8768 19.8106 15.9744 19.8189 15.0674C19.8089 14.1491 19.9481 13.2353 20.2308 12.3619C20.4722 11.5996 20.8561 10.8905 21.3619 10.2727C21.8495 9.6906 22.4582 9.22291 23.1451 8.9026C23.8552 8.57768 24.6279 8.414 25.4081 8.42322C26.2034 8.41837 26.9932 8.55743 27.7395 8.83375C28.2187 8.9926 28.6822 9.19546 29.1243 9.43978C29.5525 9.69288 29.8101 10.1597 29.7969 10.6586V18.4698ZM60.7993 19.4419C61.3124 18.8291 61.6971 18.1185 61.9304 17.3527C62.2153 16.4919 62.3554 15.5893 62.3449 14.6821C62.3493 13.8172 62.1983 12.9586 61.8991 12.1476C61.6405 11.3787 61.2315 10.6695 60.6961 10.0617C60.1956 9.46998 59.576 8.99144 58.8782 8.65761C58.1815 8.28752 57.4041 8.09737 56.6161 8.10428C54.8102 8.10712 53.4046 8.70209 52.399 9.8892C51.3934 11.0763 50.8907 12.6516 50.8907 14.615C50.8878 15.488 51.0267 16.3555 51.3018 17.1836C51.5822 17.9537 51.9879 18.6718 52.5022 19.3085C53.0171 19.8935 53.6326 20.3807 54.3193 20.7466C55.0364 21.0896 55.8219 21.2641 56.6161 21.2566C57.4412 21.2701 58.2596 21.1067 59.0169 20.7772C59.704 20.4734 60.3134 20.0169 60.7993 19.4419Z" fill="#777777"/>
</svg>
