<svg width="109" height="40" viewBox="0 0 109 40" fill="none" xmlns="http://www.w3.org/2000/svg">
<path fill-rule="evenodd" clip-rule="evenodd" d="M107.579 17.971C106.874 16.1544 105.804 14.5029 104.437 13.1192C103.084 11.775 101.469 10.726 99.6937 10.0381C97.8574 9.30559 95.8972 8.93711 93.9215 8.95294C91.9092 8.93737 89.9122 9.30558 88.0365 10.0381C86.283 10.7361 84.6887 11.7843 83.3499 13.1192C82.0556 14.4508 81.0273 16.087 80.265 18.0277C79.5027 19.9297 79.1216 22.0797 79.1216 24.4775C79.1216 26.7597 79.2217 27.9184 79.8773 29.7926C80.0521 30.2927 80.4018 31.2673 80.4511 31.3622C79.9929 32.5082 78.27 34.1572 76.3624 34.7139C75.6677 34.8666 74.9586 34.9431 74.2475 34.942C72.7233 34.942 71.4572 34.7111 70.5817 33.7223C69.7428 32.7306 69.3621 31.5549 69.3621 29.4994V2.54989C69.3621 1.14162 68.2259 0 66.8242 0H66.7566C65.3549 0 64.2187 1.14162 64.2187 2.54989V30.0122C64.2187 31.7999 64.4476 33.3218 64.9053 34.5779C64.9448 34.6771 64.9857 34.7748 65.0266 34.8711C64.7882 34.8045 64.5399 34.7815 64.2934 34.8031L64.0851 34.8214C61.9367 35.0105 56.9517 35.4491 55.5702 34.1954C55.442 34.0749 55.3233 33.9447 55.2149 33.8059C54.369 32.7363 54.369 30.3748 54.369 29.0177V12.6276C54.3685 11.5104 53.5871 10.5471 52.498 10.3214H52.4881H52.474C52.2245 10.2874 50.3155 10.0664 49.6119 11.3626C49.602 11.3796 49.5922 11.3966 49.5837 11.415C49.4618 11.6157 49.2652 11.7592 49.0376 11.8138C48.81 11.8683 48.5701 11.8293 48.3712 11.7054C47.6277 11.2343 46.8429 10.8327 46.0265 10.5055C44.6542 9.8964 43.1112 9.59183 41.3977 9.59183C37.515 9.53209 33.7999 11.179 31.2265 14.1009C29.9667 15.5789 28.9969 17.2834 28.3686 19.1242C27.6705 21.1027 27.3226 23.1887 27.3408 25.2878C27.3408 27.6488 27.6834 29.7794 28.3686 31.6795C28.7922 32.7927 29.4048 33.8237 30.179 34.7266L8.68611 34.6416C7.2878 34.637 6.15671 33.4967 6.15671 32.0918V2.54989C6.15671 1.14162 5.02048 0 3.61885 0H3.26637C1.86475 0 0.728516 1.14162 0.728516 2.54989V37.3275C0.728508 38.7325 1.8596 39.8727 3.25792 39.8774L40.6307 39.9978C41.6919 40.0085 42.7497 39.8741 43.7748 39.5983C44.7265 39.332 45.8798 38.9212 46.6426 38.4651C46.9311 38.2922 47.175 38.152 47.402 38.0214C47.4746 37.9797 47.5454 37.9389 47.6155 37.8984C47.9045 37.7313 48.1794 37.5528 48.4967 37.3204C49.2016 36.8048 50.4057 37.0527 50.9217 37.7653C52.0497 39.3235 53.9756 39.9992 56.6827 39.9992H73.5425C74.6567 40.0105 75.7685 39.896 76.8572 39.6578C78.9594 39.1734 82.174 37.142 83.4585 35.0638C84.2213 36.3246 86.8099 38.2412 88.2184 38.8405C90.0215 39.6178 91.9651 40.0123 93.9272 39.9992C95.9218 40.0183 97.9014 39.6504 99.7572 38.9155C103.387 37.4437 106.23 34.5006 107.585 30.8111C108.348 28.8704 108.729 26.7205 108.729 24.3613C108.728 22.0022 108.345 19.8721 107.579 17.971ZM49.2246 30.783C49.2361 31.3608 49.0285 31.9215 48.6437 32.3512C47.8805 33.1703 46.986 33.8551 45.9973 34.3769C44.703 35.0625 43.4171 35.4889 41.9691 35.4889C40.6354 35.4889 39.1493 35.2793 38.0044 34.7466C36.8991 34.214 35.9643 33.6686 35.1268 32.7166C34.2879 31.725 33.738 30.8963 33.2812 29.5647C32.8128 28.128 32.5809 26.6241 32.5946 25.1123C32.578 23.5818 32.8099 22.0588 33.2812 20.6032C33.6835 19.3327 34.3232 18.1509 35.1663 17.1212C35.979 16.151 36.9935 15.3715 38.1384 14.8377C39.3219 14.2961 40.6096 14.0233 41.9099 14.0387C43.2356 14.0306 44.5518 14.2624 45.7957 14.7229C46.5943 14.9877 47.3669 15.3258 48.1037 15.733C48.8173 16.1548 49.2466 16.9328 49.2246 17.7644V30.783ZM100.895 32.4032C101.751 31.3819 102.392 30.1975 102.78 28.9212C103.255 27.4865 103.489 25.9822 103.471 24.4702C103.479 23.0287 103.227 21.5976 102.728 20.2459C102.297 18.9644 101.616 17.7825 100.723 16.7696C99.8891 15.7833 98.8565 14.9857 97.6934 14.4293C96.5323 13.8125 95.2367 13.4956 93.9233 13.5071C90.9136 13.5119 88.5707 14.5035 86.8948 16.482C85.2189 18.4605 84.3809 21.086 84.3809 24.3583C84.3762 25.8133 84.6077 27.2592 85.0662 28.6393C85.5335 29.9229 86.2096 31.1196 87.0668 32.1808C87.925 33.1559 88.9509 33.9678 90.0953 34.5777C91.2905 35.1494 92.5996 35.4401 93.9233 35.4277C95.2984 35.4502 96.6625 35.1778 97.9246 34.6287C99.0698 34.1224 100.086 33.3614 100.895 32.4032Z" fill="#1A1A1A"/>
</svg>
