<svg width="50" height="50" viewBox="0 0 50 50" fill="none" xmlns="http://www.w3.org/2000/svg">
<path d="M24.9941 49.542C38.798 49.542 49.9883 38.4516 49.9883 24.771C49.9883 11.0904 38.798 0 24.9941 0C11.1903 0 0 11.0904 0 24.771C0 38.4516 11.1903 49.542 24.9941 49.542Z" fill="#1A1A1A"/>
<path d="M30.8333 17.5H19.1667C18.2458 17.5 17.5 18.2458 17.5 19.1667V30.8333C17.5 31.7542 18.2458 32.5 19.1667 32.5H30.8333C31.7542 32.5 32.5 31.7542 32.5 30.8333V19.1667C32.5 18.2458 31.7542 17.5 30.8333 17.5ZM21.4483 29.1667C20.8675 29.1667 20.3967 28.6958 20.3967 28.115V24.3842C20.3975 23.8042 20.8683 23.3333 21.4483 23.3333C22.0292 23.3333 22.5 23.8042 22.5 24.385V28.1158C22.5 28.6958 22.0292 29.1667 21.4483 29.1667ZM21.4117 22.2642C20.7692 22.2642 20.34 21.8358 20.34 21.2642C20.34 20.6925 20.7683 20.2642 21.4825 20.2642C22.125 20.2642 22.5542 20.6925 22.5542 21.2642C22.5542 21.8358 22.1258 22.2642 21.4117 22.2642ZM28.9825 29.1667C28.4208 29.1667 27.965 28.7108 27.965 28.1492V25.9783C27.965 25.0967 27.4225 25 27.2192 25C27.0158 25 26.3375 25.0292 26.3375 25.9783V28.1492C26.3375 28.7108 25.8817 29.1667 25.32 29.1667H25.2525C24.6908 29.1667 24.235 28.7108 24.235 28.1492V24.385C24.235 23.8042 24.7058 23.3333 25.2867 23.3333C25.8675 23.3333 26.3383 23.8042 26.3383 24.385C26.3383 24.385 26.5733 23.3333 28.17 23.3333C29.1858 23.3333 30 24.1475 30 25.9783V28.1492C30 28.7108 29.5442 29.1667 28.9825 29.1667Z" fill="white"/>
</svg>
