<svg width="52" height="52" viewBox="0 0 52 52" fill="none" xmlns="http://www.w3.org/2000/svg">
<path d="M25.9746 50.542C39.7785 50.542 50.9688 39.4516 50.9688 25.771C50.9688 12.0904 39.7785 1 25.9746 1C12.1707 1 0.980469 12.0904 0.980469 25.771C0.980469 39.4516 12.1707 50.542 25.9746 50.542Z" fill="white" stroke="#1A1A1A"/>
<path d="M31.8333 18.5H20.1667C19.2458 18.5 18.5 19.2458 18.5 20.1667V31.8333C18.5 32.7542 19.2458 33.5 20.1667 33.5H31.8333C32.7542 33.5 33.5 32.7542 33.5 31.8333V20.1667C33.5 19.2458 32.7542 18.5 31.8333 18.5ZM22.4483 30.1667C21.8675 30.1667 21.3967 29.6958 21.3967 29.115V25.3842C21.3975 24.8042 21.8683 24.3333 22.4483 24.3333C23.0292 24.3333 23.5 24.8042 23.5 25.385V29.1158C23.5 29.6958 23.0292 30.1667 22.4483 30.1667ZM22.4117 23.2642C21.7692 23.2642 21.34 22.8358 21.34 22.2642C21.34 21.6925 21.7683 21.2642 22.4825 21.2642C23.125 21.2642 23.5542 21.6925 23.5542 22.2642C23.5542 22.8358 23.1258 23.2642 22.4117 23.2642ZM29.9825 30.1667C29.4208 30.1667 28.965 29.7108 28.965 29.1492V26.9783C28.965 26.0967 28.4225 26 28.2192 26C28.0158 26 27.3375 26.0292 27.3375 26.9783V29.1492C27.3375 29.7108 26.8817 30.1667 26.32 30.1667H26.2525C25.6908 30.1667 25.235 29.7108 25.235 29.1492V25.385C25.235 24.8042 25.7058 24.3333 26.2867 24.3333C26.8675 24.3333 27.3383 24.8042 27.3383 25.385C27.3383 25.385 27.5733 24.3333 29.17 24.3333C30.1858 24.3333 31 25.1475 31 26.9783V29.1492C31 29.7108 30.5442 30.1667 29.9825 30.1667Z" fill="black"/>
</svg>
