<svg width="147" height="40" viewBox="0 0 147 40" fill="none" xmlns="http://www.w3.org/2000/svg">
<path fill-rule="evenodd" clip-rule="evenodd" d="M24.7277 1.95652C25.9764 3.20523 27.6717 3.90859 29.4376 3.90859C33.1147 3.90859 36.0956 6.8899 36.0956 10.567C36.0956 12.3329 36.7978 14.0274 38.0464 15.2761C40.6501 17.8799 40.652 22.1033 38.0483 24.7071C36.798 25.9575 36.0956 27.6546 36.0956 29.4229C36.0956 33.1098 33.1003 36.1018 29.4134 36.1018C27.6485 36.1018 25.9533 36.8029 24.7054 38.0509C22.1068 40.6497 17.8933 40.6497 15.2947 38.0509C14.0468 36.8029 12.3516 36.1018 10.5867 36.1018C6.89977 36.1018 3.90455 33.1099 3.90455 29.4229C3.90455 27.6546 3.20213 25.9575 1.95181 24.7071C-0.651855 22.1033 -0.649975 17.8799 1.95369 15.2761C3.20231 14.0274 3.90455 12.3328 3.90455 10.567C3.90455 6.88989 6.88541 3.90859 10.5625 3.90859C12.3283 3.90859 14.0237 3.20523 15.2723 1.95653C17.8809 -0.652172 22.1192 -0.652177 24.7277 1.95652ZM14.3667 10.6H10.5333L10.5334 14.4333H14.3667L14.3667 10.6ZM21.9334 10.6H18.1L18.1001 14.4333H21.9334L21.9334 10.6ZM25.6334 25.5667H29.4667L29.4668 29.4H25.6334L25.6334 25.5667ZM29.4667 21.9L29.4667 18.0667L10.5333 18.0667L10.5333 21.9001L18.1334 21.9001L18.1333 29.4001L21.9 29.4L21.9 21.9L29.4667 21.9ZM10.5333 25.5667H14.3667L14.3667 29.4H10.5334L10.5333 25.5667ZM25.6334 10.6H29.4667L29.4668 14.4333H25.6334L25.6334 10.6Z" fill="white"/>
<path fill-rule="evenodd" clip-rule="evenodd" d="M93.8966 13.9602C95.1283 13.9602 96.1267 12.9617 96.1267 11.7301C96.1267 10.4984 95.1283 9.5 93.8966 9.5C92.665 9.5 91.6665 10.4984 91.6665 11.7301C91.6665 12.9617 92.665 13.9602 93.8966 13.9602ZM99.6736 30.5V15.5157H87.6739V30.5H90.6789V29.0133H96.6686V30.5H99.6736ZM96.6686 18.5207V20.1858H90.6789V18.5207H96.6686ZM60.4769 30.5V27.495V24.5104V21.5053H58.9846H56V18.5207H58.9846H61.9896H64.9742H67.9793V21.5053H64.9742H63.4819V24.5104V27.495V30.5H60.4769ZM80.5971 18.5207H83.6021V21.5053V24.5104V27.495V30.5H80.5971V27.495H77.592H74.6074V30.5H71.6024V27.495V24.5104V21.5053V18.5207H74.6074V21.5053V24.5104H77.592H80.5971V21.5053V18.5207ZM112.655 21.5053H115.66V30.5H103.661V15.5157H112.655V21.5053ZM106.666 18.5207V21.5053H109.65V18.5207H106.666ZM112.655 27.495V24.5104H106.666V27.495H112.655ZM131.204 18.5207H128.22H125.215H122.21H119.225V21.5053H122.21H123.722V24.5104V27.495H122.21H119.225V30.5H122.21H125.215H128.22H131.204V27.495H128.22H126.707V24.5104V21.5053H128.22H131.204V18.5207ZM139.033 30.5V27.495V24.5104V21.5053H137.54H134.556V18.5207H137.54H140.545H143.53H146.535V21.5053H143.53H142.038V24.5104V27.495V30.5H139.033Z" fill="white"/>
</svg>
