<svg width="121" height="32" viewBox="0 0 121 32" fill="none" xmlns="http://www.w3.org/2000/svg">
<path fill-rule="evenodd" clip-rule="evenodd" d="M6.05702 28.5243C1.22003 25.0322 -1.09131 18.5066 0.497942 12.8307L0.501239 12.8275C1.29586 9.99435 3.03679 7.46166 5.31845 5.56861C6.95717 4.2104 8.66282 3.62888 10.4414 3.0225C11.311 2.72602 12.198 2.4236 13.1031 2.02156C13.5456 1.82544 13.9611 1.62973 14.3605 1.44159C16.435 0.46451 18.0765 -0.308661 20.8054 0.122047C23.5289 0.554929 26.1403 1.92465 27.9669 3.95661C31.5477 7.93654 32.4478 13.6706 31.8115 18.9395C31.2938 23.236 29.6188 27.7361 25.9194 30.0975C23.2915 31.7709 20.0042 32.1327 16.8751 31.9615C13.0339 31.7515 9.1498 30.7598 6.05702 28.5243ZM24.0246 16.7677C23.8676 16.7873 23.7351 16.8216 23.6272 16.8707C23.5095 16.9197 23.4506 16.9786 23.4506 17.0473C23.4506 17.1062 23.4849 17.2484 23.5536 17.4741C23.6223 17.6998 23.6566 17.9058 23.6566 18.0922C23.6566 18.1903 23.6419 18.2737 23.6125 18.3424C23.5929 18.4013 23.5487 18.4307 23.48 18.4307H20.9393C20.3506 18.4307 19.9287 18.4258 19.6736 18.416C19.4283 18.4062 19.2762 18.3817 19.2173 18.3424C19.1683 18.2934 19.1437 18.2149 19.1437 18.1069C19.1732 17.1356 19.1977 16.1446 19.2173 15.134C19.2468 14.1136 19.2713 13.1717 19.2909 12.3083C19.0947 12.3083 18.8984 12.3279 18.7022 12.3672C18.5158 12.4064 18.3588 12.4555 18.2312 12.5143C18.1331 12.5732 18.0841 12.637 18.0841 12.7057V12.7351V12.7498C18.1429 13.78 18.192 14.8838 18.2312 16.0612C18.2705 17.2386 18.3048 18.4258 18.3343 19.6228C18.3735 20.8198 18.4029 21.9727 18.4226 23.0814C18.5305 23.0814 18.6531 23.0569 18.7905 23.0078C18.9377 22.9686 19.0113 22.8852 19.0113 22.7576C19.0211 22.5025 19.026 22.218 19.026 21.904C19.0358 21.5999 19.0456 21.2761 19.0554 20.9327C19.0554 20.7364 19.0603 20.6138 19.0701 20.5647C19.0898 20.5157 19.129 20.4911 19.1879 20.4911H20.3599H20.9393H23.9657C24.1227 20.4911 24.2453 20.3832 24.3337 20.1674C24.422 19.9417 24.4857 19.6572 24.525 19.3138C24.5642 18.9704 24.5839 18.6171 24.5839 18.2541C24.5839 17.9107 24.5691 17.6114 24.5397 17.3563C24.5201 17.1012 24.4906 16.8903 24.4514 16.7235C24.3238 16.7235 24.1816 16.7382 24.0246 16.7677ZM23.0238 13.7506C22.6509 13.7506 22.3075 13.78 21.9936 13.8389C21.8758 13.8487 21.7875 13.9615 21.7286 14.1774C21.6796 14.3834 21.655 14.6238 21.655 14.8985C21.655 15.1144 21.6698 15.3352 21.6992 15.5608C21.7286 15.7767 21.7728 15.9631 21.8317 16.1201L22.0671 16.1495H22.3173C22.5038 16.1495 22.6853 16.1446 22.8619 16.1348C23.0385 16.125 23.2053 16.1005 23.3623 16.0612C23.4604 16.0416 23.5291 15.9288 23.5683 15.7227C23.6174 15.5167 23.6419 15.2812 23.6419 15.0163C23.6419 14.8102 23.6272 14.5895 23.5978 14.354C23.5781 14.1185 23.5389 13.9223 23.48 13.7653C23.4015 13.7555 23.323 13.7506 23.2446 13.7506H23.0238ZM25.3492 13.6034C24.9861 13.6034 24.6476 13.6328 24.3337 13.6917C24.2061 13.7015 24.1129 13.8144 24.054 14.0302C24.005 14.2363 23.9804 14.4766 23.9804 14.7514C23.9804 14.9672 23.9951 15.188 24.0246 15.4137C24.054 15.6295 24.0982 15.8159 24.157 15.9729L24.3925 16.0023H24.6427C24.8292 16.0023 25.0107 15.9974 25.1873 15.9876C25.3639 15.9778 25.5307 15.9533 25.6877 15.914C25.7858 15.8944 25.8545 15.7816 25.8937 15.5755C25.9428 15.3695 25.9673 15.134 25.9673 14.8691C25.9673 14.6631 25.9526 14.4423 25.9232 14.2068C25.9035 13.9713 25.8643 13.7751 25.8054 13.6181C25.7269 13.6083 25.6484 13.6034 25.5699 13.6034H25.3492ZM23.377 10.7777C23.1023 10.7973 22.9159 10.8316 22.8177 10.8807C22.7 10.9298 22.6068 11.0573 22.5381 11.2634C22.4792 11.4694 22.4498 11.7245 22.4498 12.0287C22.4498 12.2641 22.4645 12.5045 22.4939 12.7498C22.5234 12.9853 22.5675 13.1913 22.6264 13.3679C22.7343 13.3777 22.8521 13.3876 22.9796 13.3974H23.377C23.6812 13.3974 23.9706 13.3876 24.2453 13.3679C24.5299 13.3385 24.7065 13.2993 24.7752 13.2502C24.9812 13.1128 25.0843 12.7449 25.0843 12.1464C25.0843 11.9109 25.0695 11.6705 25.0401 11.4252C25.0107 11.1701 24.9665 10.9543 24.9076 10.7777C24.8095 10.7581 24.7016 10.7482 24.5839 10.7482H24.2012C23.9265 10.7482 23.6517 10.7581 23.377 10.7777ZM9.95693 18.4307H6.57187C6.57187 18.7349 6.58659 19.0488 6.61603 19.3726C6.65527 19.6866 6.71414 19.9515 6.79264 20.1674C6.88094 20.3832 7.00359 20.4911 7.16058 20.4911H12.0812H12.665H15.687C15.844 20.4911 15.9667 20.3832 16.055 20.1674C16.1433 19.9417 16.2071 19.6572 16.2463 19.3138C16.2856 18.9704 16.3052 18.6171 16.3052 18.2541C16.3052 17.9107 16.2905 17.6114 16.261 17.3563C16.2414 17.1012 16.212 16.8903 16.1727 16.7235C16.0452 16.7235 15.9029 16.7382 15.7459 16.7677C15.5889 16.7873 15.4565 16.8216 15.3485 16.8707C15.2308 16.9197 15.1719 16.9786 15.1719 17.0473C15.1719 17.1062 15.2063 17.2484 15.2749 17.4741C15.3436 17.6998 15.378 17.9058 15.378 18.0922C15.378 18.1903 15.3633 18.2737 15.3338 18.3424C15.3142 18.4013 15.27 18.4307 15.2014 18.4307H12.665H12.0812H11.3404C11.1834 18.4307 11.1 18.3915 11.0902 18.313C11.0706 18.0186 11.0558 17.7537 11.046 17.5182C11.0362 17.2828 11.0019 17.0178 10.943 16.7235C10.6388 16.7235 10.3641 16.7726 10.1188 16.8707C10.0011 16.9197 9.94221 16.9786 9.94221 17.0473C9.94221 17.1062 9.97165 17.2533 10.0305 17.4888C10.0992 17.7243 10.1335 17.945 10.1335 18.1511C10.1335 18.3375 10.0747 18.4307 9.95693 18.4307ZM9.50068 13.574C9.12784 13.574 8.78443 13.6034 8.47045 13.6623C8.35271 13.6721 8.2644 13.7849 8.20553 14.0008C8.15647 14.2068 8.13194 14.4472 8.13194 14.7219C8.13194 14.9378 8.14666 15.1586 8.1761 15.3842C8.20553 15.6001 8.24968 15.7865 8.30855 15.9435L8.54404 15.9729H8.79424C8.98066 15.9729 9.16218 15.968 9.33879 15.9582C9.5154 15.9484 9.6822 15.9239 9.83919 15.8846C9.93731 15.865 10.006 15.7522 10.0452 15.5461C10.0943 15.3401 10.1188 15.1046 10.1188 14.8397C10.1188 14.6336 10.1041 14.4129 10.0747 14.1774C10.055 13.9419 10.0158 13.7457 9.95693 13.5887C9.87844 13.5789 9.79994 13.574 9.72145 13.574H9.50068ZM11.8261 13.4268C11.463 13.4268 11.1245 13.4562 10.8106 13.5151C10.683 13.5249 10.5898 13.6378 10.5309 13.8536C10.4819 14.0597 10.4573 14.3 10.4573 14.5748C10.4573 14.7906 10.472 15.0114 10.5015 15.237C10.5309 15.4529 10.5751 15.6393 10.6339 15.7963L10.8694 15.8257H11.1196C11.306 15.8257 11.4876 15.8208 11.6642 15.811C11.8408 15.8012 12.0076 15.7767 12.1646 15.7374C12.2627 15.7178 12.3314 15.605 12.3706 15.3989C12.4197 15.1929 12.4442 14.9574 12.4442 14.6925C12.4442 14.4865 12.4295 14.2657 12.4001 14.0302C12.3804 13.7947 12.3412 13.5985 12.2823 13.4415C12.2038 13.4317 12.1253 13.4268 12.0468 13.4268H11.8261ZM14.0239 21.0504C13.7492 21.07 13.5628 21.1044 13.4647 21.1534C13.3469 21.2025 13.2537 21.33 13.185 21.5361C13.1262 21.7421 13.0967 21.9972 13.0967 22.3014C13.0967 22.5369 13.1115 22.7723 13.1409 23.0078C13.1703 23.2531 13.2145 23.4641 13.2733 23.6407C13.3813 23.6505 13.499 23.6554 13.6266 23.6554C13.7541 23.6652 13.8866 23.6701 14.0239 23.6701C14.3281 23.6701 14.6176 23.6554 14.8923 23.626C15.1768 23.6063 15.3534 23.572 15.4221 23.5229C15.6282 23.3856 15.7312 23.0176 15.7312 22.4191C15.7312 22.1836 15.7165 21.9384 15.687 21.6833C15.6576 21.438 15.6135 21.227 15.5546 21.0504C15.4565 21.0308 15.3485 21.021 15.2308 21.021H14.8481C14.5734 21.021 14.2987 21.0308 14.0239 21.0504Z" fill="white"/>
<path fill-rule="evenodd" clip-rule="evenodd" d="M73.2719 9.70021C74.4317 9.70021 75.3719 8.76002 75.3719 7.60023C75.3719 6.44044 74.4317 5.50024 73.2719 5.50024C72.1121 5.50024 71.1719 6.44044 71.1719 7.60023C71.1719 8.76002 72.1121 9.70021 73.2719 9.70021ZM79.8248 26.4998V11.1069H67.4978V26.4998H70.5848V25.0998H76.7378V26.4998H79.8248ZM76.7378 14.1939V15.5623H70.5848V14.1939H76.7378ZM44.599 26.4998V23.4128V20.3469V17.2599H43.066H40V14.1939H43.066H46.153H49.219H52.306V17.2599H49.219H47.686V20.3469V23.4128V26.4998H44.599ZM62.748 14.1939H65.835V17.2599V20.3469V23.4128V26.4998H62.748V23.4128H59.661H56.595V26.4998H53.508V23.4128V20.3469V17.2599V14.1939H56.595V17.2599V20.3469H59.661H62.748V17.2599V14.1939ZM90.6407 17.2599H93.7277V26.4998H81.4007V11.1069H90.6407V17.2599ZM84.4877 14.1939V17.2599H87.5537V14.1939H84.4877ZM90.6407 23.4128V20.3469H84.4877V23.4128H90.6407ZM107.175 14.1939H104.109H101.022H97.9354H94.8694V17.2599H97.9354H99.4894V20.3469V23.4128H97.9354H94.8694V26.4998H97.9354H101.022H104.109H107.175V23.4128H104.109H102.555V20.3469V17.2599H104.109H107.175V14.1939ZM112.698 26.4998V23.4128V20.3469V17.2599H111.165H108.098V14.1939H111.165H114.252H117.318H120.405V17.2599H117.318H115.785V20.3469V23.4128V26.4998H112.698Z" fill="white"/>
</svg>
