<svg width="137" height="40" viewBox="0 0 137 40" fill="none" xmlns="http://www.w3.org/2000/svg">
<path fill-rule="evenodd" clip-rule="evenodd" d="M7.57128 35.6554C1.52504 31.2902 -1.36414 23.1333 0.622427 16.0384L0.626549 16.0343C1.61983 12.4929 3.79598 9.32708 6.64806 6.96076C8.69646 5.263 10.8285 4.5361 13.0517 3.77812C14.1387 3.40753 15.2475 3.02951 16.3789 2.52695C16.9319 2.2818 17.4513 2.03717 17.9506 1.80199C20.5437 0.580638 22.5957 -0.385827 26.0068 0.152559C29.4111 0.693662 32.6754 2.40581 34.9587 4.94576C39.4346 9.92068 40.5598 17.0883 39.7643 23.6744C39.1173 29.045 37.0235 34.6701 32.3992 37.6219C29.1144 39.7136 25.0052 40.1659 21.0939 39.9519C16.2924 39.6894 11.4373 38.4497 7.57128 35.6554ZM30.0301 20.9595C29.8338 20.984 29.6683 21.0269 29.5334 21.0883C29.3862 21.1496 29.3126 21.2232 29.3126 21.309C29.3126 21.3826 29.3555 21.5604 29.4414 21.8425C29.5272 22.1246 29.5702 22.3822 29.5702 22.6152C29.5702 22.7378 29.5518 22.8421 29.515 22.9279C29.4904 23.0015 29.4352 23.0383 29.3494 23.0383H26.1735C25.4376 23.0383 24.9102 23.0322 24.5913 23.0199C24.2847 23.0077 24.0946 22.977 24.021 22.9279C23.9597 22.8666 23.929 22.7685 23.929 22.6336C23.9658 21.4194 23.9965 20.1807 24.021 18.9174C24.0578 17.6419 24.0885 16.4646 24.113 15.3853C23.8677 15.3853 23.6224 15.4098 23.3771 15.4589C23.1441 15.5079 22.9478 15.5692 22.7884 15.6428C22.6658 15.7164 22.6044 15.7961 22.6044 15.882V15.9188V15.9372C22.678 17.2249 22.7393 18.6047 22.7884 20.0764C22.8375 21.5482 22.8804 23.0322 22.9172 24.5285C22.9662 26.0247 23.003 27.4658 23.0276 28.8517C23.1625 28.8517 23.3158 28.821 23.4875 28.7597C23.6715 28.7106 23.7634 28.6064 23.7634 28.447C23.7757 28.1281 23.7818 27.7724 23.7818 27.3799C23.7941 26.9997 23.8064 26.595 23.8186 26.1658C23.8186 25.9205 23.8248 25.7672 23.837 25.7058C23.8616 25.6445 23.9106 25.6139 23.9842 25.6139H25.4492H26.1735H29.9565C30.1527 25.6139 30.306 25.4789 30.4164 25.2091C30.5268 24.927 30.6065 24.5714 30.6556 24.1421C30.7046 23.7129 30.7292 23.2713 30.7292 22.8176C30.7292 22.3883 30.7108 22.0142 30.674 21.6954C30.6495 21.3765 30.6127 21.1128 30.5636 20.9043C30.4042 20.9043 30.2263 20.9227 30.0301 20.9595ZM28.7791 17.1882C28.313 17.1882 27.8838 17.2249 27.4913 17.2985C27.3441 17.3108 27.2337 17.4518 27.1601 17.7217C27.0988 17.9792 27.0682 18.2797 27.0682 18.6231C27.0682 18.8929 27.0866 19.1689 27.1233 19.451C27.1601 19.7208 27.2153 19.9538 27.2889 20.15L27.5833 20.1868H27.896C28.1291 20.1868 28.356 20.1807 28.5767 20.1684C28.7975 20.1562 29.006 20.1255 29.2022 20.0764C29.3249 20.0519 29.4107 19.9109 29.4598 19.6533C29.5211 19.3958 29.5518 19.1014 29.5518 18.7703C29.5518 18.5127 29.5334 18.2368 29.4966 17.9424C29.472 17.6481 29.423 17.4028 29.3494 17.2066C29.2513 17.1943 29.1532 17.1882 29.055 17.1882H28.7791ZM31.6858 17.0042C31.232 17.0042 30.8089 17.041 30.4164 17.1146C30.257 17.1268 30.1405 17.2679 30.0669 17.5377C30.0056 17.7952 29.9749 18.0957 29.9749 18.4391C29.9749 18.709 29.9933 18.9849 30.0301 19.267C30.0669 19.5368 30.1221 19.7698 30.1957 19.9661L30.49 20.0029H30.8028C31.0358 20.0029 31.2627 19.9967 31.4835 19.9845C31.7042 19.9722 31.9127 19.9415 32.109 19.8925C32.2316 19.8679 32.3175 19.7269 32.3665 19.4693C32.4278 19.2118 32.4585 18.9174 32.4585 18.5863C32.4585 18.3288 32.4401 18.0528 32.4033 17.7585C32.3788 17.4641 32.3297 17.2188 32.2561 17.0226C32.158 17.0103 32.0599 17.0042 31.9618 17.0042H31.6858ZM29.2206 13.472C28.8772 13.4965 28.6442 13.5395 28.5215 13.6008C28.3743 13.6621 28.2578 13.8216 28.172 14.0791C28.0984 14.3367 28.0616 14.6555 28.0616 15.0357C28.0616 15.3301 28.08 15.6306 28.1168 15.9372C28.1536 16.2315 28.2088 16.4891 28.2824 16.7098C28.4173 16.7221 28.5645 16.7344 28.7239 16.7466H29.2206C29.6008 16.7466 29.9626 16.7344 30.306 16.7098C30.6617 16.673 30.8825 16.624 30.9683 16.5627C31.2259 16.391 31.3547 15.931 31.3547 15.1829C31.3547 14.8886 31.3363 14.5881 31.2995 14.2815C31.2627 13.9626 31.2075 13.6928 31.1339 13.472C31.0113 13.4475 30.8764 13.4352 30.7292 13.4352H30.2508C29.9074 13.4352 29.564 13.4475 29.2206 13.472ZM12.4455 23.0383H8.21419C8.21419 23.4185 8.23259 23.811 8.26938 24.2157C8.31844 24.6082 8.39203 24.9393 8.49015 25.2091C8.60053 25.4789 8.75384 25.6139 8.95008 25.6139H15.1009H15.8306H19.6082C19.8044 25.6139 19.9577 25.4789 20.0681 25.2091C20.1785 24.927 20.2582 24.5714 20.3072 24.1421C20.3563 23.7129 20.3808 23.2713 20.3808 22.8176C20.3808 22.3883 20.3624 22.0142 20.3256 21.6954C20.3011 21.3765 20.2643 21.1128 20.2153 20.9043C20.0558 20.9043 19.878 20.9227 19.6817 20.9595C19.4855 20.984 19.3199 21.0269 19.185 21.0883C19.0378 21.1496 18.9643 21.2232 18.9643 21.309C18.9643 21.3826 19.0072 21.5604 19.093 21.8425C19.1789 22.1246 19.2218 22.3822 19.2218 22.6152C19.2218 22.7378 19.2034 22.8421 19.1666 22.9279C19.1421 23.0015 19.0869 23.0383 19.001 23.0383H15.8306H15.1009H14.1748C13.9786 23.0383 13.8744 22.9893 13.8621 22.8911C13.8376 22.5232 13.8192 22.1921 13.8069 21.8977C13.7946 21.6034 13.7517 21.2722 13.6781 20.9043C13.2979 20.9043 12.9545 20.9656 12.6479 21.0883C12.5007 21.1496 12.4271 21.2232 12.4271 21.309C12.4271 21.3826 12.4639 21.5666 12.5375 21.8609C12.6234 22.1553 12.6663 22.4312 12.6663 22.6888C12.6663 22.9218 12.5927 23.0383 12.4455 23.0383ZM11.8752 16.9674C11.4091 16.9674 10.9799 17.0042 10.5874 17.0778C10.4402 17.09 10.3299 17.2311 10.2563 17.5009C10.1949 17.7585 10.1643 18.0589 10.1643 18.4023C10.1643 18.6722 10.1827 18.9481 10.2195 19.2302C10.2563 19.5 10.3115 19.733 10.385 19.9293L10.6794 19.9661H10.9921C11.2252 19.9661 11.4521 19.9599 11.6728 19.9477C11.8936 19.9354 12.1021 19.9047 12.2983 19.8557C12.421 19.8312 12.5068 19.6901 12.5559 19.4326C12.6172 19.175 12.6479 18.8807 12.6479 18.5495C12.6479 18.292 12.6295 18.016 12.5927 17.7217C12.5682 17.4273 12.5191 17.182 12.4455 16.9858C12.3474 16.9735 12.2493 16.9674 12.1512 16.9674H11.8752ZM14.7819 16.7834C14.3281 16.7834 13.905 16.8202 13.5125 16.8938C13.3531 16.9061 13.2366 17.0471 13.163 17.3169C13.1017 17.5745 13.071 17.875 13.071 18.2184C13.071 18.4882 13.0894 18.7641 13.1262 19.0462C13.163 19.316 13.2182 19.5491 13.2918 19.7453L13.5861 19.7821H13.8989C14.1319 19.7821 14.3588 19.776 14.5796 19.7637C14.8003 19.7514 15.0088 19.7208 15.2051 19.6717C15.3277 19.6472 15.4136 19.5061 15.4626 19.2486C15.524 18.991 15.5546 18.6967 15.5546 18.3655C15.5546 18.108 15.5362 17.832 15.4994 17.5377C15.4749 17.2433 15.4258 16.9981 15.3523 16.8018C15.2541 16.7896 15.156 16.7834 15.0579 16.7834H14.7819ZM17.5293 26.3129C17.1859 26.3375 16.9528 26.3804 16.8302 26.4417C16.683 26.503 16.5665 26.6625 16.4807 26.92C16.4071 27.1776 16.3703 27.4965 16.3703 27.8767C16.3703 28.171 16.3887 28.4653 16.4255 28.7597C16.4623 29.0663 16.5174 29.33 16.591 29.5508C16.7259 29.563 16.8731 29.5692 17.0326 29.5692C17.192 29.5814 17.3576 29.5875 17.5293 29.5875C17.9095 29.5875 18.2713 29.5692 18.6147 29.5324C18.9704 29.5078 19.1912 29.4649 19.277 29.4036C19.5346 29.2319 19.6633 28.772 19.6633 28.0238C19.6633 27.7295 19.6449 27.4229 19.6082 27.104C19.5714 26.7974 19.5162 26.5337 19.4426 26.3129C19.3199 26.2884 19.185 26.2761 19.0378 26.2761H18.5595C18.2161 26.2761 17.8727 26.2884 17.5293 26.3129Z" fill="white"/>
<path fill-rule="evenodd" clip-rule="evenodd" d="M89.2712 13.7C90.431 13.7 91.3712 12.7598 91.3712 11.6C91.3712 10.4402 90.431 9.5 89.2712 9.5C88.1114 9.5 87.1712 10.4402 87.1712 11.6C87.1712 12.7598 88.1114 13.7 89.2712 13.7ZM95.8247 30.5V15.107H83.4977V30.5H86.5847V29.1H92.7377V30.5H95.8247ZM92.7377 18.194V19.5625H86.5847V18.194H92.7377ZM60.599 30.5V27.413V24.347V21.26H59.066H56V18.194H59.066H62.153H65.219H68.306V21.26H65.219H63.686V24.347V27.413V30.5H60.599ZM78.7479 18.194H81.8349V21.26V24.347V27.413V30.5H78.7479V27.413H75.6609H72.5949V30.5H69.5079V27.413V24.347V21.26V18.194H72.5949V21.26V24.347H75.6609H78.7479V21.26V18.194ZM106.641 21.26H109.728V30.5H97.4005V15.107H106.641V21.26ZM100.488 18.194V21.26H103.554V18.194H100.488ZM106.641 27.413V24.347H100.488V27.413H106.641ZM123.175 18.194H120.109H117.022H113.935H110.869V21.26H113.935H115.489V24.347V27.413H113.935H110.869V30.5H113.935H117.022H120.109H123.175V27.413H120.109H118.555V24.347V21.26H120.109H123.175V18.194ZM128.697 30.5V27.413V24.347V21.26H127.164H124.098V18.194H127.164H130.251H133.317H136.404V21.26H133.317H131.784V24.347V27.413V30.5H128.697Z" fill="white"/>
</svg>
