<?xml version="1.0" encoding="UTF-8"?>
<svg width="514px" height="514px" viewBox="0 0 514 514" version="1.1" xmlns="http://www.w3.org/2000/svg" xmlns:xlink="http://www.w3.org/1999/xlink">
    <title>logo-full-vector copy</title>
    <defs>
        <circle id="path-1" cx="257" cy="257" r="257"></circle>
    </defs>
    <g id="Page-1" stroke="none" stroke-width="1" fill="none" fill-rule="evenodd">
        <g id="mousepotatolab---circle-copy-2" transform="translate(-243.000000, -243.000000)">
            <g id="logo-full-vector-copy" transform="translate(243.000000, 243.000000)">
                <mask id="mask-2" fill="white">
                    <use xlink:href="#path-1"></use>
                </mask>
                <use id="Mask" fill="#C8C8C8" xlink:href="#path-1"></use>
                <g id="logo-full-vector" mask="url(#mask-2)">
                    <g transform="translate(105.000000, 159.000000)">
                        <path d="M31.6125913,76.8670059 L29.108332,17.6529642 C28.7652575,9.5408798 34.0971426,0.167923597 44.9063964,0.0924403526 C130.701804,-0.50507295 200.63838,1.88606446 273.027502,4.61120085 C286.681126,5.12736873 291.739247,14.1953553 291.609353,24.3743406 L290.883452,80.1346689 C290.74196,89.7621678 287.474024,97.6759518 271.343624,97.7797955 L52.1636863,99.1936191 C42.0800773,99.2635522 37.5776271,95.9301802 31.8084009,93.5473363 L3.67220013,82.9597581 L1.7842017,21.9319126 L27.2894369,4.20537721 C23.816838,9.80503008 23.9143479,14.3712208 24.4938301,18.2769184 L31.6125913,76.8670059 Z" id="path13850" fill="#1A1A1A" fill-rule="nonzero"></path>
                        <path d="M44.2695346,22.2568907 C44.104891,17.8248403 45.7935354,9.4629442 57.9990167,9.55115909 L251.657532,10.9656158 C265.137417,11.0597205 270.293477,17.9575491 268.877025,28.611024 L263.620392,68.1372331 C262.507372,76.5045267 261.240498,80.1630411 249.174057,80.1365697 L63.2903133,79.7290095 C58.5325538,79.7196225 46.6734306,83.2283672 46.1460068,69.8475218 L44.2695346,22.2568907 Z" id="path13852" fill="#F9F9F9" fill-rule="nonzero"></path>
                        <polygon id="rect13854" fill="#1A1A1A" fill-rule="nonzero" transform="translate(152.118955, 105.022872) rotate(1.468148) translate(-152.118955, -105.022872) " points="139.565009 94.8726389 164.673704 94.8716477 164.672901 115.173106 139.564207 115.174097"></polygon>
                        <path d="M54.4038799,109.201543 C47.5728608,109.097888 34.5737281,111.107784 34.7615464,125.78302 L36.0186458,226.191151 L27.5262393,230.966834 L27.1072062,299.393183 L35.7915179,304.982601 L35.3481927,322.237139 L34.9789576,322.050382 L31.3436927,319.835958 L30.3902404,308.545563 L23.2848948,303.093187 L23.4002808,229.060444 L27.3416218,226.844809 L26.9092284,203.493941 L26.4671177,132.486923 C26.3780902,118.195938 22.9806737,121.582748 18.220058,127.711241 L7.09199351,142.037071 C3.56656074,146.575932 1.71023837,150.243015 0.744551393,153.532416 C4.30477217,150.746512 8.57976487,149.41005 12.5710047,150.60007 L12.5758553,150.60007 C-1.21189273,160.729491 -2.37867584,173.251071 8.74989968,184.365748 L10.0155013,213.76565 C10.2506395,219.020285 14.3358675,219.760101 16.5512051,220.612655 L16.3641579,282.709834 C12.2226079,283.01698 7.12804453,288.035929 7.25838404,291.573583 L8.50819639,325.339267 C8.95679569,337.456368 21.7367287,339.627868 30.2784898,341.79948 C22.0530134,342.178975 5.88356099,340.224924 5.21908898,329.982764 L2.64416024,290.306297 C2.38571124,286.356482 4.71004955,281.621991 11.1414254,279.401545 L9.94262564,224.041004 C8.12037924,223.38924 4.98846927,223.657684 4.59843391,216.05405 L3.00732275,185.014557 C1.90452162,184.400153 0.90711743,183.746594 0,183.064504 L1.28382053,344.985288 C0.0510125838,355.434851 4.20637188,359.912968 9.17743502,363.488926 L53.8767403,392.140581 C59.8832791,395.760704 63.0762436,400.768396 78.1879544,399.90076 L239.182944,398.110791 C254.805831,396.866448 260.142679,392.169174 261.607903,386.172798 L266.596217,373.041502 L131.570359,372.876569 C124.274311,372.868311 120.708579,371.562752 119.694105,369.175355 L264.943172,367.560017 C269.975253,367.504011 275.611761,367.271424 275.350986,358.008658 L268.787346,124.721895 C267.335616,119.085214 270.852823,111.808495 251.174594,112.18604 L54.4038799,109.201543 Z" id="path13856" fill="#1A1A1A" fill-rule="nonzero"></path>
                        <path d="M56.733524,139.922374 L57.1540246,282.870156 L70.9153543,287.699136 L249.545205,285.285103 L258.656615,280.456663 L258.750207,165.314689 C258.764262,147.438736 255.61904,141.223366 243.040429,141.171596 L61.6874457,138.31445 L56.733524,139.922374 Z" id="path13900" fill="#373737" fill-rule="nonzero"></path>
                        <polygon id="rect13858" fill="#FFFFFF" fill-rule="nonzero" transform="translate(95.689794, 328.475551) rotate(1.468148) translate(-95.689794, -328.475551) " points="81.0433485 321.069787 110.336825 321.068631 110.336239 335.881315 81.0427629 335.882471"></polygon>
                        <polygon id="rect13860" fill="#FFFFFF" fill-rule="nonzero" transform="translate(125.524161, 328.231440) rotate(1.468148) translate(-125.524161, -328.231440) " points="103.404746 324.441696 147.643876 324.43995 147.643576 332.021184 103.404447 332.02293"></polygon>
                        <path d="M66.4383398,134.916402 C53.1810688,134.583187 48.5121417,142.329577 48.4301606,149.564939 L47.0963967,269.542887 C46.931753,285.042942 52.1610233,290.719686 61.2214842,290.661813 L244.758153,289.486726 C255.850857,289.416793 265.635226,286.116534 265.023541,274.644324 L261.21368,150.80048 C261.049154,145.554341 259.166058,138.273828 249.430013,138.104135 L66.4383398,134.916402 Z M247.450153,141.981249 C253.568574,141.995329 256.509267,146.900931 256.53585,150.607272 L257.414067,273.214074 C257.296548,281.301635 249.687567,284.182483 241.954322,284.215361 L67.1402223,284.961521 C59.2555356,285.03081 55.5885632,279.406938 55.8306587,267.949725 L58.2453523,151.486106 C58.3153464,148.109578 58.691486,141.613349 67.3222259,141.526542 L247.450153,141.981249 Z" id="path13862" fill="#141414" fill-rule="nonzero"></path>
                        <path d="M268.640507,131.884024 C300.394238,132.380808 311.761771,167.332167 295.873342,187.396066 L296.43454,212.167548 C296.574858,218.540432 290.27997,219.032123 290.27997,219.032123 L292.165604,285.288694 C299.047145,287.476265 301.41162,296.448152 301.385813,298.718939 L300.920909,340.189525 C300.756383,353.795611 284.09219,355.031692 273.63498,355.126383 L272.517189,328.862603 C280.400388,330.483128 287.138626,320.479234 277.713864,312.746103 L277.368312,221.419684 L270.491708,221.419684 L268.640507,131.884024 Z" id="path13864" fill="#1A1A1A" fill-rule="nonzero"></path>
                        <path d="M47.7177945,25.079324 C47.5551868,20.9534436 49.1812287,13.1691771 61.0455553,13.2511554 L249.310076,14.5660159 C262.414629,14.6607144 267.437802,21.075182 266.0764,30.9932118 L261.025883,67.7898257 C259.956711,75.5790042 258.729807,78.9847743 247.000002,78.9601824 L66.294886,78.5801211 C61.669479,78.5706749 50.1464961,81.8379867 49.6132753,69.3812097 L47.7177945,25.079324 Z" id="path13868" fill="#1A1A1A" fill-rule="nonzero"></path>
                        <g id="g15379" stroke-width="1" fill="none" fill-rule="evenodd" transform="translate(69.056081, 20.097201)">
                            <path d="M53.7890026,27.5852742 C53.7890026,34.2967751 51.1187557,40.7333908 46.3656826,45.4791386 C41.6126096,50.2248864 35.1660587,52.8910181 28.4441984,52.8910181 C21.722338,52.8910181 15.2757871,50.2248864 10.5227141,45.4791386 C5.76964101,40.7333908 3.09939407,34.2967751 3.09939407,27.5852742 C3.09939407,20.8737732 5.76964101,14.4371575 10.5227141,9.6914097 C15.2757871,4.94566187 21.722338,2.2795302 28.4441984,2.2795302 C35.1660587,2.2795302 41.6126096,4.94566187 46.3656826,9.6914097 C51.1187557,14.4371575 53.7890026,20.8737732 53.7890026,27.5852742 L53.7890026,27.5852742 Z" id="circle13872" fill="#F9F9F9" fill-rule="nonzero" transform="translate(28.444198, 27.585274) scale(-1, 1) translate(-28.444198, -27.585274) "></path>
                            <path d="M52.9869166,26.4527389 C52.9869166,33.4684484 50.1956675,40.1968191 45.2271545,45.1576748 C40.2586415,50.1185305 33.5198854,52.9054779 26.4933469,52.9054779 C11.86142,52.9054779 0,41.0621157 0,26.4527389 C0,11.843449 11.861507,0.0002224583 26.4933469,0.0002224583 C41.1252738,0.0002224583 52.9869166,11.8433622 52.9869166,26.4527389 Z" id="circle13874" fill="#1A1A1A" fill-rule="nonzero" transform="translate(26.493458, 26.452850) scale(-1, 1) translate(-26.493458, -26.452850) "></path>
                            <path d="M52.9866938,24.2797663 C52.9866938,37.6889682 42.0995732,48.5593101 28.6696736,48.5593101 C15.2397741,48.5593101 4.35265348,37.6889682 4.35265348,24.2797663 C4.35265348,17.8403994 6.91456316,11.6647586 11.4748905,7.1114178 C16.0352178,2.55807696 22.2203674,0 28.6696736,0 C35.1189799,0 41.3041295,2.55807696 45.8644568,7.1114178 C50.4247841,11.6647586 52.9866938,17.8403994 52.9866938,24.2797663 L52.9866938,24.2797663 Z" id="circle13876" fill="#FEFEFE" fill-rule="nonzero" transform="translate(28.669674, 24.279655) scale(-1, 1) translate(-28.669674, -24.279655) "></path>
                            <path d="M178.123699,29.5553649 C178.123699,36.2668658 175.453452,42.7034815 170.700379,47.4492293 C165.947306,52.1949771 159.500755,54.8611088 152.778895,54.8611088 C146.057034,54.8611088 139.610483,52.1949771 134.85741,47.4492293 C130.104337,42.7034815 127.43409,36.2668658 127.43409,29.5553649 C127.43409,22.8438639 130.104337,16.4072482 134.85741,11.6615004 C139.610483,6.91575258 146.057034,4.24962091 152.778895,4.24962091 C159.500755,4.24962091 165.947306,6.91575258 170.700379,11.6615004 C175.453452,16.4072482 178.123699,22.8438639 178.123699,29.5553649 L178.123699,29.5553649 Z" id="circle13878" fill="#F9F9F9" fill-rule="nonzero" transform="translate(152.778895, 29.555365) scale(-1, 1) translate(-152.778895, -29.555365) "></path>
                            <path d="M177.321613,28.423497 C177.321613,43.0328738 165.460193,54.876236 150.828266,54.876236 C143.801728,54.876236 137.062971,52.0892886 132.094458,47.1284329 C127.125945,42.1675772 124.334696,35.4392065 124.334696,28.423497 C124.334696,13.8141203 136.196339,1.97098054 150.828266,1.97098054 C165.460106,1.97098054 177.321613,13.8142071 177.321613,28.423497 Z" id="circle13880" fill="#1A1A1A" fill-rule="nonzero" transform="translate(150.828155, 28.423608) scale(-1, 1) translate(-150.828155, -28.423608) "></path>
                            <path d="M177.321613,26.2505243 C177.321613,39.6597263 166.434492,50.5300682 153.004593,50.5300682 C139.574693,50.5300682 128.687573,39.6597263 128.687573,26.2505243 C128.687573,19.8111575 131.249482,13.6355167 135.80981,9.08217588 C140.370137,4.52883504 146.555286,1.97075808 153.004593,1.97075808 C159.453899,1.97075808 165.639049,4.52883504 170.199376,9.08217588 C174.759703,13.6355167 177.321613,19.8111575 177.321613,26.2505243 Z" id="circle13882" fill="#FEFEFE" fill-rule="nonzero" transform="translate(153.004593, 26.250413) scale(-1, 1) translate(-153.004593, -26.250413) "></path>
                        </g>
                        <path d="M267.343124,295.175485 L268.345817,353.327294 C268.390239,356.254185 269.115776,359.891203 264.01469,359.973621 L49.7580628,360.391507 L248.398646,352.499548 C251.166986,352.38221 256.908901,352.806667 258.617293,343.361417 L267.343124,295.175485 Z" id="path13894" fill="#FFFFFF" fill-rule="nonzero"></path>
                        <g id="text1151" stroke-width="1" fill="none" fill-rule="evenodd" transform="translate(66.491171, 164.882581)">
                            <path d="M24.92423,1.13686838e-13 L31.091922,1.13686838e-13 L31.091922,6.1581796 L31.091922,12.3585303 L31.091922,18.5167334 L24.92423,18.5167334 L24.92423,12.3585303 L24.92423,6.1581796 L18.7142947,6.1581796 L18.7142947,12.3585303 L18.7142947,18.5167334 L12.5466027,18.5167334 L12.5466027,12.3585303 L12.5466027,6.1581796 L6.33666741,6.1581796 L6.33666741,12.3585303 L6.33666741,18.5167334 L0.168977735,18.5167334 L0.168977735,12.3585303 L0.168977735,6.1581796 L0.168977735,1.13686838e-13 L6.33666741,1.13686838e-13 L12.5466027,1.13686838e-13 L18.7142947,1.13686838e-13 L24.92423,1.13686838e-13 Z M24.92423,24.7170841 L24.92423,18.5167334 L31.091922,18.5167334 L31.091922,24.7170841 L31.091922,24.7170841 L24.92423,24.7170841 Z M0.168977735,24.7170841 L0.168977735,18.5167334 L6.33666741,18.5167334 L6.33666741,24.7170841 L6.33666741,24.7170841 L0.168977735,24.7170841 Z" id="path1813" fill="#FEFEFE" fill-rule="nonzero"></path>
                            <path d="M51.1626618,18.5167334 L57.3725971,18.5167334 L63.5825324,18.5167334 L63.5825324,24.7170841 L63.5825324,24.7170841 L57.3725971,24.7170841 L51.1626618,24.7170841 L44.9949698,24.7170841 L38.7850345,24.7170841 L38.7850345,24.7170841 L38.7850345,18.5167334 L44.9949698,18.5167334 L51.1626618,18.5167334 Z M57.3725971,1.13686838e-13 L63.5825324,1.13686838e-13 L63.5825324,6.1581796 L63.5825324,12.3585303 L63.5825324,18.5167334 L57.3725971,18.5167334 L57.3725971,12.3585303 L57.3725971,6.1581796 L51.1626618,6.1581796 L44.9949698,6.1581796 L44.9949698,12.3585303 L44.9949698,18.5167334 L38.7850345,18.5167334 L38.7850345,12.3585303 L38.7850345,6.1581796 L38.7850345,1.13686838e-13 L44.9949698,1.13686838e-13 L51.1626618,1.13686838e-13 L57.3725971,1.13686838e-13 Z" id="path1815" fill="#FEFEFE" fill-rule="nonzero"></path>
                            <path d="M83.7172987,18.5167334 L89.927234,18.5167334 L96.1371599,18.5167334 L96.1371599,24.7170841 L96.1371599,24.7170841 L89.927234,24.7170841 L83.7172987,24.7170841 L77.5496067,24.7170841 L71.3396714,24.7170841 L71.3396714,24.7170841 L71.3396714,18.5167334 L77.5496067,18.5167334 L83.7172987,18.5167334 Z M89.927234,1.13686838e-13 L96.1371599,1.13686838e-13 L96.1371599,6.1581796 L96.1371599,12.3585303 L96.1371599,18.5167334 L89.927234,18.5167334 L89.927234,12.3585303 L89.927234,6.1581796 L89.927234,1.13686838e-13 Z M77.5496067,12.3585303 L77.5496067,18.5167334 L71.3396714,18.5167334 L71.3396714,12.3585303 L71.3396714,6.1581796 L71.3396714,1.13686838e-13 L77.5496067,1.13686838e-13 L77.5496067,6.1581796 L77.5496067,12.3585303 Z" id="path1817" fill="#FEFEFE" fill-rule="nonzero"></path>
                            <path d="M122.2185,6.1581796 L116.008579,6.1581796 L116.008579,12.3585303 L109.84087,12.3585303 L103.630949,12.3585303 L103.630949,6.1581796 L103.630949,0 L109.84087,0 L116.008579,0 L122.2185,0 L128.428444,0 L128.428444,6.1581796 L122.2185,6.1581796 Z M122.2185,18.5167334 L116.008579,18.5167334 L116.008579,12.3585303 L122.2185,12.3585303 L128.428444,12.3585303 L128.428444,18.5167334 L122.2185,18.5167334 Z M116.008579,18.5167334 L122.2185,18.5167334 L128.428444,18.5167334 L128.428444,24.7170841 L128.428444,24.7170841 L122.2185,24.7170841 L116.008579,24.7170841 L109.84087,24.7170841 L103.630949,24.7170841 L103.630949,24.7170841 L103.630949,18.5167334 L109.84087,18.5167334 L116.008579,18.5167334 Z" id="path1819" fill="#FEFEFE" fill-rule="nonzero"></path>
                            <path d="M147.977721,18.5167334 L154.187666,18.5167334 L160.397587,18.5167334 L160.397587,24.7170841 L160.397587,24.7170841 L154.187666,24.7170841 L147.977721,24.7170841 L141.810036,24.7170841 L135.600091,24.7170841 L135.600091,24.7170841 L135.600091,18.5167334 L141.810036,18.5167334 L147.977721,18.5167334 Z M154.187666,1.13686838e-13 L160.397587,1.13686838e-13 L160.397587,6.1581796 L154.187666,6.1581796 L147.977721,6.1581796 L141.810036,6.1581796 L141.810036,9.23725767 L147.977721,9.23725767 L154.187666,9.23725767 L154.187666,15.4376319 L147.977721,15.4376319 L141.810036,15.4376319 L141.810036,18.5167334 L135.600091,18.5167334 L135.600091,12.3585303 L135.600091,6.1581796 L135.600091,1.13686838e-13 L141.810036,1.13686838e-13 L147.977721,1.13686838e-13 L154.187666,1.13686838e-13 Z" id="path1821" fill="#FEFEFE" fill-rule="nonzero"></path>
                            <path d="M18.9255181,33.7434627 L25.1354534,33.7434627 L25.1354534,39.9016658 L25.1354534,46.1020165 L25.1354534,52.2602196 L18.9255181,52.2602196 L12.7155804,52.2602196 L6.54789076,52.2602196 L0.33795547,52.2602196 L0.33795547,46.1020165 L0.33795547,39.9016658 L0.33795547,33.7434627 L6.54789076,33.7434627 L12.7155804,33.7434627 L18.9255181,33.7434627 Z M18.9255181,46.1020165 L18.9255181,39.9016658 L12.7155804,39.9016658 L6.54789076,39.9016658 L6.54789076,46.1020165 L12.7155804,46.1020165 L18.9255181,46.1020165 Z M0.33795547,58.4605703 L0.33795547,52.2602196 L6.54789076,52.2602196 L6.54789076,58.4605703 L6.54789076,58.4605703 L0.33795547,58.4605703 Z" id="path1823" fill="#FEFEFE" fill-rule="nonzero"></path>
                            <path d="M45.3870497,52.2602196 L51.596985,52.2602196 L57.8069226,52.2602196 L57.8069226,58.4605703 L57.8069226,58.4605703 L51.596985,58.4605703 L45.3870497,58.4605703 L39.21936,58.4605703 L33.0094247,58.4605703 L33.0094247,58.4605703 L33.0094247,52.2602196 L39.21936,52.2602196 L45.3870497,52.2602196 Z M51.596985,33.7434627 L57.8069226,33.7434627 L57.8069226,39.9016658 L57.8069226,46.1020165 L57.8069226,52.2602196 L51.596985,52.2602196 L51.596985,46.1020165 L51.596985,39.9016658 L45.3870497,39.9016658 L39.21936,39.9016658 L39.21936,46.1020165 L39.21936,52.2602196 L33.0094247,52.2602196 L33.0094247,46.1020165 L33.0094247,39.9016658 L33.0094247,33.7434627 L39.21936,33.7434627 L45.3870497,33.7434627 L51.596985,33.7434627 Z" id="path1825" fill="#FEFEFE" fill-rule="nonzero"></path>
                            <path d="M73.9707051,58.4605703 L73.9707051,52.2602196 L80.1806404,52.2602196 L80.1806404,58.4605703 L80.1806404,58.4605703 L73.9707051,58.4605703 Z M83.2644876,33.7434627 L89.4744228,33.7434627 L89.4744228,39.9016658 L83.2644876,39.9016658 L80.1806404,39.9016658 L80.1806404,46.1020165 L80.1806404,52.2602196 L73.9707051,52.2602196 L73.9707051,46.1020165 L73.9707051,39.9016658 L70.8868602,39.9016658 L64.7191682,39.9016658 L64.7191682,33.7434627 L70.8868602,33.7434627 L77.0967955,33.7434627 L83.2644876,33.7434627 Z" id="path1827" fill="#FEFEFE" fill-rule="nonzero"></path>
                            <path d="M120.956443,33.7434627 L120.956443,52.2602196 L114.746522,52.2602196 L108.536578,52.2602196 L102.368893,52.2602196 L96.1589478,52.2602196 L96.1589478,33.7434627 L120.956443,33.7434627 Z M114.746522,46.1020165 L114.746522,39.9016658 L108.536578,39.9016658 L102.368893,39.9016658 L102.368893,46.1020165 L108.536578,46.1020165 L114.746522,46.1020165 Z M114.746522,58.4605703 L114.746522,52.2602196 L120.956443,52.2602196 L120.956443,58.4605703 L120.956443,58.4605703 L114.746522,58.4605703 Z M96.1589478,58.4605703 L96.1589478,52.2602196 L102.368893,52.2602196 L102.368893,58.4605703 L102.368893,58.4605703 L96.1589478,58.4605703 Z" id="path1829" fill="#FEFEFE" fill-rule="nonzero"></path>
                            <path d="M136.759836,58.4605703 L136.759836,52.2602196 L142.969757,52.2602196 L142.969757,58.4605703 L142.969757,58.4605703 L136.759836,58.4605703 Z M146.053612,33.7434627 L152.263556,33.7434627 L152.263556,39.9016658 L146.053612,39.9016658 L142.969757,39.9016658 L142.969757,46.1020165 L142.969757,52.2602196 L136.759836,52.2602196 L136.759836,46.1020165 L136.759836,39.9016658 L133.675982,39.9016658 L127.508297,39.9016658 L127.508297,33.7434627 L133.675982,33.7434627 L139.885927,33.7434627 L146.053612,33.7434627 Z" id="path1831" fill="#FEFEFE" fill-rule="nonzero"></path>
                            <path d="M171.790387,52.2602196 L178.000331,52.2602196 L184.210253,52.2602196 L184.210253,58.4605703 L184.210253,58.4605703 L178.000331,58.4605703 L171.790387,58.4605703 L165.622702,58.4605703 L159.412757,58.4605703 L159.412757,58.4605703 L159.412757,52.2602196 L165.622702,52.2602196 L171.790387,52.2602196 Z M178.000331,33.7434627 L184.210253,33.7434627 L184.210253,39.9016658 L184.210253,46.1020165 L184.210253,52.2602196 L178.000331,52.2602196 L178.000331,46.1020165 L178.000331,39.9016658 L171.790387,39.9016658 L165.622702,39.9016658 L165.622702,46.1020165 L165.622702,52.2602196 L159.412757,52.2602196 L159.412757,46.1020165 L159.412757,39.9016658 L159.412757,33.7434627 L165.622702,33.7434627 L171.790387,33.7434627 L178.000331,33.7434627 Z" id="path1833" fill="#FEFEFE" fill-rule="nonzero"></path>
                            <path d="M12.377625,86.0036823 L18.5875603,86.0036823 L18.5875603,92.2040565 L18.5875603,92.2040565 L12.377625,92.2040565 L6.20993529,92.2040565 L0,92.2040565 L0,92.2040565 L0,86.0036823 L6.20993529,86.0036823 L12.377625,86.0036823 Z M6.20993529,79.8455027 L6.20993529,86.0036823 L0,86.0036823 L0,79.8455027 L0,73.645152 L0,67.4869489 L6.20993529,67.4869489 L6.20993529,73.645152 L6.20993529,79.8455027 Z" id="path1835" fill="#FEFEFE" fill-rule="nonzero"></path>
                            <path d="M50.4940112,67.4869489 L50.4940112,86.0036823 L44.2840759,86.0036823 L38.0741383,86.0036823 L31.9064486,86.0036823 L25.6965133,86.0036823 L25.6965133,67.4869489 L50.4940112,67.4869489 Z M44.2840759,79.8455027 L44.2840759,73.645152 L38.0741383,73.645152 L31.9064486,73.645152 L31.9064486,79.8455027 L38.0741383,79.8455027 L44.2840759,79.8455027 Z M44.2840759,92.2040565 L44.2840759,86.0036823 L50.4940112,86.0036823 L50.4940112,92.2040565 L50.4940112,92.2040565 L44.2840759,92.2040565 Z M25.6965133,92.2040565 L25.6965133,86.0036823 L31.9064486,86.0036823 L31.9064486,92.2040565 L31.9064486,92.2040565 L25.6965133,92.2040565 Z" id="path1837" fill="#FEFEFE" fill-rule="nonzero"></path>
                            <path d="M69.2545096,86.0036823 L75.4644448,86.0036823 L81.6743801,86.0036823 L81.6743801,92.2040565 L81.6743801,92.2040565 L75.4644448,92.2040565 L69.2545096,92.2040565 L63.0868175,92.2040565 L56.8768822,92.2040565 L56.8768822,92.2040565 L56.8768822,86.0036823 L63.0868175,86.0036823 L69.2545096,86.0036823 Z M75.4644448,73.645152 L81.6743801,73.645152 L81.6743801,79.8455027 L81.6743801,86.0036823 L75.4644448,86.0036823 L75.4644448,82.9246043 L69.2545096,82.9246043 L63.0868175,82.9246043 L63.0868175,86.0036823 L56.8768822,86.0036823 L56.8768822,79.8455027 L56.8768822,73.645152 L56.8768822,67.4869489 L63.0868175,67.4869489 L69.2545096,67.4869489 L75.4644448,67.4869489 L75.4644448,73.645152 L69.2545096,73.645152 L63.0868175,73.645152 L63.0868175,76.7242301 L69.2545096,76.7242301 L75.4644448,76.7242301 L75.4644448,73.645152 Z" id="path1839" fill="#FEFEFE" fill-rule="nonzero"></path>
                            <polygon id="path1841" fill="#FEFEFE" fill-rule="nonzero" points="88.1113803 86.0036823 94.2790723 86.0036823 94.2790723 92.2040565 94.2790723 92.2040565 88.1113803 92.2040565"></polygon>
                        </g>
                    </g>
                </g>
            </g>
        </g>
    </g>
</svg>