<svg width="91" height="77" viewBox="0 0 91 77" fill="none" xmlns="http://www.w3.org/2000/svg">
<path fill-rule="evenodd" clip-rule="evenodd" d="M50.2277 1.95652C51.4764 3.20523 53.1717 3.90859 54.9376 3.90859C58.6147 3.90859 61.5956 6.8899 61.5956 10.567C61.5956 12.3329 62.2978 14.0274 63.5464 15.2761C66.1501 17.8799 66.152 22.1033 63.5483 24.7071C62.298 25.9575 61.5956 27.6546 61.5956 29.4229C61.5956 33.1098 58.6003 36.1018 54.9134 36.1018C53.1485 36.1018 51.4533 36.8029 50.2054 38.0509C47.6068 40.6497 43.3933 40.6497 40.7947 38.0509C39.5468 36.8029 37.8516 36.1018 36.0867 36.1018C32.3998 36.1018 29.4046 33.1099 29.4046 29.4229C29.4046 27.6546 28.7021 25.9575 27.4518 24.7071C24.8481 22.1033 24.85 17.8799 27.4537 15.2761C28.7023 14.0274 29.4046 12.3328 29.4046 10.567C29.4046 6.88989 32.3854 3.90859 36.0625 3.90859C37.8283 3.90859 39.5237 3.20523 40.7723 1.95653C43.3809 -0.652172 47.6192 -0.652177 50.2277 1.95652ZM39.8667 10.6H36.0333L36.0334 14.4333H39.8667L39.8667 10.6ZM47.4334 10.6H43.6L43.6001 14.4333H47.4334L47.4334 10.6ZM51.1334 25.5667H54.9667L54.9668 29.4H51.1334L51.1334 25.5667ZM54.9667 21.9L54.9667 18.0667L36.0333 18.0667L36.0333 21.9001L43.6334 21.9001L43.6333 29.4001L47.4 29.4L47.4 21.9L54.9667 21.9ZM36.0333 25.5667H39.8667L39.8667 29.4H36.0334L36.0333 25.5667ZM51.1334 10.6H54.9667L54.9668 14.4333H51.1334L51.1334 10.6Z" fill="white"/>
<path fill-rule="evenodd" clip-rule="evenodd" d="M38.129 60.4602C39.3607 60.4602 40.3591 59.4617 40.3591 58.2301C40.3591 56.9984 39.3607 56 38.129 56C36.8974 56 35.899 56.9984 35.899 58.2301C35.899 59.4617 36.8974 60.4602 38.129 60.4602ZM43.906 77V62.0157H31.9063V77H34.9113V75.5133H40.901V77H43.906ZM40.901 65.0207V66.6858H34.9113V65.0207H40.901ZM4.70932 77V73.995V71.0104V68.0053H3.21702H0.232422V65.0207H3.21702H6.22207H9.20667H12.2117V68.0053H9.20667H7.71437V71.0104V73.995V77H4.70932ZM24.8295 65.0207H27.8346V68.0053V71.0104V73.995V77H24.8295V73.995H21.8245H18.8399V77H15.8348V73.995V71.0104V68.0053V65.0207H18.8399V68.0053V71.0104H21.8245H24.8295V68.0053V65.0207ZM56.8878 68.0053H59.8928V77H47.8931V62.0157H56.8878V68.0053ZM50.8981 65.0207V68.0053H53.8827V65.0207H50.8981ZM56.8878 73.995V71.0104H50.8981V73.995H56.8878ZM75.4366 65.0207H72.452H69.447H66.4419H63.4573V68.0053H66.4419H67.9547V71.0104V73.995H66.4419H63.4573V77H66.4419H69.447H72.452H75.4366V73.995H72.452H70.9393V71.0104V68.0053H72.452H75.4366V65.0207ZM83.2651 77V73.995V71.0104V68.0053H81.7728H78.7882V65.0207H81.7728H84.7779H87.7625H90.7675V68.0053H87.7625H86.2702V71.0104V73.995V77H83.2651Z" fill="white"/>
</svg>
