<svg width="75" height="81" viewBox="0 0 75 81" fill="none" xmlns="http://www.w3.org/2000/svg">
<path fill-rule="evenodd" clip-rule="evenodd" d="M25.0713 35.6554C19.025 31.2902 16.1359 23.1333 18.1224 16.0384L18.1265 16.0343C19.1198 12.4929 21.296 9.32708 24.1481 6.96076C26.1965 5.263 28.3285 4.5361 30.5517 3.77812C31.6387 3.40753 32.7475 3.02951 33.8789 2.52695C34.4319 2.2818 34.9513 2.03717 35.4506 1.80199C38.0437 0.580638 40.0957 -0.385827 43.5068 0.152559C46.9111 0.693662 50.1754 2.40581 52.4587 4.94576C56.9346 9.92068 58.0598 17.0883 57.2643 23.6744C56.6173 29.045 54.5235 34.6701 49.8992 37.6219C46.6144 39.7136 42.5052 40.1659 38.5939 39.9519C33.7924 39.6894 28.9373 38.4497 25.0713 35.6554ZM47.5301 20.9595C47.3338 20.984 47.1683 21.0269 47.0334 21.0883C46.8862 21.1496 46.8126 21.2232 46.8126 21.309C46.8126 21.3826 46.8555 21.5604 46.9414 21.8425C47.0272 22.1246 47.0702 22.3822 47.0702 22.6152C47.0702 22.7378 47.0518 22.8421 47.015 22.9279C46.9904 23.0015 46.9352 23.0383 46.8494 23.0383H43.6735C42.9376 23.0383 42.4102 23.0322 42.0913 23.0199C41.7847 23.0077 41.5946 22.977 41.521 22.9279C41.4597 22.8666 41.429 22.7685 41.429 22.6336C41.4658 21.4194 41.4965 20.1807 41.521 18.9174C41.5578 17.6419 41.5885 16.4646 41.613 15.3853C41.3677 15.3853 41.1224 15.4098 40.8771 15.4589C40.6441 15.5079 40.4478 15.5692 40.2884 15.6428C40.1658 15.7164 40.1044 15.7961 40.1044 15.882V15.9188V15.9372C40.178 17.2249 40.2393 18.6047 40.2884 20.0764C40.3375 21.5482 40.3804 23.0322 40.4172 24.5285C40.4662 26.0247 40.503 27.4658 40.5276 28.8517C40.6625 28.8517 40.8158 28.821 40.9875 28.7597C41.1715 28.7106 41.2634 28.6064 41.2634 28.447C41.2757 28.1281 41.2818 27.7724 41.2818 27.3799C41.2941 26.9997 41.3064 26.595 41.3186 26.1658C41.3186 25.9205 41.3248 25.7672 41.337 25.7058C41.3616 25.6445 41.4106 25.6139 41.4842 25.6139H42.9492H43.6735H47.4565C47.6527 25.6139 47.806 25.4789 47.9164 25.2091C48.0268 24.927 48.1065 24.5714 48.1556 24.1421C48.2046 23.7129 48.2292 23.2713 48.2292 22.8176C48.2292 22.3883 48.2108 22.0142 48.174 21.6954C48.1495 21.3765 48.1127 21.1128 48.0636 20.9043C47.9042 20.9043 47.7263 20.9227 47.5301 20.9595ZM46.2791 17.1882C45.813 17.1882 45.3838 17.2249 44.9913 17.2985C44.8441 17.3108 44.7337 17.4518 44.6601 17.7217C44.5988 17.9792 44.5682 18.2797 44.5682 18.6231C44.5682 18.8929 44.5866 19.1689 44.6233 19.451C44.6601 19.7208 44.7153 19.9538 44.7889 20.15L45.0833 20.1868H45.396C45.6291 20.1868 45.856 20.1807 46.0767 20.1684C46.2975 20.1562 46.506 20.1255 46.7022 20.0764C46.8249 20.0519 46.9107 19.9109 46.9598 19.6533C47.0211 19.3958 47.0518 19.1014 47.0518 18.7703C47.0518 18.5127 47.0334 18.2368 46.9966 17.9424C46.972 17.6481 46.923 17.4028 46.8494 17.2066C46.7513 17.1943 46.6532 17.1882 46.555 17.1882H46.2791ZM49.1858 17.0042C48.732 17.0042 48.3089 17.041 47.9164 17.1146C47.757 17.1268 47.6405 17.2679 47.5669 17.5377C47.5056 17.7952 47.4749 18.0957 47.4749 18.4391C47.4749 18.709 47.4933 18.9849 47.5301 19.267C47.5669 19.5368 47.6221 19.7698 47.6957 19.9661L47.99 20.0029H48.3028C48.5358 20.0029 48.7627 19.9967 48.9835 19.9845C49.2042 19.9722 49.4127 19.9415 49.609 19.8925C49.7316 19.8679 49.8175 19.7269 49.8665 19.4693C49.9278 19.2118 49.9585 18.9174 49.9585 18.5863C49.9585 18.3288 49.9401 18.0528 49.9033 17.7585C49.8788 17.4641 49.8297 17.2188 49.7561 17.0226C49.658 17.0103 49.5599 17.0042 49.4618 17.0042H49.1858ZM46.7206 13.472C46.3772 13.4965 46.1442 13.5395 46.0215 13.6008C45.8743 13.6621 45.7578 13.8216 45.672 14.0791C45.5984 14.3367 45.5616 14.6555 45.5616 15.0357C45.5616 15.3301 45.58 15.6306 45.6168 15.9372C45.6536 16.2315 45.7088 16.4891 45.7824 16.7098C45.9173 16.7221 46.0645 16.7344 46.2239 16.7466H46.7206C47.1008 16.7466 47.4626 16.7344 47.806 16.7098C48.1617 16.673 48.3825 16.624 48.4683 16.5627C48.7259 16.391 48.8547 15.931 48.8547 15.1829C48.8547 14.8886 48.8363 14.5881 48.7995 14.2815C48.7627 13.9626 48.7075 13.6928 48.6339 13.472C48.5113 13.4475 48.3764 13.4352 48.2292 13.4352H47.7508C47.4074 13.4352 47.064 13.4475 46.7206 13.472ZM29.9455 23.0383H25.7142C25.7142 23.4185 25.7326 23.811 25.7694 24.2157C25.8184 24.6082 25.892 24.9393 25.9901 25.2091C26.1005 25.4789 26.2538 25.6139 26.4501 25.6139H32.6009H33.3306H37.1082C37.3044 25.6139 37.4577 25.4789 37.5681 25.2091C37.6785 24.927 37.7582 24.5714 37.8072 24.1421C37.8563 23.7129 37.8808 23.2713 37.8808 22.8176C37.8808 22.3883 37.8624 22.0142 37.8256 21.6954C37.8011 21.3765 37.7643 21.1128 37.7153 20.9043C37.5558 20.9043 37.378 20.9227 37.1817 20.9595C36.9855 20.984 36.8199 21.0269 36.685 21.0883C36.5378 21.1496 36.4643 21.2232 36.4643 21.309C36.4643 21.3826 36.5072 21.5604 36.593 21.8425C36.6789 22.1246 36.7218 22.3822 36.7218 22.6152C36.7218 22.7378 36.7034 22.8421 36.6666 22.9279C36.6421 23.0015 36.5869 23.0383 36.501 23.0383H33.3306H32.6009H31.6748C31.4786 23.0383 31.3744 22.9893 31.3621 22.8911C31.3376 22.5232 31.3192 22.1921 31.3069 21.8977C31.2946 21.6034 31.2517 21.2722 31.1781 20.9043C30.7979 20.9043 30.4545 20.9656 30.1479 21.0883C30.0007 21.1496 29.9271 21.2232 29.9271 21.309C29.9271 21.3826 29.9639 21.5666 30.0375 21.8609C30.1234 22.1553 30.1663 22.4312 30.1663 22.6888C30.1663 22.9218 30.0927 23.0383 29.9455 23.0383ZM29.3752 16.9674C28.9091 16.9674 28.4799 17.0042 28.0874 17.0778C27.9402 17.09 27.8299 17.2311 27.7563 17.5009C27.6949 17.7585 27.6643 18.0589 27.6643 18.4023C27.6643 18.6722 27.6827 18.9481 27.7195 19.2302C27.7563 19.5 27.8115 19.733 27.885 19.9293L28.1794 19.9661H28.4921C28.7252 19.9661 28.9521 19.9599 29.1728 19.9477C29.3936 19.9354 29.6021 19.9047 29.7983 19.8557C29.921 19.8312 30.0068 19.6901 30.0559 19.4326C30.1172 19.175 30.1479 18.8807 30.1479 18.5495C30.1479 18.292 30.1295 18.016 30.0927 17.7217C30.0682 17.4273 30.0191 17.182 29.9455 16.9858C29.8474 16.9735 29.7493 16.9674 29.6512 16.9674H29.3752ZM32.2819 16.7834C31.8281 16.7834 31.405 16.8202 31.0125 16.8938C30.8531 16.9061 30.7366 17.0471 30.663 17.3169C30.6017 17.5745 30.571 17.875 30.571 18.2184C30.571 18.4882 30.5894 18.7641 30.6262 19.0462C30.663 19.316 30.7182 19.5491 30.7918 19.7453L31.0861 19.7821H31.3989C31.6319 19.7821 31.8588 19.776 32.0796 19.7637C32.3003 19.7514 32.5088 19.7208 32.7051 19.6717C32.8277 19.6472 32.9136 19.5061 32.9626 19.2486C33.024 18.991 33.0546 18.6967 33.0546 18.3655C33.0546 18.108 33.0362 17.832 32.9994 17.5377C32.9749 17.2433 32.9258 16.9981 32.8523 16.8018C32.7541 16.7896 32.656 16.7834 32.5579 16.7834H32.2819ZM35.0293 26.3129C34.6859 26.3375 34.4528 26.3804 34.3302 26.4417C34.183 26.503 34.0665 26.6625 33.9807 26.92C33.9071 27.1776 33.8703 27.4965 33.8703 27.8767C33.8703 28.171 33.8887 28.4653 33.9255 28.7597C33.9623 29.0663 34.0174 29.33 34.091 29.5508C34.2259 29.563 34.3731 29.5692 34.5326 29.5692C34.692 29.5814 34.8576 29.5875 35.0293 29.5875C35.4095 29.5875 35.7713 29.5692 36.1147 29.5324C36.4704 29.5078 36.6912 29.4649 36.777 29.4036C37.0346 29.2319 37.1633 28.772 37.1633 28.0238C37.1633 27.7295 37.1449 27.4229 37.1082 27.104C37.0714 26.7974 37.0162 26.5337 36.9426 26.3129C36.8199 26.2884 36.685 26.2761 36.5378 26.2761H36.0595C35.7161 26.2761 35.3727 26.2884 35.0293 26.3129Z" fill="white"/>
<path d="M11.3672 67.9824H6.93359V76H4.36523V67.9824H1.06445V65.4434H4.36523V61.9961H6.93359V65.4434H11.3672V67.9824ZM24.7754 76H22.2363V68.998C22.2363 68.666 22.1517 68.4154 21.9824 68.2461C21.8132 68.0703 21.5592 67.9824 21.2207 67.9824H16.6406V65.4434H21.2207C21.4616 65.4434 21.7155 65.4727 21.9824 65.5312C22.2493 65.5833 22.513 65.668 22.7734 65.7852C23.0404 65.9023 23.2943 66.0553 23.5352 66.2441C23.776 66.4264 23.9876 66.651 24.1699 66.918C24.3522 67.1784 24.4987 67.4811 24.6094 67.8262C24.7201 68.1712 24.7754 68.5618 24.7754 68.998V76ZM15.6152 76H13.0762V60.9805H15.6152V76ZM41.123 76H38.584V72.5625H29.6582V76H27.1191V68.998C27.1191 67.9759 27.2949 67.0352 27.6465 66.1758C27.998 65.3164 28.4863 64.5775 29.1113 63.959C29.7363 63.3405 30.4753 62.8587 31.3281 62.5137C32.181 62.1686 33.112 61.9961 34.1211 61.9961H39.8438C40.0195 61.9961 40.1855 62.0286 40.3418 62.0938C40.498 62.1589 40.6348 62.25 40.752 62.3672C40.8691 62.4844 40.9603 62.6211 41.0254 62.7773C41.0905 62.9336 41.123 63.0996 41.123 63.2754V76ZM29.6582 70.0234H38.584V64.5352H34.1211C34.043 64.5352 33.877 64.5482 33.623 64.5742C33.3757 64.5938 33.0859 64.6491 32.7539 64.7402C32.4284 64.8314 32.0833 64.9714 31.7188 65.1602C31.3542 65.349 31.0189 65.6094 30.7129 65.9414C30.4069 66.2734 30.153 66.6901 29.9512 67.1914C29.7559 67.6862 29.6582 68.2884 29.6582 68.998V70.0234ZM31.2793 58.7734C31.2793 58.4544 31.3477 58.1549 31.4844 57.875C31.6276 57.5885 31.8229 57.3411 32.0703 57.1328C32.3177 56.918 32.6139 56.7487 32.959 56.625C33.3105 56.5013 33.6979 56.4395 34.1211 56.4395C34.5833 56.4395 34.9902 56.5013 35.3418 56.625C35.6999 56.7487 35.9961 56.918 36.2305 57.1328C36.4714 57.3411 36.6504 57.5885 36.7676 57.875C36.8913 58.1549 36.9531 58.4544 36.9531 58.7734C36.9531 59.0924 36.888 59.3952 36.7578 59.6816C36.6276 59.9616 36.4388 60.209 36.1914 60.4238C35.9505 60.6387 35.6543 60.8079 35.3027 60.9316C34.9512 61.0553 34.5573 61.1172 34.1211 61.1172C33.6719 61.1172 33.2715 61.0553 32.9199 60.9316C32.5684 60.8079 32.2689 60.6387 32.0215 60.4238C31.7806 60.209 31.5951 59.9616 31.4648 59.6816C31.3411 59.3952 31.2793 59.0924 31.2793 58.7734ZM33.1543 58.7734C33.1543 59.0404 33.2357 59.265 33.3984 59.4473C33.5677 59.6296 33.8086 59.7207 34.1211 59.7207C34.4336 59.7207 34.668 59.6296 34.8242 59.4473C34.9805 59.265 35.0586 59.0404 35.0586 58.7734C35.0586 58.513 34.9805 58.2917 34.8242 58.1094C34.668 57.9271 34.4336 57.8359 34.1211 57.8359C33.8086 57.8359 33.5677 57.9271 33.3984 58.1094C33.2357 58.2917 33.1543 58.513 33.1543 58.7734ZM53.3074 67.2H56.2474V76H44.5074V61.34H53.3074V67.2ZM47.4474 64.28V67.2H50.3674V64.28H47.4474ZM53.3074 73.06V70.14H47.4474V73.06H53.3074ZM61.9043 63.2754H59.3652V60.9805H61.9043V63.2754ZM61.9043 76H59.3652V65.4434H61.9043V76ZM73.9453 67.9824H69.5117V76H66.9434V67.9824H63.6426V65.4434H66.9434V61.9961H69.5117V65.4434H73.9453V67.9824Z" fill="white"/>
</svg>
