<svg width="97" height="81" viewBox="0 0 97 81" fill="none" xmlns="http://www.w3.org/2000/svg">
<path fill-rule="evenodd" clip-rule="evenodd" d="M36.0713 35.6554C30.025 31.2902 27.1359 23.1333 29.1224 16.0384L29.1265 16.0343C30.1198 12.4929 32.296 9.32708 35.1481 6.96076C37.1965 5.263 39.3285 4.5361 41.5517 3.77812C42.6387 3.40753 43.7475 3.02951 44.8789 2.52695C45.4319 2.2818 45.9513 2.03717 46.4506 1.80199C49.0437 0.580638 51.0957 -0.385827 54.5068 0.152559C57.9111 0.693662 61.1754 2.40581 63.4587 4.94576C67.9346 9.92068 69.0598 17.0883 68.2643 23.6744C67.6173 29.045 65.5235 34.6701 60.8992 37.6219C57.6144 39.7136 53.5052 40.1659 49.5939 39.9519C44.7924 39.6894 39.9373 38.4497 36.0713 35.6554ZM58.5301 20.9595C58.3338 20.984 58.1683 21.0269 58.0334 21.0883C57.8862 21.1496 57.8126 21.2232 57.8126 21.309C57.8126 21.3826 57.8555 21.5604 57.9414 21.8425C58.0272 22.1246 58.0702 22.3822 58.0702 22.6152C58.0702 22.7378 58.0518 22.8421 58.015 22.9279C57.9904 23.0015 57.9352 23.0383 57.8494 23.0383H54.6735C53.9376 23.0383 53.4102 23.0322 53.0913 23.0199C52.7847 23.0077 52.5946 22.977 52.521 22.9279C52.4597 22.8666 52.429 22.7685 52.429 22.6336C52.4658 21.4194 52.4965 20.1807 52.521 18.9174C52.5578 17.6419 52.5885 16.4646 52.613 15.3853C52.3677 15.3853 52.1224 15.4098 51.8771 15.4589C51.6441 15.5079 51.4478 15.5692 51.2884 15.6428C51.1658 15.7164 51.1044 15.7961 51.1044 15.882V15.9188V15.9372C51.178 17.2249 51.2393 18.6047 51.2884 20.0764C51.3375 21.5482 51.3804 23.0322 51.4172 24.5285C51.4662 26.0247 51.503 27.4658 51.5276 28.8517C51.6625 28.8517 51.8158 28.821 51.9875 28.7597C52.1715 28.7106 52.2634 28.6064 52.2634 28.447C52.2757 28.1281 52.2818 27.7724 52.2818 27.3799C52.2941 26.9997 52.3064 26.595 52.3186 26.1658C52.3186 25.9205 52.3248 25.7672 52.337 25.7058C52.3616 25.6445 52.4106 25.6139 52.4842 25.6139H53.9492H54.6735H58.4565C58.6527 25.6139 58.806 25.4789 58.9164 25.2091C59.0268 24.927 59.1065 24.5714 59.1556 24.1421C59.2046 23.7129 59.2292 23.2713 59.2292 22.8176C59.2292 22.3883 59.2108 22.0142 59.174 21.6954C59.1495 21.3765 59.1127 21.1128 59.0636 20.9043C58.9042 20.9043 58.7263 20.9227 58.5301 20.9595ZM57.2791 17.1882C56.813 17.1882 56.3838 17.2249 55.9913 17.2985C55.8441 17.3108 55.7337 17.4518 55.6601 17.7217C55.5988 17.9792 55.5682 18.2797 55.5682 18.6231C55.5682 18.8929 55.5866 19.1689 55.6233 19.451C55.6601 19.7208 55.7153 19.9538 55.7889 20.15L56.0833 20.1868H56.396C56.6291 20.1868 56.856 20.1807 57.0767 20.1684C57.2975 20.1562 57.506 20.1255 57.7022 20.0764C57.8249 20.0519 57.9107 19.9109 57.9598 19.6533C58.0211 19.3958 58.0518 19.1014 58.0518 18.7703C58.0518 18.5127 58.0334 18.2368 57.9966 17.9424C57.972 17.6481 57.923 17.4028 57.8494 17.2066C57.7513 17.1943 57.6532 17.1882 57.555 17.1882H57.2791ZM60.1858 17.0042C59.732 17.0042 59.3089 17.041 58.9164 17.1146C58.757 17.1268 58.6405 17.2679 58.5669 17.5377C58.5056 17.7952 58.4749 18.0957 58.4749 18.4391C58.4749 18.709 58.4933 18.9849 58.5301 19.267C58.5669 19.5368 58.6221 19.7698 58.6957 19.9661L58.99 20.0029H59.3028C59.5358 20.0029 59.7627 19.9967 59.9835 19.9845C60.2042 19.9722 60.4127 19.9415 60.609 19.8925C60.7316 19.8679 60.8175 19.7269 60.8665 19.4693C60.9278 19.2118 60.9585 18.9174 60.9585 18.5863C60.9585 18.3288 60.9401 18.0528 60.9033 17.7585C60.8788 17.4641 60.8297 17.2188 60.7561 17.0226C60.658 17.0103 60.5599 17.0042 60.4618 17.0042H60.1858ZM57.7206 13.472C57.3772 13.4965 57.1442 13.5395 57.0215 13.6008C56.8743 13.6621 56.7578 13.8216 56.672 14.0791C56.5984 14.3367 56.5616 14.6555 56.5616 15.0357C56.5616 15.3301 56.58 15.6306 56.6168 15.9372C56.6536 16.2315 56.7088 16.4891 56.7824 16.7098C56.9173 16.7221 57.0645 16.7344 57.2239 16.7466H57.7206C58.1008 16.7466 58.4626 16.7344 58.806 16.7098C59.1617 16.673 59.3825 16.624 59.4683 16.5627C59.7259 16.391 59.8547 15.931 59.8547 15.1829C59.8547 14.8886 59.8363 14.5881 59.7995 14.2815C59.7627 13.9626 59.7075 13.6928 59.6339 13.472C59.5113 13.4475 59.3764 13.4352 59.2292 13.4352H58.7508C58.4074 13.4352 58.064 13.4475 57.7206 13.472ZM40.9455 23.0383H36.7142C36.7142 23.4185 36.7326 23.811 36.7694 24.2157C36.8184 24.6082 36.892 24.9393 36.9901 25.2091C37.1005 25.4789 37.2538 25.6139 37.4501 25.6139H43.6009H44.3306H48.1082C48.3044 25.6139 48.4577 25.4789 48.5681 25.2091C48.6785 24.927 48.7582 24.5714 48.8072 24.1421C48.8563 23.7129 48.8808 23.2713 48.8808 22.8176C48.8808 22.3883 48.8624 22.0142 48.8256 21.6954C48.8011 21.3765 48.7643 21.1128 48.7153 20.9043C48.5558 20.9043 48.378 20.9227 48.1817 20.9595C47.9855 20.984 47.8199 21.0269 47.685 21.0883C47.5378 21.1496 47.4643 21.2232 47.4643 21.309C47.4643 21.3826 47.5072 21.5604 47.593 21.8425C47.6789 22.1246 47.7218 22.3822 47.7218 22.6152C47.7218 22.7378 47.7034 22.8421 47.6666 22.9279C47.6421 23.0015 47.5869 23.0383 47.501 23.0383H44.3306H43.6009H42.6748C42.4786 23.0383 42.3744 22.9893 42.3621 22.8911C42.3376 22.5232 42.3192 22.1921 42.3069 21.8977C42.2946 21.6034 42.2517 21.2722 42.1781 20.9043C41.7979 20.9043 41.4545 20.9656 41.1479 21.0883C41.0007 21.1496 40.9271 21.2232 40.9271 21.309C40.9271 21.3826 40.9639 21.5666 41.0375 21.8609C41.1234 22.1553 41.1663 22.4312 41.1663 22.6888C41.1663 22.9218 41.0927 23.0383 40.9455 23.0383ZM40.3752 16.9674C39.9091 16.9674 39.4799 17.0042 39.0874 17.0778C38.9402 17.09 38.8299 17.2311 38.7563 17.5009C38.6949 17.7585 38.6643 18.0589 38.6643 18.4023C38.6643 18.6722 38.6827 18.9481 38.7195 19.2302C38.7563 19.5 38.8115 19.733 38.885 19.9293L39.1794 19.9661H39.4921C39.7252 19.9661 39.9521 19.9599 40.1728 19.9477C40.3936 19.9354 40.6021 19.9047 40.7983 19.8557C40.921 19.8312 41.0068 19.6901 41.0559 19.4326C41.1172 19.175 41.1479 18.8807 41.1479 18.5495C41.1479 18.292 41.1295 18.016 41.0927 17.7217C41.0682 17.4273 41.0191 17.182 40.9455 16.9858C40.8474 16.9735 40.7493 16.9674 40.6512 16.9674H40.3752ZM43.2819 16.7834C42.8281 16.7834 42.405 16.8202 42.0125 16.8938C41.8531 16.9061 41.7366 17.0471 41.663 17.3169C41.6017 17.5745 41.571 17.875 41.571 18.2184C41.571 18.4882 41.5894 18.7641 41.6262 19.0462C41.663 19.316 41.7182 19.5491 41.7918 19.7453L42.0861 19.7821H42.3989C42.6319 19.7821 42.8588 19.776 43.0796 19.7637C43.3003 19.7514 43.5088 19.7208 43.7051 19.6717C43.8277 19.6472 43.9136 19.5061 43.9626 19.2486C44.024 18.991 44.0546 18.6967 44.0546 18.3655C44.0546 18.108 44.0362 17.832 43.9994 17.5377C43.9749 17.2433 43.9258 16.9981 43.8523 16.8018C43.7541 16.7896 43.656 16.7834 43.5579 16.7834H43.2819ZM46.0293 26.3129C45.6859 26.3375 45.4528 26.3804 45.3302 26.4417C45.183 26.503 45.0665 26.6625 44.9807 26.92C44.9071 27.1776 44.8703 27.4965 44.8703 27.8767C44.8703 28.171 44.8887 28.4653 44.9255 28.7597C44.9623 29.0663 45.0174 29.33 45.091 29.5508C45.2259 29.563 45.3731 29.5692 45.5326 29.5692C45.692 29.5814 45.8576 29.5875 46.0293 29.5875C46.4095 29.5875 46.7713 29.5692 47.1147 29.5324C47.4704 29.5078 47.6912 29.4649 47.777 29.4036C48.0346 29.2319 48.1633 28.772 48.1633 28.0238C48.1633 27.7295 48.1449 27.4229 48.1082 27.104C48.0714 26.7974 48.0162 26.5337 47.9426 26.3129C47.8199 26.2884 47.685 26.2761 47.5378 26.2761H47.0595C46.7161 26.2761 46.3727 26.2884 46.0293 26.3129Z" fill="white"/>
<path fill-rule="evenodd" clip-rule="evenodd" d="M40.2501 61.0001C41.6308 61.0001 42.7501 59.8808 42.7501 58.5C42.7501 57.1193 41.6308 56 40.2501 56C38.8694 56 37.7501 57.1193 37.7501 58.5C37.7501 59.8808 38.8694 61.0001 40.2501 61.0001ZM48.0504 81V62.6747H33.3756V81H37.0506V79.3332H44.3755V81H48.0504ZM44.3755 66.3497V67.9788H37.0506V66.3497H44.3755ZM6.11556 81V77.3249V73.6749V69.9998H4.29058H0.640625V66.3497H4.29058H7.96554H11.6155H15.2905V69.9998H11.6155H9.79052V73.6749V77.3249V81H6.11556ZM27.7212 66.3497H31.3961V69.9998V73.6749V77.3249V81H27.7212V77.3249H24.0462H20.3963V81H16.7213V77.3249V73.6749V69.9998V66.3497H20.3963V69.9998V73.6749H24.0462H27.7212V69.9998V66.3497ZM60.9263 69.9998H64.6012V81H49.9264V62.6747H60.9263V69.9998ZM53.6013 66.3497V69.9998H57.2513V66.3497H53.6013ZM60.9263 77.3249V73.6749H53.6013V77.3249H60.9263ZM80.6102 66.3497H76.9603H73.2853H69.6103H65.9604V69.9998H69.6103H71.4603V73.6749V77.3249H69.6103H65.9604V81H69.6103H73.2853H76.9603H80.6102V77.3249H76.9603H75.1103V73.6749V69.9998H76.9603H80.6102V66.3497ZM87.184 81V77.3249V73.6749V69.9998H85.359H81.709V66.3497H85.359H89.034H92.6839H96.3589V69.9998H92.6839H90.8589V73.6749V77.3249V81H87.184Z" fill="white"/>
</svg>
