<svg width="374" height="395" viewBox="0 0 374 395" fill="none" xmlns="http://www.w3.org/2000/svg">
<path d="M238.569 85.7233L235.638 122.678L316.352 128.645L319.618 91.0205C321.859 96.7574 326.632 100.694 332.139 100.694C339.823 100.694 346.042 93.0305 346.042 83.5876C346.042 74.1448 339.823 66.4816 332.139 66.4816C327.679 66.4816 323.701 69.0779 321.168 73.0979L323.89 41.6706L290.62 38.4462C296.231 41.5031 299.686 47.1981 298.953 53.2491C297.948 61.4776 289.51 67.1935 280.13 66.042C270.75 64.8904 263.966 57.29 264.971 49.0616C265.683 43.3456 269.975 38.8231 275.67 37.0015L242.526 33.7981L239.406 73.8935" fill="#C8C8C8"/>
<path d="M252.052 63.3411C247.362 63.3411 243.007 66.1258 240.307 70.6274L243.154 33.861C243.175 33.526 242.924 33.2329 242.589 33.191L208.733 29.6735C213.779 27.3704 217.275 22.9525 217.903 17.8438C218.427 13.6772 217.066 9.55248 214.072 6.20247C211.099 2.8734 206.89 0.737764 202.2 0.151512C192.485 -1.04193 183.733 4.94622 182.686 13.4887C182.016 18.8906 184.571 24.1878 189.282 27.6216L158.127 24.3763C157.959 24.3553 157.792 24.4182 157.666 24.5228C157.519 24.6275 157.457 24.795 157.436 24.9625L151.782 115.413C151.762 115.748 152.013 116.062 152.348 116.083L235.575 123.306C235.596 123.306 235.617 123.306 235.637 123.306C235.784 123.306 235.931 123.243 236.035 123.16C236.182 123.034 236.245 122.888 236.266 122.72L238.904 88.6546C241.27 94.7684 246.316 98.8093 252.052 98.8093C260.072 98.8093 266.583 90.8531 266.583 81.0752C266.583 71.2974 260.072 63.3411 252.052 63.3411Z" fill="#1A1A1A"/>
<path d="M316.351 129.273C316.33 129.273 316.33 129.273 316.309 129.273L235.595 123.306C235.428 123.285 235.281 123.223 235.155 123.097C235.051 122.971 234.988 122.804 235.009 122.636L237.94 85.6814C237.961 85.3255 238.275 85.0743 238.61 85.0952C238.966 85.1161 239.217 85.4302 239.196 85.7652L236.307 122.092L315.765 127.975L318.969 90.9577C318.989 90.6646 319.22 90.4343 319.513 90.3924C319.806 90.3505 320.078 90.518 320.183 90.7902C322.402 96.4224 327.092 100.066 332.138 100.066C339.466 100.066 345.413 92.6746 345.413 83.5877C345.413 74.5008 339.445 67.1098 332.138 67.1098C328.035 67.1098 324.224 69.413 321.69 73.433C321.544 73.6842 321.23 73.7889 320.958 73.6842C320.685 73.6005 320.518 73.3283 320.539 73.0352L323.198 42.236L293.132 39.3257C297.738 42.7594 300.208 48.0357 299.559 53.312C298.596 61.1426 291.184 66.8167 282.495 66.8167C281.679 66.8167 280.862 66.7748 280.025 66.6701C275.335 66.0839 271.126 63.9483 268.153 60.6192C265.159 57.2692 263.798 53.1445 264.321 48.9779C264.929 43.9948 268.195 39.7235 273.032 37.3785L243.112 34.4891L240.055 73.9355C240.034 74.2914 239.72 74.5427 239.385 74.5217C239.029 74.5008 238.778 74.1867 238.799 73.8517L241.918 33.7563C241.939 33.5888 242.002 33.4422 242.149 33.3166C242.274 33.2119 242.442 33.1491 242.609 33.17L275.753 36.3735C276.047 36.3944 276.277 36.6457 276.319 36.9388C276.361 37.2319 276.172 37.5041 275.879 37.6088C270.184 39.4304 266.248 43.8482 265.599 49.1454C265.138 52.9351 266.394 56.7248 269.116 59.7817C271.88 62.8804 275.816 64.8695 280.192 65.4139C289.216 66.5236 297.34 61.017 298.303 53.1654C298.994 47.596 295.853 42.0266 290.305 38.9907C290.033 38.8441 289.928 38.53 290.012 38.2579C290.096 37.9647 290.389 37.7972 290.682 37.8182L323.952 41.0216C324.287 41.0635 324.538 41.3566 324.517 41.6916L321.984 70.8577C324.685 67.6333 328.286 65.8117 332.138 65.8117C340.157 65.8117 346.669 73.768 346.669 83.5458C346.669 93.3237 340.157 101.28 332.138 101.28C327.26 101.28 322.695 98.244 320.036 93.3655L316.979 128.666C316.938 129.022 316.665 129.273 316.351 129.273Z" fill="#1A1A1A"/>
<path d="M235.701 122.071L278.853 125.253C284.632 120.563 287.982 114.994 287.982 109.027C287.982 92.1512 261.182 78.458 228.1 78.458C195.019 78.458 168.219 92.1512 168.219 109.027C168.219 111.56 168.826 114.01 169.957 116.355L235.701 122.071Z" fill="white"/>
<path d="M332.138 65.8117C328.286 65.8117 324.685 67.6333 321.984 70.8577L324.517 41.6916C324.538 41.3566 324.287 41.0635 323.952 41.0216L290.682 37.8182C290.389 37.7972 290.096 37.9647 290.012 38.2579C289.928 38.53 290.033 38.8441 290.305 38.9907C295.853 42.0266 298.994 47.596 298.303 53.1654C297.34 61.017 289.216 66.5236 280.192 65.4139C275.816 64.8695 271.88 62.8804 269.116 59.7817C266.394 56.7248 265.138 52.9351 265.599 49.1454C266.248 43.8482 270.184 39.4304 275.879 37.6088C276.172 37.5041 276.361 37.2319 276.319 36.9388C276.277 36.6457 276.047 36.3944 275.753 36.3735L242.609 33.17C242.442 33.1491 242.274 33.2119 242.149 33.3166C242.002 33.4422 241.939 33.5888 241.918 33.7563L238.799 73.8517C238.778 74.1867 239.029 74.5008 239.385 74.5217C239.72 74.5427 240.034 74.2914 240.055 73.9355L243.112 34.4891L273.032 37.3785C268.195 39.7235 264.929 43.9948 264.321 48.9779C263.798 53.1445 265.159 57.2692 268.153 60.6192C271.126 63.9483 275.335 66.0839 280.025 66.6701C280.862 66.7748 281.679 66.8167 282.495 66.8167C291.184 66.8167 298.596 61.1426 299.559 53.312C300.208 48.0357 297.738 42.7594 293.132 39.3257L323.198 42.236L320.539 73.0352C320.518 73.3283 320.685 73.6005 320.958 73.6842C321.23 73.7889 321.544 73.6842 321.69 73.433C324.224 69.413 328.035 67.1098 332.138 67.1098C339.445 67.1098 345.413 74.5008 345.413 83.5877C345.413 92.6746 339.466 100.066 332.138 100.066C327.092 100.066 322.402 96.4224 320.183 90.7902C320.078 90.518 319.806 90.3505 319.513 90.3924C319.22 90.4343 318.989 90.6646 318.969 90.9577L315.765 127.975L278.873 125.233C278.643 125.421 278.392 125.609 278.14 125.819L235.616 122.678L235.009 122.615V122.636C234.988 122.804 235.051 122.971 235.155 123.097C235.281 123.223 235.428 123.285 235.595 123.306L316.309 129.273C316.33 129.273 316.33 129.273 316.351 129.273C316.665 129.273 316.938 129.022 316.979 128.666L320.036 93.3655C322.695 98.244 327.26 101.28 332.138 101.28C340.157 101.28 346.669 93.3237 346.669 83.5458C346.669 73.768 340.157 65.8117 332.138 65.8117Z" fill="#1A1A1A"/>
<path d="M279.858 94.6848C279.711 94.6848 279.564 94.6429 279.46 94.5382C279.188 94.3079 279.146 93.931 279.376 93.6588C290.473 80.2797 304.229 69.7481 320.246 62.3571C320.56 62.2106 320.937 62.3571 321.084 62.6712C321.23 62.9853 321.084 63.3622 320.77 63.5087C304.92 70.8159 291.31 81.2219 280.339 94.4544C280.214 94.601 280.046 94.6848 279.858 94.6848Z" fill="white"/>
<path d="M235.637 123.306C235.616 123.306 235.595 123.306 235.595 123.306C235.239 123.285 234.988 122.971 235.009 122.636L237.919 85.1161C237.94 84.802 238.192 84.5508 238.506 84.5298C238.82 84.5089 239.092 84.7183 239.155 85.0323C240.62 92.4024 245.918 97.553 252.031 97.553C259.359 97.553 265.306 90.1621 265.306 81.0751C265.306 80.7192 265.578 80.447 265.934 80.447C266.29 80.447 266.562 80.7192 266.562 81.0751C266.562 90.853 260.05 98.8093 252.031 98.8093C246.294 98.8093 241.248 94.7683 238.882 88.6545L236.265 122.72C236.244 123.055 235.972 123.306 235.637 123.306Z" fill="#1A1A1A"/>
<path d="M241.06 53.6261C241.039 53.6261 241.039 53.6261 241.018 53.6261C240.662 53.6052 240.411 53.2911 240.432 52.9561L241.521 37.9229C241.542 37.567 241.856 37.3157 242.191 37.3367C242.547 37.3576 242.798 37.6717 242.777 38.0067L241.688 53.0398C241.646 53.3748 241.374 53.6261 241.06 53.6261Z" fill="#1A1A1A"/>
<path d="M241.751 52.0976C251.424 48.6429 260.364 43.576 268.446 36.9597L250.419 35.2219C247.907 36.6457 245.331 37.9229 242.693 39.0744L241.751 52.0976Z" fill="white"/>
<ellipse cx="194.474" cy="70.3762" rx="7.43284" ry="7.43284" fill="#C8C8C8"/>
<path d="M241.395 39.6399C238.506 40.8333 235.553 41.8592 232.517 42.7177C223.054 45.3768 212.752 46.3818 201.949 45.7118C181.765 44.4555 165.496 37.8392 158.126 34.3008L157.352 46.8214C166.669 50.7996 182.414 56.2224 201.216 57.4159C203.645 57.5624 206.052 57.6462 208.439 57.6462C217.966 57.6462 227.095 56.4318 235.7 54.024C237.312 53.5633 238.882 53.0818 240.453 52.5374L241.395 39.6399Z" fill="white"/>
<ellipse cx="301.821" cy="96.4852" rx="4.60627" ry="4.60626" fill="white"/>
<path d="M262.039 125.086C261.977 125.086 261.914 125.086 261.851 125.065C261.516 124.96 261.328 124.605 261.432 124.27C261.453 124.186 263.945 116.397 270.414 106.033C273.094 101.741 276.109 97.5741 279.355 93.6588C279.585 93.3866 279.962 93.3447 280.234 93.575C280.506 93.8053 280.548 94.1822 280.318 94.4544C277.094 98.3279 274.12 102.453 271.461 106.703C265.075 116.941 262.626 124.584 262.605 124.667C262.563 124.919 262.312 125.086 262.039 125.086Z" fill="#1A1A1A"/>
<path d="M262.564 356.341C257.434 349.746 249.247 342.188 238.213 333.917C215.58 316.937 183.545 298.763 147.972 282.704C112.42 266.645 77.5801 254.648 49.8797 248.911C36.375 246.126 25.299 244.954 16.9449 245.477C8.10924 246.042 2.64453 248.471 0.739215 252.7C-1.1661 256.93 0.613589 262.625 6.05736 269.618C11.1871 276.213 19.3737 283.772 30.4078 292.042C53.0413 309.022 85.0967 327.196 120.649 343.255C156.201 359.315 191.041 371.312 218.741 377.049C230.152 379.415 239.825 380.608 247.593 380.608C249.017 380.608 250.378 380.566 251.676 380.482C260.512 379.917 265.976 377.488 267.882 373.259C269.787 369.03 268.007 363.335 262.564 356.341Z" fill="#1A1A1A"/>
<path d="M317.608 149.374C317.608 149.374 320.247 186.936 312.709 214.154C305.172 241.373 293.237 271.523 266.228 298.952C239.218 326.38 207.812 337.937 181.326 341.895C181.326 341.895 180.405 301.003 190.455 282.788C200.505 264.572 211.476 249.267 211.476 249.267C211.476 249.267 221.421 237.625 230.843 233.857C240.265 230.088 258.69 227.366 274.393 213.757C290.096 200.147 290.934 184.863 290.934 184.863C290.934 184.863 298.451 156.241 298.786 145.94C312.395 142.778 317.608 149.374 317.608 149.374Z" fill="white"/>
<path d="M139.744 208.271C139.744 208.271 138.802 193.615 130.845 175.608C127.286 167.526 119.853 158.858 121.005 141.69C122.156 124.521 133.881 105.258 147.7 91.8581C147.7 91.8581 161.519 78.4581 147.7 91.8581C147.7 91.8581 146.381 77.6834 136.331 78.1021C136.331 78.1021 119.644 93.9519 108.023 107.352C96.4029 120.752 74.6279 145.04 64.7872 179.377C54.9465 213.715 64.7872 246.796 66.881 251.402C68.9747 256.009 102.265 257.474 119.225 242.399C136.184 227.324 138.697 214.133 138.697 214.133L139.744 208.271Z" fill="white"/>
<path d="M304.313 258.73C304.208 258.73 304.083 258.71 303.978 258.647C303.685 258.458 303.58 258.081 303.768 257.788C314.112 240.787 319.22 221.503 321.691 208.334C324.371 194.054 324.601 183.669 324.601 183.565C324.601 183.209 324.895 182.936 325.25 182.957C325.606 182.957 325.879 183.251 325.858 183.606C325.858 183.711 325.606 194.18 322.905 208.564C320.414 221.838 315.242 241.269 304.815 258.458C304.732 258.626 304.522 258.73 304.313 258.73Z" fill="#1A1A1A"/>
<path d="M54.7375 200.943C54.4025 200.943 54.1303 200.671 54.1094 200.336C53.4603 183.565 57.8363 169.222 61.6469 160.136C65.7716 150.295 70.1057 144.307 70.1476 144.244C70.3569 143.972 70.7548 143.909 71.027 144.118C71.2991 144.328 71.362 144.725 71.1526 144.998C71.1107 145.06 66.8394 150.944 62.7775 160.659C59.0507 169.62 54.7375 183.774 55.3656 200.294C55.3866 200.65 55.1144 200.922 54.7585 200.943C54.7585 200.943 54.7585 200.943 54.7375 200.943Z" fill="#1A1A1A"/>
<ellipse cx="268.51" cy="242.818" rx="4.81564" ry="6.07189" fill="#1A1A1A"/>
<path fill-rule="evenodd" clip-rule="evenodd" d="M212.041 211.432C212.313 209.569 212.481 207.496 212.439 205.298C212.292 199.498 210.492 192.065 203.31 186.998V186.956C203.415 185.595 203.771 178.728 201.196 177.932C198.788 177.179 192.653 181.471 191.439 182.35L191.418 182.371C184.76 181.45 178.646 183.083 174.249 184.925C171.401 186.119 169.014 187.48 167.193 188.631C167.151 188.569 167.109 188.527 167.046 188.485C163.34 186.056 154.128 184.172 150.736 187.878C149.773 188.925 149.438 190.013 149.71 191.102C150.254 193.259 153.165 194.766 154.651 195.415C151.176 197.488 147.763 200.084 144.455 203.225C142.156 205.396 139.92 207.615 137.749 209.771L137.735 209.784L137.726 209.793C137.413 210.104 137.102 210.413 136.792 210.721C122.428 225 108.882 238.463 75.9261 248.304C72.4923 249.329 69.2889 250.481 66.3995 251.695C53.146 257.307 47.3044 264.195 43.3263 270.204C41.735 272.633 40.3322 275.104 38.9922 277.511L38.9039 277.668C36.4241 282.07 34.0711 286.247 30.4706 290.179C28.7537 292.063 26.9322 293.696 24.8593 295.225C18.8921 299.621 14.0137 306.677 11.1452 315.136C8.10928 324.056 7.48115 333.729 9.34459 343.067C11.5012 353.892 17.0077 363.858 25.2781 371.877C34.9094 381.215 48.1419 388.02 64.6407 392.103C72.1992 393.966 81.1186 394.908 90.4149 394.908C100.025 394.908 110.075 393.924 119.455 391.914C130.154 389.632 139.786 386.177 148.119 381.655C157.478 376.546 165.015 370.16 170.522 362.644C171.422 361.408 172.281 360.131 173.076 358.833C176.154 353.787 178.855 348.49 181.305 342.669C183.172 338.266 184.625 334.178 186.028 330.233L186.162 329.855C189.491 320.496 192.13 313.105 197.783 307.452C208.419 296.795 219.432 283.646 215.224 262.29C214.266 257.481 213.391 253.439 212.62 249.874L212.607 249.811C210.429 239.887 209.11 233.773 209.529 225.628C210.094 225.942 210.89 226.319 211.79 226.675C213.151 227.198 214.302 227.45 215.287 227.45C216.061 227.45 216.731 227.282 217.255 226.968C218.302 226.34 218.972 225.084 219.097 223.555C219.223 221.838 218.804 217.211 212.041 211.432ZM200.84 179.147C201.866 179.461 202.264 182.936 202.117 186.203C201.049 185.554 199.898 184.925 198.621 184.381C196.799 183.585 194.977 183.041 193.177 182.664C195.961 180.801 199.646 178.77 200.84 179.147ZM150.945 190.83C151.406 192.672 154.735 194.18 155.991 194.62C156.001 194.62 156.007 194.625 156.012 194.63C156.017 194.635 156.022 194.641 156.033 194.641C158.462 193.301 160.911 192.233 163.403 191.416L163.487 191.332C163.491 191.329 163.498 191.324 163.506 191.317C163.522 191.304 163.544 191.286 163.573 191.262C163.847 191.036 164.719 190.318 166.083 189.385C162.314 187.124 154.295 185.889 151.678 188.757C151.029 189.469 150.777 190.16 150.945 190.83ZM195.438 194.975C187.356 190.6 179.149 188.862 171.025 189.762C169.559 189.93 168.073 190.181 166.628 190.516C168.47 189.239 171.297 187.501 174.752 186.056C180.489 183.69 189.178 181.659 198.118 185.533C202.766 187.543 206.221 190.516 208.398 194.368C210.136 197.467 211.078 201.152 211.183 205.298C211.288 209.234 210.618 212.856 209.969 215.348C209.194 206.701 204.232 199.728 195.438 194.975ZM216.606 225.9C217.297 225.482 217.757 224.581 217.841 223.451C218.071 220.415 215.831 216.52 211.79 212.877C211.215 216.087 210.393 218.376 210.184 218.958C210.157 219.032 210.141 219.079 210.136 219.096C210.123 219.135 210.101 219.166 210.082 219.194C210.071 219.211 210.06 219.227 210.052 219.242C210.031 219.933 209.968 220.645 209.885 221.357C209.874 221.457 209.864 221.556 209.853 221.655C209.76 222.553 209.669 223.419 209.612 224.267C211.246 225.209 214.931 226.926 216.606 225.9Z" fill="#1A1A1A"/>
<path d="M31.7684 290.597L30.8262 289.76C34.2599 285.887 36.5631 281.804 38.9918 277.491C40.3318 275.083 41.7346 272.612 43.3259 270.183C46.8434 264.844 52.4337 258.019 64.4938 252.533L65.0172 253.685C53.3341 259.024 48.0369 265.368 44.3937 270.895C42.8234 273.282 41.4415 275.732 40.1015 278.119C37.7146 282.306 35.2859 286.64 31.7684 290.597Z" fill="#C8C8C8"/>
<ellipse cx="110.325" cy="118.595" rx="5.33909" ry="4.71096" transform="rotate(-40.2707 110.325 118.595)" fill="#1A1A1A"/>
<path d="M147.7 91.8581C147.7 91.8581 156.807 85.0534 160.472 79.9237C164.136 74.794 168.847 64.6393 169.475 63.2783C170.103 61.9174 171.568 57.8346 170.103 57.1018C168.637 56.369 162.461 63.5924 162.461 63.5924C162.461 63.5924 157.54 69.8737 155.97 67.5705C154.4 65.2674 154.818 60.7658 154.818 60.7658L155.509 56.9133L156.033 48.7896C156.033 48.7896 151.343 50.7367 150.212 52.9352C149.082 55.1336 144.873 64.0321 144.873 64.0321L142.256 70.3134L135.975 78.0603C135.975 78.0603 141.628 77.6415 144.036 81.6197C146.443 85.5978 147.7 91.8581 147.7 91.8581Z" fill="#C8C8C8"/>
<path d="M171.443 361.325L170.417 360.613C170.961 359.817 171.485 359.001 171.987 358.205C174.835 353.536 177.347 348.699 179.63 343.381L180.781 343.884C178.457 349.244 175.945 354.143 173.055 358.854C172.532 359.691 172.008 360.508 171.443 361.325Z" fill="#C8C8C8"/>
<path d="M35.9563 360.655L35.8516 359.398C47.3044 358.393 55.6166 354.332 61.2488 347.003C67.7395 338.524 70.7545 325.752 70.4614 307.913C69.6448 292.545 71.8851 281.448 77.4755 272.989C82.1445 265.933 89.0539 260.678 100.57 255.443C104.213 253.789 108.086 252.428 112.169 251.005C119.057 248.597 126.197 246.105 132.562 241.939C139.744 237.228 144.936 230.988 148.412 222.823C154.002 209.716 161.833 203.141 167.444 199.938C173.537 196.441 178.269 196.085 178.478 196.064L178.562 197.321L178.52 196.693L178.562 197.321C178.52 197.321 173.872 197.698 168.01 201.069C162.587 204.188 155.007 210.574 149.584 223.325C146.004 231.721 140.686 238.149 133.274 242.986C126.762 247.236 119.56 249.748 112.588 252.177C108.526 253.601 104.694 254.92 101.093 256.574C89.8077 261.704 83.0448 266.812 78.5223 273.659C73.0786 281.888 70.922 292.754 71.7176 307.829V307.85C72.0107 325.982 68.912 339.026 62.2538 347.736C56.3704 355.399 47.786 359.608 35.9563 360.655Z" fill="#C8C8C8"/>
<path d="M90.7712 375.06L90.3105 373.887C130.657 358.33 128.794 337.686 126.616 313.817C126.449 311.975 126.281 310.09 126.135 308.206V308.164C125.946 299.622 129.024 289.76 134.803 280.401C139.828 272.277 146.402 265.305 152.39 261.745C154.631 260.405 156.976 259.233 159.237 258.102C168.45 253.475 177.139 249.12 178.458 235.008C179.337 225.544 183.797 218.3 187.398 213.882C191.292 209.108 194.915 206.596 195.061 206.491L195.773 207.517C195.731 207.538 192.109 210.051 188.34 214.699C184.865 218.97 180.551 225.984 179.714 235.113C179.086 241.771 176.804 246.964 172.742 250.984C169.12 254.564 164.597 256.825 159.802 259.233C157.562 260.364 155.238 261.515 153.019 262.834C147.198 266.289 140.791 273.094 135.85 281.071C130.197 290.221 127.182 299.831 127.349 308.122C127.496 310.007 127.663 311.891 127.831 313.712C128.919 325.71 129.945 337.037 125.548 347.422C120.649 359.021 109.594 367.815 90.7712 375.06Z" fill="#C8C8C8"/>
<path d="M139.094 250.753L138.738 249.539C138.78 249.518 142.486 248.429 146.632 245.309C150.442 242.441 155.446 237.207 157.561 228.643C161.141 214.154 170.04 208.794 170.417 208.564L171.045 209.653L170.731 209.108L171.045 209.653C170.961 209.695 162.209 214.992 158.776 228.936C156.556 237.897 151.343 243.341 147.344 246.335C143.01 249.602 139.241 250.711 139.094 250.753Z" fill="#C8C8C8"/>
<path d="M156.431 57.625C156.431 57.625 156.431 57.625 156.41 57.6459C156.41 57.6459 156.41 57.6459 156.431 57.625Z" fill="#1A1A1A"/>
<path fill-rule="evenodd" clip-rule="evenodd" d="M170.396 56.5363C170.668 56.662 171.045 56.9551 171.233 57.5623C171.673 59.0907 170.689 62.4617 168.302 67.5076C166.292 71.7579 163.738 76.2177 162.105 78.772C158.315 84.6555 148.558 92.0255 148.139 92.3396C148.118 92.35 148.103 92.3605 148.087 92.371C148.071 92.3815 148.056 92.3919 148.035 92.4024C147.323 93.0515 142.989 97.0505 138.068 103.311C138.026 103.499 137.901 103.646 137.733 103.73C136.456 105.363 135.158 107.121 133.881 109.027C129.861 114.973 126.762 121.003 124.689 126.928C122.114 134.319 121.109 141.585 121.737 148.536C122.449 156.597 125.38 162.606 128.793 169.557C133.336 178.833 138.466 189.364 140.371 208.208C140.413 208.543 140.162 208.857 139.806 208.899C139.471 208.941 139.157 208.69 139.115 208.334C137.377 191.165 132.918 180.989 128.709 172.3C122.817 173.72 120.736 171.816 118.909 170.145L118.908 170.145C118.769 170.017 118.63 169.89 118.492 169.767C116.386 167.896 112.941 169.464 108.941 171.285L108.941 171.285C106.896 172.215 104.706 173.212 102.474 173.85C95.8791 175.734 92.2988 170.458 94.3507 165.893C96.6538 160.784 116.733 150.734 120.502 148.892C120.502 148.85 120.496 148.813 120.491 148.777L120.491 148.777C120.486 148.74 120.481 148.703 120.481 148.662C119.853 141.522 120.858 134.089 123.517 126.51C125.255 121.527 127.704 116.481 130.803 111.477C136.31 98.1183 128.856 93.1771 128.856 93.1771C128.877 93.1875 128.892 93.1928 128.908 93.198L128.921 93.2025C128.927 93.2045 128.933 93.2066 128.939 93.2092C128.832 93.1601 128.729 93.111 128.625 93.0619L128.625 93.0617C128.515 93.0094 128.405 92.9571 128.29 92.9049C125.485 91.6905 123.119 91.8371 122.868 91.858C117.612 97.3018 111.289 104.169 104.778 111.874C95.2301 123.222 87.1691 134.173 80.8669 144.474C72.9734 157.309 67.7809 169.097 65.415 179.545C64.2843 184.549 63.4259 189.281 62.7978 193.782C69.1837 194.494 73.7691 203.581 73.12 214.364C72.5547 223.848 68.074 231.553 62.6303 233.208C64.3714 244.315 67.1648 250.544 67.4262 251.127L67.4265 251.128C67.4323 251.141 67.4369 251.151 67.4402 251.158C67.4435 251.166 67.4454 251.171 67.4459 251.172C67.5925 251.486 67.4668 251.863 67.1528 252.009C67.1132 252.009 67.0737 252.014 67.032 252.019C66.9853 252.025 66.9359 252.03 66.8806 252.03C66.6503 252.03 66.42 251.905 66.3153 251.674L66.3057 251.654C66.0795 251.169 63.0791 244.734 61.2903 232.747C59.6153 221.524 58.7568 203.12 64.1796 179.23C66.5875 168.657 71.8428 156.723 79.7991 143.783C86.1641 133.44 94.246 122.427 103.835 111.037C119.706 92.193 134.551 78.4998 135.514 77.6205L141.711 69.9573L147.951 55.3429C149.081 52.6838 151.133 50.4644 153.709 49.1454L155.991 47.9729C156.305 47.8054 156.682 47.931 156.828 48.2451C156.996 48.5591 156.87 48.936 156.556 49.0826L154.274 50.2551C151.95 51.4485 150.107 53.4376 149.081 55.8454L142.8 70.5436C142.787 70.583 142.766 70.6142 142.746 70.6423C142.735 70.6589 142.724 70.6745 142.716 70.6901L137.273 77.4111C138.655 77.5158 140.853 77.9764 142.968 79.6723C145.773 81.9545 147.532 85.6396 148.202 90.6855C150.715 88.6964 157.98 82.813 160.995 78.123C165.078 71.7789 170.752 60.4726 169.998 57.9182C169.942 57.7497 169.886 57.6984 169.86 57.6744L169.852 57.667C169.852 57.667 169.475 57.5413 168.114 58.7767C167.15 59.6404 166.031 60.8896 164.833 62.2284L164.68 62.3989L164.68 62.3993C161.497 65.9376 158.503 69.2663 156.368 68.6383C155.467 68.387 154.881 67.4867 154.63 66.0001C154.065 62.7757 154.044 60.2423 154.567 58.4835C154.986 57.0598 155.656 56.6201 155.782 56.5573L156.41 57.646C156.2 57.8345 154.735 59.3629 155.865 65.7907C155.991 66.4607 156.221 67.2982 156.724 67.4448C158.106 67.8426 161.372 64.2204 163.759 61.5614C167.046 57.9182 168.972 55.8873 170.396 56.5363ZM128.898 91.8057C128.934 91.8214 128.971 91.8371 129.002 91.858L139.785 79.2955C138.131 78.6674 136.728 78.6464 136.247 78.6674C135.326 79.5049 130.635 83.8599 124.082 90.6018C125.213 90.6855 126.909 90.9368 128.793 91.7533C128.824 91.7743 128.861 91.79 128.898 91.8057ZM130.154 92.4442L140.936 79.8607C141.355 80.091 141.774 80.3632 142.193 80.6982C143.386 81.6613 144.391 82.9385 145.166 84.5088L134.634 96.3595C133.189 94.496 131.619 93.2607 130.154 92.4442ZM135.389 97.3855C136.226 98.6208 137.001 100.086 137.65 101.824C142.152 96.213 146.046 92.528 147.051 91.6277C146.8 89.4083 146.36 87.4401 145.711 85.7651L135.389 97.3855Z" fill="#1A1A1A"/>
<path d="M236.831 283.877C236.496 283.877 236.057 283.772 235.659 283.332C234.989 282.641 234.109 280.903 234.068 273.994C234.047 270.016 234.298 264.761 234.821 258.416C235.722 247.613 237.124 237.207 237.124 237.102L238.36 237.27C238.339 237.374 236.957 247.759 236.057 258.521C235.533 264.823 235.282 270.037 235.303 273.973C235.345 280.254 236.099 281.992 236.559 282.474C236.706 282.62 236.81 282.62 236.852 282.62C238.82 282.474 239.972 276.842 241.082 271.398C242.673 263.588 244.495 254.711 249.624 252.512L250.127 253.664C245.583 255.611 243.783 264.488 242.317 271.649C240.956 278.349 239.867 283.646 236.957 283.877C236.915 283.856 236.873 283.877 236.831 283.877Z" fill="#C8C8C8"/>
<path d="M88.0277 217.986L86.7715 217.86C88.0906 205.675 98.6221 202.869 106.306 200.817C111.415 199.456 114.535 198.493 114.409 196.19C114.367 195.352 113.99 194.64 113.237 194.012C108.505 190.097 92.2362 192.149 92.0896 192.17L91.9221 190.914C92.6131 190.83 108.902 188.778 114.032 193.049C115.037 193.887 115.582 194.913 115.644 196.106C115.833 199.561 111.771 200.65 106.599 202.011C98.8943 204.083 89.2631 206.659 88.0277 217.986Z" fill="#C8C8C8"/>
<path fill-rule="evenodd" clip-rule="evenodd" d="M82.3333 68.8268C81.3492 68.8268 80.5117 68.5336 79.8836 67.9474C79.423 67.5286 79.088 66.9633 78.7948 66.1677C77.6851 63.048 78.4808 59.363 80.7839 56.997C81.6423 56.1177 82.5008 55.7199 83.3802 55.8036C84.0502 55.8874 84.6783 56.3689 84.9505 57.0389C85.1808 57.6042 85.097 58.1905 84.7202 58.6092C84.4689 58.9024 84.0292 58.9442 83.7361 58.693C83.443 58.4417 83.4011 58.0021 83.6524 57.7089C83.6942 57.667 83.6523 57.5833 83.6314 57.5624C83.5686 57.3739 83.3592 57.2064 83.2127 57.2064C82.6892 57.1436 82.1448 57.6042 81.768 57.9811C79.8208 59.9911 79.1508 63.0899 80.093 65.728C80.3023 66.2933 80.5327 66.6911 80.8048 66.9633C81.8308 67.9055 83.6524 67.2983 84.3852 67.0052C88.6564 65.2255 91.6296 61.3939 94.5608 57.3111C95.1052 56.5364 95.6496 55.7617 96.1521 54.987C95.6705 54.7358 95.2308 54.4217 94.8958 54.003C94.2468 53.2073 93.8908 52.1395 93.8071 50.7367C93.7024 48.8523 94.4143 46.8633 95.5868 45.6908C96.3824 44.8951 97.3455 44.5183 98.3924 44.5811C99.0833 44.6229 99.6905 44.8951 100.046 45.3348C100.528 45.9001 100.57 46.6539 100.549 47.2192C100.444 49.6689 99.5858 51.9092 98.3505 54.0867C98.6227 54.0867 98.8949 54.0658 99.188 54.003C100.486 53.7308 101.659 52.9352 102.643 52.1814C106.097 49.5433 109.029 46.1514 111.143 42.3407C110.746 42.0686 110.39 41.7126 110.138 41.3148C109.72 40.6239 109.636 39.8492 109.908 39.1582C110.264 38.2789 111.332 37.5879 112.337 37.9648C112.797 38.1323 113.153 38.4882 113.342 38.9489C113.656 39.7445 113.447 40.7495 113.132 41.5032C114.117 41.4614 115.101 40.917 116.106 40.3098C120.586 37.6298 124.02 35.0963 126.26 31.5579C126.47 31.2229 126.888 31.1391 127.223 31.3485C127.558 31.5579 127.642 31.9767 127.433 32.3117C124.899 36.3107 120.837 39.0954 116.817 41.5032C115.519 42.2779 114.137 43.0317 112.609 42.8642C112.574 42.8642 112.54 42.8578 112.509 42.8521C112.483 42.8475 112.46 42.8433 112.442 42.8433C110.222 46.8842 107.144 50.4855 103.48 53.2702C102.371 54.1077 101.031 55.0289 99.4602 55.343C98.8112 55.4686 98.1621 55.4895 97.534 55.4058C96.9477 56.3061 96.3405 57.2064 95.6915 58.1067C92.6346 62.378 89.5149 66.3771 84.9086 68.2824C84.0083 68.6383 83.1289 68.8268 82.3333 68.8268ZM98.2042 45.9419C97.618 45.9419 97.0736 46.1722 96.5921 46.6538C95.6917 47.5331 95.1474 49.1453 95.2311 50.6319C95.2939 51.7207 95.5452 52.5372 96.0058 53.0816C96.2571 53.3747 96.5711 53.605 96.9271 53.7725C98.1833 51.6579 99.0836 49.4803 99.1883 47.1563C99.2093 46.8422 99.1883 46.4235 99.0208 46.2141C98.8952 46.0675 98.6649 45.9838 98.3508 45.9628C98.288 45.9419 98.2461 45.9419 98.2042 45.9419ZM111.206 39.6189C111.311 39.3886 111.562 39.2002 111.771 39.2002C111.792 39.2002 111.834 39.2002 111.876 39.2211C111.96 39.2421 112.023 39.3049 112.064 39.4096C112.19 39.7446 112.085 40.4355 111.792 41.0427C111.604 40.9171 111.457 40.7286 111.332 40.5402C111.185 40.3099 111.059 39.9749 111.206 39.6189Z" fill="#1A1A1A"/>
<path fill-rule="evenodd" clip-rule="evenodd" d="M371.461 163.82C371.356 163.82 371.251 163.8 371.147 163.737C368.613 162.439 367.252 159.528 367.127 155.069C364.865 155.508 362.416 155.718 360.552 154.252C359.778 153.645 359.149 152.765 358.647 151.551C357.265 148.243 357.349 144.684 357.6 140.726C357.663 139.7 357.747 138.57 357.935 137.418C354.878 137.732 351.361 137.649 349.56 135.031C348.387 133.335 348.45 131.284 348.597 129.127C348.681 127.871 348.932 124.542 351.382 123.516C351.737 123.369 352.156 123.537 352.303 123.893C352.449 124.248 352.282 124.667 351.926 124.814C350.46 125.442 350.125 127.515 350 129.253C349.853 131.137 349.811 132.938 350.712 134.257C352.198 136.392 355.485 136.329 358.249 135.994C358.5 135.115 358.835 134.257 359.317 133.461C359.861 132.582 360.678 131.786 361.599 131.221C362.981 130.383 364.405 130.99 365.075 132.037C365.766 133.063 365.766 134.613 364.468 135.555C364.237 135.722 363.986 135.869 363.735 136.015L363.735 136.015L363.735 136.015C362.353 136.769 360.803 137.041 359.359 137.23C359.149 138.339 359.045 139.533 358.961 140.81C358.731 144.6 358.626 147.992 359.903 151.007C360.322 151.991 360.803 152.703 361.39 153.163C362.855 154.315 365.075 154.043 367.085 153.645C367.106 152.619 367.231 151.572 367.818 150.672C368.257 150.002 368.99 149.541 369.765 149.394C370.393 149.29 371 149.415 371.482 149.771C371.544 149.813 371.586 149.876 371.628 149.939C372.466 151.153 371.9 152.807 370.895 153.666C370.183 154.273 369.283 154.566 368.467 154.755C368.55 158.816 369.639 161.413 371.733 162.48C372.068 162.648 372.214 163.067 372.047 163.423C371.942 163.674 371.712 163.82 371.461 163.82ZM370.205 150.776C370.142 150.776 370.079 150.776 370.016 150.797C369.618 150.86 369.221 151.132 369.011 151.467C368.676 151.991 368.551 152.64 368.509 153.352C369.074 153.205 369.598 152.975 370.016 152.64C370.519 152.221 370.833 151.425 370.561 150.881C370.456 150.797 370.33 150.776 370.205 150.776ZM362.29 132.435C362.521 132.309 362.73 132.247 362.918 132.247C363.358 132.247 363.693 132.519 363.902 132.833C364.196 133.293 364.3 133.984 363.63 134.466C363.442 134.592 363.253 134.717 363.065 134.822C362.06 135.366 360.929 135.618 359.757 135.806C359.945 135.241 360.176 134.717 360.49 134.215C360.929 133.503 361.557 132.875 362.29 132.435Z" fill="#1A1A1A"/>
<path fill-rule="evenodd" clip-rule="evenodd" d="M356.782 231.344H356.95C358.311 231.344 359.714 230.507 360.509 229.167C361.263 227.952 361.535 226.57 361.703 225.251C362.457 219.347 361.556 213.254 359.169 207.81C359.253 207.768 359.337 207.727 359.4 207.685C360.928 206.742 361.64 204.984 362.122 203.392C363.734 198.179 364.383 192.756 364.027 187.291C364.006 186.915 363.671 186.621 363.294 186.642C362.917 186.663 362.624 186.998 362.645 187.375C362.98 192.672 362.373 197.928 360.802 202.995C360.363 204.418 359.818 205.821 358.688 206.512C358.677 206.523 358.667 206.528 358.656 206.533C358.646 206.538 358.635 206.544 358.625 206.554L358.625 206.554C358.374 206.072 358.122 205.591 357.871 205.13C357.097 203.748 356.091 202.241 354.437 201.592C353.432 201.194 352.218 201.299 351.276 201.843C350.501 202.283 350.02 202.974 349.894 203.769C349.685 205.151 350.585 206.973 353.726 207.894C354.856 208.229 356.406 208.585 357.871 208.292C360.195 213.526 361.075 219.389 360.342 225.084C360.195 226.235 359.986 227.45 359.358 228.434C358.751 229.418 357.767 230.004 356.845 229.962C356.28 229.941 355.715 229.627 355.317 229.104C354.877 228.538 354.689 227.827 354.814 227.219C355.066 225.942 356.468 224.979 357.808 225.126C358.185 225.188 358.541 224.895 358.583 224.518C358.625 224.142 358.353 223.786 357.976 223.744C355.903 223.493 353.83 224.979 353.453 226.947C353.265 227.952 353.558 229.062 354.228 229.941C354.877 230.779 355.819 231.302 356.782 231.344ZM351.987 202.995C352.322 202.806 352.741 202.701 353.16 202.701C353.432 202.701 353.704 202.743 353.934 202.869C355.17 203.35 356.007 204.607 356.656 205.779C356.887 206.156 357.096 206.554 357.284 206.952C356.447 207.035 355.4 206.91 354.144 206.533C352.992 206.177 351.108 205.256 351.296 203.937C351.359 203.455 351.715 203.162 351.987 202.995Z" fill="#1A1A1A"/>
<path d="M34.2812 59.1116L37.6313 67.4867L49.9844 61.2054L46.6344 55.5522L34.2812 59.1116Z" fill="#1A1A1A"/>
<path d="M247.572 185.449L252.597 190.474L260.135 183.355L255.738 178.33L247.572 185.449Z" fill="white"/>
<path fill-rule="evenodd" clip-rule="evenodd" d="M252.158 190.914C252.283 191.039 252.43 191.102 252.597 191.102C252.765 191.102 252.912 191.06 253.016 190.935L260.554 183.816C260.805 183.564 260.826 183.188 260.596 182.936L256.199 177.911C255.968 177.639 255.571 177.618 255.319 177.849L247.154 184.967C247.028 185.093 246.944 185.26 246.944 185.428C246.944 185.595 247.007 185.763 247.133 185.889L252.158 190.914ZM252.618 189.615L248.493 185.491L255.696 179.23L259.276 183.334L252.618 189.615Z" fill="#1A1A1A"/>
<path d="M48.6025 115.685L52.5597 116.522L54.2557 110.744L49.0213 108.901L48.6025 115.685Z" fill="white"/>
<path fill-rule="evenodd" clip-rule="evenodd" d="M52.4338 117.13C52.4757 117.151 52.5175 117.151 52.5594 117.151C52.8316 117.151 53.0829 116.983 53.1666 116.732L54.8626 110.932C54.9463 110.597 54.7788 110.262 54.4647 110.157L49.2304 108.315C49.0419 108.252 48.8325 108.273 48.665 108.378C48.5185 108.482 48.4138 108.671 48.3928 108.859L47.9741 115.643C47.9532 115.957 48.1625 116.229 48.4766 116.292L52.4338 117.13ZM52.1197 115.79L49.2722 115.182L49.6072 109.76L53.4807 111.121L52.1197 115.79Z" fill="#1A1A1A"/>
<path d="M92.8428 94.1611L97.0303 97.7205L93.6803 105.467L89.7021 103.164L92.8428 94.1611Z" fill="#1A1A1A"/>
<path d="M281.072 172.886L273.116 155.718L269.305 157.728L263.904 145.458L259.088 148.39L267.672 165.558L271.483 163.171L277.722 174.771L281.072 172.886Z" fill="#1A1A1A"/>
<path d="M346.083 39.3677L349.454 39.7446L345.099 51.8046L339.069 49.983L346.083 39.3677Z" fill="#1A1A1A"/>
<path d="M295.435 14.7869L301.067 17.1319L300.565 23.4969L292.022 22.4919L295.435 14.7869Z" fill="#1A1A1A"/>
<path d="M172.469 139.093L177.703 135.953L185.45 146.84L180.006 148.096L172.469 139.093Z" fill="#1A1A1A"/>
<path d="M373.616 112.649L369.68 105.446L368.319 106.577L363.357 100.421L359.379 105.446L366.498 112.984L367.817 111.602L370.246 115.287L373.616 112.649Z" fill="#1A1A1A"/>
<path d="M317.609 149.373C317.609 149.373 320.561 132.393 321.503 126.112C322.446 119.831 323.597 109.466 321.608 110.409C319.619 111.351 313.338 127.577 313.338 127.577L297.216 127.473L299.205 145.688C299.205 145.688 307.14 143.888 311.453 145.688C314.887 147.028 317.609 149.373 317.609 149.373Z" fill="#C8C8C8"/>
<path fill-rule="evenodd" clip-rule="evenodd" d="M322.822 109.781C322.571 109.425 322.173 109.257 321.775 109.32C320.875 109.467 319.493 110.702 316.08 118.889C314.584 122.463 313.273 126.038 312.803 127.319L312.803 127.32L312.803 127.32L312.793 127.347L297.215 126.803C297.027 126.803 296.859 126.887 296.734 127.012C296.608 127.159 296.545 127.326 296.566 127.515V127.536L298.116 145.835V145.898C298.116 146.066 297.383 161.894 289.029 190.663C285.721 202.094 277.932 211.621 265.893 219.033C255.738 225.272 244.599 228.811 237.208 231.156L236.89 231.257C235.687 231.638 234.545 232.001 233.544 232.328C220.333 236.725 211.036 248.743 210.953 248.869C210.743 249.141 210.806 249.539 211.078 249.748C211.183 249.832 211.329 249.874 211.455 249.874C211.643 249.874 211.832 249.79 211.937 249.623L211.958 249.596C212.458 248.964 221.381 237.694 233.942 233.501C234.953 233.164 236.132 232.789 237.374 232.395L237.585 232.328L237.886 232.232L237.886 232.232L237.886 232.232L237.886 232.232C244.831 230.015 254.956 226.783 264.532 221.273C264.574 222.885 264.909 226.947 267.254 227.115C268.069 227.173 268.965 227.102 269.848 227.031H269.848H269.848H269.848C272.139 226.849 274.338 226.674 274.791 228.79C274.885 229.226 274.983 229.933 275.106 230.813C275.808 235.844 277.303 246.551 283.166 244.912C287.081 243.816 285.726 236.631 284.181 228.436L284.181 228.436L284.181 228.436L284.181 228.436C283.66 225.672 283.117 222.794 282.747 219.996C281.784 212.773 282.161 208.313 282.538 206.073C286.077 201.487 288.652 196.462 290.243 190.998C292.148 184.423 293.656 178.54 294.849 173.347C296.043 170.186 299.644 163.255 308.396 163.988L308.375 163.967C311.202 164.763 314.426 166.333 317.692 169.243C317.629 173.117 317.42 177.451 317.043 182.162C316.122 193.573 314.258 204.879 311.516 215.746C308.082 229.334 303.287 242.316 297.215 254.292C293.551 261.536 289.573 268.362 285.281 274.769C278.288 272.235 266.374 278.035 256.848 289.111C248.933 298.344 244.871 308.646 245.793 315.639C236.748 321.962 226.844 327.28 216.292 331.489C205.446 335.823 193.637 339.11 181.158 341.246C180.823 341.308 180.593 341.643 180.656 341.978C180.719 342.292 180.991 342.502 181.284 342.502C181.326 342.502 181.347 342.502 181.368 342.46C193.93 340.303 205.844 336.974 216.752 332.619C228.1 328.076 238.737 322.255 248.368 315.304C258.355 308.101 267.547 299.475 275.733 289.655C284.171 279.522 291.792 267.797 298.346 254.836C304.46 242.776 309.296 229.711 312.751 216.018C315.515 205.068 317.378 193.698 318.32 182.225C318.697 177.535 318.886 173.201 318.969 169.306C319.032 169.139 319.053 168.971 318.969 168.804C319.137 157.916 318.362 150.756 318.216 149.478C318.235 149.353 318.307 148.938 318.42 148.286L318.42 148.285L318.42 148.284C318.91 145.461 320.167 138.204 321.273 130.823C323.827 113.759 323.45 110.618 322.822 109.781ZM299.351 146.401C300.167 146.17 302.198 145.689 304.732 145.584L302.366 161.978C299.979 162.062 298.137 162.543 297.048 162.899C298.786 153.624 299.246 148.013 299.351 146.401ZM305.988 145.584L303.622 161.978C305.737 162.041 308.375 162.46 311.243 163.653L312.186 146.715C310.071 145.919 307.935 145.626 305.988 145.584ZM312.479 164.218L313.421 147.238C314.656 147.824 315.87 148.62 316.98 149.667C317.127 150.944 317.839 157.56 317.734 167.631C315.954 166.145 314.174 165.035 312.479 164.218ZM305.631 144.328C310.196 144.349 314.153 145.668 317.189 148.201C317.671 145.5 318.927 138.172 320.036 130.697C322.465 114.429 322.109 111.225 321.858 110.597C321.481 110.848 320.183 112.209 317.168 119.475C315.59 123.267 314.231 127.043 313.883 128.01C313.829 128.16 313.8 128.242 313.797 128.248C313.692 128.541 313.399 128.708 313.127 128.666L298.136 131.493L299.287 145.123C300.397 144.83 302.575 144.349 305.255 144.328C305.263 144.326 305.272 144.324 305.281 144.322C305.374 144.303 305.452 144.287 305.548 144.307C305.558 144.307 305.574 144.312 305.59 144.317C305.605 144.322 305.621 144.328 305.631 144.328Z" fill="#1A1A1A"/>
</svg>
