<svg width="104" height="34" viewBox="0 0 104 34" fill="none" xmlns="http://www.w3.org/2000/svg">
<rect x="1.2998" y="2" width="29.9085" height="30" rx="3.75" stroke="#777777" stroke-width="2.5" stroke-linecap="round"/>
<path fill-rule="evenodd" clip-rule="evenodd" d="M11.7086 15.125L10.2665 12.8271H9.49057V15.125H8.77734V9.5H10.5957C11.2227 9.5 11.693 9.65293 12.0065 9.95878C12.32 10.2646 12.4767 10.6702 12.4767 11.1755C12.4767 11.633 12.3513 12.0013 12.1005 12.2806C11.8497 12.5598 11.4866 12.734 11.0111 12.8032L12.5159 15.125H11.7086ZM9.49023 12.3004H10.5326C11.3425 12.3004 11.7475 11.9387 11.7475 11.2153C11.7475 10.4919 11.3425 10.1302 10.5326 10.1302H9.49023V12.3004Z" fill="#777777"/>
<path fill-rule="evenodd" clip-rule="evenodd" d="M23.7318 21.6835C23.7318 22.2527 23.619 22.7487 23.3935 23.1715C23.168 23.5944 22.8362 23.9215 22.3983 24.1529C21.9603 24.3843 21.4345 24.5 20.8209 24.5H19.0586V18.875H20.8209C21.4345 18.875 21.9603 18.988 22.3983 19.2141C22.8362 19.4402 23.168 19.7646 23.3935 20.1875C23.619 20.6104 23.7318 21.109 23.7318 21.6835ZM20.7652 23.8459C21.489 23.8459 22.0423 23.657 22.4252 23.2794C22.8081 22.9017 22.9995 22.3698 22.9995 21.6836C22.9995 20.9975 22.8094 20.4642 22.4292 20.0839C22.0489 19.7036 21.4943 19.5134 20.7652 19.5134H19.7739V23.8459H20.7652Z" fill="#777777"/>
<path d="M11.0205 22.4375L21.582 11.8438" stroke="#777777" stroke-width="2.5" stroke-linecap="round"/>
<path fill-rule="evenodd" clip-rule="evenodd" d="M45.0691 15.3279L42.5885 10.9073H41.9561V15.3279H39.1836V3.62256H43.918C44.8259 3.62256 45.5934 3.7826 46.2203 4.10269C46.8472 4.42278 47.3174 4.86152 47.6309 5.41892C47.9444 5.97631 48.1011 6.61373 48.1011 7.33117C48.1011 8.18106 47.8714 8.90402 47.412 9.50004C46.9526 10.0961 46.2852 10.5045 45.4096 10.7252L48.1335 15.3279H45.0691ZM41.9558 8.97017H43.6745C44.2257 8.97017 44.6311 8.846 44.8905 8.59765C45.1499 8.34931 45.2796 7.98231 45.2796 7.49666C45.2796 7.03308 45.1472 6.66884 44.8824 6.40394C44.6176 6.13904 44.2149 6.00659 43.6745 6.00659H41.9558V8.97017Z" fill="#777777"/>
<path fill-rule="evenodd" clip-rule="evenodd" d="M49.2373 3.49007C49.2373 3.0596 49.3886 2.70364 49.6913 2.42219C49.9939 2.14073 50.3939 2 50.8911 2C51.3883 2 51.7883 2.14073 52.0909 2.42219C52.3936 2.70364 52.5449 3.0596 52.5449 3.49007C52.5449 3.90949 52.3936 4.25993 52.0909 4.54139C51.7883 4.82285 51.3883 4.96358 50.8911 4.96358C50.3939 4.96358 49.9939 4.82285 49.6913 4.54139C49.3886 4.25993 49.2373 3.90949 49.2373 3.49007ZM52.2698 6.08936V15.3278H49.4973V6.08936H52.2698Z" fill="#777777"/>
<path fill-rule="evenodd" clip-rule="evenodd" d="M57.4737 5.97339C58.6194 5.97339 59.5355 6.26588 60.2219 6.85087C60.9082 7.43586 61.3379 8.20849 61.5109 9.16875H58.9167C58.841 8.79348 58.6708 8.49822 58.4059 8.28299C58.1411 8.06776 57.8087 7.96014 57.4088 7.96014C57.0953 7.96014 56.8575 8.02913 56.6954 8.1671C56.5333 8.30507 56.4522 8.50098 56.4522 8.75485C56.4522 9.04182 56.6008 9.25705 56.8981 9.40054C57.1953 9.54403 57.6628 9.68752 58.3006 9.831C58.9923 9.99657 59.5598 10.1649 60.003 10.336C60.4462 10.5071 60.8299 10.7858 61.1542 11.1721C61.4784 11.5584 61.6406 12.0771 61.6406 12.7284C61.6406 13.2582 61.5 13.7273 61.219 14.1356C60.938 14.544 60.5326 14.8641 60.003 15.0959C59.4733 15.3277 58.8464 15.4436 58.1222 15.4436C56.9008 15.4436 55.9225 15.1676 55.1875 14.6158C54.4525 14.0639 54.0039 13.2747 53.8418 12.2482H56.517C56.5603 12.6456 56.7251 12.9491 57.0116 13.1588C57.298 13.3685 57.6682 13.4734 58.1222 13.4734C58.4357 13.4734 58.6735 13.3989 58.8356 13.2499C58.9977 13.1009 59.0788 12.905 59.0788 12.6621C59.0788 12.342 58.9302 12.113 58.6329 11.975C58.3357 11.8371 57.852 11.6908 57.1818 11.5363C56.5116 11.3928 55.9604 11.2383 55.528 11.0727C55.0957 10.9072 54.7227 10.6395 54.4093 10.2697C54.0958 9.89999 53.9391 9.39502 53.9391 8.75485C53.9391 7.92703 54.2471 7.2565 54.8633 6.74326C55.4794 6.23001 56.3495 5.97339 57.4737 5.97339Z" fill="#777777"/>
<path fill-rule="evenodd" clip-rule="evenodd" d="M71.7744 10.4601C71.7744 10.6919 71.7473 10.9458 71.6933 11.2217H65.4186C65.451 11.9171 65.624 12.4165 65.9375 12.7201C66.2509 13.0236 66.6509 13.1754 67.1373 13.1754C67.548 13.1754 67.8885 13.0705 68.1587 12.8608C68.429 12.6511 68.6073 12.3807 68.6938 12.0495H71.6284C71.5095 12.7008 71.2501 13.283 70.8502 13.7962C70.4503 14.3095 69.9422 14.7123 69.3261 15.0048C68.71 15.2973 68.0236 15.4436 67.267 15.4436C66.3806 15.4436 65.5943 15.2532 64.9079 14.8724C64.2215 14.4916 63.6838 13.9425 63.2946 13.225C62.9055 12.5076 62.7109 11.6688 62.7109 10.7085C62.7109 9.73719 62.9028 8.89557 63.2865 8.18365C63.6702 7.47173 64.208 6.92538 64.8998 6.54458C65.5916 6.16379 66.3806 5.97339 67.267 5.97339C68.1641 5.97339 68.9532 6.16103 69.6342 6.5363C70.3151 6.91158 70.8421 7.43862 71.215 8.11743C71.5879 8.79624 71.7744 9.57714 71.7744 10.4601ZM68.9689 10.0297C68.9797 9.42262 68.8203 8.96733 68.4906 8.66379C68.1609 8.36026 67.7529 8.2085 67.2665 8.2085C66.7584 8.2085 66.3369 8.36302 66.0018 8.67207C65.6667 8.98112 65.4776 9.43366 65.4343 10.0297H68.9689Z" fill="#777777"/>
<path fill-rule="evenodd" clip-rule="evenodd" d="M78.9564 5.99023C79.9941 5.99023 80.8183 6.34344 81.429 7.04984C82.0397 7.75624 82.3451 8.72754 82.3451 9.96374V15.328H79.5725V10.2949C79.5725 9.67677 79.4131 9.19388 79.0942 8.84619C78.7754 8.49851 78.3511 8.32467 77.8215 8.32467C77.2594 8.32467 76.8135 8.50679 76.4838 8.87103C76.1542 9.23527 75.9893 9.75403 75.9893 10.4273V15.328H73.2168V6.08957H75.9893V7.77831C76.2487 7.22644 76.6352 6.79046 77.1486 6.47037C77.662 6.15028 78.2646 5.99023 78.9564 5.99023Z" fill="#777777"/>
<path fill-rule="evenodd" clip-rule="evenodd" d="M49.4955 26.0065C49.4955 27.1544 49.255 28.1726 48.774 29.0612C48.293 29.9497 47.6012 30.6423 46.6986 31.139C45.7961 31.6357 44.7341 31.884 43.5126 31.884H39.1836V20.1787H43.5126C44.7449 20.1787 45.8096 20.4215 46.7067 20.9072C47.6039 21.3928 48.293 22.0772 48.774 22.9602C49.255 23.8432 49.4955 24.8586 49.4955 26.0065ZM43.2691 29.351C44.35 29.351 45.1904 29.0585 45.7903 28.4735C46.3902 27.8885 46.6902 27.0662 46.6902 26.0066C46.6902 24.947 46.3902 24.1247 45.7903 23.5397C45.1904 22.9547 44.35 22.6622 43.2691 22.6622H41.9558V29.351H43.2691Z" fill="#777777"/>
<path fill-rule="evenodd" clip-rule="evenodd" d="M59.6621 27.0165C59.6621 27.2483 59.635 27.5022 59.581 27.7781H53.3063C53.3387 28.4735 53.5117 28.9729 53.8251 29.2765C54.1386 29.58 54.5385 29.7318 55.025 29.7318C55.4357 29.7318 55.7762 29.6269 56.0464 29.4172C56.3166 29.2075 56.495 28.9371 56.5815 28.6059H59.5161C59.3972 29.2572 59.1378 29.8394 58.7379 30.3526C58.3379 30.8659 57.8299 31.2687 57.2138 31.5612C56.5977 31.8537 55.9113 32 55.1547 32C54.2683 32 53.482 31.8096 52.7956 31.4288C52.1092 31.048 51.5715 30.4989 51.1823 29.7814C50.7932 29.064 50.5986 28.2252 50.5986 27.2649C50.5986 26.2936 50.7905 25.452 51.1742 24.7401C51.5579 24.0281 52.0957 23.4818 52.7875 23.101C53.4793 22.7202 54.2683 22.5298 55.1547 22.5298C56.0518 22.5298 56.8409 22.7174 57.5219 23.0927C58.2028 23.468 58.7298 23.995 59.1027 24.6738C59.4756 25.3526 59.6621 26.1335 59.6621 27.0165ZM56.8566 26.5861C56.8674 25.979 56.708 25.5237 56.3783 25.2202C56.0486 24.9167 55.6406 24.7649 55.1542 24.7649C54.6461 24.7649 54.2246 24.9194 53.8895 25.2285C53.5544 25.5375 53.3653 25.9901 53.322 26.5861H56.8566Z" fill="#777777"/>
<path fill-rule="evenodd" clip-rule="evenodd" d="M65.2879 29.1193L67.2498 22.6458H70.2007L66.9904 31.8842H63.5531L60.3428 22.6458H63.2937L65.2879 29.1193Z" fill="#777777"/>
<path fill-rule="evenodd" clip-rule="evenodd" d="M71.0928 20.0465C71.0928 19.616 71.2441 19.26 71.5468 18.9786C71.8494 18.6971 72.2493 18.5564 72.7466 18.5564C73.2438 18.5564 73.6437 18.6971 73.9464 18.9786C74.249 19.26 74.4004 19.616 74.4004 20.0465C74.4004 20.4659 74.249 20.8163 73.9464 21.0978C73.6437 21.3792 73.2438 21.52 72.7466 21.52C72.2493 21.52 71.8494 21.3792 71.5468 21.0978C71.2441 20.8163 71.0928 20.4659 71.0928 20.0465ZM74.1253 22.6458V31.8842H71.3528V22.6458H74.1253Z" fill="#777777"/>
<path fill-rule="evenodd" clip-rule="evenodd" d="M80.1234 22.5298C81.2908 22.5298 82.269 22.8582 83.0581 23.5149C83.8472 24.1716 84.3444 25.0739 84.5497 26.2218H81.6151C81.5286 25.8245 81.3503 25.5154 81.08 25.2947C80.8098 25.0739 80.4693 24.9636 80.0586 24.9636C79.5722 24.9636 79.1722 25.1595 78.8588 25.5513C78.5453 25.9431 78.3886 26.5143 78.3886 27.2649C78.3886 28.0154 78.5453 28.5866 78.8588 28.9785C79.1722 29.3703 79.5722 29.5662 80.0586 29.5662C80.4693 29.5662 80.8098 29.4558 81.08 29.2351C81.3503 29.0143 81.5286 28.7053 81.6151 28.3079H84.5497C84.3444 29.4558 83.8472 30.3582 83.0581 31.0149C82.269 31.6716 81.2908 32 80.1234 32C79.2371 32 78.4507 31.8096 77.7643 31.4288C77.078 31.048 76.5402 30.4989 76.1511 29.7814C75.7619 29.064 75.5674 28.2252 75.5674 27.2649C75.5674 26.2936 75.7592 25.452 76.143 24.7401C76.5267 24.0281 77.0644 23.4818 77.7562 23.101C78.448 22.7202 79.2371 22.5298 80.1234 22.5298Z" fill="#777777"/>
<path fill-rule="evenodd" clip-rule="evenodd" d="M94.5869 27.0165C94.5869 27.2483 94.5598 27.5022 94.5058 27.7781H88.2311C88.2635 28.4735 88.4365 28.9729 88.75 29.2765C89.0634 29.58 89.4634 29.7318 89.9498 29.7318C90.3605 29.7318 90.701 29.6269 90.9712 29.4172C91.2415 29.2075 91.4198 28.9371 91.5063 28.6059H94.4409C94.322 29.2572 94.0626 29.8394 93.6627 30.3526C93.2628 30.8659 92.7547 31.2687 92.1386 31.5612C91.5225 31.8537 90.8361 32 90.0795 32C89.1931 32 88.4068 31.8096 87.7204 31.4288C87.034 31.048 86.4963 30.4989 86.1071 29.7814C85.718 29.064 85.5234 28.2252 85.5234 27.2649C85.5234 26.2936 85.7153 25.452 86.099 24.7401C86.4827 24.0281 87.0205 23.4818 87.7123 23.101C88.4041 22.7202 89.1931 22.5298 90.0795 22.5298C90.9766 22.5298 91.7657 22.7174 92.4467 23.0927C93.1276 23.468 93.6546 23.995 94.0275 24.6738C94.4004 25.3526 94.5869 26.1335 94.5869 27.0165ZM91.7814 26.5861C91.7922 25.979 91.6328 25.5237 91.3031 25.2202C90.9734 24.9167 90.5654 24.7649 90.079 24.7649C89.5709 24.7649 89.1494 24.9194 88.8143 25.2285C88.4792 25.5375 88.2901 25.9901 88.2468 26.5861H91.7814Z" fill="#777777"/>
<path fill-rule="evenodd" clip-rule="evenodd" d="M99.3213 22.5298C100.467 22.5298 101.383 22.8223 102.07 23.4073C102.756 23.9923 103.186 24.7649 103.359 25.7252H100.764C100.689 25.3499 100.518 25.0546 100.254 24.8394C99.9888 24.6242 99.6564 24.5165 99.2565 24.5165C98.943 24.5165 98.7052 24.5855 98.5431 24.7235C98.3809 24.8615 98.2999 25.0574 98.2999 25.3112C98.2999 25.5982 98.4485 25.8135 98.7457 25.9569C99.043 26.1004 99.5105 26.2439 100.148 26.3874C100.84 26.553 101.407 26.7213 101.851 26.8924C102.294 27.0635 102.678 27.3421 103.002 27.7285C103.326 28.1148 103.488 28.6335 103.488 29.2848C103.488 29.8146 103.348 30.2836 103.067 30.692C102.786 31.1004 102.38 31.4205 101.851 31.6523C101.321 31.8841 100.694 32 99.9699 32C98.7484 32 97.7702 31.724 97.0352 31.1722C96.3002 30.6203 95.8516 29.8311 95.6895 28.8046H98.3647C98.4079 29.202 98.5728 29.5055 98.8592 29.7152C99.1457 29.9249 99.5159 30.0298 99.9699 30.0298C100.283 30.0298 100.521 29.9553 100.683 29.8063C100.845 29.6573 100.926 29.4614 100.926 29.2185C100.926 28.8984 100.778 28.6694 100.481 28.5314C100.183 28.3935 99.6996 28.2472 99.0295 28.0927C98.3593 27.9492 97.808 27.7947 97.3757 27.6291C96.9433 27.4636 96.5704 27.1959 96.2569 26.8261C95.9435 26.4564 95.7867 25.9514 95.7867 25.3112C95.7867 24.4834 96.0948 23.8129 96.7109 23.2997C97.327 22.7864 98.1972 22.5298 99.3213 22.5298Z" fill="#777777"/>
</svg>
