<svg width="138" height="44" viewBox="0 0 138 44" fill="none" xmlns="http://www.w3.org/2000/svg">
<rect x="1.72852" y="2" width="39.878" height="40" rx="3.75" stroke="#1A1A1A" stroke-width="2.5" stroke-linecap="round"/>
<path fill-rule="evenodd" clip-rule="evenodd" d="M15.6056 19.5L13.6828 16.4362H12.6482V19.5H11.6973V12H14.1217C14.9577 12 15.5847 12.2039 16.0028 12.6117C16.4208 13.0195 16.6298 13.5603 16.6298 14.234C16.6298 14.844 16.4626 15.3351 16.1282 15.7074C15.7938 16.0798 15.3096 16.3121 14.6756 16.4043L16.682 19.5H15.6056ZM12.6482 15.7341H14.0381C15.1179 15.7341 15.6579 15.2518 15.6579 14.2873C15.6579 13.3227 15.1179 12.8405 14.0381 12.8405H12.6482V15.7341Z" fill="#1A1A1A"/>
<path fill-rule="evenodd" clip-rule="evenodd" d="M31.6372 28.2447C31.6372 29.0035 31.4868 29.6649 31.1861 30.2287C30.8854 30.7926 30.4431 31.2287 29.8592 31.5372C29.2752 31.8457 28.5742 32 27.756 32H25.4062V24.5H27.756C28.5742 24.5 29.2752 24.6507 29.8592 24.9521C30.4431 25.2535 30.8854 25.6862 31.1861 26.25C31.4868 26.8138 31.6372 27.4787 31.6372 28.2447ZM27.6826 31.1277C28.6476 31.1277 29.3854 30.876 29.8959 30.3724C30.4064 29.8689 30.6617 29.1596 30.6617 28.2448C30.6617 27.3299 30.4082 26.6189 29.9011 26.1118C29.3941 25.6047 28.6546 25.3511 27.6826 25.3511H26.3608V31.1277H27.6826Z" fill="#1A1A1A"/>
<path d="M14.6885 29.25L28.7704 15.125" stroke="#1A1A1A" stroke-width="2.5" stroke-linecap="round"/>
<path fill-rule="evenodd" clip-rule="evenodd" d="M60.0886 19.7704L56.781 13.8764H55.9379V19.7704H52.2412V4.16333H58.5537C59.7643 4.16333 60.7876 4.37672 61.6235 4.80351C62.4594 5.23029 63.0863 5.81528 63.5043 6.55847C63.9222 7.30167 64.1312 8.15156 64.1312 9.10814C64.1312 10.2413 63.825 11.2053 63.2125 12C62.5999 12.7947 61.71 13.3392 60.5426 13.6335L64.1745 19.7704H60.0886ZM55.9375 11.2935H58.229C58.964 11.2935 59.5045 11.128 59.8504 10.7968C60.1963 10.4657 60.3692 9.97639 60.3692 9.32886C60.3692 8.71076 60.1927 8.2251 59.8396 7.8719C59.4865 7.5187 58.9496 7.3421 58.229 7.3421H55.9375V11.2935Z" fill="#1A1A1A"/>
<path fill-rule="evenodd" clip-rule="evenodd" d="M65.6445 3.98675C65.6445 3.4128 65.8463 2.93819 66.2498 2.56291C66.6534 2.18764 67.1866 2 67.8496 2C68.5125 2 69.0458 2.18764 69.4493 2.56291C69.8529 2.93819 70.0546 3.4128 70.0546 3.98675C70.0546 4.54599 69.8529 5.01325 69.4493 5.38852C69.0458 5.7638 68.5125 5.95143 67.8496 5.95143C67.1866 5.95143 66.6534 5.7638 66.2498 5.38852C65.8463 5.01325 65.6445 4.54599 65.6445 3.98675ZM69.6867 7.45258V19.7705H65.99V7.45258H69.6867Z" fill="#1A1A1A"/>
<path fill-rule="evenodd" clip-rule="evenodd" d="M76.6276 7.2981C78.1553 7.2981 79.3767 7.68809 80.2919 8.46807C81.2071 9.24806 81.78 10.2782 82.0106 11.5586H78.5517C78.4508 11.0582 78.2238 10.6645 77.8707 10.3776C77.5176 10.0906 77.0744 9.9471 76.5412 9.9471C76.1232 9.9471 75.8061 10.0391 75.59 10.223C75.3738 10.407 75.2657 10.6682 75.2657 11.0067C75.2657 11.3893 75.4639 11.6763 75.8602 11.8676C76.2565 12.0589 76.8798 12.2503 77.7302 12.4416C78.6525 12.6623 79.4092 12.8868 80.0001 13.1149C80.591 13.343 81.1026 13.7146 81.535 14.2297C81.9673 14.7447 82.1835 15.4364 82.1835 16.3047C82.1835 17.0111 81.9962 17.6366 81.6214 18.1811C81.2467 18.7256 80.7063 19.1524 80.0001 19.4615C79.2939 19.7705 78.458 19.925 77.4924 19.925C75.8638 19.925 74.5595 19.5571 73.5795 18.8213C72.5994 18.0854 72.0013 17.0332 71.7852 15.6645H75.3522C75.4098 16.1943 75.6296 16.5991 76.0115 16.8787C76.3934 17.1583 76.8871 17.2981 77.4924 17.2981C77.9103 17.2981 78.2274 17.1988 78.4436 17.0001C78.6597 16.8014 78.7678 16.5402 78.7678 16.2164C78.7678 15.7896 78.5697 15.4843 78.1733 15.3003C77.777 15.1163 77.1321 14.9213 76.2385 14.7153C75.345 14.524 74.6099 14.318 74.0334 14.0972C73.457 13.8765 72.9597 13.5196 72.5418 13.0266C72.1238 12.5336 71.9149 11.8603 71.9149 11.0067C71.9149 9.90295 72.3256 9.00891 73.1471 8.32459C73.9686 7.64026 75.1288 7.2981 76.6276 7.2981Z" fill="#1A1A1A"/>
<path fill-rule="evenodd" clip-rule="evenodd" d="M95.694 13.2807C95.694 13.5897 95.6579 13.9282 95.5859 14.2961H87.2196C87.2629 15.2233 87.4934 15.8892 87.9114 16.2939C88.3294 16.6986 88.8626 16.901 89.5111 16.901C90.0588 16.901 90.5128 16.7612 90.8731 16.4816C91.2334 16.2019 91.4712 15.8414 91.5865 15.3999H95.4994C95.3409 16.2682 94.995 17.0445 94.4617 17.7288C93.9285 18.4131 93.2511 18.9503 92.4296 19.3403C91.6081 19.7303 90.6929 19.9253 89.6841 19.9253C88.5023 19.9253 87.4538 19.6714 86.5386 19.1637C85.6235 18.656 84.9065 17.9238 84.3876 16.9672C83.8688 16.0106 83.6094 14.8922 83.6094 13.6118C83.6094 12.3167 83.8652 11.1946 84.3768 10.2454C84.8885 9.29613 85.6055 8.56766 86.5278 8.05993C87.4502 7.5522 88.5023 7.29834 89.6841 7.29834C90.8803 7.29834 91.9324 7.54852 92.8404 8.04889C93.7483 8.54926 94.4509 9.25198 94.9481 10.1571C95.4453 11.0621 95.694 12.1033 95.694 13.2807ZM91.9537 12.7066C91.9681 11.8972 91.7556 11.2902 91.316 10.8854C90.8764 10.4807 90.3324 10.2784 89.6838 10.2784C89.0065 10.2784 88.4444 10.4844 87.9976 10.8965C87.5508 11.3086 87.2986 11.9119 87.241 12.7066H91.9537Z" fill="#1A1A1A"/>
<path fill-rule="evenodd" clip-rule="evenodd" d="M105.271 7.32007C106.655 7.32007 107.753 7.791 108.568 8.73287C109.382 9.67474 109.789 10.9698 109.789 12.6181V19.7704H106.093V13.0596C106.093 12.2354 105.88 11.5916 105.455 11.128C105.03 10.6644 104.464 10.4327 103.758 10.4327C103.008 10.4327 102.414 10.6755 101.974 11.1611C101.535 11.6468 101.315 12.3385 101.315 13.2362V19.7704H97.6182V7.45252H101.315V9.70417C101.661 8.96834 102.176 8.38703 102.861 7.96025C103.545 7.53346 104.349 7.32007 105.271 7.32007Z" fill="#1A1A1A"/>
<path fill-rule="evenodd" clip-rule="evenodd" d="M65.9904 34.0087C65.9904 35.5392 65.6697 36.8969 65.0284 38.0815C64.387 39.2662 63.4647 40.1897 62.2612 40.852C61.0578 41.5142 59.6418 41.8453 58.0133 41.8453H52.2412V26.2383H58.0133C59.6563 26.2383 61.0759 26.562 62.2721 27.2096C63.4683 27.8571 64.387 28.7696 65.0284 29.9469C65.6697 31.1242 65.9904 32.4782 65.9904 34.0087ZM57.6886 38.4678C59.1298 38.4678 60.2503 38.0778 61.0502 37.2978C61.8501 36.5178 62.25 35.4214 62.25 34.0086C62.25 32.5958 61.8501 31.4994 61.0502 30.7194C60.2503 29.9394 59.1298 29.5494 57.6886 29.5494H55.9375V38.4678H57.6886Z" fill="#1A1A1A"/>
<path fill-rule="evenodd" clip-rule="evenodd" d="M79.5455 35.3554C79.5455 35.6644 79.5095 36.0029 79.4374 36.3708H71.0712C71.1144 37.298 71.345 37.9639 71.763 38.3686C72.1809 38.7733 72.7142 38.9757 73.3627 38.9757C73.9104 38.9757 74.3644 38.8359 74.7247 38.5563C75.085 38.2767 75.3228 37.9161 75.4381 37.4746H79.3509C79.1924 38.3429 78.8465 39.1192 78.3133 39.8035C77.78 40.4878 77.1027 41.025 76.2812 41.415C75.4597 41.805 74.5445 42 73.5357 42C72.3539 42 71.3054 41.7461 70.3902 41.2384C69.475 40.7307 68.758 39.9985 68.2392 39.0419C67.7204 38.0853 67.4609 36.9669 67.4609 35.6865C67.4609 34.3914 67.7168 33.2693 68.2284 32.3201C68.74 31.3708 69.457 30.6424 70.3794 30.1346C71.3018 29.6269 72.3539 29.373 73.5357 29.373C74.7319 29.373 75.7839 29.6232 76.6919 30.1236C77.5999 30.624 78.3025 31.3267 78.7997 32.2318C79.2969 33.1368 79.5455 34.178 79.5455 35.3554ZM75.8053 34.7813C75.8197 33.9719 75.6071 33.3649 75.1676 32.9602C74.728 32.5554 74.1839 32.3531 73.5354 32.3531C72.858 32.3531 72.2959 32.5591 71.8492 32.9712C71.4024 33.3833 71.1502 33.9866 71.0925 34.7813H75.8053Z" fill="#1A1A1A"/>
<path fill-rule="evenodd" clip-rule="evenodd" d="M87.0467 38.1587L89.6625 29.5273H93.597L89.3166 41.8452H84.7335L80.4531 29.5273H84.3876L87.0467 38.1587Z" fill="#1A1A1A"/>
<path fill-rule="evenodd" clip-rule="evenodd" d="M94.7871 26.062C94.7871 25.488 94.9889 25.0134 95.3924 24.6381C95.796 24.2628 96.3292 24.0752 96.9922 24.0752C97.6551 24.0752 98.1884 24.2628 98.5919 24.6381C98.9955 25.0134 99.1972 25.488 99.1972 26.062C99.1972 26.6212 98.9955 27.0884 98.5919 27.4637C98.1884 27.839 97.6551 28.0266 96.9922 28.0266C96.3292 28.0266 95.796 27.839 95.3924 27.4637C94.9889 27.0884 94.7871 26.6212 94.7871 26.062ZM98.8293 29.5278V41.8457H95.1326V29.5278H98.8293Z" fill="#1A1A1A"/>
<path fill-rule="evenodd" clip-rule="evenodd" d="M106.827 29.373C108.383 29.373 109.687 29.8109 110.74 30.6865C111.792 31.5622 112.455 32.7652 112.728 34.2958H108.816C108.7 33.766 108.462 33.3539 108.102 33.0596C107.742 32.7652 107.288 32.6181 106.74 32.6181C106.092 32.6181 105.558 32.8793 105.14 33.4017C104.722 33.9242 104.514 34.6858 104.514 35.6865C104.514 36.6872 104.722 37.4488 105.14 37.9713C105.558 38.4937 106.092 38.7549 106.74 38.7549C107.288 38.7549 107.742 38.6078 108.102 38.3134C108.462 38.0191 108.7 37.607 108.816 37.0772H112.728C112.455 38.6078 111.792 39.8109 110.74 40.6865C109.687 41.5622 108.383 42 106.827 42C105.645 42 104.596 41.7461 103.681 41.2384C102.766 40.7307 102.049 39.9985 101.53 39.0419C101.011 38.0853 100.752 36.9669 100.752 35.6865C100.752 34.3914 101.008 33.2693 101.519 32.3201C102.031 31.3708 102.748 30.6424 103.67 30.1346C104.593 29.6269 105.645 29.373 106.827 29.373Z" fill="#1A1A1A"/>
<path fill-rule="evenodd" clip-rule="evenodd" d="M126.111 35.3554C126.111 35.6644 126.075 36.0029 126.003 36.3708H117.637C117.68 37.298 117.91 37.9639 118.328 38.3686C118.746 38.7733 119.28 38.9757 119.928 38.9757C120.476 38.9757 120.93 38.8359 121.29 38.5563C121.65 38.2767 121.888 37.9161 122.003 37.4746H125.916C125.758 38.3429 125.412 39.1192 124.879 39.8035C124.345 40.4878 123.668 41.025 122.847 41.415C122.025 41.805 121.11 42 120.101 42C118.919 42 117.871 41.7461 116.956 41.2384C116.04 40.7307 115.323 39.9985 114.805 39.0419C114.286 38.0853 114.026 36.9669 114.026 35.6865C114.026 34.3914 114.282 33.2693 114.794 32.3201C115.305 31.3708 116.022 30.6424 116.945 30.1346C117.867 29.6269 118.919 29.373 120.101 29.373C121.297 29.373 122.349 29.6232 123.257 30.1236C124.165 30.624 124.868 31.3267 125.365 32.2318C125.862 33.1368 126.111 34.178 126.111 35.3554ZM122.371 34.7813C122.385 33.9719 122.173 33.3649 121.733 32.9602C121.293 32.5554 120.749 32.3531 120.101 32.3531C119.423 32.3531 118.861 32.5591 118.415 32.9712C117.968 33.3833 117.716 33.9866 117.658 34.7813H122.371Z" fill="#1A1A1A"/>
<path fill-rule="evenodd" clip-rule="evenodd" d="M132.423 29.373C133.95 29.373 135.172 29.763 136.087 30.543C137.002 31.323 137.575 32.3532 137.805 33.6335H134.347C134.246 33.1332 134.019 32.7395 133.666 32.4525C133.313 32.1655 132.869 32.0221 132.336 32.0221C131.918 32.0221 131.601 32.114 131.385 32.298C131.169 32.482 131.061 32.7432 131.061 33.0817C131.061 33.4643 131.259 33.7513 131.655 33.9426C132.051 34.1339 132.675 34.3252 133.525 34.5165C134.447 34.7373 135.204 34.9617 135.795 35.1898C136.386 35.4179 136.898 35.7895 137.33 36.3046C137.762 36.8197 137.978 37.5114 137.978 38.3797C137.978 39.0861 137.791 39.7115 137.416 40.256C137.042 40.8006 136.501 41.2274 135.795 41.5364C135.089 41.8455 134.253 42 133.287 42C131.659 42 130.354 41.6321 129.374 40.8962C128.394 40.1604 127.796 39.1081 127.58 37.7395H131.147C131.205 38.2693 131.425 38.674 131.806 38.9536C132.188 39.2332 132.682 39.373 133.287 39.373C133.705 39.373 134.022 39.2737 134.238 39.075C134.455 38.8764 134.563 38.6151 134.563 38.2914C134.563 37.8646 134.365 37.5592 133.968 37.3753C133.572 37.1913 132.927 36.9963 132.033 36.7903C131.14 36.5989 130.405 36.3929 129.828 36.1722C129.252 35.9514 128.755 35.5945 128.337 35.1015C127.919 34.6085 127.71 33.9352 127.71 33.0817C127.71 31.9779 128.121 31.0839 128.942 30.3995C129.764 29.7152 130.924 29.373 132.423 29.373Z" fill="#1A1A1A"/>
</svg>
