<svg width="348" height="346" viewBox="0 0 348 346" fill="none" xmlns="http://www.w3.org/2000/svg">
<rect x="63.0957" y="28.3798" width="30.7883" height="30.7883" fill="#4D4D4D"/>
<rect x="32.1318" y="28.3798" width="30.7883" height="30.7883" fill="#333333"/>
<rect x="1.16797" y="89.781" width="30.7883" height="30.7883" fill="#CCCCCC"/>
<rect x="94.0586" y="28.3796" width="30.7883" height="30.7883" fill="#666666"/>
<path d="M124.847 28.4382H1.16797V16.9291C1.16797 14.2417 3.32957 12.0801 6.01698 12.0801H119.998C122.685 12.0801 124.847 14.2417 124.847 16.9291V28.4382Z" fill="#C8C8C8"/>
<rect x="1.16797" y="59.0511" width="30.7883" height="30.7883" fill="#808080"/>
<rect x="32.1318" y="59.0511" width="30.7883" height="30.7883" fill="#999999"/>
<path fill-rule="evenodd" clip-rule="evenodd" d="M119.94 11.4958C122.978 11.4958 125.373 13.9496 125.373 16.9291V28.4382V28.4966V59.1096C125.373 59.4601 125.081 59.6938 124.789 59.6938H94.0004H93.942H93.8836H63.5042V89.781C63.5042 90.1316 63.2121 90.3652 62.92 90.3652H32.5407V120.511C32.5407 120.861 32.2486 121.095 31.9565 121.095H1.1682C0.817671 121.095 0.583984 120.803 0.583984 120.511V89.781V89.7226V59.1096V59.0512V28.4382V28.3797V16.9291C0.583984 13.8911 3.0377 11.4958 6.01721 11.4958H119.94ZM119.998 12.6058H6.01674C3.67987 12.6058 1.75195 14.5338 1.75195 16.8706V27.7371H32.0144C32.0729 27.7371 32.1897 27.7371 32.2481 27.7955H62.8611C62.9196 27.7371 63.0364 27.7371 63.0948 27.7371H93.8831H93.9415H93.9999H124.262V16.8706C124.262 14.5338 122.335 12.6058 119.998 12.6058ZM31.4302 119.985H1.75195V90.4237H31.4302V119.985ZM1.75195 89.1968H31.4302V59.6938H1.75195V89.1968ZM62.3355 89.3136H32.6572V59.6354H62.3355V89.3136ZM32.541 28.964V58.467H62.5114V28.964H32.541ZM63.6795 58.5838V29.0224H93.3578V58.6422L63.6795 58.5838ZM94.585 29.0223V58.5838L124.263 58.6422V29.0223H94.585Z" fill="#1A1A1A"/>
<path d="M6.36823 24.2902C6.19296 24.2902 6.01769 24.2318 5.90085 24.1149C5.66716 23.8813 5.66716 23.4139 5.90085 23.1802L12.853 16.228C13.0867 15.9943 13.5541 15.9943 13.7878 16.228C14.0215 16.4617 14.0215 16.9291 13.7878 17.1627L6.8356 24.1149C6.71876 24.2318 6.54349 24.2902 6.36823 24.2902Z" fill="#1A1A1A"/>
<path d="M13.3204 24.2902C13.1452 24.2902 12.9699 24.2318 12.853 24.1149L5.90085 17.1627C5.66716 16.9291 5.66716 16.4617 5.90085 16.228C6.13454 15.9943 6.60191 15.9943 6.8356 16.228L13.7878 23.1802C14.0215 23.4139 14.0215 23.8813 13.7878 24.1149C13.6709 24.2318 13.4957 24.2902 13.3204 24.2902Z" fill="#1A1A1A"/>
<path d="M115.149 23.7645L110.768 20.4344L115.149 17.1044V23.7645Z" fill="#1A1A1A"/>
<path d="M119.764 23.7645L115.383 20.4344L119.764 17.1044V23.7645Z" fill="#1A1A1A"/>
<path d="M261.612 115.896C261.203 115.487 260.736 115.136 260.327 114.727C257.055 111.865 253.959 109.236 253.784 104.27C253.55 97.8433 251.213 91.9427 247.124 87.6779C245.488 85.9252 243.735 84.64 241.924 83.2963C239.178 81.2515 236.316 79.1483 233.278 75.1172C225.683 65.3023 216.335 65.8281 212.772 66.0618C206.929 66.4124 200.737 67.9897 194.661 77.1035C192.675 80.0831 190.338 81.7773 188.118 83.4715C185.313 85.5163 182.451 87.6195 180.464 92.0595C179.588 94.0459 179.296 96.3827 178.945 99.0701C178.478 102.868 177.894 107.249 175.499 112.04C174.33 114.318 172.811 116.538 171.351 118.7C167.495 124.425 163.522 130.326 165.216 137.921C165.275 138.213 165.567 138.446 165.859 138.446C165.917 138.446 165.917 138.446 166.034 138.446C166.268 138.388 166.385 138.271 166.502 138.037C169.306 137.395 188.351 133.247 202.781 133.247L204.534 118.291L198.4 103.335L199.802 87.7363C199.802 87.7363 213.064 89.4305 224.222 78.6225C225.215 80.1415 226.618 81.8357 228.545 82.8873L231.7 101.524L223.989 118.758L226.91 133.422C226.91 133.422 249.869 133.188 260.911 133.831L265.41 134.24C265.41 134.532 265.585 134.824 265.877 134.941C266.228 135.058 266.578 134.824 266.695 134.474C267.922 130.267 268.857 122.322 261.612 115.896Z" fill="#1A1A1A"/>
<path d="M224.105 119.109L227.26 133.188H235.089C235.089 133.188 232.226 140.258 224.631 142.478C216.978 144.639 211.545 143.88 211.545 143.88C211.545 143.88 207.046 143.763 201.496 142.01C196.413 140.433 195.303 139.732 187.533 134.824L202.664 133.188L205.177 117.181L224.105 119.109Z" fill="#C8C8C8"/>
<path d="M347.843 280.411C347.084 277.023 342.702 274.686 334.757 273.342C327.337 272.115 316.996 271.823 304.144 272.466C277.679 273.81 243.327 278.951 207.222 286.955C171.176 294.958 137.875 304.89 113.338 314.88C101.362 319.729 92.1894 324.345 85.9383 328.668C79.2782 333.225 76.2987 337.256 77.0581 340.586C77.8176 343.974 82.1993 346.311 90.1446 347.655C90.4367 347.713 90.7288 347.713 91.0794 347.83C95.7531 348.531 101.537 348.882 108.314 348.882C112.17 348.882 116.318 348.765 120.816 348.531C147.281 347.187 181.633 342.046 217.738 334.043C253.784 326.039 287.084 316.107 311.622 306.117C323.598 301.268 332.77 296.653 339.021 292.329C345.565 287.831 348.544 283.8 347.843 280.411Z" fill="#1A1A1A"/>
<path d="M161.068 207.851L162.645 224.151L159.899 265.864L153.239 344.208C172.927 341.696 194.836 337.781 217.328 332.757C249.635 325.571 279.781 316.866 303.325 307.928L297.716 289.408C297.716 289.408 289.42 254.939 286.967 241.736C284.513 228.474 284.221 208.144 284.221 208.144L275.633 189.565L271.719 150.773L270.375 135.233C270.375 135.233 260.969 133.948 254.718 133.714C248.467 133.481 235.147 133.305 235.147 133.305C233.277 138.271 228.954 141.367 223.229 143.12C217.503 144.873 211.603 144.697 208.798 143.821C205.994 142.945 202.956 142.945 197.172 140.608C192.616 139.031 187.65 134.883 187.65 134.883C187.65 134.883 185.138 132.487 182.216 132.137C179.295 131.786 176.725 135.35 176.725 135.35C176.725 135.35 174.213 134.591 172.46 134.649C170.707 134.707 168.546 136.694 168.546 136.694C164.164 133.539 160.776 137.512 159.198 140.842C157.621 144.172 155.459 157.141 156.452 178.173C157.446 199.205 161.068 207.851 161.068 207.851Z" fill="white"/>
<path d="M303.384 308.571C303.092 308.571 302.858 308.395 302.741 308.103C292.751 276.789 287.96 251.668 285.682 236.069C283.228 219.185 283.111 209.546 283.111 209.429C283.111 209.078 283.403 208.786 283.754 208.786C284.104 208.786 284.397 209.078 284.397 209.429C284.397 209.487 284.513 219.068 286.967 235.894C289.246 251.434 294.036 276.497 303.968 307.694C304.085 308.045 303.909 308.395 303.559 308.512C303.501 308.571 303.442 308.571 303.384 308.571Z" fill="#1A1A1A"/>
<path d="M236.374 49.4701V62.4981C236.374 63.3745 237.134 64.134 238.01 64.134C238.886 64.134 239.646 63.3745 239.646 62.4981V49.4701H236.374Z" fill="white"/>
<path fill-rule="evenodd" clip-rule="evenodd" d="M240.99 42.9268H242.801C244.846 42.9268 246.423 44.5627 246.306 46.6074C246.306 48.6522 244.67 50.288 242.625 50.288H240.172V62.4397C240.172 63.6666 239.12 64.7182 237.893 64.7182C236.666 64.7182 235.615 63.725 235.615 62.4397V50.288H232.869C230.824 50.288 229.188 48.6522 229.188 46.6074C229.188 44.5627 230.824 42.9268 232.869 42.9268H234.68L235.615 34.0467C235.79 32.8199 236.725 31.8851 237.835 31.8851C239.003 31.8851 239.938 32.8199 240.055 34.0467L240.99 42.9268ZM238.01 63.4913C238.594 63.4913 239.003 63.024 239.003 62.4982V50.3464H237.017V62.4982C237.017 63.0824 237.426 63.4913 238.01 63.4913Z" fill="#1A1A1A"/>
<path d="M235.79 35.5073C235.79 35.5073 233.512 30.8335 233.745 20.5513C233.979 10.2691 238.653 4.95269 244.203 2.67424C249.753 0.395793 259.042 -0.714221 269.733 3.0832C280.424 6.88061 288.895 10.7364 302.333 26.6272C315.77 42.5179 319.859 63.4913 321.32 70.3267C322.722 77.2204 325.468 105.964 322.43 125.068C319.392 144.172 310.57 154.921 310.57 154.921C310.57 154.921 293.336 138.446 274.699 135.759C274.699 135.759 283.112 132.896 288.311 123.783C293.569 114.61 295.614 101.407 295.263 86.8016C294.913 72.1962 290.707 55.3707 286.675 46.8995C282.644 38.37 271.311 24.9914 260.853 22.7129C260.853 22.7129 254.543 19.0323 247.241 29.6651C239.938 40.2979 240.172 37.0847 240.172 37.0847C240.172 37.0847 239.062 36.2083 240.405 31.5346C241.691 26.8609 244.787 19.7334 241.808 19.5581C238.886 19.3245 239.529 32.9951 238.653 34.8062C237.66 36.6757 235.79 35.5073 235.79 35.5073Z" fill="#C8C8C8"/>
<path d="M239.529 6.47155C239.529 6.47155 244.086 7.34788 250.863 5.59523C257.64 3.84257 269.383 5.18627 282.469 14.1248C295.556 23.0633 312.79 40.2978 317.347 73.2477C321.904 106.198 319.392 132.838 306.89 151.767C306.89 151.767 309.519 155.681 310.161 155.272C310.804 154.863 315.653 148.553 319.567 135.408C323.423 122.264 324.591 104.386 323.949 92.9358C323.306 81.5435 322.079 54.6111 304.494 29.1976C288.662 6.35471 261.613 0.278844 254.076 0.863062C246.423 1.38886 242.626 3.43362 239.529 6.47155Z" fill="white"/>
<path d="M234.388 13.7743C234.388 13.7743 224.982 30.1324 226.618 31.7682C228.254 33.404 233.512 25.5755 233.512 25.5755L234.388 13.7743Z" fill="#C8C8C8"/>
<path d="M236.9 7.93213C236.9 7.93213 229.305 13.0148 225.858 15.7022C222.353 18.3896 220.366 20.376 221.126 21.4276C221.944 22.5376 226.851 19.7333 226.851 19.7333C226.851 19.7333 233.336 11.7295 233.628 11.4959C233.92 11.3206 236.9 7.93213 236.9 7.93213Z" fill="#C8C8C8"/>
<path d="M235.965 10.678L233.103 16.0528L229.773 22.2455L228.195 25.8676C228.195 25.8676 223.229 29.665 222.82 28.0292C222.412 26.4518 224.982 22.1871 224.982 22.1871L230.298 15.4101L235.147 10.0938L235.965 10.678Z" fill="#C8C8C8"/>
<path fill-rule="evenodd" clip-rule="evenodd" d="M309.577 35.6825C315.419 45.9647 319.625 57.7075 322.079 70.5019C324.533 83.4131 325.292 97.7849 324.124 113.442C323.656 121.621 321.962 133.773 316.996 145.106C313.958 151.942 311.213 155.155 311.096 155.272C310.92 155.447 310.745 155.506 310.57 155.506C310.453 155.506 310.278 155.447 310.161 155.33C309.927 155.097 309.869 154.688 310.103 154.396C310.161 154.396 312.907 151.182 315.828 144.522C318.515 138.388 321.962 127.989 322.838 113.383C323.773 97.9017 323.014 83.5884 320.56 70.8524C318.106 58.1749 313.958 46.6074 308.175 36.442C297.191 17.1628 278.672 6.23793 266.169 2.73262C260.561 1.15523 254.134 1.03839 248.584 2.38209C244.203 3.43368 240.697 5.30318 238.361 7.81531C238.298 7.92343 238.218 8.05935 238.123 8.22112C237.602 9.1083 236.625 10.7733 235.439 12.898C233.044 20.3176 234.271 31.7682 236.141 35.0399C236.491 35.5657 236.666 35.6825 236.725 35.6825C237.669 35.1828 238.032 31.5165 238.317 28.6463L238.317 28.6463L238.361 28.2045C238.711 24.2318 239.062 20.4928 240.581 19.3244C240.99 18.9739 241.515 18.857 242.041 18.9155C242.509 18.9739 242.976 19.266 243.21 19.6749C244.144 21.0771 243.268 24.115 241.807 28.9056C241.165 30.8919 240.522 32.9951 240.23 34.5725C239.841 36.5744 240.246 36.9355 240.336 37.016L240.336 37.016C240.338 37.0182 240.341 37.0203 240.343 37.0221C240.344 37.0236 240.346 37.0249 240.347 37.0262C241.15 37.3705 242.799 34.8969 244.297 32.6498L244.378 32.5277C247.007 28.555 250.571 23.1802 255.537 22.0118C263.54 20.0839 280.658 31.3593 288.779 50.3464C288.808 50.3756 288.837 50.4193 288.866 50.4631L288.866 50.4632L288.866 50.4633C288.895 50.5071 288.925 50.5509 288.954 50.5801L288.993 50.6572L289.048 50.7666L289.048 50.7668C290.638 53.9233 307.649 87.6889 305.487 99.0117C304.915 102.044 303.222 103.508 301.121 105.323L300.989 105.438C298.301 107.717 294.971 110.579 291.758 117.707C290.005 122.439 286.734 128.924 280.833 133.13C277.269 135.642 274.465 136.168 274.348 136.168C273.998 136.226 273.647 135.993 273.589 135.642C273.53 135.292 273.764 134.941 274.115 134.883C274.173 134.883 276.802 134.415 280.132 132.02C283.229 129.858 287.727 125.418 290.473 117.415C291.408 114.669 292.576 110.053 293.335 106.256C296.023 90.4237 294.445 70.2682 288.837 54.319C285.624 45.1468 279.84 36.6757 272.537 30.483C266.345 25.225 259.801 22.4208 255.829 23.3555C251.389 24.4655 248.117 29.3729 245.488 33.3456C243.619 36.2083 242.158 38.4283 240.581 38.4283C240.347 38.4283 240.055 38.3699 239.821 38.2531C237.848 37.3245 239.045 33.4559 240.55 28.5943L240.581 28.4966L240.655 28.2556C241.581 25.2463 242.784 21.3416 242.158 20.3176C242.1 20.2007 242.041 20.1423 241.924 20.1423C241.749 20.0839 241.632 20.1423 241.515 20.2592C240.464 21.0771 240.055 25.0497 239.763 28.2045C239.354 32.3525 239.003 35.8578 237.426 36.7341C236.842 37.0262 236.199 36.9094 235.673 36.3836C234.388 35.0983 233.512 31.2424 233.103 27.445C229.439 32.5402 227.963 32.6986 227.41 32.7579L227.377 32.7614H227.26C226.851 32.7614 226.443 32.5862 226.15 32.2356C225.683 31.7098 225.449 30.7167 226.793 27.2698C225.625 28.1461 224.281 28.964 223.288 28.964C223.171 28.964 223.054 28.964 222.937 28.9056C222.47 28.7887 222.178 28.4966 222.061 28.0293C221.827 27.2113 221.944 25.7508 224.573 21.9534C223.755 22.3623 222.82 22.6544 222.002 22.6544C221.71 22.6544 221.477 22.596 221.243 22.5376C220.717 22.3623 220.308 21.9534 220.133 21.4276C219.782 20.376 220.542 18.6233 228.604 12.7812C232.986 9.62639 237.484 6.7053 237.543 6.7053C237.572 6.7053 237.601 6.69069 237.63 6.67609C237.66 6.66148 237.689 6.64688 237.718 6.64688L237.776 6.58846L237.835 6.53004C237.835 6.47161 237.893 6.47161 237.893 6.47161C237.893 6.41319 237.952 6.41319 237.952 6.41319H238.01C240.522 3.84263 244.086 1.97314 248.526 0.921544C254.251 -0.422157 260.911 -0.305313 266.754 1.3305C279.548 4.89423 298.418 16.0528 309.577 35.6825ZM221.651 21.3107C222.586 21.6029 224.865 20.4928 226.267 19.5581C226.325 19.4997 226.384 19.4997 226.442 19.4997C227.318 18.3312 228.312 17.1044 229.538 15.6438L229.539 15.6437C231.057 13.8911 232.576 12.1385 233.92 10.678C232.576 11.5543 231.057 12.6059 229.597 13.6575C221.71 19.3828 221.359 20.8434 221.359 21.0186C221.418 21.1939 221.476 21.2523 221.651 21.3107ZM223.346 27.6787C223.229 27.2113 223.346 25.0497 230.532 16.5202C231.934 14.8843 233.336 13.307 234.563 11.9633C234.534 12.0217 234.519 12.0801 234.505 12.1385C234.49 12.1969 234.476 12.2554 234.446 12.3138C233.78 13.4607 233.091 14.7247 232.378 16.0317L232.378 16.0319C231.965 16.7887 231.545 17.56 231.116 18.3312C229.831 20.7265 228.779 22.8881 227.961 24.6992H227.903C225.917 26.5103 223.872 27.7371 223.346 27.6787ZM233.044 25.4002V25.3418C232.868 22.3623 232.985 19.4996 233.336 16.9291C233.19 17.2212 233.029 17.5133 232.868 17.8054C232.708 18.0975 232.547 18.3896 232.401 18.6817C226.617 29.665 227.143 31.2424 227.202 31.3593C227.26 31.4177 227.318 31.4177 227.377 31.4177C228.136 31.3593 230.006 29.7819 233.044 25.4002Z" fill="#1A1A1A"/>
<path d="M261.262 124.717C260.911 124.717 260.619 124.484 260.619 124.133C260.444 120.686 257.815 118.583 255.069 116.363C253.959 115.487 252.849 114.61 251.914 113.617C248.584 110.112 248.409 104.387 248.409 104.153C248.409 103.802 248.701 103.51 249.052 103.452C249.402 103.452 249.694 103.744 249.753 104.094C249.753 104.153 249.928 109.586 252.908 112.682C253.784 113.617 254.836 114.435 255.946 115.311C258.808 117.59 261.729 119.985 261.963 124.016C261.905 124.425 261.613 124.717 261.262 124.717Z" fill="#C8C8C8"/>
<path d="M254.543 124.016C254.193 124.016 253.901 123.783 253.901 123.432C253.901 123.315 253.667 120.861 250.746 119.167C245.605 116.188 246.364 111.572 246.423 111.339C246.481 110.988 246.832 110.754 247.182 110.813C247.533 110.871 247.766 111.222 247.708 111.572C247.708 111.748 247.065 115.545 251.389 117.999C254.952 120.044 255.186 123.198 255.186 123.315C255.244 123.724 254.952 124.016 254.543 124.016C254.543 124.016 254.602 124.016 254.543 124.016Z" fill="#C8C8C8"/>
<path d="M159.608 139.381C159.608 139.381 156.862 145.34 156.394 165.262C155.927 185.184 158.848 202.477 158.848 202.477C158.848 202.477 154.058 195.057 145.177 192.311C136.297 189.565 117.252 183.022 105.217 174.259C93.182 165.554 84.4188 158.719 78.1676 142.828C71.9165 126.996 72.5007 101.524 74.2534 93.9874C74.2534 93.9874 72.3839 89.781 72.267 87.2689C72.267 87.2689 68.7617 93.8706 67.5933 92.9358C66.4248 92.0011 67.418 88.4958 68.1775 86.042C68.8786 83.5883 69.9886 79.0898 72.6176 79.7325C72.6176 79.7325 74.0197 75.8182 75.5971 75.5845C77.1744 75.3509 78.5182 76.4609 78.5182 76.4609C78.5182 76.4609 79.745 74.4745 81.4392 75.0003C83.1335 75.5261 85.3535 77.0451 85.3535 77.0451C85.3535 77.0451 84.3603 62.6149 86.113 62.5565C87.8656 62.4981 88.5667 66.1202 89.3846 68.4571C90.2025 70.794 92.6562 82.7704 92.6562 82.7704C92.6562 82.7704 97.5052 73.3645 98.8489 75.1172C100.134 76.8698 97.6805 83.2378 97.6805 83.2378C97.6805 83.2378 93.3573 100.764 94.4089 113.033C95.4605 125.301 98.4984 134.357 105.042 141.543C111.585 148.729 118.712 149.547 126.366 148.612C134.019 147.677 144.476 144.289 144.476 144.289L159.608 139.381Z" fill="#C8C8C8"/>
<path d="M159.607 139.381L144.418 144.347C144.418 144.347 124.262 151.767 112.578 146.625C100.893 141.484 94.8176 126.236 94.1749 114.026C93.5323 101.816 96.2197 89.8395 96.2197 89.8395C96.2197 89.8395 92.7728 91.709 91.8381 97.7848C91.0202 103.101 89.9686 113.383 94.0581 130.91C96.1028 139.732 92.5975 142.828 91.137 146.1C89.5596 149.547 91.137 153.052 100.543 153.987C107.787 154.688 115.207 153.753 120.231 152.701C141.847 148.261 148.273 145.632 158.789 142.127L159.607 139.381Z" fill="white"/>
<path fill-rule="evenodd" clip-rule="evenodd" d="M233.161 183.431L240.697 188.923C240.814 189.04 240.872 189.215 240.931 189.507C240.872 189.624 240.697 189.624 240.58 189.565L232.985 184.132L229.246 181.328C228.633 180.861 228.005 180.393 227.377 179.926C226.749 179.458 226.121 178.991 225.507 178.524C220.6 174.668 215.809 170.754 211.136 166.606C210.8 166.306 210.455 166.001 210.105 165.692L210.103 165.69L210.103 165.69L210.102 165.69C209.294 164.976 208.463 164.243 207.689 163.509C207.134 162.984 206.564 162.443 205.995 161.903C205.425 161.362 204.855 160.822 204.3 160.296L200.97 157.025L200.561 156.616L200.152 156.207L199.334 155.33L197.699 153.636C197.173 153.11 196.647 152.526 196.121 151.942L196.121 151.942L194.544 150.189C194.232 149.878 193.942 149.525 193.647 149.169L193.647 149.168L193.647 149.168C193.444 148.923 193.239 148.675 193.025 148.437C192.499 147.852 191.973 147.21 191.506 146.625L190.045 144.814L188.643 142.945C188.293 142.516 187.994 142.088 187.696 141.66C187.546 141.445 187.397 141.231 187.241 141.017L186.891 140.491C186.54 142.711 186.19 145.691 186.073 149.839C186.19 150.15 186.358 150.462 186.527 150.773L186.527 150.774C186.612 150.929 186.696 151.085 186.774 151.241C186.92 151.504 187.066 151.752 187.212 152C187.358 152.249 187.504 152.497 187.65 152.76C187.864 153.091 188.072 153.422 188.28 153.753C188.695 154.415 189.111 155.077 189.578 155.739C190.922 157.667 192.382 159.537 193.901 161.348C195.479 163.1 197.056 164.853 198.75 166.547C198.954 166.752 199.173 166.956 199.392 167.16L199.393 167.161L199.394 167.161C199.612 167.366 199.831 167.57 200.036 167.774L201.321 169.001C201.764 169.389 202.194 169.777 202.617 170.158L202.618 170.159L202.62 170.161C203.088 170.583 203.548 170.998 204.008 171.396C207.63 174.551 211.428 177.414 215.342 180.101C219.315 182.789 223.346 185.301 227.552 187.579C227.611 187.696 227.669 187.813 227.611 187.93C227.552 187.988 227.435 188.046 227.318 187.988C223.112 185.768 218.964 183.314 214.991 180.685C211.019 178.056 207.163 175.194 203.482 172.097C203.046 171.719 202.595 171.326 202.144 170.934L202.139 170.929L202.133 170.924C201.682 170.531 201.231 170.139 200.795 169.76L199.451 168.534C199.247 168.329 199.028 168.125 198.809 167.92C198.59 167.716 198.37 167.511 198.166 167.307C196.472 165.613 194.778 163.918 193.2 162.107C191.623 160.296 190.104 158.427 188.702 156.44C188.001 155.447 187.358 154.454 186.715 153.402C186.544 153.188 186.404 152.942 186.272 152.711C186.224 152.627 186.178 152.545 186.131 152.468C186.131 155.506 186.19 159.011 186.365 163.1L187.416 165.554C187.66 166.006 187.883 166.479 188.109 166.96L188.109 166.96C188.263 167.287 188.419 167.618 188.585 167.949C189.344 169.527 190.221 171.104 191.155 172.623C193.025 175.661 195.07 178.582 197.407 181.328C199.743 184.015 202.256 186.586 205.06 188.806L205.586 189.215C205.761 189.39 205.936 189.507 206.111 189.624L207.163 190.442L208.273 191.201L208.799 191.552L209.383 191.902L210.493 192.603L211.661 193.304L212.246 193.655L212.83 193.947L214.057 194.531C214.174 194.59 214.232 194.765 214.174 194.94C214.115 195.057 213.94 195.116 213.765 195.057L212.538 194.473L211.954 194.181L211.369 193.83L210.142 193.188L208.974 192.487L208.39 192.136L207.806 191.785L206.696 191.026L205.586 190.208C205.41 190.033 205.235 189.916 205.06 189.799L205.06 189.799L204.534 189.39C201.671 187.17 199.042 184.658 196.647 181.912C194.252 179.166 192.09 176.245 190.162 173.149C189.227 171.63 188.351 170.053 187.475 168.417C187.183 167.891 186.891 167.307 186.599 166.723C186.891 171.221 187.3 176.245 187.942 181.971C187.942 182.321 187.709 182.613 187.358 182.672H187.3C187.007 182.672 186.715 182.438 186.657 182.087C185.021 167.424 184.671 157.083 184.904 149.955V149.78C185.08 144.581 185.547 141.075 186.073 138.739C186.073 138.622 186.073 138.505 186.131 138.446C186.54 136.635 186.949 135.584 187.241 135C185.722 133.714 184.203 133.13 182.626 133.188C179.938 133.305 177.952 135.35 177.66 135.701C177.66 135.716 177.656 135.728 177.649 135.738C177.644 135.746 177.637 135.752 177.631 135.759C177.616 135.774 177.602 135.788 177.602 135.817C177.579 135.862 177.565 135.898 177.554 135.929C177.535 135.979 177.521 136.015 177.485 136.051C177.426 136.168 177.368 136.285 177.309 136.46C177.193 136.752 177.076 137.044 176.959 137.395C176.842 137.687 176.725 137.979 176.667 138.33C176.643 138.401 176.619 138.47 176.596 138.538C176.505 138.802 176.421 139.044 176.375 139.323L176.141 140.316C176.049 140.546 175.993 140.849 175.945 141.11C175.932 141.18 175.92 141.247 175.907 141.309C175.849 141.601 175.79 141.952 175.732 142.302L175.557 143.354L175.382 144.405L175.265 145.457L175.148 146.509C175.148 146.684 175.133 146.859 175.119 147.034L175.119 147.034C175.104 147.21 175.089 147.385 175.089 147.56C175.031 148.203 174.973 148.904 174.973 149.605L174.914 151.65V153.694V155.739L174.973 157.784L175.031 158.836C175.031 159.011 175.046 159.186 175.06 159.361L175.06 159.362C175.075 159.537 175.089 159.712 175.089 159.887C175.148 160.588 175.192 161.275 175.235 161.961C175.279 162.648 175.323 163.334 175.382 164.035L175.79 168.183C175.849 168.358 175.674 168.475 175.498 168.534C175.323 168.592 175.148 168.417 175.148 168.242L174.68 164.094C174.564 162.75 174.447 161.348 174.33 159.946C174.33 159.77 174.315 159.595 174.301 159.42L174.301 159.42C174.286 159.244 174.272 159.069 174.272 158.894L174.213 157.842L174.096 155.739L174.038 153.636V151.533V149.43C174.038 149.079 174.052 148.729 174.067 148.379L174.067 148.378C174.082 148.028 174.096 147.677 174.096 147.327C174.096 147.151 174.111 146.976 174.125 146.801L174.125 146.801C174.14 146.625 174.155 146.45 174.155 146.275L174.213 145.223L174.272 144.172C174.301 143.996 174.315 143.821 174.33 143.646C174.345 143.471 174.359 143.295 174.388 143.12L174.505 142.069L174.68 141.017L174.856 139.965L175.089 138.914L175.089 138.914C175.206 138.563 175.323 138.213 175.382 137.862C175.44 137.512 175.557 137.161 175.674 136.811L176.024 135.759C176.053 135.73 176.068 135.686 176.083 135.642C176.097 135.598 176.112 135.555 176.141 135.525C176.057 135.508 175.973 135.492 175.891 135.475L175.891 135.475C175.404 135.376 174.947 135.283 174.447 135.233C173.629 135.175 172.811 135.175 172.051 135.408C171.292 135.584 170.591 135.993 170.065 136.518C169.773 136.811 169.539 137.103 169.364 137.453C169.335 137.541 169.291 137.629 169.247 137.716C169.203 137.804 169.16 137.891 169.13 137.979C169.072 138.037 169.014 138.154 169.014 138.213C169.014 138.242 168.999 138.286 168.984 138.33C168.97 138.373 168.955 138.417 168.955 138.446V138.505C167.728 142.77 167.144 147.151 166.852 151.591C166.56 156.031 166.618 160.471 166.794 164.911C166.969 169.352 167.378 173.792 167.845 178.232C168.312 182.613 168.897 187.053 169.539 191.493C169.598 191.727 169.422 191.902 169.247 191.902C169.014 191.961 168.838 191.785 168.838 191.61C168.137 187.229 167.553 182.789 167.027 178.348C166.501 173.908 166.034 169.468 165.8 164.97C165.567 160.53 165.508 156.031 165.742 151.533C166.034 147.093 166.56 142.594 167.787 138.213C167.816 138.154 167.831 138.096 167.845 138.037C167.86 137.979 167.874 137.921 167.904 137.862C167.933 137.804 167.947 137.745 167.962 137.687C167.977 137.629 167.991 137.57 168.02 137.512C168.064 137.338 168.139 137.197 168.223 137.04L168.223 137.04C168.252 136.985 168.282 136.929 168.312 136.869C165.684 134.707 162.178 138.213 162.12 138.271C159.841 140.608 157.621 145.749 157.388 167.599C157.212 182.146 158.381 192.253 159.432 198.153C159.958 201.25 160.542 203.528 160.951 205.106C161.243 205.865 161.536 206.741 161.769 207.676V207.735V207.793V207.851C162.47 210.422 163.989 217.842 163.405 229.643C162.888 239.603 161.578 256.818 161.085 263.299C160.965 264.877 160.893 265.819 160.893 265.864L154.583 344.5H154.525C154.291 344.5 154.058 344.5 153.824 344.558C153.765 344.558 153.59 344.617 153.649 344.617C153.596 344.617 153.544 344.629 153.486 344.642C153.415 344.658 153.336 344.675 153.24 344.675L159.549 265.689C159.549 265.659 159.605 264.924 159.702 263.666L159.702 263.666L159.702 263.663C160.161 257.661 161.53 239.762 162.061 229.526C162.762 216.381 160.601 208.611 160.25 207.384C160.075 206.975 159.841 206.274 159.608 205.339C156.113 196.486 147.335 193.498 136.398 189.775L136.297 189.741C129.988 187.638 122.86 185.242 115.791 181.328C101.069 173.207 90.6699 164.619 84.1267 154.98C77.7587 145.632 75.4803 136.11 74.1366 128.047C71.2739 110.871 73.6692 95.2727 73.9613 93.6369C73.2602 92.819 72.7929 91.2416 72.4423 88.8463C71.4492 90.7158 69.8718 93.1695 68.5865 93.6369C68.4112 93.6953 68.236 93.6953 68.0607 93.6953H68.0607C67.827 93.6953 67.5933 93.6369 67.4765 93.5785C67.126 93.4616 66.8923 93.1111 66.7754 92.7022C66.0159 90.1316 69.1707 81.4852 69.8134 80.3752C70.2807 79.6157 70.865 79.1483 71.566 78.973C72.0334 78.8562 72.4423 78.9146 72.7929 78.973C73.2602 76.9867 73.9613 75.7598 74.9545 75.234C75.8308 74.7667 76.6487 74.7082 77.4082 74.9419C77.8756 75.1172 78.2845 75.4093 78.5182 75.643C78.6935 75.3509 78.9856 75.1172 79.2193 74.9419C81.1472 73.4814 83.5425 74.8835 84.9446 75.9935C84.7693 74.8251 84.6525 73.5398 84.5941 72.2545C84.0099 63.725 85.003 62.206 86.113 61.8555C86.3467 61.797 86.7557 61.797 87.1646 62.0307C87.9825 62.4981 89.2678 64.2507 91.3126 73.5398C91.8437 76.0507 92.2951 78.4818 92.6336 80.3053L92.6336 80.3055L92.6337 80.3058L92.634 80.3074C92.7049 80.6894 92.7708 81.0446 92.8315 81.3683C93.3573 80.1415 94 78.9146 94.701 77.863C95.6358 76.4609 97.4469 74.124 98.9074 74.3577C99.1411 74.4161 99.3748 74.5914 99.4916 74.7667C100.017 75.5262 99.6669 77.6293 98.3816 83.8805C97.0963 90.1316 95.3437 98.778 95.11 106.548C94.8763 114.435 95.5774 120.745 97.3884 126.236C99.55 132.721 103.231 138.33 108.722 143.412C118.128 152.176 136.239 146.45 152.246 141.368C154.817 140.55 157.271 139.79 159.666 139.089C160.112 138.42 160.559 137.91 160.954 137.459L161.01 137.395C162.529 135.817 166.092 133.597 168.955 135.817L169.072 135.701C169.773 135 170.649 134.474 171.584 134.24C172.519 134.006 173.454 133.948 174.388 134.006C175.206 134.065 175.966 134.24 176.725 134.415L176.725 134.415C177.426 133.656 179.529 131.786 182.334 131.669C184.262 131.553 186.131 132.254 187.825 133.773C194.953 132.955 200.62 132.663 202.372 132.604L204.242 115.72C204.242 115.37 204.592 115.078 204.943 115.136C205.293 115.136 205.586 115.487 205.527 115.837L203.541 133.305C203.482 133.656 203.249 133.89 202.898 133.89C202.84 133.89 196.998 134.123 189.052 134.941C190.396 136.051 193.259 138.154 197.465 140.024C202.898 142.478 211.837 144.873 223.229 142.711C228.136 141.718 233.453 137.161 234.446 133.13C234.504 132.779 234.855 132.604 235.205 132.663C235.556 132.721 235.731 133.072 235.673 133.422C234.563 137.979 228.837 142.886 223.404 143.938C220.191 144.581 217.153 144.814 214.349 144.814C206.871 144.814 200.853 143.003 196.764 141.192C194.427 140.141 192.499 139.031 190.98 138.037L191.116 138.193C191.469 138.597 191.786 138.96 192.149 139.323C193.609 140.842 195.128 142.302 196.705 143.704C199.86 146.509 203.307 149.021 206.871 151.299C210.435 153.578 214.232 155.564 218.088 157.258C222.002 158.952 226.033 160.413 230.123 161.523C230.24 161.581 230.356 161.757 230.298 161.874C230.24 161.99 230.064 162.107 229.947 162.049C225.8 160.939 221.768 159.595 217.796 157.901C213.881 156.207 210.026 154.22 206.403 152C202.723 149.722 199.276 147.21 196.004 144.405C194.427 143.062 192.85 141.601 191.331 140.024C190.571 139.264 189.812 138.505 189.111 137.687L188.059 136.46L187.65 135.993C187.632 136.048 187.612 136.106 187.591 136.168L187.591 136.168L187.591 136.168C187.414 136.694 187.158 137.453 186.949 138.446L187.124 138.68L187.416 139.147L188.059 140.082C188.353 140.45 188.624 140.84 188.9 141.239L188.9 141.239C189.064 141.475 189.229 141.713 189.403 141.952L190.805 143.821L192.265 145.632C192.733 146.275 193.2 146.859 193.726 147.443C193.989 147.735 194.237 148.028 194.485 148.32C194.734 148.612 194.982 148.904 195.245 149.196L196.822 150.949C197.348 151.474 197.874 152.058 198.399 152.643L198.4 152.643L199.977 154.337L200.737 155.213L201.146 155.622L201.554 156.031L204.826 159.303C205.936 160.355 207.046 161.406 208.156 162.516C208.981 163.341 209.837 164.101 210.702 164.868C211.002 165.134 211.302 165.4 211.603 165.671C216.16 169.877 220.951 173.792 225.8 177.706C227.026 178.699 228.253 179.634 229.48 180.568L229.48 180.569L233.161 183.431ZM72.0338 86.5679C71.9169 84.64 72.0338 82.5368 72.2675 80.7841C72.2675 80.6089 72.3259 80.492 72.3843 80.3752C71.508 80.1415 70.9822 80.901 70.8069 81.1931C70.5148 81.7189 69.5217 84.3479 68.7622 87.0353C67.5353 91.3585 67.8858 92.4101 67.9443 92.5853C68.0611 92.5853 68.7622 92.3516 70.3396 89.7811C70.8507 88.8683 71.3163 87.9554 71.6363 87.3279L71.6364 87.3278L71.6364 87.3277L71.6365 87.3276C71.8285 86.9512 71.9681 86.6774 72.0338 86.5679ZM73.4359 88.0868C72.9101 83.5299 73.6696 77.3372 75.3639 76.4609C76.7619 75.7339 77.4105 76.5592 77.6684 76.8874L77.7007 76.9282C76.6491 79.6156 76.9997 83.822 77.2918 86.1004V86.1589C76.5907 89.4889 75.656 92.6437 75.1302 93.1111C75.0718 93.1111 74.9549 93.1111 74.8965 93.0526C74.6044 92.819 73.9033 91.9426 73.4359 88.0868ZM158.206 200.607C156.921 194.239 155.577 183.49 155.752 167.54C155.928 151.416 157.213 144.289 158.44 140.491C156.453 141.075 154.409 141.718 152.247 142.419C142.198 145.632 131.274 149.079 122.043 149.079C116.318 149.079 111.235 147.735 107.437 144.23C101.771 139.031 97.9731 133.188 95.7531 126.528C93.942 120.861 93.1825 114.435 93.4162 106.373C93.6439 98.6901 95.3683 90.2313 96.6454 83.9664C96.6794 83.7999 96.713 83.6349 96.7463 83.4715C97.4473 80.083 98.1484 76.6361 98.09 75.5261C96.9215 76.0519 93.5331 80.492 92.131 86.2173C92.0725 86.451 91.8973 86.6263 91.722 86.6847C91.6636 86.6847 84.8282 89.6058 84.4193 94.6885C84.4193 95.039 84.0687 95.2727 83.7182 95.2727C83.3677 95.2727 83.134 94.9221 83.134 94.5716C83.5429 89.3137 89.502 86.2757 90.9625 85.5747L90.9625 85.5746C91.1378 84.9319 91.3131 84.2893 91.5467 83.5883C91.5467 83.5299 90.7288 78.5056 89.6188 73.4229C87.6325 64.3676 86.4056 63.1991 86.1719 63.0823C85.9967 63.1991 85.0619 64.3091 85.5877 72.0792C85.8398 75.9608 86.3528 79.7989 86.4888 80.8161C86.5104 80.9778 86.5225 81.0682 86.5225 81.0762C86.5809 81.4267 86.3472 81.7772 85.9967 81.8357C85.6461 81.8941 85.2956 81.6604 85.2372 81.3099C85.2372 81.2791 85.1885 80.8748 85.1082 80.2084C85.0362 79.6108 84.9387 78.8022 84.8282 77.863C84.4193 77.3956 81.4982 74.5914 79.6871 75.9351C78.8108 76.6361 78.2266 78.4472 78.1681 81.0762C78.1097 83.4131 78.4018 85.9836 78.6939 87.4442C79.2197 90.2484 80.0961 91.7089 80.505 91.9426C81.3229 91.0079 82.2577 84.8152 82.024 79.2067C82.024 78.8562 82.3161 78.5056 82.6666 78.5056C83.0172 78.5056 83.3677 78.7977 83.3677 79.1483C83.5429 81.8941 83.3677 85.2241 82.9587 88.0284C82.2577 92.9942 81.2645 93.1695 80.8555 93.2279H80.6219C79.395 93.2279 78.4018 91.3 77.8176 89.1968C77.7884 89.3137 77.7592 89.4451 77.73 89.5766C77.7008 89.708 77.6716 89.8395 77.6423 89.9563C76.6492 93.6953 76.0065 94.1042 75.4807 94.2795C75.3055 94.3379 75.1886 94.3379 75.0134 94.3379H74.9549C74.4876 97.3759 72.5012 111.923 75.1886 127.872C77.9929 144.522 83.4261 162.224 116.142 180.218C123.153 184.074 130.222 186.469 136.473 188.572C145.821 191.727 153.708 194.414 158.206 200.607Z" fill="#1A1A1A"/>
<circle cx="217.27" cy="237.88" r="63.5629" fill="#C8C8C8"/>
<path d="M153.707 237.88C153.707 260.314 165.333 280.061 182.859 291.336C183.619 289.291 184.145 287.13 185.372 285.319C188.059 281.288 193.259 280.061 197.874 278.483C202.431 276.906 207.397 273.751 207.572 268.902C207.922 260.373 193.901 257.452 193.025 248.98C192.499 244.015 196.822 240.1 199.919 236.186C204.768 230.11 206.812 220.237 200.97 215.154C196.647 211.357 190.104 211.941 184.787 209.838C174.564 205.631 176.608 197.686 176.024 189.507C162.412 201.075 153.707 218.484 153.707 237.88Z" fill="#747474"/>
<path d="M280.833 237.88C280.833 221.113 274.348 205.865 263.715 194.531C258.107 194.765 252.206 198.446 249.168 202.944C245.254 208.786 244.378 216.147 244.261 223.158C244.144 230.169 244.67 237.355 243.034 244.19C241.632 249.915 238.828 255.232 237.835 261.074C236.783 266.858 238.185 273.751 243.268 276.731C245.838 278.308 248.993 278.542 251.797 279.535C254.66 280.528 257.523 282.748 257.581 285.728C257.581 286.137 257.523 286.604 257.523 287.013C271.719 275.446 280.833 257.685 280.833 237.88Z" fill="#747474"/>
<path d="M272.654 206.683C268.097 206.8 263.014 208.903 259.684 211.24C258.107 212.35 256.588 213.752 255.712 215.505C255.011 216.965 254.719 218.543 254.602 220.179C254.193 225.086 254.777 230.052 254.835 234.959C254.894 239.867 254.31 245.008 251.739 249.214C250.395 251.434 248.526 253.245 247.299 255.524C246.072 257.802 245.663 260.782 247.241 262.826C249.052 265.222 252.557 265.339 255.42 264.696C258.341 264.112 261.262 262.943 264.183 263.586C267.454 264.345 269.85 267.266 272.771 268.844C277.912 259.672 280.833 249.097 280.833 237.822C280.833 226.547 277.854 215.855 272.654 206.683Z" fill="white"/>
<path d="M222.47 178.874C237.251 178.874 250.804 183.899 261.612 192.37C250.162 181.211 234.505 174.318 217.27 174.318C194.311 174.318 174.213 186.469 163.055 204.697C162.938 204.931 162.821 205.106 162.646 205.339C162.587 205.515 162.471 205.69 162.354 205.807C162.237 206.041 162.12 206.216 162.003 206.449C161.886 206.625 161.828 206.8 161.711 206.975C161.536 207.326 161.361 207.676 161.127 208.027C161.069 208.202 160.952 208.377 160.835 208.553C160.718 208.786 160.601 208.962 160.484 209.195C160.426 209.371 160.309 209.546 160.192 209.78C160.017 210.13 159.842 210.422 159.725 210.773C159.666 210.948 159.55 211.182 159.433 211.357C159.374 211.591 159.257 211.766 159.141 212C159.082 212.233 158.965 212.409 158.848 212.642C158.732 212.876 158.615 213.168 158.498 213.402C158.381 213.694 158.264 213.986 158.147 214.278C158.089 214.453 157.972 214.687 157.914 214.862C157.855 215.096 157.738 215.33 157.68 215.563C157.622 215.739 157.563 215.914 157.446 216.147C157.33 216.498 157.213 216.907 157.037 217.258C156.979 217.433 156.921 217.608 156.862 217.783C156.804 218.017 156.687 218.309 156.628 218.543C156.57 218.718 156.512 218.893 156.453 219.069C156.336 219.478 156.22 219.828 156.103 220.295C156.044 220.471 156.044 220.588 155.986 220.704C155.927 220.997 155.811 221.289 155.752 221.639C155.694 221.814 155.694 221.99 155.635 222.165C155.577 222.515 155.46 222.866 155.402 223.275C155.402 223.392 155.343 223.509 155.343 223.684C155.285 224.034 155.168 224.443 155.109 224.794C155.109 224.969 155.051 225.086 155.051 225.261C154.993 225.612 154.934 225.962 154.876 226.313C154.876 226.43 154.817 226.547 154.817 226.663C154.759 227.072 154.642 227.54 154.584 228.007C154.584 228.124 154.525 228.299 154.525 228.416C154.467 228.767 154.408 229.117 154.35 229.468C154.35 229.585 154.35 229.701 154.292 229.818C154.233 230.286 154.175 230.753 154.116 231.22C154.116 231.337 154.116 231.454 154.058 231.571C153.999 231.921 153.999 232.33 153.941 232.681C153.941 232.798 153.941 232.915 153.941 233.031C153.883 233.499 153.883 233.966 153.883 234.434C153.883 234.492 153.883 234.609 153.883 234.667C153.883 235.076 153.824 235.485 153.824 235.894C153.824 236.011 153.824 236.128 153.824 236.303C153.824 236.77 153.824 237.296 153.824 237.764C153.824 238.231 153.824 238.64 153.824 239.107C153.824 239.166 153.824 239.283 153.824 239.399C153.824 239.808 153.824 240.276 153.883 240.685C153.883 240.743 153.883 240.801 153.883 240.86C153.883 241.269 153.941 241.678 153.941 242.087C153.941 242.145 153.941 242.262 153.941 242.32C153.941 242.729 153.999 243.197 154.058 243.606C154.058 243.664 154.058 243.781 154.058 243.839C154.116 244.248 154.116 244.716 154.175 245.125C154.233 245.534 154.292 246.001 154.35 246.468C154.35 246.527 154.35 246.644 154.408 246.702C154.467 247.111 154.525 247.578 154.584 247.987V248.046C154.642 248.455 154.759 248.922 154.817 249.331C154.817 249.389 154.817 249.448 154.817 249.506C154.876 249.915 154.993 250.383 155.051 250.792C155.051 250.85 155.051 250.908 155.051 250.967C155.226 251.843 155.46 252.778 155.694 253.654C155.694 253.713 155.694 253.713 155.752 253.771C155.986 254.647 156.278 255.582 156.512 256.459C156.512 256.459 156.512 256.459 156.512 256.517C160.367 269.019 168.021 279.827 178.069 287.714C175.323 285.027 172.811 282.106 170.591 279.009C171.584 278.191 172.578 277.432 173.688 276.848C177.251 275.095 181.458 275.562 185.372 275.037C189.286 274.511 193.609 271.823 193.493 267.909C193.376 263.703 188.527 261.483 186.307 257.919C181.633 250.383 189.812 239.75 185.606 231.921C182.568 226.313 174.973 225.32 170.007 221.347C167.553 219.361 166.093 217.141 165.1 214.687C175.499 193.597 197.232 178.874 222.47 178.874Z" fill="white"/>
<path fill-rule="evenodd" clip-rule="evenodd" d="M171.876 283.274C183.97 295.426 200.152 302.086 217.27 302.086C234.388 302.086 250.512 295.367 262.664 283.274C274.815 271.181 281.476 255.056 281.476 237.88C281.476 220.704 274.815 204.638 262.664 192.487C250.57 180.335 234.446 173.675 217.27 173.675C200.094 173.675 184.028 180.335 171.876 192.487C159.725 204.58 153.064 220.704 153.064 237.88C153.064 255.056 159.783 271.122 171.876 283.274ZM172.811 193.363C184.671 181.503 200.503 174.96 217.27 174.96C234.037 174.96 249.811 181.562 261.729 193.363C273.589 205.223 280.132 221.055 280.132 237.822C280.132 254.589 273.589 270.421 261.729 282.281C249.869 294.141 234.037 300.684 217.27 300.684C200.503 300.684 184.671 294.141 172.811 282.281C160.951 270.421 154.408 254.589 154.408 237.822C154.408 221.055 160.951 205.223 172.811 193.363Z" fill="#1A1A1A"/>
<path d="M208.097 196.459C207.513 196.459 206.871 196.518 206.345 196.693C204.709 193.129 201.145 190.676 196.997 190.676C191.33 190.676 186.773 195.232 186.773 200.899C186.773 200.958 186.773 201.075 186.773 201.133H201.32H207.279H214.991C213.823 198.387 211.194 196.459 208.097 196.459Z" fill="white"/>
<path d="M236.432 252.252C236.432 252.194 236.432 252.077 236.432 252.018C236.432 246.351 231.875 241.795 226.208 241.795C220.541 241.795 215.984 246.351 215.984 252.018C215.984 252.077 215.984 252.194 215.984 252.252H236.432Z" fill="white"/>
<path d="M243.618 252.252C242.566 249.506 239.879 247.578 236.783 247.578C233.686 247.578 231.057 249.506 229.947 252.252H243.618Z" fill="white"/>
<rect x="151.187" y="305.325" width="128.999" height="19.9808" transform="rotate(-0.429038 151.187 305.325)" fill="#C8C8C8"/>
<path fill-rule="evenodd" clip-rule="evenodd" d="M280.191 303.663C280.541 303.663 280.833 303.955 280.833 304.306L281.009 324.286C281.009 324.461 280.95 324.637 280.833 324.753C280.716 324.87 280.541 324.929 280.366 324.929L151.371 325.863C151.02 325.863 150.728 325.571 150.728 325.221L150.553 305.241C150.553 305.065 150.611 304.89 150.728 304.773C150.845 304.656 151.02 304.598 151.195 304.598L280.191 303.663ZM151.838 305.942L152.013 324.578L279.665 323.643L279.49 305.007L270.201 305.065L270.259 309.213C270.259 309.564 269.967 309.856 269.616 309.856C269.266 309.856 268.974 309.564 268.974 309.213L268.915 305.065L259.393 305.182V316.341C259.393 316.691 259.1 316.983 258.75 316.983C258.399 316.983 258.107 316.691 258.107 316.341V305.241L249.519 305.299L249.578 309.447C249.578 309.797 249.286 310.09 248.935 310.09C248.584 310.09 248.292 309.797 248.292 309.447L248.234 305.299L239.821 305.357V305.474V316.691C239.821 317.042 239.529 317.334 239.179 317.334C238.828 317.334 238.536 317.042 238.536 316.691V305.474V305.357L229.773 305.416L229.831 309.564C229.831 309.914 229.539 310.206 229.188 310.206C228.838 310.206 228.546 309.914 228.546 309.564L228.487 305.416L220.25 305.474V316.691C220.25 317.042 219.958 317.334 219.607 317.334C219.257 317.334 218.965 317.042 218.965 316.691V305.533L210.377 305.591L210.435 309.739C210.435 310.09 210.143 310.382 209.792 310.382C209.442 310.382 209.15 310.09 209.15 309.739L209.091 305.591L200.679 305.65V316.691C200.679 317.042 200.387 317.334 200.036 317.334C199.685 317.334 199.393 317.042 199.393 316.691V305.65L191.097 305.708L191.156 309.856C191.156 310.206 190.864 310.499 190.513 310.499C190.163 310.499 189.871 310.206 189.871 309.856L189.812 305.708L181.107 305.766V316.691C181.107 317.042 180.815 317.334 180.465 317.334C180.114 317.334 179.822 317.042 179.822 316.691V305.766L169.89 305.825L169.949 310.031C169.949 310.382 169.657 310.674 169.306 310.674C168.956 310.674 168.663 310.382 168.663 310.031L168.605 305.825L158.79 305.883V316.633C158.79 316.983 158.498 317.275 158.148 317.275C157.797 317.275 157.505 316.983 157.505 316.633V305.883L151.838 305.942Z" fill="#1A1A1A"/>
<circle cx="273.647" cy="314.53" r="2.74582" fill="white"/>
<path d="M106.385 200.374C106.385 200.374 91.4293 213.927 87.3398 246.293C83.2503 278.659 100.134 298.172 105.042 306.76C109.949 315.348 132.734 326.039 132.734 326.039C132.734 326.039 142.315 328.785 149.442 329.369C156.57 329.953 164.749 328.668 164.223 327.616C163.697 326.565 159.724 325.513 155.226 324.695C150.727 323.877 140.562 323.468 140.737 316.75C140.913 309.973 148.04 308.22 148.04 308.22C148.04 308.22 164.457 305.474 163.989 300.742C163.989 300.742 152.305 300.567 150.903 300.508C149.501 300.45 136.881 303.254 124.379 290.518C111.877 277.782 112.286 262.71 112.169 257.335C112.052 251.96 114.039 240.626 116.434 237.355L112.403 215.505L106.385 200.374Z" fill="#C8C8C8"/>
<path d="M94.9342 229.584C94.9342 229.584 86.6383 256.4 97.7969 283.858C108.897 311.316 132.032 318.327 129.637 324.637C129.637 324.637 114.798 319.846 101.711 302.378C88.6246 284.91 87.5146 265.514 86.9304 257.977C86.3462 250.383 89.9683 231.629 91.312 227.89L94.9342 229.584Z" fill="white"/>
<path d="M132.733 326.039C132.733 326.039 141.964 334.977 144.535 336.613C147.105 338.307 150.085 341.112 151.136 339.417C152.188 337.723 147.923 332.582 147.923 332.582L132.733 326.039Z" fill="#C8C8C8"/>
<path d="M139.16 328.492L150.552 333.926C150.552 333.926 159.608 338.015 160.426 335.737C161.185 333.458 152.48 329.427 152.48 329.427L139.16 328.492Z" fill="#C8C8C8"/>
<path fill-rule="evenodd" clip-rule="evenodd" d="M157.972 324.753C163.755 325.98 164.865 326.565 165.099 327.441C165.264 328.101 164.808 328.554 164.364 328.994L164.281 329.077C163.638 329.661 160.425 330.42 155.109 330.42C156.044 330.946 157.154 331.589 157.913 332.115C160.893 333.984 161.243 335.386 161.009 336.146C160.834 336.905 160.075 337.373 159.023 337.373H158.965C157.387 337.373 153.59 335.97 149.617 334.276C152.071 337.431 152.129 338.775 151.954 339.534C151.837 339.943 151.545 340.527 150.669 340.819C150.62 340.819 150.572 340.829 150.515 340.841C150.435 340.858 150.338 340.878 150.201 340.878C149.267 340.878 147.163 340.002 140.328 334.101C136.297 330.537 132.5 326.915 132.441 326.857C132.441 326.827 132.427 326.813 132.412 326.798C132.397 326.784 132.383 326.769 132.383 326.74C125.197 324.111 116.142 318.911 107.962 310.615C102.237 304.832 97.5634 298.055 94.0581 290.635C89.9686 281.989 87.5149 272.408 86.697 262.125C85.4701 247.169 87.807 232.739 93.6491 219.361C96.8039 212.175 101.01 205.222 105.567 199.848C105.801 199.614 106.21 199.556 106.502 199.789C106.736 200.023 106.794 200.432 106.56 200.724C102.646 205.398 98.9071 211.24 95.986 217.433C96.2781 217.316 96.5702 217.433 96.7455 217.666L113.396 243.197C114.329 239.906 115.386 237.937 115.734 237.289C115.8 237.166 115.84 237.09 115.849 237.062C116.025 236.77 116.434 236.653 116.726 236.829C117.018 237.004 117.135 237.413 116.959 237.705C116.258 238.873 115.148 241.327 114.272 244.832C114.272 244.891 114.272 245.008 114.214 245.066C113.513 247.929 112.928 251.376 112.753 255.407C112.403 264.696 114.155 273.459 117.894 280.703C121.633 288.006 127.417 293.731 134.486 297.237C142.875 301.348 161.83 299.912 163.82 299.761L163.914 299.754C163.958 299.751 163.983 299.749 163.989 299.749C164.34 299.749 164.573 299.924 164.69 300.158C164.748 300.216 165.041 301.093 164.515 302.203C163.755 303.838 161.652 305.124 158.322 306.175C157.512 306.407 156.651 306.613 155.756 306.827L155.755 306.827C155.295 306.937 154.825 307.049 154.349 307.169L154.227 307.197C148.773 308.473 143.177 309.783 141.38 315.581C140.912 317.042 141.029 318.21 141.613 319.262C143.366 322.183 149.267 323.234 154.466 324.111C154.973 324.207 155.469 324.294 155.955 324.379L155.956 324.379C156.648 324.499 157.32 324.616 157.972 324.753ZM150.786 339.067C150.902 338.658 150.786 337.197 147.163 333.108C147.127 333.108 147.114 333.085 147.095 333.055C147.083 333.036 147.069 333.013 147.047 332.991C141.789 330.654 136.823 328.2 136.414 327.967C136.239 327.908 136.063 327.864 135.888 327.821L135.887 327.82C135.712 327.777 135.537 327.733 135.362 327.675C136.823 329.018 138.984 331.005 141.204 332.933C148.682 339.417 150.143 339.534 150.377 339.476C150.641 339.37 150.714 339.217 150.769 339.102C150.774 339.09 150.78 339.078 150.786 339.067ZM159.841 335.678C159.841 335.737 159.549 335.912 159.081 335.912C156.744 335.971 147.806 331.998 141.555 329.018C145.703 329.719 149.383 330.07 152.538 330.187C153.181 330.537 155.81 332.056 157.329 333.049C159.549 334.568 159.899 335.445 159.841 335.678ZM138.575 327.149C153.706 330.187 162.762 328.492 163.521 327.908C163.58 327.908 163.696 327.85 163.755 327.791C163.404 327.499 162.119 326.973 157.737 326.097C157.084 325.952 156.386 325.829 155.657 325.701C155.212 325.623 154.755 325.543 154.291 325.454L154.277 325.452C148.789 324.518 142.605 323.465 140.503 320.021C139.744 318.678 139.568 317.1 140.152 315.289C142.197 308.746 148.507 307.285 154.115 306C155.459 305.708 156.744 305.357 157.971 305.007C161.593 303.838 162.937 302.612 163.346 301.735C163.463 301.502 163.521 301.326 163.521 301.151C161.944 301.268 157.562 301.56 152.596 301.502C144.125 301.385 137.874 300.333 134.018 298.464C126.657 294.9 120.698 288.941 116.784 281.346C113.571 275.095 111.759 267.734 111.526 259.847C104.223 258.386 102.237 249.389 100.659 242.145C100.543 241.386 100.367 240.684 100.192 239.983C98.7314 233.557 92.6556 230.519 91.2535 229.876C88.2155 240.1 87.1639 250.908 88.0403 262.008C88.8582 272.174 91.3119 281.58 95.2846 290.051C98.7314 297.354 103.347 303.955 108.955 309.681C119.296 320.255 131.039 325.63 138.575 327.149Z" fill="#1A1A1A"/>
<path d="M112.812 183.782C112.812 183.782 95.344 191.435 94.7014 213.635C94.0587 235.835 119.589 248.513 119.589 248.513C119.589 248.513 137.116 258.97 148.274 261.716C159.374 264.462 172.461 266.39 172.694 264.228C172.928 262.067 161.77 259.964 161.77 259.964C161.77 259.964 161.886 259.087 162.88 258.97C163.873 258.854 173.337 257.744 175.207 257.335C177.076 256.926 180.99 255.348 180.64 254.472C180.289 253.596 175.966 252.836 175.966 252.836C175.966 252.836 183.269 251.609 182.918 249.973C182.568 248.338 177.368 248.221 173.629 248.221C169.949 248.221 163.814 248.221 164.048 247.345C164.282 246.468 169.189 245.592 169.189 245.592C169.189 245.592 183.561 241.97 182.801 240.801C182.042 239.633 179.296 239.925 175.732 240.159C172.169 240.392 163.405 241.794 163.172 240.684C162.938 239.574 165.45 236.653 165.45 236.653C165.45 236.653 171.76 230.227 168.196 228.708L157.271 235.777L153.474 238.932C153.474 238.932 144.301 235.543 137.232 229.234C130.163 222.924 128.294 218.543 128.294 218.543L128.411 211.59C128.411 211.59 137.992 199.789 133.084 193.713C128.177 187.637 121.634 185.301 121.634 185.301L112.812 183.782Z" fill="#C8C8C8"/>
<path d="M134.195 250.967C114.156 244.832 101.245 234.2 100.193 214.745C99.1999 196.868 115.967 186.352 118.596 184.833L112.812 183.782C112.812 183.782 95.344 191.435 94.7014 213.635C94.0587 235.835 119.589 248.513 119.589 248.513C119.589 248.513 137.116 258.97 148.274 261.716C148.216 261.716 154.233 257.043 134.195 250.967Z" fill="white"/>
<path fill-rule="evenodd" clip-rule="evenodd" d="M172.506 247.803C177.967 247.63 183.507 247.454 183.794 250.441C183.853 251.259 183.152 251.96 179.179 252.953C179.121 252.953 179.062 252.968 179.004 252.982C178.945 252.997 178.887 253.011 178.828 253.011C180.114 253.245 181.107 253.654 181.399 254.414C181.516 254.706 181.691 255.407 180.815 256.049C179.529 257.101 174.914 258.328 170.766 258.795L168.838 258.97C166.735 259.204 164.223 259.496 162.762 259.73C163.148 259.835 163.597 259.94 164.045 260.045C164.345 260.116 164.644 260.186 164.924 260.256C168.78 261.074 173.162 262.067 173.395 264.404C173.454 264.696 173.337 264.988 173.162 265.222C172.519 265.864 170.941 265.981 170.474 265.981H169.89C161.945 265.981 152.188 263.936 141.672 259.964C132.033 256.342 121.809 251.2 112.929 245.417C102.822 238.815 91.371 227.072 94.3505 208.553C96.0448 197.861 102.179 190.968 107.028 187.112C112.286 182.964 117.077 181.328 117.252 181.27H117.31H117.369H117.427H117.486H117.602H117.661C117.69 181.27 117.705 181.284 117.719 181.299C117.734 181.313 117.748 181.328 117.778 181.328C117.788 181.328 118.058 181.462 118.518 181.691C120.662 182.759 126.929 185.878 130.105 186.936C131.928 187.535 135.298 188.628 138.389 189.631C141.935 190.781 145.115 191.813 145.177 191.844H145.236C145.586 191.961 153.882 195.408 155.927 198.621C156.044 198.796 156.044 199.03 155.986 199.205C156.278 199.205 156.57 199.38 156.628 199.672C156.687 200.023 156.511 200.432 156.161 200.49C141.964 204.346 131.098 217.141 129.345 219.302C130.28 221.347 131.916 223.45 134.077 225.612C142.841 234.375 151.37 237.822 152.889 238.406C153.87 237.887 157.76 235.086 160.67 232.99L160.776 232.914L161.047 232.718C163.91 230.64 166.349 228.871 167.086 228.474C167.787 228.065 168.546 228.182 169.072 228.766C170.007 229.818 169.89 232.213 168.371 234.141C167.962 234.667 167.436 235.251 166.852 235.894C165.625 237.179 163.171 239.983 163.58 240.801C164.281 241.152 167.904 240.626 170.533 240.217C177.251 239.282 181.75 238.757 183.035 240.392C183.327 240.743 183.385 241.152 183.268 241.561C182.801 242.963 179.413 243.839 172.46 245.417C169.598 246.001 165.8 246.877 164.807 247.461C165.099 247.637 165.567 247.812 166.794 247.87C167.927 247.961 169.343 247.911 170.876 247.857C171.318 247.841 171.769 247.825 172.227 247.812C172.32 247.809 172.413 247.806 172.506 247.803ZM180.172 254.939L180.289 254.823C179.938 254.355 177.484 253.712 172.402 254.063H172.343C172.255 254.074 172.171 254.085 172.091 254.096C171.742 254.141 171.448 254.18 171.116 254.18H170.883H170.766C169.656 254.297 168.546 254.297 167.494 254.297C165.06 254.297 163.153 254.134 162.518 254.08C162.391 254.07 162.314 254.063 162.295 254.063C161.944 254.063 161.652 253.713 161.711 253.362C161.711 253.011 162.061 252.719 162.412 252.778C162.416 252.778 162.446 252.781 162.498 252.786C163.108 252.846 166.851 253.217 170.941 252.895C171.098 252.863 171.288 252.849 171.493 252.833C171.671 252.819 171.861 252.805 172.051 252.778C176.725 252.252 181.691 251.025 182.567 250.324C182.041 248.688 176.491 248.863 172.343 249.039C167.027 249.214 164.047 249.272 163.522 247.637C163.405 247.403 163.463 247.111 163.58 246.877C164.106 245.884 166.501 245.3 172.285 244.014C172.569 243.951 172.854 243.887 173.14 243.823C175.209 243.36 177.302 242.892 178.945 242.379C181.34 241.678 181.925 241.21 182.1 241.035C181.048 239.925 174.914 240.801 170.824 241.386C165.274 242.203 163.288 242.379 162.645 241.502C161.477 239.925 163.755 237.354 165.975 234.901C166.39 234.394 166.804 233.924 167.161 233.519C167.257 233.41 167.349 233.306 167.436 233.206C168.663 231.687 168.604 229.993 168.195 229.526C168.137 229.467 168.079 229.409 167.845 229.526C167.251 229.823 165.149 231.335 162.886 232.962C162.478 233.256 162.064 233.554 161.652 233.849C155.109 238.523 153.59 239.574 153.123 239.633C153.039 239.675 152.954 239.656 152.892 239.643C152.868 239.637 152.847 239.633 152.83 239.633C152.422 239.516 143.132 236.303 133.259 226.43C130.864 224.034 129.111 221.639 128.06 219.419C128.029 219.327 127.934 219.122 127.834 218.906C127.743 218.711 127.648 218.506 127.592 218.367C126.249 214.278 127.884 210.422 129.579 207.91C129.788 207.631 129.976 207.352 130.156 207.085C130.278 206.905 130.396 206.731 130.513 206.566C130.561 206.495 130.608 206.425 130.655 206.355C132.633 203.419 134.186 201.114 133.843 197.861C133.259 191.844 122.451 184.716 113.629 184.366H113.513C111.935 185.242 109.949 186.469 107.963 188.046C103.289 191.785 97.3882 198.329 95.7524 208.669C94.175 218.484 96.0445 232.622 113.805 244.19C128.352 253.654 151.662 264.579 170.006 264.579H170.591C171.233 264.579 171.934 264.404 172.226 264.287C171.818 263.002 167.261 261.95 164.807 261.424C161.827 260.782 160.834 260.548 160.601 259.788C160.542 259.555 160.601 259.321 160.717 259.146C161.126 258.503 162.762 258.269 168.838 257.627L170.766 257.451C174.914 256.984 179.12 255.757 180.172 254.939Z" fill="#1A1A1A"/>
<path d="M329.147 201.016C329.147 201.016 337.443 213.694 342.643 231.103C347.901 248.571 335.457 260.957 326.285 262.534C317.113 264.053 302.741 257.977 302.741 257.977C302.741 257.977 286.032 251.2 282.001 251.084C277.97 250.967 263.481 250.09 263.131 249.974C262.78 249.857 255.828 248.571 256.354 247.111C256.88 245.65 262.079 245.884 262.079 245.884C262.079 245.884 268.097 246.76 268.214 246.118C268.272 245.475 263.774 244.131 263.774 244.131C263.774 244.131 251.739 241.386 252.264 239.633C252.849 237.88 257.581 238.406 257.581 238.406C257.581 238.406 250.103 237.004 250.453 235.076C250.804 233.09 255.186 233.265 255.186 233.265C255.186 233.265 269.557 235.368 269.733 233.674C269.908 231.98 257.289 229.175 257.289 229.175C257.289 229.175 250.804 227.131 251.855 225.729C252.907 224.326 257.814 225.144 257.814 225.144L271.076 228.065C271.076 228.065 273.238 228.65 273.53 227.656C273.822 226.663 270.434 217.491 270.434 217.491C270.434 217.491 270.959 214.804 271.894 214.92C272.829 215.096 275.984 218.601 275.984 218.601C275.984 218.601 282.468 228.007 288.72 230.402C294.971 232.798 304.26 235.368 308.7 234.842L320.618 225.32L324.123 216.031L328.68 206.858L329.147 201.016Z" fill="#C8C8C8"/>
<path d="M342.643 231.103C337.385 213.635 329.673 199.497 329.673 199.497L328.622 206.858L328.446 207.443C330.725 210.889 338.612 224.034 339.663 237.647C340.773 252.778 335.515 256.751 335.515 256.751C335.515 256.751 335.807 256.926 336.275 257.101C342.059 251.551 346.031 242.379 342.643 231.103Z" fill="white"/>
<path d="M344.395 235.602C343.986 230.87 342.234 224.56 339.313 217.433C336.742 211.123 333.412 204.346 329.848 198.329C329.673 198.037 329.264 197.92 328.972 198.095C328.68 198.27 328.563 198.679 328.738 198.971C335.223 210.013 342.175 225.612 343.11 235.719C343.694 242.437 341.241 249.915 336.625 255.232C334.113 258.153 329.79 261.716 323.656 262.008C314.367 262.476 302.332 257.51 294.328 254.18C291.582 253.07 289.187 252.018 287.551 251.551C282.527 249.974 277.035 249.798 271.719 249.623C266.753 249.448 262.079 249.273 258.457 247.987C257.873 247.754 257.23 247.403 256.996 247.169C257.814 246.059 262.43 246.585 264.942 246.819C267.98 247.169 268.973 247.228 269.44 246.585C269.616 246.351 269.616 246.059 269.499 245.767C268.973 244.54 264.65 243.547 262.079 243.021C257.99 242.262 253.842 240.685 252.907 239.75C252.848 239.691 252.79 239.633 252.79 239.575C253.141 239.282 255.185 238.581 260.969 239.575H261.028C265.993 240.509 269.849 240.626 270.024 240.626C270.375 240.626 270.667 240.334 270.667 239.983C270.667 239.633 270.375 239.341 270.024 239.282C269.966 239.282 266.87 239.224 262.722 238.523C262.371 238.464 261.904 238.348 261.32 238.289C256.704 237.413 251.797 235.719 251.037 235.018C251.68 233.382 257.697 234.083 261.729 234.55C266.811 235.134 269.791 235.427 270.667 234.141C270.842 233.908 270.901 233.615 270.784 233.323C270.433 232.389 268.33 231.629 262.371 229.818C259.917 229.059 257.405 228.299 255.419 227.54C252.907 226.605 252.264 226.021 252.147 225.845C252.381 225.612 253.374 225.261 256.704 225.787C259.216 226.137 262.313 226.897 265 227.481C270.55 228.766 272.595 229.175 273.354 228.591C274.932 227.423 273.588 224.268 272.303 221.23C271.952 220.471 271.66 219.77 271.427 219.185C270.726 217.316 271.368 215.738 271.894 215.446C271.952 215.388 272.069 215.388 272.244 215.563C272.537 215.855 273.004 216.439 273.588 217.199C275.691 219.828 279.606 224.735 282.936 227.248C288.31 231.395 297.424 235.427 307.94 235.427C309.167 235.427 310.394 235.368 311.679 235.251C317.813 234.2 321.903 232.272 323.889 229.468C325.175 227.656 325.584 225.495 325.175 223.041C324.474 219.068 322.487 217.842 322.429 217.783C322.137 217.608 321.786 217.666 321.552 217.958C321.494 218.017 318.164 221.99 314.483 223.158C308.466 224.969 301.923 222.924 301.806 222.924C301.572 222.866 301.339 222.924 301.163 223.1C300.988 223.275 300.93 223.509 300.988 223.742L303.909 234.024C295.438 233.148 288.194 229.76 283.695 226.313C280.482 223.859 276.626 219.068 274.581 216.498C273.997 215.738 273.471 215.154 273.179 214.804C272.653 214.161 271.894 214.044 271.193 214.453C270.024 215.154 269.323 217.433 270.141 219.77C270.375 220.412 270.667 221.172 271.018 221.931C271.719 223.625 273.238 227.072 272.537 227.715C271.836 227.949 268.155 227.072 265.234 226.43C257.639 224.677 252.556 223.625 251.037 225.203C250.745 225.553 250.628 225.904 250.745 226.313C251.154 227.832 254.601 229.059 261.904 231.279C264.533 232.097 267.98 233.148 269.148 233.791C267.921 234.141 264.241 233.732 261.729 233.44C256.003 232.798 250.044 232.097 249.518 235.134C249.402 235.894 250.044 236.712 253.842 237.939C253.958 237.997 254.075 237.997 254.192 238.056C252.907 238.172 251.855 238.523 251.505 239.282C251.388 239.516 251.154 240.217 251.914 240.918C253.141 242.087 257.697 243.722 261.729 244.482C264.299 245.008 265.993 245.475 266.987 245.826C266.344 245.767 265.584 245.709 264.942 245.65C260.969 245.241 256.529 244.716 255.594 246.877C255.477 247.111 255.477 247.461 255.594 247.754C255.945 248.571 257.405 249.214 257.873 249.389C261.67 250.733 266.461 250.908 271.485 251.084C276.743 251.259 282.176 251.434 286.967 252.953C288.603 253.479 290.939 254.414 293.627 255.524C301.339 258.737 312.789 263.469 322.195 263.469C322.662 263.469 323.071 263.469 323.539 263.411C328.738 263.177 333.529 260.665 337.443 256.166C342.409 250.558 345.038 242.729 344.395 235.602Z" fill="#1A1A1A"/>
<path d="M270.375 135.175C270.375 135.175 283.988 136.285 296.081 143.996C308.174 151.708 313.958 157.2 320.969 169.644C327.921 182.087 329.264 193.713 329.148 201.075C329.031 208.377 323.481 221.697 314.834 223.216C306.246 224.735 301.981 223.859 295.088 219.945C288.194 216.031 280.891 204.58 280.891 204.58L268.155 185.301C268.155 185.301 263.131 179.108 260.21 177.881C257.289 176.654 246.247 168.475 246.247 168.475C246.247 168.475 247.883 166.314 252.031 167.365C256.179 168.417 262.079 170.754 262.079 170.754L266.344 149.079L267.454 145.574L269.733 140.316L270.959 141.543L270.375 135.175Z" fill="#C8C8C8"/>
<path d="M270.55 138.855C270.55 138.855 290.939 141.484 307.59 157.317C324.883 173.733 329.089 201.016 322.312 217.316C322.312 217.316 332.711 208.786 328.271 188.806C323.831 168.826 311.913 155.213 302.098 147.911C292.283 140.608 276.451 135.233 270.375 135.175C270.784 135.701 270.55 138.855 270.55 138.855Z" fill="white"/>
<path d="M241.456 165.32C241.514 165.262 241.631 165.262 241.748 165.262C241.807 165.262 241.807 165.262 241.865 165.262L264.766 170.52L269.732 148.612L242.858 142.478L237.133 167.599L241.456 165.32Z" fill="#C8C8C8"/>
<path fill-rule="evenodd" clip-rule="evenodd" d="M270.667 147.502C270.842 147.56 271.018 147.677 271.076 147.794C271.193 147.911 271.193 148.086 271.134 148.203L265.876 171.338C265.818 171.63 265.584 171.805 265.292 171.805H265.175L241.865 166.489L236.607 169.293C236.373 169.41 236.081 169.41 235.906 169.235C235.731 169.059 235.614 168.826 235.672 168.592L241.865 141.543C241.924 141.192 242.274 141.017 242.625 141.075L270.667 147.502ZM238.126 163.801L268.272 155.389L269.849 148.612L242.975 142.478L238.126 163.801Z" fill="#1A1A1A"/>
<path d="M262.079 170.812C262.079 170.812 253.549 167.482 252.322 167.19C251.096 166.898 247.006 167.599 246.714 168.826L256.879 175.486L259.275 176.537L261.202 173.675L262.079 170.812Z" fill="#C8C8C8"/>
<path d="M269.733 140.374C269.733 140.374 269.499 138.855 266.461 140.316C263.423 141.777 265.234 140.9 265.234 140.9C265.234 140.9 261.554 138.096 259.743 139.498C257.932 140.9 257.581 141.835 257.581 141.835C257.581 141.835 253.842 141.017 253.024 141.426C252.206 141.835 251.038 143.062 251.038 143.062C251.038 143.062 248 140.374 246.014 141.192C244.027 142.01 240.872 145.924 240.055 147.327C239.237 148.67 238.302 149.547 238.828 149.956C239.353 150.365 247.182 145.048 247.182 145.048L249.636 145.107C249.636 145.107 245.838 150.365 246.13 151.591C246.422 152.818 247.416 152.877 247.883 152.643C248.35 152.409 256.004 145.924 256.004 145.924C256.004 145.924 253.667 152.993 253.842 154.22C254.017 155.447 254.718 156.849 255.77 156.44C256.822 156.031 260.093 150.072 260.093 150.072C260.093 150.072 259.626 154.279 261.203 154.162C262.839 154.104 267.162 146.217 267.162 146.217L267.513 145.632L269.733 140.374Z" fill="#C8C8C8"/>
<path fill-rule="evenodd" clip-rule="evenodd" d="M326.927 182.029C322.838 169.001 315.886 158.31 306.246 150.189C298.827 143.938 289.771 139.264 279.372 136.226C270.434 133.597 256.704 132.78 246.773 132.604C238.497 132.393 231.41 132.611 228.559 132.698C228.25 132.707 227.991 132.715 227.786 132.721L224.865 118.232C224.806 117.882 224.456 117.648 224.105 117.707C223.755 117.765 223.521 118.116 223.579 118.466L226.617 133.539C226.676 133.831 226.968 134.065 227.318 134.065C227.321 134.065 227.351 134.064 227.406 134.062H227.406C228.343 134.028 236.671 133.727 246.773 133.948C255.711 134.123 263.481 134.707 269.732 135.642C269.732 136.343 269.791 137.687 269.908 139.673C269.382 139.147 268.798 138.914 268.097 138.972C267.103 139.031 266.11 139.556 265.176 140.374C264.299 139.673 261.261 137.57 258.866 139.498C258.34 139.907 257.814 140.55 257.289 141.309C256.354 140.9 254.426 140.258 253.082 140.608C252.556 140.783 251.739 141.484 250.979 142.419C250.103 141.601 248.058 140.024 245.896 140.491C243.793 140.959 238.827 145.924 238.068 148.846C237.834 149.78 238.126 150.248 238.418 150.54C238.652 150.773 238.944 150.89 239.353 150.89C240.346 150.89 241.807 150.131 243.91 148.553C245.78 147.151 247.532 145.632 247.591 145.574C247.824 145.34 247.883 144.931 247.649 144.639C247.415 144.405 247.006 144.347 246.714 144.581C246.714 144.581 245.078 146.041 243.326 147.327C240.288 149.605 239.412 149.547 239.295 149.488C239.295 149.43 239.295 149.079 239.704 148.203C241.047 145.691 244.67 142.01 246.188 141.718C247.824 141.368 249.46 142.711 250.161 143.354C249.402 144.289 248.759 145.223 248.467 145.691C245.546 150.014 245.312 151.591 245.371 152.059C245.487 152.993 245.955 153.344 246.305 153.519C246.481 153.578 246.656 153.636 246.831 153.636C247.649 153.636 248.759 152.993 250.512 151.533C251.68 150.54 253.258 149.196 254.368 148.203C254.075 149.138 253.783 150.072 253.608 150.89C252.849 153.695 252.907 155.622 253.783 156.557C254.134 156.908 254.601 157.083 255.127 157.083C255.302 157.083 255.536 157.083 255.711 157.025C256.821 156.732 258.048 154.98 259.1 153.11C259.217 153.811 259.45 154.22 259.684 154.454C260.093 154.98 260.736 155.213 261.32 155.155L261.329 155.154C261.738 155.096 262.393 155.002 265.409 150.014C266.811 147.677 268.155 145.282 268.155 145.282C268.33 144.931 268.214 144.581 267.921 144.405C267.571 144.23 267.22 144.347 267.045 144.639C264.825 148.729 261.962 153.344 261.144 153.87C260.969 153.87 260.852 153.811 260.736 153.636C260.385 153.227 260.21 152.059 260.794 150.306C262.956 143.938 266.169 140.374 268.097 140.258H268.155C269.56 140.258 270.91 143.662 272.519 147.717L272.712 148.203C274.465 152.701 276.685 158.251 280.132 163.509C282.41 166.898 285.682 171.455 289.304 176.07C289.304 176.128 289.362 176.245 289.421 176.304L289.771 176.713C292.283 179.867 294.912 183.022 297.483 185.943C304.493 193.772 309.342 197.628 312.264 197.628C312.731 197.628 313.14 197.569 313.49 197.336C313.666 197.277 317.113 195.875 315.535 189.624C314.016 183.548 307.531 181.737 301.047 180.393C294.912 179.108 291.465 176.362 290.589 175.603C286.908 170.871 283.52 166.255 281.242 162.808C277.921 157.828 275.779 152.399 274.045 148.006L273.939 147.735L273.805 147.397C272.872 145.034 272.088 143.052 271.251 141.601C271.212 140.677 271.173 139.839 271.138 139.096L271.138 139.096C271.069 137.631 271.018 136.535 271.018 135.876C274.056 136.343 276.743 136.927 278.963 137.57C289.187 140.55 298.067 145.165 305.37 151.299C314.776 159.245 321.611 169.702 325.584 182.496C330.608 198.562 327.804 208.436 324.532 213.869C321.027 219.77 315.827 222.632 312.147 223.333C307.59 224.21 302.741 223.45 298.184 221.23C292.283 218.309 286.733 212.817 281.767 204.989C270.258 186.937 266.402 181.094 261.495 177.881C257.814 175.486 249.46 170.286 247.123 168.884C249.986 165.788 258.457 169.644 261.67 171.455C261.962 171.63 262.371 171.513 262.547 171.221C262.722 170.929 262.605 170.52 262.313 170.345L262.258 170.314C261.214 169.725 249.086 162.886 245.604 168.709C245.429 169.001 245.546 169.41 245.838 169.585C245.955 169.644 256.529 176.187 260.794 178.991C265.468 182.029 269.324 187.813 280.657 205.69C285.798 213.752 291.524 219.361 297.6 222.457C301.047 224.151 304.727 225.086 308.291 225.086C309.635 225.086 310.978 224.969 312.322 224.735C316.295 223.976 321.845 220.938 325.584 214.687C331.893 204.229 329.79 191.201 326.927 182.029ZM249.752 150.481C247.528 152.306 246.918 152.294 246.836 152.292L246.831 152.292C246.831 152.292 246.772 152.234 246.714 151.942C246.656 151.533 247.415 149.722 249.577 146.509C251.563 143.529 253.082 141.952 253.549 141.835C254.367 141.601 255.828 142.069 256.763 142.419C256.237 143.412 255.769 144.522 255.36 145.691C255.36 145.691 255.302 145.691 255.302 145.749C255.239 145.749 254.243 146.614 253.008 147.687C251.952 148.604 250.722 149.673 249.752 150.481ZM259.976 148.553C260.035 148.437 260.093 148.378 260.152 148.32C261.203 145.691 262.664 143.062 264.183 141.309C263.365 140.666 261.203 139.264 259.626 140.491C257.289 142.302 255.42 149.021 254.835 151.241C254.134 153.811 254.31 155.213 254.718 155.622C254.777 155.681 254.952 155.856 255.42 155.739C256.354 155.506 258.516 151.825 259.976 148.553Z" fill="#1A1A1A"/>
<path d="M236.257 172.214C236.198 172.039 236.023 171.981 235.848 171.981C235.672 171.981 235.497 172.097 235.439 172.214C235.147 172.798 232.518 177.94 233.92 180.043C234.212 180.452 234.796 180.978 235.906 180.978C235.965 180.978 236.023 180.978 236.081 180.978C237.191 180.919 237.776 180.335 238.009 179.868C239.236 177.706 236.549 172.798 236.257 172.214Z" fill="#1A1A1A"/>
<path d="M228.487 82.2447L231.992 103.393C231.992 103.393 223.93 111.806 223.404 111.923C222.878 112.04 203.891 109.644 203.657 109.06C203.424 108.476 198.399 103.276 198.399 103.276L199.802 87.6779C199.802 87.6779 206.345 87.9116 211.895 85.9252C217.445 83.9389 220.424 82.4199 224.572 78.272C224.572 78.3304 227.085 81.3099 228.487 82.2447Z" fill="#C8C8C8"/>
<path d="M199.276 92.5269C199.276 92.5269 195.478 90.2484 193.959 93.1695C192.44 96.0906 193.843 100.823 198.75 105.496C198.633 104.737 199.276 92.5269 199.276 92.5269Z" fill="#C8C8C8"/>
<path d="M198.692 106.139C198.516 106.139 198.341 106.081 198.224 105.964C193.375 101.349 191.506 96.3243 193.317 92.8774C193.784 92.0011 194.427 91.4169 195.362 91.1832C197.29 90.6574 199.51 91.9427 199.568 92.0011C199.86 92.1764 199.977 92.5853 199.802 92.8774C199.626 93.1695 199.217 93.2864 198.925 93.1111C198.925 93.1111 197.114 92.0595 195.712 92.4101C195.186 92.5853 194.777 92.9358 194.485 93.4616C193.025 96.3243 194.836 100.881 199.159 105.029C199.393 105.263 199.393 105.672 199.159 105.964C199.042 106.081 198.867 106.139 198.692 106.139Z" fill="#1A1A1A"/>
<path d="M230.298 92.1179C230.298 92.1179 233.161 89.6058 235.205 92.001C237.25 94.3963 236.082 99.5375 232.051 102.809L230.298 92.1179Z" fill="#C8C8C8"/>
<path d="M232.051 104.153C231.876 104.153 231.7 104.094 231.584 103.977C231.35 103.744 231.35 103.335 231.584 103.043C233.044 101.524 236.549 97.0253 235.673 94.2211C235.323 93.0526 234.738 92.3516 233.979 92.001C232.577 91.4752 230.883 92.4684 230.883 92.4684C230.59 92.6437 230.181 92.5268 230.006 92.2347C229.831 91.9426 229.948 91.5337 230.24 91.3584C230.298 91.3 232.46 90.0147 234.446 90.7742C235.615 91.1831 236.433 92.2347 236.958 93.8121C238.244 97.9601 232.81 103.685 232.577 103.977C232.401 104.094 232.226 104.153 232.051 104.153Z" fill="#1A1A1A"/>
<path d="M198.575 104.094C198.516 104.094 198.516 104.094 198.575 104.094C198.166 104.094 197.874 103.744 197.932 103.393L199.101 85.9252C199.101 85.5747 199.451 85.2826 199.802 85.341C200.152 85.341 200.444 85.6915 200.386 86.042L199.218 103.51C199.218 103.802 198.925 104.094 198.575 104.094Z" fill="#1A1A1A"/>
<path d="M231.583 101.173C231.291 101.173 230.998 100.94 230.94 100.648L227.435 82.1863C227.376 81.8357 227.61 81.4852 227.961 81.4268C228.311 81.3684 228.662 81.6021 228.72 81.9526L232.225 100.414C232.284 100.764 232.05 101.115 231.7 101.173C231.641 101.173 231.641 101.173 231.583 101.173Z" fill="#1A1A1A"/>
<path d="M232.109 100.063C230.532 98.4859 228.02 98.1938 225.098 99.2454C223.638 99.7712 222.411 100.648 221.184 101.465C219.373 102.692 217.387 104.387 214.407 104.27C211.778 104.211 210.084 103.101 207.806 102.575C203.775 101.641 200.211 100.823 198.108 103.101C197.056 104.211 197.173 105.263 197.231 107.074C197.29 109.937 198.108 113.5 200.62 115.837C205.177 120.102 208.507 121.329 215.459 121.329C223.755 121.329 228.779 117.59 231.875 109.528C233.394 105.555 233.979 101.874 232.109 100.063Z" fill="#1A1A1A"/>
<path d="M212.947 103.335C211.486 103.335 210.434 102.809 209.85 102.225C209.324 101.641 209.149 100.94 209.383 100.239C209.792 99.0116 210.785 98.778 211.544 98.6027C212.012 98.4858 212.421 98.369 212.654 98.1353C213.706 97.0253 212.538 93.8705 212.012 92.8189C211.837 92.4684 212.012 92.1179 212.304 91.9426C212.596 91.7673 213.005 91.9426 213.18 92.2347C213.414 92.7021 215.459 97.0253 213.589 99.0116C213.063 99.5374 212.362 99.7127 211.837 99.888C211.135 100.063 210.785 100.18 210.61 100.647C210.551 100.94 210.668 101.173 210.785 101.349C211.311 101.874 212.596 102.283 214.582 101.757C214.933 101.699 215.283 101.874 215.4 102.225C215.459 102.575 215.283 102.926 214.933 103.043C214.173 103.276 213.531 103.335 212.947 103.335Z" fill="#1A1A1A"/>
<ellipse cx="206.094" cy="90.2459" rx="3.73881" ry="1.34363" transform="rotate(-12.082 206.094 90.2459)" fill="#1A1A1A"/>
<ellipse cx="223.405" cy="89.9908" rx="1.34376" ry="3.73916" transform="rotate(-75.5941 223.405 89.9908)" fill="#1A1A1A"/>
<path d="M211.369 110.521L220.95 107.249C220.95 107.249 221.651 111.047 218.964 112.39C215.225 114.318 211.369 110.521 211.369 110.521Z" fill="white"/>
<path d="M198.691 83.8805C198.341 83.8805 198.049 83.6468 198.049 83.2963C198.049 82.9458 198.283 82.5952 198.633 82.5952C214.407 81.3099 219.606 72.7219 219.606 72.6051C219.782 72.313 220.191 72.1961 220.483 72.3714C220.775 72.5467 220.892 72.9556 220.716 73.2477C220.483 73.5983 215.108 82.5952 198.691 83.8805C198.75 83.8805 198.75 83.8805 198.691 83.8805Z" fill="#C8C8C8"/>
<path d="M206.696 77.3372C206.345 77.3372 206.111 77.1035 206.053 76.753C205.994 76.4025 206.228 76.0519 206.579 75.9935C210.902 75.3509 213.297 73.9487 214.582 72.8387C215.926 71.6703 216.218 70.6771 216.218 70.6187C216.335 70.2682 216.686 70.0929 217.036 70.2098C217.387 70.3266 217.562 70.6771 217.445 71.0277C217.387 71.2029 215.926 75.9351 206.754 77.3372C206.812 77.3372 206.754 77.3372 206.696 77.3372Z" fill="#C8C8C8"/>
<path d="M215.458 121.212C208.506 121.212 205.176 119.985 200.619 115.72C196.997 112.39 196.238 106.314 196.705 101.816C196.763 101.465 197.056 101.232 197.406 101.232C197.757 101.29 197.99 101.582 197.99 101.933C197.581 106.139 198.224 111.748 201.496 114.727C205.351 118.349 208.156 119.868 215.458 119.868C223.17 119.868 228.545 116.071 231.408 108.593C232.342 106.198 232.459 101.173 232.109 99.7712C232.05 99.4206 232.225 99.0701 232.576 99.0117C232.927 98.9533 233.277 99.1285 233.335 99.4791C233.744 101.29 233.569 106.49 232.576 109.119C229.538 117.122 223.754 121.212 215.458 121.212Z" fill="#C8C8C8"/>
</svg>
