<svg width="308" height="342" viewBox="0 0 308 342" fill="none" xmlns="http://www.w3.org/2000/svg">
<path d="M73.9909 212.459L52.4678 185.216L58.0023 180.912L80.5093 208.953L73.9909 212.459Z" fill="white"/>
<path d="M306.849 217.055C300.738 192.724 235.008 188.266 160.037 207.098C85.0661 225.929 29.2446 260.919 35.356 285.249C38.4865 297.712 60.1134 307.732 89.9794 311.158C118.418 314.42 154.273 311.622 190.84 302.437C265.811 283.606 312.961 241.385 306.849 217.055Z" fill="black"/>
<path d="M58.5987 194.508H57.5635L56.0108 195.543L55.4932 196.06V197.613L56.5283 198.131L58.5987 199.166H60.1513L60.669 198.648L61.1865 198.131V197.613L58.5987 194.508Z" fill="#C8C8C8"/>
<path d="M71.5381 197.096L65.3271 189.85L68.9503 187.262V184.156L73.6182 183.15L76.1963 186.744L79.8194 185.709L82.4072 188.297L80.3369 192.955L71.5381 197.096Z" fill="#C8C8C8"/>
<path d="M36.2332 55.8318C36.2332 55.8318 47.9171 60.8743 56.2804 59.6445C56.2804 59.6445 54.0667 96.7257 73.0685 99.862C76.9596 100.504 95.9445 100.784 126.2 70.8981C126.2 70.8981 127.676 51.7118 129.889 36.7071C130.455 32.8733 132.103 31.6645 142.926 29.5737L154.426 28.1594C154.426 28.1594 177.117 28.9588 177.917 39.7204L181.914 61.8584C182.251 64.5368 185.239 69.9129 187.817 70.7137C195.792 73.1904 211.154 79.3993 220.225 89.1006C233.508 103.306 251.056 118.878 253.678 150.042C254.658 161.684 254.6 176.524 244.269 195.425C242.135 199.33 237.628 205.94 237.628 205.94L248.697 279.795C248.697 279.795 237.526 286.158 222.131 292.217C208.92 297.417 192.488 302.132 178.593 305.377C154.751 310.945 129.904 312.627 112.425 312.634C99.7884 312.639 90.8402 310.789 90.8402 310.789L109.412 145.43C109.412 145.43 59.63 167.71 35.864 153.424C13.3569 139.895 18.8914 102.384 20.3673 98.2635C24.764 85.9898 30.1249 68.0339 36.2332 55.8318Z" fill="white"/>
<path d="M33.2812 53.4336L47.6613 32.4475L48.1824 31.0971C48.1824 31.0971 45.4249 7.8967 54.341 4.67388L55.4933 4.55673L57.3879 3.38486L59.1163 3.52157C59.1163 3.52157 61.1866 -1.13658 63.257 2.4864C63.257 2.4864 64.8096 -0.101412 67.9151 0.933751L77.3389 1.97869C77.3389 1.97869 77.4903 5.33315 72.8322 4.29798C68.174 3.26282 66.1037 6.36831 66.1037 6.36831L66.6214 8.95613C66.6214 8.95613 66.6214 11.5439 64.5511 11.0265L65.3816 12.2936L62.9982 17.2374V19.3078L66.1037 25.0011L69.2092 25.5186H77.4905C77.4905 25.5186 83.1838 26.036 77.4905 28.624C77.4905 28.624 69.7269 30.6944 64.5511 30.1767C64.5511 30.1767 64.0336 32.7645 59.8929 33.2822L61.4461 58.2914C61.4457 58.2916 43.8914 63.0088 33.2812 53.4336Z" fill="#C8C8C8"/>
<path d="M140.893 66.6662L135.2 63.0432L132.593 56.676L134.165 50.6213L136.235 47.5158C136.235 47.5158 138.14 46.8322 138.481 46.6564C138.823 46.4806 164.702 42.34 164.702 42.34L170.913 43.8926L173.501 45.4453L175.571 49.5859L176.089 54.2441C176.089 54.2441 174.653 58.6875 174.077 59.3125C173.501 59.9376 172.466 63.043 171.431 63.043C170.396 63.043 160.454 58.258 160.454 58.258L155.645 58.1262L152.539 59.1613C152.539 59.1613 150.732 60.0304 150.083 60.631C149.434 61.2316 148.399 63.7805 147.622 64.0588C146.846 64.3371 143.223 66.4075 143.223 66.4075L140.893 66.6662Z" fill="#C8C8C8"/>
<path d="M146.549 58.9965C149.028 58.9965 151.038 57.8144 151.038 56.3561C151.038 54.8979 149.028 53.7158 146.549 53.7158C144.07 53.7158 142.061 54.8979 142.061 56.3561C142.061 57.8144 144.07 58.9965 146.549 58.9965Z" fill="white"/>
<path d="M146.549 59.5397C143.728 59.5397 141.518 58.1413 141.518 56.3561C141.518 54.571 143.728 53.1726 146.549 53.1726C149.371 53.1726 151.581 54.571 151.581 56.3561C151.581 58.1413 149.371 59.5397 146.549 59.5397ZM146.549 54.259C144.411 54.259 142.604 55.2194 142.604 56.3561C142.604 57.4929 144.411 58.4533 146.549 58.4533C148.688 58.4533 150.495 57.4929 150.495 56.3561C150.495 55.2194 148.688 54.259 146.549 54.259Z" fill="black"/>
<path d="M163.247 56.3456C165.726 56.3456 167.736 55.1635 167.736 53.7053C167.736 52.2471 165.726 51.0649 163.247 51.0649C160.768 51.0649 158.759 52.2471 158.759 53.7053C158.759 55.1635 160.768 56.3456 163.247 56.3456Z" fill="white"/>
<path d="M163.248 56.8888C160.426 56.8888 158.216 55.4903 158.216 53.7051C158.216 51.92 160.426 50.5216 163.248 50.5216C166.069 50.5216 168.28 51.92 168.28 53.7051C168.28 55.4903 166.069 56.8888 163.248 56.8888ZM163.248 51.608C161.109 51.608 159.302 52.5684 159.302 53.7051C159.302 54.8419 161.109 55.8024 163.248 55.8024C165.386 55.8024 167.193 54.8419 167.193 53.7051C167.193 52.5684 165.386 51.608 163.248 51.608Z" fill="black"/>
<path d="M144.215 56.6622C145.09 56.6622 145.799 56.1303 145.799 55.4741C145.799 54.8178 145.09 54.2859 144.215 54.2859C143.34 54.2859 142.631 54.8178 142.631 55.4741C142.631 56.1303 143.34 56.6622 144.215 56.6622Z" fill="black"/>
<path d="M160.649 54.5288C161.524 54.5288 162.233 53.9968 162.233 53.3406C162.233 52.6844 161.524 52.1525 160.649 52.1525C159.774 52.1525 159.064 52.6844 159.064 53.3406C159.064 53.9968 159.774 54.5288 160.649 54.5288Z" fill="black"/>
<path d="M70.8687 197.18C70.7108 197.18 70.5541 197.111 70.4468 196.979L69.6236 195.966C69.4344 195.733 69.4697 195.391 69.7028 195.202C69.9351 195.013 70.2775 195.048 70.4669 195.281L71.29 196.294C71.4792 196.527 71.4439 196.869 71.2109 197.058C71.1102 197.14 70.9892 197.18 70.8687 197.18Z" fill="black"/>
<path d="M149.731 62.3888C149.731 62.3888 150.602 63.0432 152.798 63.0432C154.868 63.0432 160.578 61.6421 165.22 64.5958C170.913 68.2188 174.019 65.631 174.019 65.631L169.243 62.3888L164.497 60.4552L158.696 58.3457L154.868 57.8672L152.28 59.9375L149.731 62.3888Z" fill="#C8C8C8"/>
<path d="M61.0616 199.974C60.5663 199.974 59.7845 199.874 58.5306 199.665C55.5597 199.17 54.8008 197.855 54.6129 197.116C54.4137 196.333 54.6742 195.524 55.2759 195.054C56.1909 194.339 58.3275 193.539 58.418 193.505L58.7758 193.372L62.1844 197.797L61.6658 198.847C62.0127 199.106 61.9765 199.4 61.937 199.53C61.8487 199.82 61.6739 199.974 61.0616 199.974ZM61.058 199.685H61.0598H61.058ZM58.425 194.613C57.6997 194.902 56.4619 195.441 55.9133 195.869C55.6853 196.047 55.505 196.423 55.6161 196.861C55.7175 197.259 56.2207 198.23 58.7008 198.644C59.3778 198.756 59.8765 198.827 60.2435 198.871C60.2609 198.846 60.2808 198.822 60.3033 198.8L60.7605 198.343L60.9703 197.917L58.425 194.613Z" fill="black"/>
<path d="M153.315 93.5802C154.459 93.5802 155.386 92.6533 155.386 91.5099C155.386 90.3665 154.459 89.4396 153.315 89.4396C152.172 89.4396 151.245 90.3665 151.245 91.5099C151.245 92.6533 152.172 93.5802 153.315 93.5802Z" fill="black"/>
<path d="M153.315 94.0977C151.888 94.0977 150.728 92.9367 150.728 91.5097C150.728 90.0827 151.888 88.9219 153.315 88.9219C154.742 88.9219 155.903 90.0827 155.903 91.5097C155.903 92.9367 154.742 94.0977 153.315 94.0977ZM153.315 89.957C152.459 89.957 151.763 90.6536 151.763 91.5097C151.763 92.3658 152.459 93.0625 153.315 93.0625C154.171 93.0625 154.868 92.3658 154.868 91.5097C154.868 90.6536 154.172 89.957 153.315 89.957Z" fill="black"/>
<path d="M155.903 117.906C157.047 117.906 157.974 116.979 157.974 115.836C157.974 114.692 157.047 113.766 155.903 113.766C154.76 113.766 153.833 114.692 153.833 115.836C153.833 116.979 154.76 117.906 155.903 117.906Z" fill="black"/>
<path d="M155.903 118.424C154.476 118.424 153.315 117.263 153.315 115.836C153.315 114.409 154.476 113.248 155.903 113.248C157.33 113.248 158.491 114.409 158.491 115.836C158.491 117.263 157.33 118.424 155.903 118.424ZM155.903 114.283C155.047 114.283 154.351 114.98 154.351 115.836C154.351 116.692 155.047 117.389 155.903 117.389C156.76 117.389 157.456 116.692 157.456 115.836C157.456 114.98 156.76 114.283 155.903 114.283Z" fill="black"/>
<path d="M81.4311 15.2678C82.0548 15.2678 82.5604 14.7622 82.5604 14.1385C82.5604 13.5148 82.0548 13.0092 81.4311 13.0092C80.8074 13.0092 80.3018 13.5148 80.3018 14.1385C80.3018 14.7622 80.8074 15.2678 81.4311 15.2678Z" fill="#C8C8C8"/>
<path d="M81.4313 15.811C80.509 15.811 79.7588 15.0607 79.7588 14.1385C79.7588 13.2163 80.5091 12.4662 81.4313 12.4662C82.3535 12.4662 83.1037 13.2165 83.1037 14.1385C83.1038 15.0607 82.3535 15.811 81.4313 15.811ZM81.4313 13.5524C81.1081 13.5524 80.8452 13.8153 80.8452 14.1383C80.8452 14.4616 81.1081 14.7245 81.4313 14.7245C81.7543 14.7245 82.0172 14.4616 82.0172 14.1383C82.0174 13.8155 81.7545 13.5524 81.4313 13.5524Z" fill="black"/>
<path d="M77.0044 11.5892C77.9399 11.5892 78.6983 10.8308 78.6983 9.8953C78.6983 8.9598 77.9399 8.20142 77.0044 8.20142C76.0689 8.20142 75.3105 8.9598 75.3105 9.8953C75.3105 10.8308 76.0689 11.5892 77.0044 11.5892Z" fill="#C8C8C8"/>
<path d="M77.0045 12.1324C75.7709 12.1324 74.7676 11.129 74.7676 9.89554C74.7676 8.6621 75.7711 7.65845 77.0045 7.65845C78.2379 7.65845 79.2416 8.6621 79.2416 9.89554C79.2416 11.129 78.2381 12.1324 77.0045 12.1324ZM77.0045 8.74467C76.37 8.74467 75.854 9.2609 75.854 9.89536C75.854 10.5298 76.3702 11.0459 77.0045 11.0459C77.6391 11.0459 78.1552 10.5296 78.1552 9.89536C78.1554 9.26071 77.6391 8.74467 77.0045 8.74467Z" fill="black"/>
<path d="M74.3004 20.8482C73.8892 20.8482 73.5292 20.6228 73.3384 20.289C73.143 20.4612 72.8868 20.5657 72.6065 20.5657C71.9956 20.5657 71.4987 20.0689 71.4987 19.4579C71.4987 19.4406 71.4991 19.4234 71.5 19.4062C71.3034 19.3591 71.123 19.2588 70.9764 19.1121C70.5443 18.6801 70.5443 17.9774 70.9764 17.5455C71.0077 17.514 71.0407 17.4847 71.0751 17.4577C70.9854 17.2978 70.9342 17.1135 70.9342 16.9174C70.9342 16.3065 71.431 15.8096 72.0419 15.8096C72.0492 15.8096 72.0564 15.8096 72.0635 15.8098C72.0633 15.8026 72.0633 15.7955 72.0633 15.7882C72.0633 15.1773 72.5603 14.6803 73.1713 14.6803C73.5825 14.6803 73.9422 14.9057 74.1333 15.2394C74.3285 15.0672 74.5847 14.9628 74.865 14.9628C75.4759 14.9628 75.9727 15.4596 75.9727 16.0705C75.9727 16.1824 75.9555 16.2914 75.9237 16.3946C76.4336 16.4937 76.8198 16.9436 76.8198 17.4821C76.8198 17.8347 76.6543 18.1494 76.3968 18.3525C76.4886 18.5158 76.5373 18.7011 76.5373 18.8937C76.5373 19.1898 76.4222 19.4679 76.2128 19.677C76.0037 19.8863 75.7256 20.0015 75.4295 20.0015C75.412 20.0015 75.3948 20.0011 75.3774 20.0002C75.2604 20.486 74.8219 20.8482 74.3004 20.8482Z" fill="#C8C8C8"/>
<path d="M73.1712 15.2234C73.4829 15.2234 73.7357 15.4761 73.7357 15.7879C73.7357 15.893 73.7051 15.99 73.6552 16.0744C73.6819 16.0731 73.7084 16.0704 73.7357 16.0704C73.9378 16.0704 74.1308 16.1077 74.3106 16.1727C74.3045 16.1396 74.3003 16.1055 74.3003 16.0704C74.3003 15.7586 74.5531 15.5058 74.8649 15.5058C75.1767 15.5058 75.4294 15.7586 75.4294 16.0704C75.4294 16.3415 75.2384 16.5673 74.9836 16.6219C75.1127 16.763 75.2197 16.9247 75.2954 17.1032C75.3986 16.9897 75.5462 16.9173 75.7117 16.9173C76.0235 16.9173 76.2763 17.17 76.2763 17.4818C76.2763 17.7936 76.0235 18.0464 75.7117 18.0464C75.6033 18.0464 75.5029 18.0143 75.4169 17.9613C75.4017 18.0924 75.3708 18.2182 75.3273 18.3385C75.3612 18.3323 75.3956 18.3292 75.43 18.3292C75.5743 18.3292 75.7186 18.3841 75.8287 18.4942C76.0492 18.7147 76.0492 19.0721 75.8287 19.2927C75.7184 19.4029 75.5739 19.458 75.4294 19.458C75.2849 19.458 75.1404 19.4028 75.0302 19.2927C74.9503 19.2128 74.9003 19.1147 74.8783 19.0118C74.7819 19.1002 74.676 19.1782 74.5612 19.2425C74.7408 19.337 74.8649 19.5232 74.8649 19.7403C74.8649 20.0521 74.6121 20.3048 74.3003 20.3048C73.9885 20.3048 73.7357 20.0521 73.7357 19.7403C73.7357 19.6353 73.7663 19.5382 73.8163 19.4538C73.7895 19.4551 73.7631 19.4578 73.7357 19.4578C73.5336 19.4578 73.3406 19.4205 73.1608 19.3555C73.167 19.3886 73.1712 19.4227 73.1712 19.4578C73.1712 19.7696 72.9184 20.0224 72.6066 20.0224C72.2948 20.0224 72.042 19.7696 72.042 19.4578C72.042 19.1868 72.233 18.961 72.4878 18.9063C72.3996 18.81 72.3218 18.7042 72.2575 18.5894C72.2316 18.6388 72.2005 18.6863 72.159 18.7277C72.0487 18.838 71.9042 18.8931 71.7597 18.8931C71.6152 18.8931 71.4707 18.8378 71.3605 18.7277C71.1399 18.5072 71.1399 18.1498 71.3605 17.9292C71.4702 17.8195 71.6134 17.7652 71.757 17.7652C71.857 17.7652 71.9571 17.7916 72.046 17.8441C72.0447 17.8173 72.042 17.7909 72.042 17.7639C72.042 17.6667 72.0522 17.5718 72.0677 17.4789C72.059 17.4793 72.0507 17.4815 72.042 17.4815C71.7302 17.4815 71.4774 17.2287 71.4774 16.9169C71.4774 16.6051 71.7302 16.3523 72.042 16.3523C72.2358 16.3523 72.4067 16.4501 72.5083 16.5989C72.6256 16.4754 72.7605 16.3693 72.9102 16.2855C72.7306 16.191 72.6066 16.0049 72.6066 15.7876C72.6064 15.4761 72.8592 15.2234 73.1712 15.2234ZM73.1712 14.137C72.4194 14.137 71.7833 14.642 71.5845 15.3307C70.8959 15.5296 70.3907 16.1655 70.3907 16.9174C70.3907 17.0605 70.409 17.1992 70.4434 17.3317C70.2261 17.6173 70.1084 17.9642 70.1084 18.329C70.1084 18.7701 70.2802 19.1848 70.592 19.4966C70.7108 19.6153 70.8444 19.7138 70.9889 19.7901C71.143 20.542 71.8097 21.1093 72.6064 21.1093C72.824 21.1093 73.0319 21.067 73.2222 20.9902C73.5117 21.2402 73.8885 21.3916 74.3001 21.3916C74.932 21.3916 75.4823 21.0347 75.7597 20.5118C76.0748 20.4481 76.3645 20.2934 76.5969 20.0609C76.9087 19.7493 77.0806 19.3347 77.0806 18.8936C77.0806 18.7515 77.0627 18.6119 77.0281 18.4777C77.2381 18.2007 77.3629 17.8557 77.3629 17.482C77.3629 16.8633 77.0206 16.3228 76.5156 16.0402C76.4995 15.1437 75.7651 14.4194 74.8649 14.4194C74.6472 14.4194 74.4393 14.4618 74.249 14.5386C73.9595 14.2883 73.5827 14.137 73.1712 14.137Z" fill="black"/>
<path d="M157.974 142.75C159.117 142.75 160.044 141.823 160.044 140.68C160.044 139.536 159.117 138.609 157.974 138.609C156.83 138.609 155.903 139.536 155.903 140.68C155.903 141.823 156.83 142.75 157.974 142.75Z" fill="black"/>
<path d="M157.974 143.267C156.547 143.267 155.386 142.107 155.386 140.68C155.386 139.253 156.547 138.092 157.974 138.092C159.401 138.092 160.561 139.253 160.561 140.68C160.561 142.107 159.401 143.267 157.974 143.267ZM157.974 139.127C157.117 139.127 156.421 139.824 156.421 140.68C156.421 141.536 157.117 142.232 157.974 142.232C158.83 142.232 159.526 141.536 159.526 140.68C159.526 139.824 158.83 139.127 157.974 139.127Z" fill="black"/>
<path d="M160.562 170.182C161.705 170.182 162.632 169.255 162.632 168.111C162.632 166.968 161.705 166.041 160.562 166.041C159.418 166.041 158.491 166.968 158.491 168.111C158.491 169.255 159.418 170.182 160.562 170.182Z" fill="black"/>
<path d="M160.561 170.699C159.134 170.699 157.974 169.538 157.974 168.111C157.974 166.684 159.134 165.523 160.561 165.523C161.988 165.523 163.149 166.684 163.149 168.111C163.149 169.538 161.988 170.699 160.561 170.699ZM160.561 166.559C159.705 166.559 159.009 167.255 159.009 168.111C159.009 168.967 159.705 169.664 160.561 169.664C161.418 169.664 162.114 168.967 162.114 168.111C162.114 167.255 161.418 166.559 160.561 166.559Z" fill="black"/>
<path d="M166.501 236.954C167.644 236.954 168.571 236.027 168.571 234.884C168.571 233.741 167.644 232.814 166.501 232.814C165.358 232.814 164.431 233.741 164.431 234.884C164.431 236.027 165.358 236.954 166.501 236.954Z" fill="black"/>
<path d="M166.501 237.472C165.074 237.472 163.913 236.311 163.913 234.884C163.913 233.457 165.074 232.296 166.501 232.296C167.928 232.296 169.089 233.457 169.089 234.884C169.089 236.311 167.928 237.472 166.501 237.472ZM166.501 233.331C165.645 233.331 164.948 234.028 164.948 234.884C164.948 235.74 165.645 236.437 166.501 236.437C167.357 236.437 168.054 235.74 168.054 234.884C168.054 234.028 167.357 233.331 166.501 233.331Z" fill="black"/>
<path d="M168.325 259.722C169.469 259.722 170.396 258.796 170.396 257.652C170.396 256.509 169.469 255.582 168.325 255.582C167.182 255.582 166.255 256.509 166.255 257.652C166.255 258.796 167.182 259.722 168.325 259.722Z" fill="black"/>
<path d="M168.325 260.24C166.898 260.24 165.737 259.079 165.737 257.652C165.737 256.225 166.898 255.064 168.325 255.064C169.752 255.064 170.913 256.225 170.913 257.652C170.913 259.079 169.752 260.24 168.325 260.24ZM168.325 256.099C167.469 256.099 166.772 256.796 166.772 257.652C166.772 258.508 167.469 259.205 168.325 259.205C169.181 259.205 169.878 258.508 169.878 257.652C169.878 256.796 169.181 256.099 168.325 256.099Z" fill="black"/>
<path d="M169.878 283.531C171.021 283.531 171.948 282.604 171.948 281.461C171.948 280.317 171.021 279.39 169.878 279.39C168.735 279.39 167.808 280.317 167.808 281.461C167.808 282.604 168.735 283.531 169.878 283.531Z" fill="black"/>
<path d="M169.878 284.049C168.451 284.049 167.29 282.888 167.29 281.461C167.29 280.034 168.451 278.873 169.878 278.873C171.305 278.873 172.466 280.034 172.466 281.461C172.466 282.888 171.305 284.049 169.878 284.049ZM169.878 279.908C169.022 279.908 168.325 280.605 168.325 281.461C168.325 282.317 169.022 283.014 169.878 283.014C170.734 283.014 171.431 282.317 171.431 281.461C171.431 280.605 170.734 279.908 169.878 279.908Z" fill="black"/>
<path d="M84.5486 201.131C83.9176 201.131 83.4179 200.884 83.0621 200.617C82.4776 200.179 82.1857 199.616 82.1544 199.553C82.0265 199.298 82.1301 198.987 82.3858 198.859C82.6405 198.732 82.9505 198.834 83.0791 199.088C83.1609 199.248 83.9154 200.611 85.4067 199.866C85.6622 199.739 85.9734 199.842 86.1011 200.097C86.2289 200.353 86.1254 200.664 85.8697 200.792C85.3814 201.036 84.9397 201.131 84.5486 201.131Z" fill="black"/>
<path d="M141.93 52.1994C141.739 52.1994 141.553 52.0984 141.454 51.9197C141.309 51.6575 141.403 51.3272 141.665 51.1816C141.866 51.0697 146.635 48.4701 150.48 50.6672C150.74 50.8161 150.831 51.1478 150.682 51.4083C150.533 51.6687 150.201 51.7594 149.941 51.6104C146.632 49.7197 142.236 52.1071 142.192 52.1315C142.109 52.1777 142.019 52.1994 141.93 52.1994Z" fill="black"/>
<path d="M159.01 49.6114C158.819 49.6114 158.633 49.5104 158.534 49.3316C158.389 49.0695 158.483 48.7392 158.745 48.5936C158.946 48.4817 163.715 45.8821 167.56 48.0792C167.82 48.2279 167.911 48.5598 167.762 48.8203C167.613 49.0807 167.282 49.1714 167.021 49.0224C163.711 47.1319 159.316 49.5191 159.272 49.5435C159.189 49.5895 159.099 49.6114 159.01 49.6114Z" fill="black"/>
<path d="M240.458 204.819L239.384 204.984L250.331 276.075L251.405 275.91L240.458 204.819Z" fill="black"/>
<path d="M146.371 28.9587C146.371 28.9587 141.105 36.3392 158.185 36.3392C158.185 36.3392 171.495 34.2433 175.827 42.4262C180.485 51.2249 178.973 42.1964 178.84 41.1963C177.302 29.6352 165.667 27.0251 146.371 28.9587Z" fill="#C8C8C8"/>
<path d="M179.639 305.008L185.05 303.655L176.318 227.894L172.137 227.771L179.639 305.008Z" fill="#C8C8C8"/>
<path d="M159.009 84.2637L162.114 83.7462L171.948 173.287C168.061 178.629 167.29 177.428 167.29 177.428L159.009 84.2637Z" fill="#C8C8C8"/>
<path d="M162.126 122.564L115.527 123.6L114.823 128.518L163.247 127.955L162.126 122.564Z" fill="#C8C8C8"/>
<path d="M226.953 80.8816C231.67 80.8816 235.493 77.0581 235.493 72.3416C235.493 67.625 231.67 63.8015 226.953 63.8015C222.237 63.8015 218.413 67.625 218.413 72.3416C218.413 77.0581 222.237 80.8816 226.953 80.8816Z" fill="white"/>
<path d="M239.893 59.1433C242.894 59.1433 245.327 56.7102 245.327 53.7087C245.327 50.7073 242.894 48.2742 239.893 48.2742C236.891 48.2742 234.458 50.7073 234.458 53.7087C234.458 56.7102 236.891 59.1433 239.893 59.1433Z" fill="#C8C8C8"/>
<path d="M259.561 85.5397C267.421 85.5397 273.794 79.1672 273.794 71.3064C273.794 63.4455 267.421 57.073 259.561 57.073C251.7 57.073 245.327 63.4455 245.327 71.3064C245.327 79.1672 251.7 85.5397 259.561 85.5397Z" fill="white"/>
<path d="M36.2842 225.921C38.1422 225.921 39.6484 224.415 39.6484 222.557C39.6484 220.699 38.1422 219.193 36.2842 219.193C34.4261 219.193 32.9199 220.699 32.9199 222.557C32.9199 224.415 34.4261 225.921 36.2842 225.921Z" fill="white"/>
<path d="M45.3418 219.71C48.7721 219.71 51.5528 216.929 51.5528 213.499C51.5528 210.069 48.7721 207.288 45.3418 207.288C41.9116 207.288 39.1309 210.069 39.1309 213.499C39.1309 216.929 41.9116 219.71 45.3418 219.71Z" fill="white"/>
<path d="M135.317 129.577H115.274C114.974 129.577 114.73 129.334 114.73 129.034C114.73 128.734 114.974 128.491 115.274 128.491H135.317C135.618 128.491 135.861 128.734 135.861 129.034C135.861 129.334 135.618 129.577 135.317 129.577Z" fill="black"/>
<path d="M89.6541 192.955L122.261 188.814L121.226 204.859L119.415 210.294L117.344 214.952L115.455 217.516L113.873 217.603L82.6667 205.636L79.5259 206.125L76.9734 204.083C76.9734 204.083 73.4431 207.018 72.4079 205.465C71.3728 203.912 74.4978 201.227 74.4978 201.227L73.5896 200.289C73.5896 200.289 67.6569 206.153 66.1043 204.601C64.5516 203.048 71.3923 196.188 71.3923 196.188L75.4207 191.661L79.5614 188.556C79.5614 188.556 79.5614 185.45 75.4207 189.073L69.7274 195.284C69.7274 195.284 64.0341 202.013 61.9638 199.943C61.9638 199.943 60.831 197.843 62.6913 196.305L73.3506 183.38L71.3925 184.645L62.4815 187.521C62.4815 187.521 58.331 188.224 60.4063 183.473L62.999 181.827L66.6219 180.275L75.7284 177.379C75.7284 177.379 79.5614 176.652 78.5262 180.792C78.5262 180.792 82.1492 182.863 83.1844 184.415C83.1844 184.415 87.325 187.52 89.6541 192.955Z" fill="#C8C8C8"/>
<path d="M66.7392 205.234C66.1554 205.234 65.7379 205.043 65.4929 204.663C64.7274 203.473 66.4254 201.008 66.9643 200.281L66.9932 200.245L74.9155 191.264L80.3765 187.423C80.6218 187.25 80.961 187.309 81.1333 187.555C81.3059 187.8 81.2469 188.139 81.0013 188.312L75.6454 192.079L67.8236 200.946C66.8804 202.227 66.1927 203.743 66.4066 204.075C66.4352 204.119 66.6581 204.215 67.2875 204.081C70.0344 203.496 75.8833 197.33 77.9051 195.004L77.9487 194.954L83.6486 190.958C83.8944 190.785 84.2332 190.845 84.4052 191.091C84.5774 191.336 84.518 191.675 84.2725 191.847L78.6812 195.767C78.0009 196.545 71.0694 204.386 67.514 205.144C67.2297 205.204 66.9713 205.234 66.7392 205.234Z" fill="black"/>
<path d="M73.5092 206.593C72.7746 206.593 72.3411 206.297 72.0851 205.946C71.3456 204.932 71.9813 203.05 73.0216 202.108C75.9239 199.48 84.5081 190.095 84.5945 190.001C84.7966 189.779 85.1404 189.764 85.3618 189.966C85.5833 190.169 85.5987 190.512 85.3961 190.734C85.0421 191.121 76.6907 200.251 73.7507 202.914C73.0379 203.559 72.6181 204.834 72.9627 205.306C73.2202 205.659 74.242 205.653 76.2761 204.477C78.5836 203.143 84.3577 196.382 84.4158 196.314C84.6102 196.085 84.9534 196.058 85.1815 196.253C85.41 196.447 85.4374 196.79 85.2427 197.018C85.0008 197.303 79.2876 203.991 76.82 205.418C75.3177 206.286 74.2572 206.593 73.5092 206.593Z" fill="black"/>
<path d="M74.5994 201.849C74.4503 201.849 74.3019 201.788 74.1948 201.669L73.2042 200.564C73.004 200.341 73.0226 199.997 73.2459 199.797C73.4693 199.596 73.813 199.615 74.0129 199.838L75.0035 200.943C75.2038 201.167 75.1851 201.51 74.9619 201.71C74.8581 201.803 74.7285 201.849 74.5994 201.849Z" fill="black"/>
<path d="M66.0317 203.401C65.8716 203.401 65.713 203.33 65.6056 203.195L63.6811 200.769C63.4948 200.534 63.534 200.193 63.7691 200.006C64.0037 199.82 64.3456 199.859 64.5323 200.094L66.4568 202.52C66.6432 202.755 66.6039 203.097 66.3688 203.283C66.2691 203.363 66.1499 203.401 66.0317 203.401Z" fill="black"/>
<path d="M157.112 80.1196C160.757 80.1196 163.713 77.1642 163.713 73.5186C163.713 69.873 160.757 66.9176 157.112 66.9176C153.466 66.9176 150.511 69.873 150.511 73.5186C150.511 77.1642 153.466 80.1196 157.112 80.1196Z" fill="#C8C8C8"/>
<path d="M157.111 78.5218C159.875 78.5218 162.115 76.2818 162.115 73.5187C162.115 70.7556 159.875 68.5156 157.111 68.5156C154.348 68.5156 152.108 70.7556 152.108 73.5187C152.108 76.2818 154.348 78.5218 157.111 78.5218Z" fill="white"/>
<path d="M157.112 79.065C154.053 79.065 151.565 76.5769 151.565 73.5187C151.565 70.4605 154.053 67.9724 157.112 67.9724C160.17 67.9724 162.658 70.4605 162.658 73.5187C162.658 76.5769 160.17 79.065 157.112 79.065ZM157.112 69.0588C154.653 69.0588 152.652 71.0596 152.652 73.5187C152.652 75.9778 154.653 77.9786 157.112 77.9786C159.571 77.9786 161.572 75.9778 161.572 73.5187C161.572 71.0596 159.571 69.0588 157.112 69.0588Z" fill="black"/>
<path d="M56.5066 177.744L49.4419 184.014C48.8898 184.504 48.8389 185.356 49.3289 185.908L49.3466 185.928C49.8366 186.48 50.689 186.531 51.2411 186.041L58.3058 179.772C58.8579 179.282 58.9088 178.429 58.4188 177.877L58.4011 177.857C57.9113 177.305 57.0586 177.254 56.5066 177.744Z" fill="white"/>
<path d="M80.5408 208.437L74.2061 212.434L74.7858 213.353L81.1205 209.356L80.5408 208.437Z" fill="black"/>
<path d="M119.251 212.52C119.251 212.52 222.467 239.82 240.272 178.329C246.808 155.758 251.929 126.401 214.076 93.8353C206.514 87.3301 200.39 83.3349 188.986 75.9404C186.571 74.3748 174.965 62.2887 181.422 59.8903C181.422 59.8903 186.649 69.1144 196.816 74.034C196.816 74.034 215.839 81.5773 223.71 91.8264C223.71 91.8264 239.206 108.881 241.994 114.784C244.782 120.688 251.177 128.477 253.555 143.646C253.555 143.646 257.983 166.604 249.127 185.954C240.272 205.304 229.613 216.619 216.494 221.293C203.376 225.966 183.369 229.164 163.117 226.213C142.865 223.261 117.201 215.389 117.201 215.389L119.251 212.52Z" fill="#C8C8C8"/>
<path d="M255.769 188.465C255.668 188.465 255.566 188.437 255.475 188.378C255.223 188.216 255.151 187.879 255.313 187.628C255.362 187.553 260.187 179.982 262.486 168.31C264.604 157.555 264.949 141.01 254.563 123.258C254.411 122.999 254.498 122.667 254.757 122.515C255.016 122.363 255.349 122.451 255.5 122.71C260.166 130.683 263.109 139.088 264.247 147.691C265.157 154.575 264.921 161.598 263.543 168.565C261.198 180.429 256.275 188.141 256.226 188.217C256.122 188.378 255.947 188.465 255.769 188.465Z" fill="black"/>
<path d="M44.3512 166.512C44.3184 166.512 44.2855 166.509 44.252 166.503C44.0445 166.464 39.0975 165.53 32.8563 162.561C27.0882 159.817 19.1258 154.746 13.9492 146.17C7.50541 135.495 6.75941 121.992 11.7317 106.034C11.8208 105.748 12.1262 105.587 12.412 105.677C12.6984 105.766 12.8583 106.071 12.769 106.357C7.89452 122.001 8.60285 135.204 14.8743 145.6C19.9042 153.938 27.6658 158.884 33.2909 161.565C39.4093 164.48 44.3999 165.425 44.4495 165.434C44.7443 165.489 44.9393 165.772 44.8846 166.067C44.8364 166.329 44.6081 166.512 44.3512 166.512Z" fill="black"/>
<path d="M120.118 320.571C118.855 320.571 118.16 320.556 118.131 320.556C117.832 320.549 117.594 320.3 117.601 320C117.608 319.701 117.861 319.459 118.156 319.47C118.277 319.472 130.411 319.726 146.977 318.041C162.252 316.487 184.528 312.921 203.902 304.753C204.178 304.637 204.497 304.766 204.614 305.043C204.73 305.319 204.601 305.638 204.324 305.755C184.821 313.976 162.425 317.563 147.07 319.123C134.35 320.416 124.228 320.571 120.118 320.571Z" fill="black"/>
<path d="M275.693 191.366C280.448 191.366 284.302 187.511 284.302 182.757C284.302 178.002 280.448 174.147 275.693 174.147C270.938 174.147 267.084 178.002 267.084 182.757C267.084 187.511 270.938 191.366 275.693 191.366Z" fill="black"/>
<path d="M283.195 282.501C286.592 282.501 289.345 279.748 289.345 276.352C289.345 272.955 286.592 270.202 283.195 270.202C279.799 270.202 277.046 272.955 277.046 276.352C277.046 279.748 279.799 282.501 283.195 282.501Z" fill="black"/>
<path d="M66.1191 253.404C65.9866 253.404 65.8533 253.355 65.7487 253.258C65.5294 253.053 65.5176 252.709 65.7222 252.49C69.1902 248.774 90.7805 237.601 91.6978 237.127C91.9647 236.989 92.2921 237.094 92.4297 237.36C92.5675 237.627 92.463 237.955 92.1965 238.092C91.9736 238.208 69.8571 249.652 66.5166 253.231C66.4096 253.346 66.2645 253.404 66.1191 253.404Z" fill="white"/>
<path d="M258.722 268.654C258.542 268.654 258.366 268.565 258.263 268.402C258.102 268.149 258.177 267.813 258.43 267.652C258.765 267.44 291.95 246.207 294.343 231.129C294.391 230.833 294.667 230.63 294.965 230.678C295.262 230.725 295.464 231.003 295.417 231.3C294.375 237.86 287.919 246.134 276.226 255.891C267.567 263.117 259.097 268.516 259.013 268.569C258.922 268.627 258.821 268.654 258.722 268.654Z" fill="white"/>
<path d="M85.377 105.364L85.4289 105.274C85.4166 105.28 85.399 105.311 85.377 105.364Z" fill="black"/>
<path d="M1.24563 289.845C1.20362 297.057 3.76446 303.707 8.0429 308.898C10.1302 311.431 13.2551 312.879 16.537 312.879H45.5157C48.7972 312.879 51.9255 311.434 54.0087 308.899C58.2288 303.763 60.7629 297.189 60.7629 290.023C60.7629 287.512 60.4487 285.076 59.8631 282.747H2.14571C1.5739 285.021 1.25993 287.397 1.24563 289.845Z" fill="#C8C8C8"/>
<path d="M41.932 313.535C40.7321 313.535 39.7592 312.562 39.7592 311.362C39.7592 310.162 40.7321 309.19 41.932 309.19C45.0083 309.19 47.9987 309.991 49.4233 308.258C53.4602 303.344 55.6834 297.13 55.6834 290.76C55.6834 280.237 49.7873 271.147 39.9117 266.445C36.2333 264.693 34.9251 260.295 34.9216 257.055L34.7579 241.815C34.7451 240.615 35.7073 239.632 36.9072 239.619C38.1021 239.606 39.0903 240.568 39.1032 241.768L39.2672 257.042C39.2672 259.105 40.0534 261.699 41.7796 262.521C47.188 265.096 51.733 268.983 54.9231 273.76C58.2634 278.762 60.029 284.641 60.029 290.76C60.029 298.134 57.4549 305.328 52.7808 311.016C49.9365 314.478 44.989 313.535 41.932 313.535Z" fill="white"/>
<path d="M40.1371 239.414H38.5611C37.2132 239.414 36.1104 238.311 36.1104 236.963V236.945C36.1104 235.597 37.2132 234.494 38.5611 234.494H40.1371C41.485 234.494 42.5879 235.597 42.5879 236.945V236.963C42.5879 238.311 41.485 239.414 40.1371 239.414Z" fill="white"/>
<path d="M60.4298 283.15C60.4299 283.146 60.4312 283.141 60.4312 283.137C60.4312 283.046 60.4068 282.961 60.3673 282.886C59.5677 279.75 58.266 276.753 56.4939 274.004C53.4288 269.249 49.1136 265.452 44.0153 263.025C41.6063 261.878 40.0499 259.429 40.0499 256.786V240.359H40.577C42.2825 240.359 43.6698 238.972 43.6698 237.266V236.593C43.6698 234.887 42.2825 233.5 40.577 233.5H21.4313C19.7258 233.5 18.3384 234.887 18.3384 236.593V237.266C18.3384 238.972 19.7258 240.359 21.4313 240.359H21.9583V256.786C21.9583 259.428 20.4003 261.878 17.9886 263.027C12.9182 265.442 8.62001 269.214 5.55852 273.935C2.41573 278.783 0.736515 284.411 0.702656 290.211C0.661553 297.257 3.11954 304.147 7.62396 309.613C9.8127 312.268 13.0614 313.792 16.5374 313.792H45.5161C48.9984 313.792 52.2469 312.269 54.429 309.613C58.8641 304.215 61.3065 297.389 61.3065 290.392C61.3063 287.932 61.0074 285.504 60.4298 283.15ZM19.4248 237.266V236.593C19.4248 235.487 20.3249 234.587 21.4313 234.587H40.577C41.6833 234.587 42.5834 235.487 42.5834 236.593V237.266C42.5834 238.373 41.6833 239.273 40.577 239.273H21.4313C20.3249 239.273 19.4248 238.373 19.4248 237.266ZM4.87409 277.387H11.5122V276.3H5.44862C6.43308 274.52 7.60006 272.842 8.93018 271.299H15.7553V270.212H9.91555C12.3303 267.676 15.2083 265.554 18.456 264.007C21.2437 262.68 23.0449 259.845 23.0449 256.786V240.527H38.9637V256.786C38.9637 259.845 40.7633 262.679 43.5483 264.005C51.2638 267.679 56.8955 274.566 59.1424 282.593H2.86768C3.37231 280.793 4.04335 279.049 4.87409 277.387ZM53.5892 308.923C51.6147 311.327 48.672 312.705 45.5159 312.705H16.5372C13.3872 312.705 10.4439 311.326 8.4623 308.922C5.53245 305.367 3.50232 301.186 2.50228 296.757H8.37593V295.671H2.27849C1.94532 293.88 1.7782 292.054 1.78888 290.217C1.79087 289.875 1.79938 289.534 1.81351 289.194H8.19143V288.107H1.87959C1.9991 286.606 2.2392 285.127 2.5854 283.68H59.4236C59.9432 285.856 60.2199 288.105 60.2199 290.392C60.2199 297.138 57.8651 303.719 53.5892 308.923Z" fill="black"/>
<path d="M215.128 330.968L219.848 324.362L232.656 333.047C232.656 333.047 236.587 338.698 230.744 340.196C230.744 340.196 231.147 343.396 227.532 340.424C223.917 337.452 215.128 330.968 215.128 330.968Z" fill="#C8C8C8"/>
<path d="M232.829 335.661C232.623 335.661 232.416 335.598 232.238 335.466L207.429 317.165C206.987 316.838 206.892 316.215 207.219 315.772C207.546 315.329 208.169 315.235 208.611 315.562L233.42 333.864C233.863 334.19 233.957 334.814 233.631 335.256C233.436 335.521 233.134 335.661 232.829 335.661Z" fill="white"/>
<path d="M229.448 341.439C228.368 341.439 227.32 341.096 226.435 340.443C226.233 340.294 202.783 322.921 201.785 322.182L201.35 321.859L207.323 313.762L207.76 314.083C208.005 314.263 232.28 332.096 232.482 332.245C234.743 333.912 235.225 337.107 233.558 339.368C232.75 340.463 231.564 341.178 230.219 341.381C229.962 341.419 229.704 341.439 229.448 341.439ZM202.868 321.632C206.156 324.068 226.893 339.431 227.079 339.569C227.941 340.204 228.998 340.466 230.057 340.306C231.115 340.147 232.048 339.584 232.684 338.723C233.995 336.945 233.616 334.431 231.838 333.119C231.652 332.982 210.852 317.702 207.554 315.279L202.868 321.632Z" fill="black"/>
<path d="M199.77 324.11C199.289 324.11 198.824 323.958 198.432 323.669C197.427 322.927 197.213 321.506 197.954 320.501L205.036 310.901C205.778 309.896 207.199 309.682 208.204 310.423C209.209 311.164 209.423 312.585 208.682 313.59L201.6 323.191C201.242 323.676 200.714 323.993 200.115 324.084C199.999 324.101 199.884 324.11 199.77 324.11ZM206.861 311.068C206.499 311.068 206.141 311.233 205.911 311.546L198.828 321.147C198.643 321.398 198.566 321.709 198.614 322.022C198.661 322.335 198.825 322.609 199.077 322.795C199.329 322.98 199.641 323.057 199.953 323.01C200.265 322.963 200.54 322.798 200.726 322.546L207.808 312.946C208.194 312.423 208.082 311.683 207.559 311.298C207.349 311.142 207.104 311.068 206.861 311.068Z" fill="black"/>
<path d="M222.797 325.966L219.949 329.826L220.823 330.471L223.671 326.611L222.797 325.966Z" fill="black"/>
<path d="M216.067 321.001L213.219 324.861L214.093 325.506L216.941 321.646L216.067 321.001Z" fill="black"/>
<path d="M226.459 328.667L223.611 332.527L224.486 333.172L227.333 329.312L226.459 328.667Z" fill="black"/>
<path d="M230.209 331.433L227.361 335.293L228.236 335.938L231.083 332.078L230.209 331.433Z" fill="black"/>
<path d="M219.505 323.384L214.175 330.609L215.049 331.254L220.379 324.029L219.505 323.384Z" fill="black"/>
<path d="M207.872 312.836L206.213 315.085C205.876 315.541 205.227 315.639 204.77 315.302L204.55 315.14C204.093 314.803 203.995 314.154 204.332 313.697L205.991 311.448C206.328 310.992 206.977 310.894 207.434 311.231L207.654 311.393C208.111 311.73 208.209 312.379 207.872 312.836Z" fill="white"/>
<path d="M255.865 300.067L263.981 300.276L263.505 326.968C263.505 326.968 261.027 333.39 256.513 329.39C256.513 329.39 254.198 328.803 254.635 324.143C255.071 319.483 255.865 300.067 255.865 300.067Z" fill="#C8C8C8"/>
<path d="M262.262 329.014C262.249 329.014 262.235 329.013 262.221 329.013C261.671 328.99 261.244 328.526 261.266 327.977L262.984 285.957C263.007 285.407 263.473 284.976 264.02 285.002C264.57 285.025 264.997 285.488 264.975 286.038L263.257 328.058C263.235 328.594 262.793 329.014 262.262 329.014Z" fill="white"/>
<path d="M258.989 331.261C258.918 331.261 258.847 331.26 258.775 331.257C257.416 331.201 256.16 330.619 255.238 329.619C254.315 328.618 253.838 327.319 253.894 325.959C253.904 325.709 255.649 284.51 255.667 284.094L255.69 283.552L265.745 283.963L265.724 284.505C265.707 284.922 264.083 326.125 264.073 326.376C264.017 327.735 263.436 328.991 262.435 329.913C261.487 330.787 260.27 331.261 258.989 331.261ZM256.73 284.682C256.522 289.575 254.989 325.769 254.979 326.003C254.936 327.073 255.311 328.096 256.036 328.883C256.762 329.67 257.75 330.128 258.82 330.171C259.885 330.214 260.912 329.84 261.699 329.114C262.486 328.389 262.944 327.4 262.987 326.331C262.997 326.097 264.424 289.897 264.616 285.004L256.73 284.682Z" fill="black"/>
<path d="M266.741 284.994C266.71 284.994 266.678 284.993 266.647 284.992H266.647L254.727 284.504C253.479 284.454 252.505 283.397 252.557 282.149C252.581 281.546 252.84 280.988 253.286 280.577C253.732 280.166 254.311 279.953 254.912 279.978L266.832 280.465C268.08 280.516 269.054 281.573 269.003 282.821C268.978 283.423 268.719 283.982 268.273 284.393C267.851 284.782 267.31 284.994 266.741 284.994ZM254.819 281.063C254.524 281.063 254.243 281.173 254.023 281.376C253.79 281.59 253.655 281.88 253.642 282.193C253.616 282.842 254.122 283.392 254.771 283.419L266.691 283.906C267.335 283.927 267.891 283.426 267.917 282.777C267.944 282.128 267.437 281.578 266.788 281.551L254.868 281.064C254.852 281.063 254.835 281.063 254.819 281.063Z" fill="black"/>
<path d="M259.489 303.404L259.444 304.49L264.237 304.685L264.281 303.6L259.489 303.404Z" fill="black"/>
<path d="M259.83 295.048L259.786 296.133L264.579 296.329L264.623 295.244L259.83 295.048Z" fill="black"/>
<path d="M259.303 307.951L259.259 309.036L264.052 309.232L264.096 308.146L259.303 307.951Z" fill="black"/>
<path d="M259.114 312.606L259.069 313.692L263.862 313.887L263.906 312.802L259.114 312.606Z" fill="black"/>
<path d="M258.927 317.153L258.883 318.239L263.676 318.434L263.72 317.349L258.927 317.153Z" fill="black"/>
<path d="M255.629 299.085L255.585 300.171L264.556 300.538L264.6 299.452L255.629 299.085Z" fill="black"/>
<path d="M266.819 283.898L264.027 283.784C263.46 283.76 263.015 283.278 263.038 282.711L263.049 282.437C263.072 281.87 263.555 281.426 264.122 281.449L266.915 281.563C267.482 281.586 267.926 282.069 267.903 282.636L267.892 282.909C267.869 283.476 267.386 283.921 266.819 283.898Z" fill="white"/>
<path d="M217.755 293.309C204.338 298.466 191.47 302.251 179.523 305.014L172.206 227.701C172.499 227.719 172.791 227.741 173.084 227.758C176.753 231.43 194.152 247.368 209.525 236.134C212.79 233.748 218.872 225.188 221.086 224.819C223.997 224.334 225.735 242.14 230.679 227.033C233.939 217.073 235.398 211.046 235.942 208.559C239.315 204.945 242.335 200.833 244.96 196.261C255.277 178.294 258.205 155.388 252.6 136.481C245.581 112.807 229.075 96.0137 222.027 88.8426C213.566 80.2352 200.836 74.5567 191.647 71.3085C186.488 69.4852 182.882 64.9632 182.235 59.5073C181.178 50.6017 179.518 39.1848 177.61 35.3683C176.048 32.244 172.215 29.9134 166.527 28.6284C161.252 27.4368 154.487 27.2096 147.478 27.9881C133.579 29.5323 130.357 32.6771 129.489 37.5871C128.096 45.4729 126.839 61.1655 126.827 61.323C126.392 66.7855 126.316 67.7411 126.303 67.9211H126.302C126.062 70.7749 123.959 72.7942 121.825 74.6179C108.657 85.8758 97.2506 93.3698 87.9247 96.8916C80.0568 99.8631 73.5833 100.042 68.6847 97.4248C61.17 93.4093 58.556 83.3801 57.6863 75.6737C56.8155 67.9584 57.473 60.9658 57.599 59.7668C58.2981 59.696 59.0104 59.6107 59.7398 59.5053L59.7222 59.384C61.8163 58.9994 61.9693 58.5764 62.0678 58.3023C62.1333 58.1199 62.1177 57.9517 62.0643 57.8148L60.9821 33.7017C62.9132 33.0026 64.0896 31.7141 64.7452 30.729C65.9712 30.7261 70.6962 30.6989 72.4444 30.4409C72.6544 30.4099 72.8938 30.3782 73.1553 30.3438C75.2937 30.0615 78.8723 29.5895 80.2609 27.6457C80.7693 26.9338 80.6804 26.3904 80.5164 26.0601C80.1904 25.4043 79.3023 25.1028 78.5552 24.963C82.8903 23.6916 86.057 19.6873 86.057 14.941C86.057 9.63333 82.0975 5.25331 76.9714 4.58644C77.1748 4.45625 77.3547 4.30089 77.5048 4.11385C78.2619 3.17013 77.9887 1.89089 77.9765 1.83693C77.928 1.61874 77.7509 1.45252 77.53 1.41812C77.1595 1.36018 68.4281 0 66.1537 0C65.3518 0 64.7045 0.251864 64.2295 0.748532C63.9795 1.01017 63.8107 1.3102 63.6961 1.60245C62.8288 0.681357 61.9986 0.308719 61.18 0.472042C59.9134 0.72282 59.1924 2.2322 58.8428 3.25813C58.6351 3.10549 58.4126 2.99341 58.1734 2.92732C56.914 2.57931 55.7094 3.5826 55.2649 4.01264C54.1466 3.58061 52.9047 4.07474 52.5333 4.37151L52.5295 4.36717C49.0123 7.39987 47.1563 13.1274 47.0129 21.3906C46.9282 26.2827 47.5031 30.6587 47.7368 32.2161L32.4725 53.1136C32.3093 53.337 32.3403 53.6474 32.5442 53.8344C32.6378 53.9201 34.8859 55.9533 39.3813 57.6771C42.4145 58.8399 46.9407 60.0135 52.8509 60.0135C54.0123 60.0135 55.229 59.9663 56.4963 59.8665C56.3286 61.566 55.767 68.3389 56.6039 75.7753C57.0439 79.684 57.7989 83.1828 58.8525 86.2194C59.4495 90.367 62.6566 107.954 74.0513 107.303C85.2067 106.666 106.957 88.2615 111.556 84.2657C115.059 81.6439 118.717 78.7041 122.531 75.4441C124.735 73.5601 127.109 71.2765 127.383 68.0124C127.384 68.0113 127.384 68.01 127.384 68.0088C127.388 67.9508 127.909 61.4096 127.909 61.4094C127.921 61.2524 129.174 45.6116 130.559 37.7765C131.002 35.2638 132.034 33.7245 134.12 32.4634C136.742 30.8771 141.025 29.7983 147.597 29.068C162.13 27.4536 173.801 30.1805 176.637 35.8543C178.072 38.7225 179.676 47.1681 181.155 59.6355C181.851 65.5053 185.732 70.3706 191.284 72.3328C200.366 75.5428 212.936 81.1448 221.251 89.6041C225.13 93.5505 231.896 100.436 238.337 109.782C237.848 109.089 237.565 108.717 237.565 108.717C227.972 111.177 237.873 125.936 237.873 125.936C222.376 125.936 239.721 148.787 245.621 158.036C252.447 168.736 245.437 191.612 245.437 191.612L245.27 193.441C244.865 194.209 244.448 194.969 244.017 195.72C235.823 209.991 223.571 219.745 209.518 223.185C184.483 229.313 165.653 227.264 139.664 221.338C133.087 219.839 126.997 218.152 118.017 215.344C121.997 209.631 122.741 198.452 122.835 192.389C149.784 189.551 167.827 181.801 176.494 169.349C182.957 161.802 198.315 140.764 187.834 121.508C186.413 118.899 184.188 115.051 179.582 119.294C177.3 121.397 175.308 125.218 178.285 132.024C178.324 132.114 178.364 132.206 178.403 132.298C182.943 146.608 182.207 158.563 176.203 167.838C173.945 171.327 170.948 174.452 167.226 177.211L159.023 84.4109C160.692 84.3153 162.279 84.0037 163.778 83.4679C167.425 82.1643 170.581 79.4912 172.905 75.7378C175.13 72.144 175.772 69.118 174.814 66.7442C174.307 65.4874 173.356 64.4354 171.977 63.5945C172.649 63.4949 173.295 63.2766 173.89 62.9005C176.159 61.4641 177.173 58.0156 176.903 52.6512C176.909 52.2209 176.909 46.7639 173.302 43.4356C171.197 41.4934 168.309 40.6927 164.715 41.0554C158.508 41.6821 144.989 43.2634 138.251 44.7617C136.202 45.2176 134.546 46.2535 133.13 49.8289C132.652 51.034 131.144 55.2632 131.78 59.082C132.265 61.9897 134.463 67.0821 138.298 68.3684C138.547 68.4518 138.799 68.5139 139.053 68.5646C138.649 69.585 137.933 72.0004 138.832 74.703C139.71 77.345 141.876 79.5093 145.269 81.1356C149.868 83.3407 154.103 84.4459 157.925 84.4459C157.946 84.4459 157.966 84.4448 157.987 84.4446L166.249 177.916C156.442 184.789 141.916 189.274 122.845 191.295C122.852 189.601 122.811 188.481 122.802 188.275C122.796 188.124 122.727 187.981 122.611 187.883C122.496 187.785 122.345 187.74 122.194 187.758L105.035 189.857L105.891 182.385C106.641 182.907 108.851 182.576 109.452 182.156C115.181 178.15 110.713 147.202 110.266 144.208L110.301 143.9L109.45 144.251C88.4136 152.929 70.7101 157.329 56.8253 157.329C56.8235 157.329 56.8195 157.329 56.8177 157.329C44.8048 157.327 35.5544 154.036 29.3069 147.548C29.4106 147.502 29.5059 147.433 29.5906 147.336C39.3069 136.267 19.9975 122.984 19.9975 122.984C19.9975 122.984 29.9596 124.46 26.27 111.177C23.4875 101.16 23.9923 91.5644 24.4088 87.4505C27.3484 77.1054 31.532 66.4402 36.5925 56.572L35.6258 56.0762C30.1872 66.6814 25.7567 78.2043 22.779 89.2769C17.1259 102.238 17.0395 115.494 19.0201 126.088C19.1459 127.125 19.2938 128.141 19.4704 129.132C20.8391 136.823 23.7352 143.114 28.079 147.832C34.5428 154.853 44.2118 158.414 56.8175 158.415C56.8202 158.415 56.8226 158.415 56.8253 158.415C70.6641 158.415 88.2181 154.106 109.012 145.605L103.927 189.993L89.7099 191.732C89.313 190.452 88.6776 189.181 87.804 187.932C85.8224 185.102 83.3097 183.355 82.9543 183.116C81.2752 181.569 80.1352 180.776 79.2402 180.438C79.4345 179.352 79.275 178.463 78.7613 177.791C77.8797 176.636 76.3056 176.623 76.2392 176.623H76.1575L67.3622 179.33C67.1377 179.394 62.7821 180.658 60.3717 182.712L58.5116 180.301L58.7894 180.055C59.1649 179.721 59.3883 179.26 59.4184 178.757C59.4484 178.253 59.2813 177.769 58.9483 177.394L58.9302 177.373C58.24 176.596 57.0466 176.525 56.2689 177.215L49.2042 183.484C48.8286 183.818 48.6052 184.279 48.5752 184.782C48.5451 185.286 48.7122 185.77 49.0452 186.145L49.0633 186.166C49.3967 186.541 49.8575 186.765 50.3612 186.795C50.4 186.797 50.4383 186.798 50.4767 186.798C50.9386 186.798 51.3781 186.632 51.7248 186.325L52.0574 186.029L61.1043 197.479C60.5834 198.298 60.6609 199.77 61.5751 200.572C62.3787 201.278 64.3117 201.886 68.2282 198.03C71.2392 195.067 72.5992 193.395 73.6919 192.052C74.6831 190.834 75.3992 189.953 76.9263 188.658C78.0609 187.696 78.4464 187.84 78.4861 187.859C78.6736 187.95 78.7714 188.463 78.7591 188.791C78.7461 189.09 78.9778 189.344 79.2771 189.357C79.5764 189.371 79.8308 189.139 79.8444 188.839C79.8513 188.686 79.8853 187.336 78.9653 186.884C78.2728 186.545 77.3756 186.853 76.2236 187.83C74.6199 189.19 73.8384 190.15 72.8491 191.366C71.7733 192.689 70.4342 194.334 67.4661 197.256C64.6782 200.001 62.9657 200.348 62.2919 199.756C61.7842 199.31 61.777 198.378 62.0415 198.028C69.2111 188.56 74.4571 182.585 76.0753 182.046C76.4355 181.926 76.744 181.787 77.0162 181.664C77.4683 181.46 77.844 181.291 78.318 181.328C78.3579 181.351 78.3997 181.371 78.4462 181.383C78.5261 181.405 78.6065 181.406 78.6832 181.393C79.431 181.598 80.4575 182.29 82.249 183.944L82.3193 183.998C82.3455 184.016 84.9619 185.755 86.9316 188.581C89.5169 192.289 89.8243 196.043 87.8454 199.737C86.2207 202.77 84.3811 204.601 82.3721 205.19L82.3602 205.185L82.3571 205.194C82.2309 205.23 82.1041 205.263 81.9767 205.29C79.669 205.774 77.9121 204.421 77.8958 204.408C77.8405 204.364 77.779 204.334 77.7154 204.314L77.542 204.109C77.349 203.88 77.0062 203.851 76.7764 204.045C76.5472 204.239 76.5186 204.581 76.7123 204.811L80.3865 209.199L74.7217 212.574L67.9914 204.455C67.8002 204.224 67.4578 204.192 67.2266 204.383C66.9955 204.574 66.9635 204.917 67.1549 205.148L82.5235 223.689L82.5916 223.771L82.6857 223.821C82.7875 223.876 84.5234 224.789 86.2624 224.789C86.9752 224.789 87.6884 224.635 88.2894 224.206C89.5906 223.278 90.0134 221.336 89.546 218.435L89.5219 218.286L79.3708 206.273C79.8412 206.397 80.3722 206.483 80.9538 206.483C81.3424 206.482 81.7527 206.445 82.18 206.357C82.2226 206.348 82.2646 206.335 82.3071 206.325L101.807 213.627L101.536 213.596L90.2426 311.231L90.7421 311.323C90.8636 311.345 101.421 313.247 118.857 313.247C121.658 313.247 124.638 313.198 127.78 313.084C141.102 312.601 154.71 311.066 168.225 308.521C185.118 305.34 201.914 300.563 218.157 294.318C219.25 293.868 245.027 283.245 251.995 278.967L251.426 278.041C244.533 282.274 218.01 293.203 217.755 293.309ZM72.9159 25.0335C72.8049 25.0279 72.693 25.0224 72.5842 25.0166C72.0352 24.988 71.516 24.9611 71.0299 24.9638C66.9037 24.9922 66.6812 24.6277 65.5993 22.8889C65.3391 22.471 65.0452 21.9988 64.6505 21.4433C63.8982 19.7983 63.2614 17.7075 63.5351 17.1603C64.3248 15.581 64.8484 14.6283 65.2125 13.9779C65.1836 14.2953 65.1665 14.6161 65.1665 14.9411C65.1665 19.7775 68.454 23.8444 72.9159 25.0335ZM84.066 14.9411C84.066 19.6027 80.2736 23.395 75.6122 23.395C70.9508 23.395 67.1583 19.6025 67.1583 14.9411C67.1583 10.2797 70.9508 6.48728 75.6122 6.48728C80.2737 6.48728 84.066 10.2797 84.066 14.9411ZM66.5247 6.47298C66.5751 6.28431 66.7551 6.05236 67.0388 5.81824C67.9648 5.05414 69.5057 4.5993 69.8131 4.65995C70.1338 4.75212 70.7416 4.77421 71.7878 4.80535C72.1485 4.81603 72.5371 4.82762 72.9304 4.84464C70.5944 5.46353 68.5804 6.87097 67.1891 8.76511C67.0875 8.04537 66.8364 7.24867 66.5247 6.47298ZM65.0199 1.49507C65.2853 1.22003 65.6565 1.0864 66.1548 1.0864C68.0732 1.0864 75.1577 2.15307 76.9499 2.42757C76.954 2.718 76.9064 3.1283 76.6547 3.43865C76.3793 3.77815 75.8885 3.95071 75.1962 3.95216C74.1766 3.79083 72.8829 3.75117 71.8204 3.71949C71.1164 3.69848 70.3185 3.67476 70.1133 3.61592C69.3287 3.38886 67.4992 4.1077 66.5095 4.85297C66.3152 4.99927 66.1488 5.14829 66.0063 5.29966C65.4543 4.14627 64.8754 3.17882 64.6405 2.79876C64.636 2.79152 64.6313 2.78446 64.6266 2.77739C64.6022 2.7419 64.5781 2.70931 64.5538 2.67455C64.5786 2.38339 64.6721 1.8554 65.0199 1.49507ZM57.8849 3.97425C58.5494 4.15803 59.091 5.18125 59.41 6.85576C60.0575 10.2555 59.7952 14.5129 58.6512 19.1678C58.6488 19.1774 58.6467 19.1866 58.6445 19.1953C58.4368 19.2326 58.0415 19.2444 57.6512 19.003C57.1194 18.6748 56.4838 17.8089 56.4751 15.5506H56.463C56.4927 15.4554 56.5132 15.3808 56.5226 15.3362C57.7122 9.73998 57.5968 6.15376 56.1861 4.63985C56.604 4.27736 57.3051 3.81455 57.8849 3.97425ZM53.2177 5.20877C53.3497 5.13887 54.3755 4.63026 55.1515 5.17056C55.9394 5.71847 57.0267 7.73882 55.4599 15.1104C55.29 15.9093 54.4102 17.45 54.0483 17.45C54.0454 17.45 54.043 17.45 54.0403 17.4498C54.0329 17.4493 53.284 17.2039 52.9291 12.7944C52.8605 11.9401 52.917 11.7817 52.9622 11.6542C52.9887 11.5796 53.0216 11.4869 53.0439 11.3551C53.1295 10.8487 52.7667 10.6745 52.693 10.6448C52.2141 10.4516 51.8662 10.838 51.0652 11.9101C50.637 12.4832 50.243 13.0566 50.2263 13.0807L51.122 13.6956C51.3468 13.368 51.5968 13.0177 51.8326 12.699C51.8364 12.7571 51.8411 12.8179 51.8461 12.8815C52.1547 16.7158 52.8096 18.4591 53.9701 18.5341C54.6065 18.5766 55.1495 18.0713 55.5696 17.4477C56.0873 19.9013 57.5842 20.271 58.3001 20.3011C58.3318 20.3024 58.3648 20.3031 58.3993 20.3031C58.8768 20.3031 59.5833 20.1657 59.654 19.6431C59.6619 19.6053 59.6802 19.5323 59.7061 19.4271C60.887 14.6217 61.1537 10.2042 60.4773 6.65224C60.2881 5.65908 60.0215 4.86021 59.6817 4.254C59.8796 3.45966 60.4901 1.71579 61.3918 1.53744C61.9975 1.41685 62.8255 2.07159 63.7227 3.37999C65.0586 5.54736 66.7058 9.15531 66.0096 10.0415C65.7288 10.3992 65.285 10.8048 64.764 10.7089C64.2813 10.6192 63.0097 9.92558 61.6267 5.43112C61.5387 5.14431 61.2336 4.98298 60.9479 5.0717C60.6611 5.15988 60.5001 5.46389 60.5884 5.75052C61.7496 9.52451 63.0506 11.4956 64.5658 11.777C64.6855 11.7993 64.8048 11.8103 64.9237 11.8103C64.9331 11.8103 64.9422 11.8085 64.9516 11.8085C64.9288 12.2639 64.8412 12.421 64.4034 13.2004C64.0318 13.8614 63.4703 14.8608 62.5633 16.6747C61.9312 17.9391 63.2621 21.0281 63.6852 21.9445C63.6994 21.9754 63.7166 22.0049 63.7363 22.0327C64.1261 22.5786 64.4189 23.0484 64.6768 23.4633C65.9676 25.5376 66.4958 26.0752 71.0366 26.0504C71.4961 26.0467 71.9946 26.0739 72.5273 26.1016C73.8654 26.1717 75.5272 26.2584 77.4831 25.9318C78.3421 25.9665 79.384 26.2215 79.5438 26.5439C79.6067 26.6703 79.4484 26.9153 79.3773 27.0145C78.2632 28.5744 74.977 29.0083 73.0136 29.2672C72.746 29.3023 72.5012 29.3347 72.2859 29.3666C70.5166 29.6277 65.2763 29.6424 64.5455 29.6431C64.1928 29.5781 63.9963 29.8854 63.9293 29.9913C63.1239 31.2666 61.2475 33.2753 57.4878 33.108C59.4667 30.3989 59.6498 26.0567 59.6588 25.7965C59.6693 25.4968 59.435 25.2455 59.1352 25.2348C58.8377 25.2209 58.5837 25.4583 58.5732 25.7583C58.5701 25.8398 58.2289 33.9094 53.7026 34.1609L53.6492 34.1638L53.5974 34.1772C53.5779 34.1821 51.6028 34.6744 50.1716 33.7122C49.3784 33.1788 48.8902 32.2744 48.7204 31.0241C48.7097 30.9455 48.6818 30.8736 48.6421 30.8104C47.989 25.6249 46.7701 10.8036 53.2177 5.20877ZM53.6266 58.8971L53.6278 58.9186C47.5293 59.0264 42.8913 57.8512 39.8294 56.6844C36.5184 55.4228 34.4497 53.9639 33.6528 53.3407L48.3173 33.2646C48.6347 33.816 49.051 34.2676 49.5656 34.6138C50.4905 35.2359 51.5535 35.3933 52.3917 35.3933C53.0946 35.3933 53.6396 35.2826 53.8133 35.2428C54.9286 35.17 55.8316 34.7487 56.5628 34.1214C57.048 34.1794 57.509 34.2073 57.9465 34.2073C58.6619 34.2073 59.3144 34.1352 59.9089 34.0088L60.9821 57.9168C60.6018 58.1074 59.1191 58.5947 53.6266 58.8971ZM134.258 57.7037C133.82 55.4164 134.594 52.5554 135.464 50.6406C136.758 47.7926 138.201 47.2955 139.569 47.0305C145.42 45.8959 157.618 44.5973 164.389 44.0014C167.734 43.7062 170.337 44.4057 172.126 46.0782C174.822 48.5992 174.772 52.5445 174.771 52.5834L174.77 52.6044L174.772 52.6255C174.995 56.4545 174.296 58.9465 172.693 60.032C170.181 61.7331 165.899 59.7253 163.84 58.7607L163.567 58.6329C159.759 56.8604 156.917 56.6339 154.695 57.1552C154.666 56.9408 154.669 56.7406 154.705 56.5577C154.805 56.0444 155.135 55.7943 155.418 55.7742C155.704 55.7539 155.918 55.5062 155.898 55.2211C155.878 54.9359 155.632 54.7235 155.345 54.7416C154.531 54.7997 153.866 55.4501 153.689 56.36C153.646 56.5818 153.613 56.9571 153.711 57.4464C151.603 58.2038 150.101 59.6288 148.822 60.8425C148.393 61.2492 147.988 61.6334 147.597 61.9566C144.524 64.4955 141.764 65.3503 139.394 64.4968C136.392 63.4151 134.65 59.7561 134.258 57.7037ZM145.717 80.202C142.593 78.7044 140.609 76.7491 139.82 74.3898C138.926 71.7194 139.857 69.296 140.128 68.6818C140.17 68.6827 140.211 68.6867 140.253 68.6867C142.555 68.6867 145.05 67.425 147.698 64.9169C148.141 64.4971 148.583 64.0157 149.051 63.5062C150.526 61.9015 152.191 60.0903 154.635 59.3785C155.491 60.5191 157.056 61.8617 159.871 63.2411C160.802 63.6968 161.104 64.0859 161.077 64.2983C160.994 64.9491 159.027 65.8108 156.896 66.3799C153.056 66.4943 149.967 69.6514 149.967 73.5186C149.967 77.458 153.172 80.6627 157.111 80.6627C161.051 80.6627 164.256 77.458 164.256 73.5186C164.256 70.3358 162.163 67.6332 159.281 66.7125C160.692 66.1651 161.98 65.405 162.104 64.4296C162.254 63.2556 160.803 62.5451 160.327 62.3115C158.091 61.2164 156.633 60.1253 155.758 59.1413C157.764 58.8705 160.252 59.3201 163.469 61.0375L163.756 61.1918C165.009 61.8651 167.014 62.9423 169.097 63.4191C171.598 64.2561 173.198 65.5013 173.855 67.1311C174.683 69.1824 174.068 71.8948 172.026 75.1924C168.188 81.3913 160.51 87.293 145.717 80.202ZM157.111 67.4609C160.451 67.4609 163.169 70.1785 163.169 73.5186C163.169 76.8588 160.451 79.5763 157.111 79.5763C153.771 79.5763 151.053 76.8588 151.053 73.5186C151.053 70.7161 152.967 68.3528 155.555 67.6642C155.615 67.6875 155.678 67.7013 155.744 67.7013C155.778 67.7013 155.813 67.6977 155.848 67.6906C156.093 67.6406 156.436 67.5661 156.834 67.4677C156.926 67.4638 157.018 67.4609 157.111 67.4609ZM51.0036 185.512C50.8452 185.653 50.641 185.724 50.426 185.71C50.2118 185.698 50.0166 185.603 49.8763 185.445L49.8582 185.425C49.7175 185.266 49.6471 185.061 49.6597 184.847C49.6724 184.633 49.7669 184.438 49.9254 184.297L56.9901 178.028C57.3194 177.735 57.8255 177.765 58.1176 178.094L58.1357 178.115C58.4281 178.444 58.3979 178.95 58.0685 179.242L51.0036 185.512ZM61.7455 196.622L52.8603 185.376L57.8489 181.131L59.6313 183.447C59.4204 183.696 59.2415 183.955 59.1051 184.222C58.7336 184.95 58.6796 185.688 58.9444 186.416C59.2587 187.281 59.7945 187.881 60.5368 188.199C60.966 188.383 61.4156 188.448 61.8369 188.448C62.4929 188.448 63.0788 188.29 63.4124 188.179L65.8796 191.309C64.481 193.06 63.074 194.876 61.7455 196.622ZM64.43 187.797L68.4669 186.28C68.0151 186.886 66.6777 187.938 65.2178 188.797L64.43 187.797ZM66.5443 190.48L65.8631 189.616C66.2571 189.377 67.0105 188.904 67.7397 188.352C68.6318 187.677 69.7371 186.719 69.663 185.83L70.8396 185.388C69.5066 186.873 68.0385 188.627 66.5443 190.48ZM78.1721 180.228C77.6131 180.233 77.1219 180.424 76.5696 180.673C76.3091 180.791 76.0393 180.912 75.7317 181.015C75.0041 181.258 73.8678 182.212 72.49 183.619C72.4538 183.625 72.4178 183.634 72.3821 183.648L63.2921 187.064L63.2672 187.074C63.2541 187.08 61.9571 187.628 60.9609 187.198C60.5012 187 60.1754 186.622 59.9654 186.044C59.8057 185.605 59.8408 185.171 60.0726 184.716C61.1362 182.631 65.9107 180.875 67.6713 180.371L76.3098 177.713C76.5619 177.731 77.429 177.836 77.8979 178.45C78.2164 178.867 78.3057 179.466 78.1721 180.228ZM83.8674 205.75C85.6909 204.809 87.3459 202.969 88.8027 200.25C90.1088 197.812 90.4981 195.293 89.9826 192.793L121.734 188.908C121.815 192.68 121.91 213.337 114.467 217.207L83.8674 205.75ZM127.778 311.997C107.563 312.732 94.1368 310.776 91.4391 310.339L102.592 213.921L114.307 218.307C114.368 218.33 114.433 218.342 114.497 218.342C114.576 218.342 114.655 218.324 114.728 218.29C115.791 217.79 116.714 217.003 117.519 216.007C117.519 216.007 131.728 220.642 139.423 222.397C149.332 224.656 159.986 226.826 171.108 227.629L178.455 305.26C158.259 309.85 140.754 311.525 127.778 311.997Z" fill="black"/>
<path d="M248.231 291.947L238.922 278.281L212.708 281.632L207.064 297.219C206.269 300.431 208.948 303.439 212.231 303.02L244.694 298.869C247.98 298.449 249.816 294.856 248.231 291.947Z" fill="#C8C8C8"/>
<path d="M242.608 299.511C241.955 299.511 241.401 299.011 241.346 298.349C241.288 297.651 241.806 297.039 242.504 296.98C244.262 296.834 245.451 296.393 245.852 295.738C246.259 295.075 245.913 294.035 245.617 293.311C243.816 288.901 235.051 277.485 234.963 277.37C234.536 276.816 234.64 276.02 235.195 275.593C235.75 275.166 236.545 275.27 236.972 275.825C237.341 276.304 246.035 287.629 247.964 292.353C248.285 293.139 249.138 295.228 248.013 297.064C247.143 298.483 245.409 299.282 242.714 299.507C242.679 299.51 242.643 299.511 242.608 299.511Z" fill="white"/>
<path d="M248.588 291.718L248.575 291.695L231.861 267.158C231.083 266.016 230.57 264.689 230.378 263.321L227.985 246.293L229.04 246.158C229.635 246.082 230.166 245.777 230.535 245.3C230.904 244.823 231.066 244.232 230.99 243.638L230.986 243.615C230.91 243.019 230.605 242.488 230.128 242.119C229.651 241.75 229.061 241.589 228.465 241.665L213.437 243.586C212.205 243.743 211.33 244.874 211.488 246.111L211.49 246.13C211.635 247.266 212.608 248.098 213.724 248.098C213.819 248.098 213.915 248.092 214.012 248.079L214.948 247.96L217.088 264.7C217.27 266.121 217.108 267.584 216.62 268.931L206.432 297.064L206.416 297.119C205.999 298.801 206.439 300.579 207.592 301.873C208.595 303 210.024 303.632 211.512 303.632C211.733 303.632 211.956 303.618 212.179 303.589L244.643 299.439C246.364 299.219 247.863 298.165 248.652 296.62C249.442 295.075 249.418 293.242 248.588 291.718ZM213.874 247.002C213.233 247.082 212.649 246.631 212.568 245.989L212.565 245.97C212.483 245.332 212.936 244.746 213.575 244.664L228.603 242.743C228.652 242.736 228.702 242.733 228.751 242.733C229.007 242.733 229.256 242.818 229.463 242.979C229.711 243.17 229.869 243.445 229.909 243.752L229.912 243.775C229.951 244.082 229.867 244.388 229.676 244.636C229.484 244.883 229.209 245.042 228.902 245.081L213.874 247.002ZM217.642 269.302C218.188 267.793 218.369 266.155 218.166 264.563L216.054 248.043L226.938 246.651L229.302 263.472C229.517 265.005 230.092 266.491 230.963 267.77L231.929 269.188L227.262 270.037L227.456 271.105L232.598 270.17L235.277 274.103L230.582 274.956L230.777 276.025L235.946 275.085L237.927 277.993L213.369 281.1L217.642 269.302ZM247.685 296.126C247.049 297.369 245.89 298.184 244.505 298.362L212.041 302.512C210.657 302.689 209.331 302.193 208.403 301.151C207.481 300.116 207.14 298.753 207.464 297.407L212.954 282.247L238.614 279.002L240.204 281.335L235.379 282.213L235.573 283.281L240.873 282.318L243.89 286.747L239.068 287.624L239.263 288.693L244.559 287.73L247.646 292.261C248.302 293.483 248.317 294.89 247.685 296.126Z" fill="black"/>
</svg>
