<svg width="18" height="18" viewBox="0 0 18 18" fill="none" xmlns="http://www.w3.org/2000/svg">
<g clip-path="url(#clip0_2505_30563)">
<path d="M9 18C13.9706 18 18 13.9706 18 9C18 4.02944 13.9706 0 9 0C4.02944 0 0 4.02944 0 9C0 13.9706 4.02944 18 9 18Z" fill="white"/>
<path fill-rule="evenodd" clip-rule="evenodd" d="M4.0723 8.90497C6.69598 7.76187 8.44552 7.00827 9.3209 6.64417C11.8203 5.60458 12.3396 5.424 12.6782 5.41803C12.7526 5.41672 12.9191 5.43517 13.0269 5.52267C13.118 5.59655 13.143 5.69635 13.155 5.7664C13.167 5.83645 13.1819 5.99602 13.17 6.1207C13.0346 7.54381 12.4485 10.9973 12.1504 12.5912C12.0242 13.2657 11.7758 13.4918 11.5353 13.514C11.0127 13.5621 10.6158 13.1686 10.1096 12.8367C9.31747 12.3175 8.86998 11.9943 8.10109 11.4876C7.21251 10.902 7.78854 10.5802 8.29494 10.0542C8.42747 9.91655 10.7303 7.82199 10.7748 7.63198C10.7804 7.60821 10.7856 7.51963 10.733 7.47286C10.6803 7.42608 10.6027 7.44208 10.5466 7.4548C10.4672 7.47283 9.20175 8.30922 6.75036 9.96398C6.39118 10.2106 6.06584 10.3308 5.77435 10.3245C5.453 10.3176 4.83486 10.1428 4.37534 9.99343C3.81171 9.81022 3.36375 9.71335 3.40276 9.4022C3.42308 9.24014 3.64626 9.07439 4.0723 8.90497Z" fill="#141416"/>
</g>
<defs>
<clipPath id="clip0_2505_30563">
<rect width="18" height="18" fill="white"/>
</clipPath>
</defs>
</svg>
