<svg width="345" height="336" viewBox="0 0 345 336" fill="none" xmlns="http://www.w3.org/2000/svg">
<path d="M199.063 3.30287C185.546 1.1646 167.581 0 148.47 0C129.359 0 111.394 1.18369 97.8771 3.30287C88.1594 4.83021 76.5898 7.52215 76.5898 11.6842C76.5898 15.8462 88.1594 18.5381 97.8771 20.0654C111.394 22.2037 129.359 23.3683 148.47 23.3683C167.562 23.3683 185.527 22.2037 199.063 20.0654C208.781 18.5381 220.351 15.8462 220.351 11.6842C220.351 7.52215 208.781 4.83021 199.063 3.30287Z" fill="#1A1A1A"/>
<path d="M339.044 102.294C335.321 100.27 330.014 101.511 323.293 105.978C316.936 110.217 309.528 117.166 301.262 126.636C284.308 146.071 265.617 173.983 248.626 205.255C231.653 236.528 218.403 267.399 211.32 292.199C207.884 304.284 206.089 314.269 205.994 321.906C205.898 329.982 207.75 335.098 211.473 337.122C212.619 337.752 213.936 338.058 215.387 338.058C218.613 338.058 222.584 336.511 227.224 333.437C233.581 329.199 240.989 322.25 249.256 312.78C266.209 293.345 284.9 265.433 301.892 234.16C318.864 202.888 332.114 172.017 339.197 147.217C342.633 135.131 344.428 125.146 344.524 117.51C344.619 109.434 342.767 104.317 339.044 102.294Z" fill="#1A1A1A"/>
<path d="M221.763 221.025C231.691 231.468 238.965 243.038 240.607 254.627C242.249 266.215 239.079 285.823 237.8 294.471C236.598 302.662 230.889 327.214 230.297 329.772C235.681 325.572 241.752 319.615 248.396 312.017C265.292 292.638 283.945 264.803 300.879 233.607C315.657 206.42 327.589 179.558 335.073 156.724C332.572 156.209 312.144 151.894 290.99 144.143C271.173 136.869 251.298 126.254 237.285 116.975C207.311 97.1198 185.737 63.9001 176.955 46.1448C168.612 29.2677 164.755 3.62744 164.393 1.12642C159.333 0.95459 154.007 0.859131 148.451 0.859131C132.414 0.859131 118.362 1.66098 107.079 2.94013C107.079 3.16923 107.155 7.73216 109.007 30.4895C110.917 53.9151 117.656 69.8185 121.474 85.2256C125.293 100.633 139.554 125.318 147.821 139.828C156.088 154.338 181.671 182.975 181.671 182.975C181.671 182.975 211.836 210.582 221.763 221.025Z" fill="#C8C8C8"/>
<path d="M177.356 1.68008L164.393 0.916412C164.393 0.916412 166.664 21.2109 173.633 38.6799C180.601 56.1489 196.257 80.2999 210.766 95.1915C225.276 110.083 251.527 126.884 266.133 133.948C280.738 141.012 308.994 153.498 335.092 156.705L339.139 143.665C339.139 143.665 322.911 139.809 316.267 137.327L311.609 143.055L311.724 135.761C311.724 135.761 283.811 125.032 280.757 122.951L274.571 130.378L276.213 120.736C276.213 120.736 245.857 105.425 233.772 95.3442L225.41 100.919L230.106 92.4041C230.106 92.4041 211.836 76.0997 207.177 68.5585L195.913 71.7659L203.416 63.4228C203.416 63.4228 191.236 45.7248 185.508 29.9741C179.781 14.2234 177.356 1.68008 177.356 1.68008Z" fill="#C8C8C8"/>
<path d="M311.553 143.055L311.667 135.761C311.667 135.761 283.755 125.032 280.7 122.951L274.515 130.378L276.156 120.736C276.156 120.736 245.801 105.425 233.715 95.3442L227.549 99.0098C233.467 104.317 239.901 109.682 247.022 114.665C274.152 133.661 306.073 144.295 337.498 148.954L339.14 143.665C339.14 143.665 322.893 139.809 316.23 137.327L311.553 143.055Z" fill="white"/>
<path d="M185.451 29.9931C179.724 14.2424 177.356 1.68005 177.356 1.68005L178.865 9.37403C178.101 18.6335 185.929 46.6984 200.629 66.3629L203.359 63.4419C203.359 63.4419 191.179 45.7438 185.451 29.9931Z" fill="white"/>
<path d="M226.594 97.6734L230.05 92.4041C230.05 92.4041 211.779 76.0997 207.121 68.5585L201.584 69.9904C208.743 79.7462 216.132 88.223 226.594 97.6734Z" fill="white"/>
<path d="M216.418 100.346L213.115 105.386C210.328 109.625 211.378 115.295 215.463 118.273L230.469 129.194C235.013 132.497 241.409 131.16 244.254 126.33L246.201 123.008C246.201 123.008 238.182 118.044 228.77 110.656C219.358 103.267 216.418 100.346 216.418 100.346Z" fill="white"/>
<path d="M259.927 297.85C259.889 297.85 259.851 297.831 259.813 297.831C257.675 297.87 255.746 296.877 254.525 295.12C253.303 293.364 253.035 291.226 253.799 289.221L254.181 288.209C255.288 285.307 254.467 281.985 252.138 279.923L250.897 278.835C248.511 276.735 245.036 276.372 242.249 277.938L239.728 279.465C239.461 279.618 239.366 279.981 239.537 280.248C239.69 280.515 240.053 280.611 240.32 280.439L242.821 278.911C245.17 277.594 248.11 277.9 250.133 279.675L251.374 280.763C253.36 282.501 254.047 285.326 253.112 287.789L252.73 288.801C251.852 291.13 252.176 293.727 253.589 295.769C254.868 297.621 256.892 298.748 259.087 298.939L259.927 297.85Z" fill="white"/>
<path d="M136.232 119.438L144.747 110.427C146.905 108.136 150.685 108.575 152.25 111.305L165.996 135.17C167.123 137.117 166.703 139.599 165.004 141.069C162.885 142.902 159.658 142.501 158.054 140.21L152.327 132.019C150.589 129.538 147.019 129.308 144.996 131.542L143.735 132.917L136.232 119.438Z" fill="white"/>
<path fill-rule="evenodd" clip-rule="evenodd" d="M133.311 113.691H133.426C133.96 113.691 134.476 113.424 134.762 112.966L153.224 84.1947C154.579 82.0755 154.656 79.4217 153.396 77.2453C152.288 75.3361 150.322 74.0952 148.126 73.9233C145.931 73.7324 143.792 74.6488 142.399 76.3671L125.865 96.7189C125.503 97.1771 125.426 97.8071 125.655 98.3417L131.994 112.756C132.223 113.291 132.738 113.653 133.311 113.691ZM143.296 77.0925C144.366 75.7752 145.893 75.0497 147.573 75.0497H148.05C149.883 75.2024 151.487 76.2143 152.403 77.818C153.453 79.6317 153.396 81.8273 152.27 83.5837L133.808 112.355C133.674 112.546 133.483 112.546 133.407 112.546C133.331 112.546 133.14 112.508 133.044 112.298L126.706 97.8834C126.629 97.7307 126.667 97.578 126.763 97.4443L143.296 77.0925Z" fill="white"/>
<path d="M262.944 172.36L249.065 201.972C247.327 205.695 242.497 206.668 239.442 203.919L232.188 197.39C229.458 194.927 228.598 190.994 230.088 187.634L231.596 184.159C232.932 181.085 236.808 180.073 239.481 182.097L240.168 182.613C242.535 184.407 245.934 183.644 247.327 181.028L255.021 166.518C256.415 163.884 260.004 163.464 261.99 165.697C263.613 167.511 263.975 170.146 262.944 172.36Z" fill="white"/>
<path fill-rule="evenodd" clip-rule="evenodd" d="M257.198 220.548C258.191 221.827 259.68 222.553 261.264 222.553H261.265C261.436 222.553 261.608 222.553 261.799 222.514C263.575 222.343 265.102 221.293 265.904 219.689L267.03 217.417C267.546 216.386 268.481 215.622 269.608 215.336C270.734 215.05 271.918 215.26 272.872 215.909C274.151 216.787 275.717 217.054 277.206 216.615C278.695 216.176 279.898 215.126 280.509 213.713L285.778 201.609C286.79 199.299 285.988 196.607 283.85 195.232L270.696 186.736C269.436 185.935 267.889 185.705 266.457 186.126C265.006 186.546 263.842 187.576 263.212 188.932L253.189 210.868C252.387 212.606 252.635 214.629 253.8 216.157L257.198 220.548ZM266.763 187.233C267.125 187.137 267.507 187.08 267.889 187.08C268.653 187.08 269.416 187.29 270.065 187.729L283.22 196.225C284.862 197.294 285.492 199.375 284.709 201.189L279.44 213.293C278.943 214.4 278.008 215.221 276.862 215.546C275.698 215.871 274.476 215.68 273.483 214.992C272.261 214.152 270.734 213.866 269.283 214.248C267.832 214.63 266.629 215.603 265.961 216.94L264.834 219.212C264.223 220.453 263.021 221.273 261.646 221.407C260.271 221.541 258.935 220.949 258.095 219.861L254.697 215.47C253.78 214.286 253.608 212.701 254.219 211.346L264.242 189.409C264.72 188.359 265.636 187.557 266.763 187.233Z" fill="white"/>
<path d="M294.943 245.444L280.204 228.738C277.111 225.225 271.498 225.76 269.092 229.769C267.909 231.774 267.794 234.218 268.806 236.318L272.032 242.981C272.987 244.928 272.949 247.219 271.956 249.166L259.375 273.547C258.153 275.914 258.401 278.759 260.005 280.878L266.534 289.507C266.534 289.507 276.462 274.864 282.705 265.7C288.967 256.517 294.943 245.444 294.943 245.444Z" fill="#1A1A1A"/>
<path d="M236.885 221.369L236.426 222.304C235.396 224.404 235.644 226.886 237.076 228.738L244.311 238.17C246.488 241.014 247.347 244.661 246.679 248.174L245.323 255.199C244.922 257.28 245.629 259.419 247.175 260.851C250.402 263.848 255.652 262.588 257.141 258.445L261.933 245.176C263.155 241.797 262.468 238.017 260.119 235.287L247.061 220.052C244.178 216.73 238.813 217.417 236.885 221.369Z" fill="#1A1A1A"/>
<path d="M216.857 153.765L234.479 167.912C238.679 171.291 244.922 169.783 247.156 164.876L255.27 146.987C256.568 144.143 255.499 140.764 252.788 139.179L251.184 138.243C248.244 136.506 244.445 137.537 242.765 140.496C240.989 143.608 236.923 144.544 233.963 142.52L227.892 138.358C225.086 136.43 221.229 137.155 219.339 140L215.597 145.575C213.822 148.228 214.375 151.779 216.857 153.765Z" fill="#1A1A1A"/>
<path d="M194.138 151.073L193.795 151.569C192.114 153.918 192.496 157.163 194.673 159.073L218.213 179.711C220.733 181.906 224.59 181.467 226.518 178.737C228.16 176.408 227.816 173.239 225.716 171.31L202.519 150.176C200.038 147.923 196.105 148.343 194.138 151.073Z" fill="#1A1A1A"/>
<path fill-rule="evenodd" clip-rule="evenodd" d="M200.114 141.203C201.259 142.214 202.672 142.749 204.18 142.749H204.6C206.261 142.634 207.75 141.89 208.838 140.63L215.234 133.203C217.353 130.759 217.182 127.075 214.871 124.822L203.111 113.386C201.374 111.687 201.087 109.014 202.462 107.009C204.237 104.394 203.76 100.881 201.316 98.8571L192.496 91.5068C191.121 90.3804 189.346 89.884 187.589 90.1704C185.833 90.4567 184.306 91.4877 183.37 92.9959C182.282 94.7715 180.964 96.9288 179.494 99.3917C178.101 101.721 178.425 104.737 180.296 106.723L188.181 115.104C189.861 116.899 189.995 119.629 188.468 121.576L187.742 122.512C185.757 125.051 186.081 128.717 188.487 130.855L200.114 141.203ZM180.487 99.9644C181.957 97.5016 183.255 95.3442 184.344 93.5878C185.107 92.3659 186.367 91.5259 187.761 91.2586C189.193 91.0295 190.644 91.4304 191.751 92.3468L200.572 99.6971C202.557 101.339 202.958 104.184 201.507 106.322C199.827 108.785 200.152 112.088 202.29 114.169L214.05 125.605C215.941 127.437 216.074 130.435 214.356 132.42L207.96 139.847C207.082 140.859 205.86 141.47 204.524 141.565C203.187 141.661 201.908 141.222 200.896 140.324L189.269 129.977C187.303 128.239 187.036 125.261 188.658 123.199L189.384 122.264C191.255 119.877 191.102 116.517 189.021 114.302L181.136 105.921C179.609 104.317 179.361 101.855 180.487 99.9644Z" fill="white"/>
<path d="M166.627 106.666L162.236 113.08C161.128 114.722 161.052 116.842 162.045 118.56L177.815 145.479C179.38 148.152 182.931 148.82 185.356 146.93C187.322 145.403 187.895 142.654 186.711 140.458L178.311 124.917C177.452 123.333 177.49 121.424 178.407 119.877L179.609 117.853C180.678 116.059 180.545 113.787 179.266 112.126L174.875 106.437C172.774 103.687 168.593 103.802 166.627 106.666Z" fill="#1A1A1A"/>
<path d="M152.613 92.7668L156.508 87.3639C157.959 85.3592 160.975 85.4356 162.312 87.5166L164.335 90.6667C165.118 91.8886 165.061 93.4923 164.183 94.6569L159.982 100.27C158.417 102.351 155.229 102.084 154.045 99.7544L152.346 96.3943C151.754 95.2297 151.849 93.836 152.613 92.7668Z" fill="white"/>
<path d="M146.332 58.4017L149.234 64.0719C150.265 66.1147 153.033 66.4775 154.561 64.7783C156.126 63.0601 158.952 63.4801 159.944 65.5993L167.677 82.2473C168.574 84.1946 171.075 84.7483 172.717 83.3928L177.7 79.269C178.903 78.2762 179.227 76.5579 178.483 75.2024L161.281 43.4337C160.155 41.3527 157.253 41.1236 155.821 42.9946L146.657 54.927C145.893 55.9388 145.759 57.2944 146.332 58.4017Z" fill="#1A1A1A"/>
<path d="M239.958 249.625C236.674 240.613 233.524 233.855 227.109 225.989C220.771 218.219 211.206 209.36 196.83 196.683C191.121 191.643 184.42 185.247 177.299 177.477L186.616 166.652C188.296 164.705 188.22 161.803 186.425 159.951L181.881 155.235C180.22 153.517 177.566 153.211 175.562 154.529C173.519 155.865 170.789 155.521 169.147 153.708L164.679 148.801C162.98 146.949 160.155 146.644 158.093 148.114L155.286 150.118C150.933 143.914 146.619 137.232 142.495 130.072C134.915 116.937 128.539 103.325 123.422 89.3112L138.676 71.2886C139.44 70.3913 139.612 69.1503 139.116 68.0812L137.779 65.1602C136.977 63.4228 134.782 62.8501 133.254 63.9956C131.593 65.2174 129.226 64.4538 128.596 62.4873L123.957 47.9203C123.384 46.1257 121.341 45.2856 119.68 46.1639L112.502 49.9631C110.325 38.7372 108.874 27.2821 108.149 15.6361C111.242 14.5288 126.477 9.7177 134.419 7.19759C137.359 6.2621 139.44 3.64653 139.669 0.572754L120.959 1.20278L107.652 2.84467C107.614 2.5583 107.366 2.34829 107.08 2.34829C106.755 2.34829 106.507 2.59648 106.507 2.92104C107.271 48.7412 119.031 91.7168 141.502 130.607C159.754 162.223 181.251 184.445 196.066 197.504C210.404 210.143 219.931 218.963 226.212 226.676C232.531 234.389 235.624 241.072 238.87 249.968C245.609 268.487 229.84 329.218 229.687 329.829C229.591 330.135 229.782 330.459 230.088 330.536C230.145 330.555 230.183 330.555 230.24 330.555C230.489 330.555 230.737 330.402 230.794 330.154C230.851 330.001 234.861 314.613 237.973 297.106C242.173 273.528 242.841 257.567 239.958 249.625Z" fill="#1A1A1A"/>
<path d="M114.545 24.4947L116.167 35.0907C116.53 37.4962 119.031 38.9472 121.303 38.069L125.217 36.5607C127.298 35.7589 129.627 36.9235 130.238 39.0617L133.255 49.6195C133.961 52.1014 136.901 53.1705 139.039 51.7196L142.018 49.7149C143.278 48.8558 143.908 47.3285 143.621 45.8202L137.97 17.2017C137.512 14.8916 135.106 13.5552 132.892 14.3761L116.95 20.3709C115.289 20.9818 114.277 22.7192 114.545 24.4947Z" fill="white"/>
<path d="M335.455 156.209C307.925 150.443 283.201 141.928 261.666 130.836L268.443 119.877C268.596 119.61 268.52 119.266 268.252 119.094C267.985 118.942 267.641 119.018 267.47 119.285L260.654 130.301C253.647 126.655 246.984 122.741 240.684 118.541C237.782 116.612 234.937 114.608 232.188 112.565L238.851 104.814C239.061 104.585 239.023 104.222 238.794 104.012C238.565 103.802 238.202 103.821 237.992 104.069L231.272 111.878C223.959 106.379 217.163 100.48 210.939 94.1796L217.716 87.7839C217.946 87.5739 217.946 87.2112 217.736 86.9821C217.526 86.753 217.163 86.753 216.934 86.963L210.156 93.3778C202.5 85.5693 195.704 77.1689 189.785 68.2531C186.96 63.9956 184.459 59.7954 182.244 55.6907L188.162 52.7315C188.43 52.5978 188.544 52.2542 188.411 51.9678C188.277 51.7005 187.933 51.5859 187.647 51.7196L181.709 54.6979C166.856 26.7476 165.138 3.76111 164.985 0.878253C164.966 0.572785 164.68 0.324592 164.374 0.343684C164.088 0.362776 163.859 0.610968 163.84 0.897345L144.271 0.439143L152.155 32.9142C152.919 36.0644 156.203 37.8781 159.258 36.8662L170.961 33.0097C174.665 43.6056 180.297 55.9961 188.812 68.864C199.828 85.4929 213.917 100.289 230.794 112.947C230.833 113.023 230.871 113.08 230.947 113.138C231.043 113.214 231.138 113.252 231.233 113.271C234.097 115.41 237.037 117.472 240.054 119.476C247.71 124.574 255.881 129.27 264.549 133.566L260.482 148.477C259.375 152.562 261.265 156.858 265.026 158.786L265.675 159.111C267.412 159.989 269.512 159.092 270.047 157.221L275.469 138.625C277.015 139.293 278.562 139.962 280.127 140.611L270.62 172.895C269.875 175.434 270.925 178.145 273.178 179.52L282.266 185.075C285.225 186.87 289.081 185.744 290.59 182.632L295.859 171.711C297.005 169.306 296.413 166.442 294.37 164.724L290.418 161.364C288.738 159.951 288.012 157.698 288.509 155.579L291.029 144.849C294.523 146.128 298.074 147.331 301.682 148.496L300.632 153.421C299.983 156.419 301.567 159.435 304.393 160.619L305.997 161.306C308.46 162.337 309.662 165.144 308.727 167.645L305.176 177.133C303.515 181.582 304.794 186.603 308.402 189.696L318.616 198.478C318.616 198.478 327.112 181.391 331.217 169.077L335.15 157.297C335.169 157.297 335.188 157.297 335.207 157.316C335.245 157.335 335.284 157.335 335.322 157.335C335.589 157.335 335.837 157.163 335.894 156.896C335.971 156.572 335.761 156.266 335.455 156.209Z" fill="#1A1A1A"/>
<path d="M339.483 143.15C339.407 143.131 330.739 141.546 316.42 136.773C316.191 136.716 315.943 136.773 315.79 136.964L312.163 141.413L312.258 135.781C312.258 135.532 312.106 135.303 311.876 135.227C301.605 131.599 291.219 127.304 280.967 122.435C280.738 122.321 280.451 122.378 280.28 122.588L275.449 128.392L276.729 120.851C276.786 120.603 276.652 120.354 276.423 120.24C266.075 115.123 255.842 109.415 246.029 103.248C241.905 100.671 237.896 97.8643 234.078 94.9051C233.868 94.7524 233.6 94.7333 233.39 94.886L226.345 99.7926L230.507 92.6905C230.641 92.4613 230.584 92.1368 230.374 91.965C221.935 84.9965 214.26 76.997 207.521 68.2148C207.387 68.0239 207.139 67.9475 206.91 68.0048L197.574 70.6777L203.741 63.8237C203.913 63.6328 203.932 63.3273 203.779 63.1173C195.455 51.2995 188.773 38.2217 183.866 24.2847C179.972 13.1542 178.368 4.71566 177.871 1.6037C177.833 1.27914 177.528 1.06913 177.222 1.12641C176.898 1.16459 176.688 1.47006 176.745 1.77553C176.974 3.18832 177.413 5.65115 178.196 8.95403L173.671 10.0613C173.366 10.1377 173.175 10.4432 173.251 10.7487C173.308 11.0159 173.557 11.1878 173.805 11.1878C173.862 11.1878 173.9 11.1878 173.939 11.1687L178.463 10.0613C179.418 14.0133 180.812 18.9963 182.797 24.6665C183.255 25.9648 183.733 27.2439 184.21 28.5231L175.848 31.9787C175.561 32.0932 175.428 32.4369 175.542 32.7233C175.638 32.9524 175.848 33.086 176.077 33.086C176.134 33.086 176.21 33.0669 176.287 33.0287L184.611 29.5922C189.269 41.6391 195.302 52.9987 202.576 63.4037L195.379 71.4032C195.207 71.5941 195.188 71.8804 195.321 72.0905C195.455 72.3005 195.722 72.415 195.97 72.3386L206.853 69.2267C208.456 71.2886 210.098 73.3123 211.797 75.2979L200.801 83.6028C200.552 83.7937 200.495 84.1564 200.686 84.4046C200.801 84.5574 200.972 84.6337 201.144 84.6337C201.259 84.6337 201.392 84.5956 201.488 84.5192L212.542 76.1761C217.697 82.0754 223.291 87.5739 229.266 92.5377L224.016 101.492C223.883 101.721 223.94 102.007 224.131 102.198C224.341 102.389 224.627 102.408 224.856 102.255L233.677 96.0697C237.419 98.9526 241.352 101.702 245.38 104.222C248.396 106.112 251.451 107.964 254.544 109.778L250.554 115.562C250.382 115.83 250.439 116.192 250.706 116.364C250.802 116.422 250.916 116.46 251.031 116.46C251.222 116.46 251.394 116.364 251.508 116.211L255.537 110.35C262.085 114.15 268.767 117.739 275.507 121.08L273.941 130.301C273.903 130.549 274.037 130.798 274.266 130.912C274.514 131.027 274.781 130.95 274.953 130.759L280.871 123.657C287.42 126.769 294.026 129.633 300.631 132.249L297.462 141.279C297.348 141.565 297.5 141.909 297.806 142.004C297.863 142.024 297.939 142.043 297.997 142.043C298.245 142.043 298.455 141.89 298.531 141.661L301.681 132.669C304.832 133.89 307.963 135.074 311.094 136.162L310.979 143.035C310.979 143.284 311.132 143.513 311.361 143.589C311.59 143.685 311.857 143.608 312.01 143.417L316.42 137.995C330.605 142.711 339.197 144.276 339.273 144.295C339.292 144.295 339.33 144.295 339.369 144.295C339.636 144.295 339.884 144.105 339.941 143.818C339.999 143.513 339.789 143.207 339.483 143.15Z" fill="#1A1A1A"/>
<path d="M124.281 122.054C124.071 122.054 123.861 121.939 123.765 121.729C115.46 104.527 110.592 90.4567 107.976 81.6936C105.132 72.1668 104.253 66.6302 104.234 66.592C104.177 66.2865 104.406 65.9811 104.712 65.9429C105.017 65.8856 105.323 66.1147 105.361 66.4202C105.361 66.4775 106.258 71.9568 109.084 81.4072C111.699 90.1321 116.529 104.126 124.796 121.252C124.93 121.538 124.815 121.882 124.529 122.015C124.433 122.034 124.357 122.054 124.281 122.054Z" fill="#1A1A1A"/>
<path d="M205.039 346.611C204.963 346.611 204.906 346.592 204.829 346.573C199.694 344.549 196.181 340.578 194.348 334.793C192.916 330.23 192.534 324.522 193.241 317.84C194.424 306.518 198.338 296.113 198.376 295.999C198.491 295.712 198.816 295.559 199.121 295.674C199.407 295.789 199.56 296.113 199.446 296.419C199.407 296.514 195.532 306.804 194.367 317.992C193.68 324.522 194.043 330.058 195.436 334.468C197.135 339.91 200.438 343.613 205.23 345.503C205.517 345.618 205.669 345.962 205.555 346.248C205.479 346.458 205.269 346.611 205.039 346.611Z" fill="#1A1A1A"/>
<path d="M256.587 316.236C256.453 316.236 256.32 316.198 256.224 316.102C255.976 315.892 255.957 315.529 256.148 315.3C281.845 284.582 299.143 256.192 309.128 237.807C319.953 217.875 324.745 205.045 324.783 204.912C324.897 204.606 325.222 204.473 325.527 204.568C325.833 204.683 325.967 205.007 325.871 205.313C325.833 205.446 321.003 218.333 310.159 238.322C300.154 256.765 282.819 285.231 257.045 316.026C256.912 316.179 256.759 316.236 256.587 316.236Z" fill="#1A1A1A"/>
<path d="M6.84766 335.175C6.84766 335.175 13.9116 357.092 14.6753 356.309C15.4389 355.508 14.3889 347.012 14.3889 347.012C14.3889 347.012 21.4528 359.04 22.312 358.085C23.1711 357.13 19.4482 347.298 20.3073 346.821C21.1665 346.343 27.7531 359.001 29.185 357.837C30.6169 356.653 24.5075 345.007 24.5075 345.007C24.5075 345.007 32.2397 353.312 33.0988 352.071C33.9579 350.83 28.3832 341.895 28.3832 341.895C28.3832 341.895 34.0534 345.103 35.5807 342.143L24.1257 334.411L20.7846 330.402C20.7846 330.402 14.7707 336.607 6.84766 335.175Z" fill="#C8C8C8"/>
<path d="M55.0352 122.741C55.0352 122.741 59.1781 116.192 59.9608 116.822C60.7627 117.452 59.2353 124.994 59.2353 124.994C59.2353 124.994 58.3571 123.963 55.0352 122.741Z" fill="#C8C8C8"/>
<path d="M81.6875 178.05C81.6875 178.05 77.4873 192.941 65.2686 194.564C53.0499 196.187 47.9906 191.509 45.6041 185.973L51.5225 183.014L48.1815 161.058L41.8812 155.235C41.8812 155.235 27.9442 150.749 28.3261 149.889C28.7079 149.03 29.3761 137.48 29.3761 137.48L32.8126 129.27C32.8126 129.27 43.7904 122.015 51.1407 122.397C58.491 122.779 62.6912 127.647 64.4095 131.37C66.1277 135.093 67.9415 139.58 67.2732 146.357C66.605 153.135 64.4095 154.28 64.4095 154.28L71.378 177.859C71.378 177.859 79.492 177.572 81.6875 178.05Z" fill="#C8C8C8"/>
<path d="M99.6146 138.358C99.6146 138.358 92.0733 134.597 88.5795 132.936C85.0857 131.275 79.8546 129.499 79.7973 130.263C79.7401 131.027 86.9186 135.227 86.804 135.742C86.6704 136.258 86.7658 136.716 85.964 136.506C85.1621 136.315 78.1554 134.139 75.8072 133.89C73.4589 133.642 72.8861 134.52 73.6498 135.418C74.4135 136.315 76.4563 137.327 76.4563 137.327C76.4563 137.327 70.4996 135.952 70.4233 137.155C70.3469 138.339 73.4016 140.324 74.9862 141.012C76.5708 141.699 80.9047 143.875 80.9047 143.875C80.9047 143.875 75.9981 143.169 75.8072 143.112C75.6162 143.054 70.8815 142.482 70.996 143.398C71.1106 144.315 76.3226 146.3 76.8954 146.415C77.4681 146.548 82.3747 147.999 82.3747 147.999C82.3747 147.999 77.3536 148.82 76.6472 149.278C75.9408 149.717 74.4325 151.226 75.1199 152.849L89.5914 151.168L93.5243 151.741L99.6146 138.358Z" fill="#C8C8C8"/>
<path d="M192.686 249.243C190.873 243.935 176.554 245.004 164.87 246.837C148.623 249.376 127.755 254.875 106.124 262.321C84.4935 269.766 64.6763 278.262 50.3002 286.262C31.5712 296.686 28.841 302.375 29.8529 305.296C30.8457 308.217 35.6186 309.21 41.6516 309.21C46.5964 309.21 52.4003 308.542 57.6696 307.702C73.9167 305.163 94.784 299.664 116.415 292.218C138.046 284.773 157.863 276.277 172.239 268.277C190.968 257.853 193.698 252.164 192.686 249.243Z" fill="#1A1A1A"/>
<path d="M167.886 182.422C162.789 174.403 160.249 168.809 139.115 157.736C117.98 146.663 99.614 138.358 99.614 138.358L93.5046 151.76C93.5046 151.76 105.074 156.495 117.541 163.368C130.008 170.241 137.148 179.157 134.972 184.885C132.815 190.612 119.068 192.006 109.904 187.309C100.721 182.574 87.9871 178.508 81.6868 178.05C81.6868 178.05 79.3958 191.089 66.1652 194.144C52.9346 197.199 48.6581 191.032 45.6034 185.973C45.6034 185.973 29.5663 196.32 17.9776 215.66C6.38895 235 1.31054 254.474 0.795067 279.561C0.27959 304.628 6.2744 331.872 6.84715 335.175C6.84715 335.175 14.1593 335.938 20.6505 330.077C20.6505 330.077 17.214 307.549 22.6933 293.937C28.1726 280.324 32.4874 275.742 38.5967 271.027L40.3723 269.556C40.3723 269.556 45.718 294.528 48.1044 307.759C50.93 307.511 54.0802 307.129 57.4785 306.614C73.6683 304.074 94.4592 298.595 116.033 291.168C119.622 289.946 123.192 288.667 126.705 287.35C127.679 283.723 127.717 264.363 126.915 254.97L125.674 245.825C125.674 245.825 136.079 244.661 148.164 238.551C160.249 232.442 167.772 223.278 170.693 213.866C173.614 204.454 172.984 190.44 167.886 182.422Z" fill="white"/>
<path d="M85.0287 147.216C84.9714 147.216 84.895 147.197 84.8377 147.178C84.5323 147.064 84.3795 146.739 84.4941 146.453L88.0261 136.525C88.1406 136.22 88.4652 136.067 88.7515 136.181C89.057 136.296 89.2098 136.621 89.0952 136.907L85.5632 146.835C85.4869 147.083 85.2768 147.216 85.0287 147.216Z" fill="#1A1A1A"/>
<ellipse cx="60.6347" cy="140.731" rx="5.82271" ry="2.95908" transform="rotate(-86.9113 60.6347 140.731)" fill="#1A1A1A"/>
<path fill-rule="evenodd" clip-rule="evenodd" d="M60.3231 147.121H60.4376C61.4113 147.121 62.3277 146.453 63.0341 145.231C63.7023 144.085 64.1032 142.558 64.1987 140.916C64.2941 139.274 64.046 137.69 63.5114 136.487C62.9386 135.151 62.0413 134.387 61.0295 134.33C59.063 134.234 57.3448 136.945 57.1538 140.534C57.0584 142.176 57.3066 143.761 57.8411 144.964C58.4139 146.3 59.3112 147.064 60.3231 147.121ZM58.2802 140.611C58.4521 137.556 59.7694 135.494 60.8958 135.494H60.9531C61.5068 135.513 62.0604 136.048 62.4613 136.964C62.9195 138.014 63.1296 139.389 63.0532 140.859C62.9768 142.329 62.6141 143.685 62.0413 144.677C61.564 145.498 60.9722 145.976 60.4376 145.976H60.3803C59.8267 145.956 59.273 145.422 58.8721 144.505C58.4139 143.455 58.2039 142.081 58.2802 140.611Z" fill="#1A1A1A"/>
<path d="M74.6231 296.419C74.4894 296.419 74.3367 296.361 74.2221 296.266C73.993 296.056 73.993 295.693 74.203 295.464C91.4047 277.556 100.263 264.211 104.673 256.192C110.229 246.055 110.573 240.976 109.866 240.098C109.714 239.888 109.504 239.812 109.236 239.792H109.217C106.392 239.792 99.4042 247.906 94.3067 253.844C88.14 261.022 86.0399 263.275 84.8372 262.512C84.0353 261.996 83.7298 260.755 88.2164 250.579C95.6813 233.702 97.7623 221.178 98.1823 213.637C98.6405 205.523 97.3613 201.38 97.3423 201.342C97.2468 201.036 97.4186 200.712 97.705 200.616C98.0105 200.521 98.335 200.693 98.4305 200.979C98.4878 201.151 99.786 205.37 99.3087 213.694C98.8696 221.312 96.7695 233.989 89.2283 251.018C85.8681 258.617 85.4099 260.812 85.4481 261.442C86.6318 260.927 90.3547 256.593 93.3903 253.08C99.2132 246.303 105.819 238.628 109.179 238.628C109.198 238.628 109.198 238.628 109.217 238.628C109.828 238.647 110.344 238.895 110.726 239.353C112.291 241.32 110.248 248.288 105.628 256.727C101.199 264.822 92.2829 278.243 74.9858 296.247C74.9285 296.361 74.7758 296.419 74.6231 296.419Z" fill="#C8C8C8"/>
<path d="M31.6856 258.369C31.2656 258.369 30.8646 258.254 30.4828 257.968C29.8909 257.567 29.4136 256.612 31.2465 250.465C32.2392 247.124 33.8238 242.599 35.943 237.024C39.5323 227.535 43.5034 218.161 43.5415 218.066C43.6561 217.78 43.9998 217.646 44.2861 217.761C44.5725 217.875 44.7061 218.219 44.5916 218.505C44.5534 218.601 40.7351 227.631 37.2031 236.91C35.1221 242.351 33.5566 246.818 32.5256 250.159C30.8073 255.753 31.0555 256.841 31.151 257.032C32.7356 258.044 35.8476 253.634 38.5968 249.739C41.976 244.966 45.4698 240.021 48.5627 240.671C48.8681 240.728 49.0782 241.033 49.0018 241.339C48.9445 241.644 48.639 241.854 48.3336 241.778C45.9662 241.282 42.5488 246.131 39.5323 250.388C36.5731 254.627 33.9384 258.369 31.6856 258.369Z" fill="#C8C8C8"/>
<path d="M6.82849 303.158C5.91209 303.158 5.47298 301.917 5.14842 300.695C4.28929 297.411 4.80477 290.328 6.67576 279.656C8.05036 271.752 9.71135 264.688 9.73044 264.631C9.80681 264.325 10.1123 264.134 10.4177 264.211C10.7232 264.287 10.9141 264.593 10.8378 264.898C10.7805 265.184 4.30838 292.906 6.25574 300.428C6.52302 301.44 6.73303 301.822 6.84758 301.974C7.07669 301.726 7.70671 300.714 8.54675 296.552C9.08132 293.918 9.42497 291.378 9.42497 291.34C9.46315 291.035 9.74953 290.806 10.0741 290.844C10.3796 290.882 10.6087 291.168 10.5705 291.493C10.5705 291.512 10.1886 294.318 9.61589 297.087C8.50857 302.356 7.66853 303.12 6.90486 303.177C6.88577 303.158 6.86668 303.158 6.82849 303.158Z" fill="#C8C8C8"/>
<path fill-rule="evenodd" clip-rule="evenodd" d="M170.483 186.431C167.275 177.992 161.262 170.47 153.51 165.201C136.805 153.86 102.707 139.064 99.9961 137.9C99.977 137.89 99.9579 137.876 99.9388 137.862C99.9198 137.847 99.9007 137.833 99.8816 137.823C99.8243 137.785 95.3568 135.551 90.6984 133.432C81.0811 129.043 80.1607 129.404 79.7213 129.575L79.7207 129.576C79.5107 129.671 79.3388 129.824 79.2625 130.034C78.8806 131.027 80.3507 131.981 83.4245 133.852C84.4554 134.482 85.5055 135.131 86.231 135.666L86.2501 135.685C86.2882 135.704 86.3455 135.761 86.2882 135.857C86.2411 135.951 86.1812 135.942 86.1401 135.936C86.1312 135.934 86.1232 135.933 86.1164 135.933C84.6082 135.456 81.6871 134.578 79.0143 133.948C74.4323 132.86 73.2868 133.089 72.924 133.814C72.7331 134.215 72.714 134.635 72.9049 135.055C73.0958 135.475 73.5159 135.914 74.0695 136.334C72.4467 136.029 71.0912 135.933 70.423 136.277C70.0412 136.487 69.8884 136.773 69.8311 136.983C69.4111 138.53 72.2558 140.229 78.4415 143.15C73.4395 141.966 70.8048 141.718 70.4039 143.245C70.3466 143.398 70.3466 143.646 70.5185 143.933C71.263 145.136 76.0742 146.873 80.2552 147.98C78.7852 148.228 77.1433 148.591 75.9787 149.126C75.0432 149.565 74.4705 150.176 74.2413 150.939C73.9347 152.04 74.5142 153.021 74.5953 153.158C74.6 153.166 74.603 153.171 74.6041 153.173C74.6995 153.345 74.8905 153.44 75.0814 153.44C75.1005 153.44 75.1196 153.44 75.1387 153.402L89.4002 151.741C89.4097 151.741 89.4193 151.746 89.4288 151.751C89.4384 151.756 89.4479 151.76 89.4575 151.76C91.4914 152.105 92.8489 152.266 93.2757 152.317L93.3691 152.328C93.3876 152.33 93.4011 152.332 93.4095 152.333L93.6131 152.416C95.279 153.09 102.802 156.133 110.898 160.39C119.298 164.8 130.027 171.425 133.502 177.954C135.373 181.486 135.316 184.426 133.311 186.488C131.23 188.627 127.126 189.696 122.028 189.428C116.51 189.142 110.172 187.328 104.177 184.331C94.345 179.405 85.9446 177.744 80.618 177.229C76.036 176.771 72.9431 177.057 71.7785 177.21L64.9818 154.204C66.6046 151.779 67.5783 149.393 67.8838 147.083C68.4756 142.615 67.8074 137.403 66.1083 133.146C65.02 130.473 63.149 127.189 59.9989 124.822L60.0413 124.617C60.1867 123.916 60.439 122.699 60.6289 121.404C61.1826 117.72 60.7817 116.822 60.3425 116.422C60.1325 116.231 59.8462 116.135 59.5407 116.192C59.0252 116.269 58.1852 116.727 56.3333 119.514C55.7074 120.446 55.167 121.352 54.8389 121.903C54.7566 122.041 54.6877 122.156 54.6341 122.244C50.7012 121.309 45.7946 122.034 40.3726 124.402C35.9641 126.307 32.7802 128.596 32.5197 128.784L32.5068 128.793C32.4877 128.812 32.4686 128.831 32.4304 128.85C31.8958 128.888 31.3422 128.984 30.7885 129.118C26.6838 130.072 22.1209 134.654 19.7726 137.308C16.2597 141.241 13.3387 145.708 12.3268 148.667C11.3722 151.417 11.3531 153.631 12.2504 155.254C12.995 156.591 14.3123 157.469 16.1833 157.908L16.2259 157.918L16.2259 157.918C17.5594 158.227 20.2763 158.857 20.9563 160.084C21.1472 160.428 21.1663 160.81 21.0135 161.268C20.8608 161.707 20.5935 162.28 20.3071 162.891C19.3907 164.857 18.2643 167.32 19.1807 169.248C19.6771 170.318 20.7653 171.043 22.3691 171.444C22.8463 171.558 23.3236 171.616 23.7818 171.616C26.8747 171.616 29.643 169.229 31.724 167.416C32.8695 166.404 34.3205 165.163 34.6641 165.545C35.1987 166.136 35.2942 166.976 35.3705 167.797C35.5233 169.229 35.7142 171.005 38.6734 170.795C42.0145 170.547 46.6919 166.709 48.3911 165.22L50.873 182.613C49.5175 183.09 45.4892 184.732 39.838 189.218C28.4402 198.249 19.4862 211.632 13.9878 221.293C5.37739 236.566 0.69991 255.409 0.0698825 277.289C-0.311953 291.054 0.871736 305.964 3.60186 321.772V321.83C3.60186 321.925 3.62095 322.002 3.65913 322.078C4.40371 326.393 5.28193 330.765 6.25561 335.194C6.25561 335.251 6.25561 335.308 6.2747 335.385L6.3126 335.505C6.56743 336.318 8.06417 341.089 9.67303 345.828C13.333 356.56 14.0428 356.767 14.5011 356.901L14.5032 356.901C14.7705 356.978 15.0569 356.901 15.2669 356.71L15.2675 356.71C15.554 356.442 16.0683 355.962 15.3624 350.887C15.3051 350.391 15.2287 349.914 15.1524 349.436C15.6678 350.334 16.2788 351.346 16.9088 352.376C20.6068 358.4 21.5261 358.619 21.928 358.714L21.9299 358.715C21.9872 358.734 22.0636 358.734 22.1399 358.734C22.3309 358.734 22.4836 358.677 22.6745 358.562C23.61 357.913 23.0754 355.889 21.5481 351.078C21.1663 349.895 20.689 348.405 20.4599 347.432C21.0899 348.291 22.0063 349.742 22.77 350.983C25.9392 356.08 27.9629 359.173 29.4903 358.352C30.4258 357.856 30.2921 356.424 29.013 353.427C28.1157 351.288 26.8174 348.787 25.7674 346.783C29.1848 350.639 31.3613 352.739 32.7931 352.739C33.0032 352.739 33.2132 352.682 33.4041 352.587C33.5568 352.51 33.7668 352.338 33.8432 351.995C34.015 351.269 33.6332 349.551 29.7385 343.117C30.4258 343.365 31.304 343.632 32.3922 343.862C32.8122 343.957 33.175 343.995 33.5186 343.995C35.256 343.995 35.9815 342.945 36.1342 342.258C36.1915 342.029 36.096 341.8 35.9051 341.666L23.4 333.17C23.3809 333.151 23.3618 333.151 23.3427 333.151C22.7155 332.216 22.1911 331.443 21.8284 330.908L21.8236 330.901L21.8229 330.9L21.8212 330.897L21.8194 330.895C21.6016 330.574 21.4431 330.34 21.3572 330.211C21.1281 328.741 18.5125 310.642 21.9299 297.965C24.851 287.159 30.7694 278.148 39.9907 270.53C40.8308 274.73 44.6873 293.765 47.7038 308.198C47.7611 308.465 47.9902 308.656 48.2575 308.656C48.2957 308.656 48.3338 308.656 48.372 308.637C48.6775 308.561 48.8684 308.255 48.8111 307.95C47.2647 300.581 45.5083 292.027 44.0382 284.849C45.8137 284.353 51.2358 282.233 52.8395 274.673C53.0117 273.852 53.0634 272.992 53.1167 272.105C53.2939 269.158 53.4887 265.918 58.1852 262.836C63.34 259.457 61.0299 252.832 60.1707 250.827C64.1227 244.833 65.8792 239.334 67.1774 234.313C67.2538 234.008 67.0628 233.683 66.7574 233.607C66.4328 233.53 66.1273 233.721 66.051 234.027C63.6263 243.363 59.598 254.398 42.2054 267.304C31.094 275.57 24.0873 285.498 20.8035 297.66C19.028 304.227 18.8562 312.207 19.1425 318.66C14.045 320.971 6.69472 321.219 4.69009 321.257C1.99815 305.64 0.833553 290.92 1.23448 277.327C1.84542 256.326 6.21743 238.17 14.1787 223.335C19.0471 224.557 25.6719 220.51 29.8721 213.427C33.2514 207.718 34.1487 201.59 32.5831 197.485C35.0651 194.87 37.6997 192.388 40.4871 190.173C42.2627 188.76 43.8855 187.634 45.2982 186.756C45.7183 187.71 46.7874 189.753 48.8684 191.643C51.0258 193.609 54.615 195.71 60.1707 195.71C61.278 195.71 62.4617 195.633 63.76 195.442C71.3585 194.335 75.9596 189.887 78.4797 186.355C80.7325 183.166 81.7635 180.207 82.069 179.233C82.5081 179.329 82.9472 179.424 83.4054 179.52C89.8011 180.99 99.1943 184.636 107.518 193.552C111.699 198.039 119.432 209.876 124.204 239.01C124.567 241.205 124.892 243.42 125.178 245.635C125.121 245.73 125.102 245.845 125.121 245.959C125.14 246.074 125.197 246.188 125.274 246.265C127.336 262.13 127.641 278.071 125.999 287.579C125.942 287.904 126.152 288.19 126.457 288.247H126.553C126.839 288.247 127.068 288.056 127.126 287.77C128.767 278.205 128.481 262.263 126.438 246.36C128.615 246.016 135.889 244.68 143.888 241.339C149.501 238.991 154.408 236.127 158.436 232.805C163.495 228.643 167.218 223.774 169.471 218.333C173.958 207.508 174.301 196.473 170.483 186.431ZM34.8551 342.315C34.6069 342.64 34.015 343.002 32.6595 342.716C30.3797 342.226 28.9924 341.532 28.7362 341.404L28.7266 341.399C28.5826 341.174 28.4387 340.94 28.2907 340.7C28.1247 340.431 27.9537 340.154 27.772 339.871C26.895 338.493 26.0181 337.149 25.204 335.901L25.0419 335.652L34.8551 342.315ZM26.7979 340.501C24.2396 336.454 21.6049 332.559 20.6885 331.223C15.4765 335.232 11.0854 335.919 8.67983 335.919C8.298 335.919 7.95435 335.9 7.66797 335.881C11.009 346.611 13.5482 353.446 14.5983 355.317C14.6937 353.885 14.2546 350.257 13.491 346.363C13.4337 346.076 13.5864 345.809 13.8537 345.713C14.121 345.618 14.4074 345.733 14.5601 345.981C17.2902 350.945 20.7458 356.443 21.9868 357.436C22.0059 356.386 21.0131 353.216 20.4404 351.422C19.2948 347.814 18.9321 346.496 19.3139 345.885C19.4285 345.694 19.6194 345.58 19.8485 345.561C20.5931 345.484 21.2613 346.401 23.7241 350.353C24.736 351.976 25.8815 353.808 26.8743 355.183C28.1916 356.978 28.7453 357.264 28.9171 357.302C28.9744 357.111 29.0125 356.309 27.7907 353.484C27.0298 351.73 26.0109 349.762 25.1315 348.063L25.1311 348.062L25.1311 348.062L25.1295 348.059L25.1228 348.046C24.9902 347.79 24.8608 347.54 24.736 347.298C24.2587 346.401 23.8578 345.618 23.5714 345.045C23.2087 344.301 22.9223 343.69 23.4187 343.365C23.8955 343.041 24.3342 343.498 24.7919 343.975L24.7933 343.976C25.0072 344.201 25.2543 344.48 25.5347 344.795L25.5348 344.796L25.5359 344.797L25.5371 344.798L25.5377 344.799L25.538 344.799C25.7321 345.018 25.942 345.254 26.1679 345.503C27.3516 346.859 28.8407 348.539 30.2153 349.837C31.7809 351.307 32.4872 351.555 32.7354 351.575C32.6973 351.04 32.0863 348.844 26.7979 340.501ZM9.57787 322.116C13.4344 321.696 16.68 320.951 19.2192 319.882C19.4783 324.879 20.0065 328.764 20.1778 330.023L20.1929 330.135C13.8353 335.137 8.68056 334.85 7.34414 334.659C6.42773 330.516 5.60679 326.412 4.90039 322.383C5.81679 322.364 7.51596 322.307 9.57787 322.116ZM58.9676 124.115C59.674 120.927 59.9604 118.025 59.6358 117.338C58.9867 117.643 57.3066 119.915 55.7793 122.588C55.7888 122.588 55.8032 122.593 55.8175 122.598C55.8318 122.602 55.8461 122.607 55.8557 122.607C57.0012 123.008 58.0321 123.524 58.9676 124.115ZM77.5248 185.667C74.0501 190.555 69.3535 193.457 63.5687 194.297C57.8412 195.137 53.1637 193.972 49.689 190.822C47.6271 188.951 46.6152 186.908 46.2906 186.125C49.2117 184.388 51.1018 183.739 51.5791 183.586C51.5958 183.581 51.6093 183.577 51.6205 183.573C51.6475 183.566 51.661 183.562 51.6745 183.548C51.7509 183.529 51.8082 183.491 51.8654 183.453L51.8845 183.434L51.9036 183.414C52.0564 183.281 52.1327 183.052 52.0754 182.842C52.0754 182.832 52.0707 182.827 52.0659 182.823L52.0621 182.819C52.0609 182.817 52.0597 182.816 52.0588 182.814C52.0573 182.811 52.0564 182.808 52.0564 182.803L49.3453 163.807C49.5744 162.7 49.8799 160.046 48.9253 155.884C48.1998 152.696 46.9207 151.207 45.9852 150.519C45.1451 149.908 44.0187 149.851 43.0832 150.367C39.1694 152.543 37.6803 151.627 37.3175 151.302C36.4966 150.538 36.1338 149.66 36.2293 148.667C36.3438 147.446 37.1839 146.434 37.8903 146.014C38.6539 145.575 39.6849 145.765 40.4104 146.014C40.9259 146.186 41.4795 146.147 41.9759 145.899C42.4532 145.651 42.8159 145.231 42.9878 144.715C43.6942 142.558 43.4842 138.988 42.5105 136.43C42.0332 135.15 40.8877 132.707 38.7876 130.931C37.4703 129.805 36.0002 129.137 34.3965 128.907C37.833 126.712 47.7989 121.023 55.4547 123.695C60.8386 125.586 63.626 130.11 65.0197 133.585C66.6425 137.671 67.2725 142.654 66.7188 146.949C65.7642 154.223 57.5548 160.619 56.6193 161.306C56.4284 161.402 56.3138 161.573 56.2947 161.783V161.841V161.86C56.2947 162.032 56.3902 162.203 56.5429 162.299L68.5134 170.184L70.8235 178.011C70.8999 178.279 71.129 178.431 71.3772 178.431C71.4345 178.431 71.4918 178.431 71.549 178.412C71.5572 178.412 71.5618 178.412 71.566 178.411C71.5716 178.409 71.5762 178.404 71.5872 178.393L71.5872 178.393C72.3318 178.336 75.9211 178.107 80.9231 178.985C80.5985 180.016 79.5867 182.765 77.5248 185.667ZM99.9007 139.083L94.2686 151.436C95.4523 151.913 98.3351 153.097 102.058 154.777L107.957 142.654C104.551 141.129 101.93 139.976 100.528 139.359L99.9007 139.083ZM75.33 151.245C75.4637 150.825 75.8455 150.462 76.4564 150.176C78.8047 149.088 83.5777 148.725 83.6349 148.725C83.9595 148.706 84.1886 148.438 84.1695 148.114C84.1504 147.789 83.8831 147.56 83.5586 147.579H83.5013C83.444 147.522 83.3676 147.503 83.2722 147.484C80.7712 146.968 77.9647 146.167 75.5591 145.288C73.0963 144.391 71.989 143.742 71.6453 143.436C71.8744 143.341 72.5426 143.188 74.3182 143.436C75.9717 143.668 77.9067 144.147 79.5372 144.551L79.8929 144.639C82.3367 145.25 82.6613 145.307 82.9858 145.097C83.1195 145.002 83.234 144.868 83.2531 144.696C83.3295 144.181 82.8522 143.933 82.1267 143.57C81.6742 143.344 81.0714 143.063 80.3759 142.739L80.3758 142.739L79.9884 142.558C78.1365 141.699 75.8646 140.63 73.9936 139.58C71.2635 138.033 70.9771 137.384 70.958 137.27C71.1107 137.174 72.1799 136.773 77.6783 138.396C77.9504 138.476 78.2225 138.562 78.4906 138.646L78.4908 138.647C78.6741 138.705 78.8555 138.762 79.0338 138.816C81.2866 139.714 83.4058 140.344 83.864 140.477C84.1695 140.573 84.475 140.401 84.5704 140.114C84.6659 139.809 84.5132 139.503 84.2268 139.389C84.0643 139.332 83.8482 139.254 83.5872 139.161L83.5863 139.16C82.6204 138.813 81.0399 138.246 79.282 137.69C76.7046 136.659 74.3945 135.494 73.9936 134.578C73.9554 134.501 73.9554 134.425 73.9554 134.387C74.7 134.12 78.6711 134.807 85.7923 137.022C86.4032 137.212 87.0333 136.945 87.3196 136.392C87.606 135.838 87.4724 135.17 86.976 134.788L86.9378 134.75C86.2964 134.269 85.426 133.734 84.5416 133.19C84.373 133.086 84.204 132.983 84.0359 132.879C83.0049 132.249 81.4585 131.294 80.733 130.683C83.1576 131.179 91.3289 134.826 98.8701 138.587L93.1426 151.13L93.0756 151.122C92.4627 151.043 91.2896 150.892 89.7443 150.634C89.6679 150.596 89.5725 150.596 89.477 150.596L75.4064 152.238C75.3109 151.99 75.2155 151.608 75.33 151.245ZM161.72 228.127C164.622 224.996 166.855 221.56 168.402 217.856C172.774 207.317 173.118 196.588 169.395 186.832C166.283 178.622 160.402 171.291 152.842 166.156C141.177 158.232 120.94 148.591 108.988 143.15L103.108 155.273C105.647 156.457 108.511 157.832 111.432 159.378C123.842 165.907 131.593 171.979 134.514 177.42C134.953 178.222 135.278 179.023 135.526 179.787L149.807 184.465C152.403 185.324 152.976 188.684 151.238 191.433C149.883 193.629 147.458 194.755 145.53 194.163L139.573 192.33C138.523 192.006 137.397 192.559 136.958 193.59C136.5 194.698 135.259 195.156 134.17 194.679L124.968 190.593C124.548 190.612 124.109 190.631 123.651 190.631C117.809 190.631 110.649 188.837 103.681 185.362C98.0869 182.555 92.9322 180.818 88.4647 179.749C94.4404 181.811 101.733 185.648 108.358 192.75C111.203 195.805 115.67 202.22 119.775 214.954C121.57 214.362 127.106 213.026 131.402 216.691C133.513 218.493 134.08 220.422 134.532 221.962C135.197 224.224 135.615 225.644 140.318 224.576C148.203 222.801 150.761 224.824 152.021 227.383C152.631 228.593 154.47 228.167 156.425 227.714C158.509 227.232 160.725 226.718 161.72 228.127Z" fill="#1A1A1A"/>
<path d="M158.761 215.603C158.646 215.603 158.531 215.565 158.436 215.508C158.169 215.336 158.111 214.973 158.283 214.706C166.073 203.327 162.808 188.837 162.789 188.684C162.713 188.378 162.903 188.073 163.209 187.996C163.514 187.92 163.82 188.111 163.896 188.417C163.934 188.569 164.774 192.235 164.622 197.409C164.488 202.182 163.438 209.188 159.219 215.336C159.123 215.508 158.951 215.603 158.761 215.603Z" fill="#C8C8C8"/>
<path d="M27.4667 135.189C27.3139 135.189 27.1612 135.131 27.0467 134.998C26.8367 134.769 26.8557 134.406 27.0848 134.196C29.605 131.886 32.2014 131.504 33.9388 131.561C35.8289 131.638 37.1271 132.268 37.1844 132.287C37.4708 132.42 37.5853 132.764 37.4517 133.05C37.318 133.337 36.9744 133.451 36.688 133.318C36.4971 133.222 32.106 131.16 27.8676 135.036C27.7531 135.151 27.6194 135.189 27.4667 135.189Z" fill="#C8C8C8"/>
</svg>
