<svg width="52" height="52" viewBox="0 0 52 52" fill="none" xmlns="http://www.w3.org/2000/svg">
<path d="M25.9746 50.542C39.7785 50.542 50.9688 39.4516 50.9688 25.771C50.9688 12.0904 39.7785 1 25.9746 1C12.1707 1 0.980469 12.0904 0.980469 25.771C0.980469 39.4516 12.1707 50.542 25.9746 50.542Z" fill="white" stroke="#1A1A1A"/>
<path d="M33.2433 21.1563C32.7077 21.4237 32.1721 21.5129 31.5473 21.602C32.1721 21.2455 32.6185 20.7107 32.797 19.9976C32.2614 20.3541 31.6365 20.5324 30.9224 20.7107C30.3868 20.1759 29.5834 19.8193 28.7801 19.8193C27.2626 19.8193 25.9236 21.1563 25.9236 22.7607C25.9236 23.0281 25.9236 23.2064 26.0129 23.3846C23.6027 23.2955 21.3711 22.1368 19.9429 20.3541C19.6751 20.7998 19.5858 21.2455 19.5858 21.8694C19.5858 22.8498 20.1214 23.7412 20.9248 24.276C20.4784 24.276 20.0321 24.0977 19.5858 23.9194V23.9194C19.5858 25.3455 20.5677 26.5043 21.9067 26.7717C21.6389 26.8608 21.3711 26.8608 21.1033 26.8608C20.9248 26.8608 20.7462 26.8608 20.5677 26.7717C20.9248 27.9304 21.9959 28.8217 23.3349 28.8217C22.353 29.6239 21.1033 30.0696 19.6751 30.0696C19.4073 30.0696 19.2287 30.0696 18.9609 30.0696C20.2999 30.8717 21.8174 31.4065 23.4242 31.4065C28.7801 31.4065 31.7258 26.9499 31.7258 23.1172C31.7258 23.0281 31.7258 22.8498 31.7258 22.7607C32.3507 22.315 32.8862 21.7802 33.2433 21.1563Z" fill="#1A1A1A"/>
</svg>
