<svg width="92" height="20" viewBox="0 0 92 20" fill="none" xmlns="http://www.w3.org/2000/svg">
<g clip-path="url(#clip0_599_5484)">
<path d="M67.6455 19.5921H71.6199V12.3315C71.6199 10.6747 72.5885 9.50283 74.0145 9.50283C75.4405 9.50283 76.104 10.4714 76.104 11.8466V19.5921H80.0785V11.0827C80.0785 8.20321 78.3461 6.16584 75.5435 6.16584C73.7603 6.16584 72.5115 6.92968 71.5691 8.33097H71.4921V6.54776H67.6455V19.5921ZM59.8491 6.19057C55.696 6.19057 52.9196 9.17175 52.9196 13.0954C52.9196 17.019 55.696 20.0002 59.8491 20.0002C64.0021 20.0002 66.7786 16.9942 66.7786 13.0954C66.7786 9.19648 64.0021 6.19057 59.8491 6.19057ZM59.823 17.0698C57.9381 17.0698 56.9435 15.4899 56.9435 13.0954C56.9435 10.7008 57.9367 9.12091 59.823 9.12091C61.7092 9.12091 62.7533 10.6747 62.7533 13.0954C62.7533 15.516 61.7092 17.0698 59.823 17.0698ZM41.6062 19.5921H52.7657V16.4585H46.4475V16.3815L52.4854 9.6045V6.54776H41.6062V9.68143H47.7211V9.75836L41.6062 16.5862V19.5921ZM36.5107 19.5921H40.5113V6.54776H36.5107V19.5921ZM27.2375 19.5921H31.2119V13.605C31.2119 10.8794 32.8427 9.68143 35.3389 10.0125H35.4158V6.57249C35.2125 6.49555 34.9831 6.47082 34.6011 6.47082C33.0474 6.47082 32.0019 7.18384 31.1103 8.71289H31.0333V6.54776H27.2375V19.5921ZM19.9261 17.0959C18.1676 17.0959 17.0987 15.9488 16.8941 14.1917H26.2951C26.3212 11.3891 25.582 9.14702 24.0269 7.74573C22.932 6.72636 21.4798 6.16584 19.6444 6.16584C15.7208 6.16584 12.9952 9.14702 12.9952 13.0445C12.9952 16.942 15.5944 19.9741 19.9 19.9741C21.5307 19.9741 22.8303 19.5413 23.9005 18.8022C25.0476 18.0122 25.8623 16.8665 26.0917 15.7193H22.2698C21.8879 16.5849 21.0979 17.0959 19.9261 17.0959ZM19.7227 9.01925C21.124 9.01925 22.0926 10.0647 22.2451 11.5924H16.9202C17.2265 10.0386 18.0659 9.01925 19.7227 9.01925ZM5.04765 19.5921H9.22542L13.7604 6.54776H9.75984L7.21279 14.9294H7.16195L4.6149 6.54776H0.512695L5.04765 19.5921ZM36.5121 1.91113H40.5127V5.45283H36.5121V1.91113Z" fill="#777777"/>
<path d="M80.0127 6.5476H82.0473L84.0833 10.9122L89.1719 0H91.2079L85.1013 13.0952H83.0653L80.0127 6.5476Z" fill="#777777"/>
</g>
<defs>
<clipPath id="clip0_599_5484">
<rect width="90.6951" height="20" fill="white" transform="translate(0.512695)"/>
</clipPath>
</defs>
</svg>
